<svg width="100" height="100" viewBox="0 0 100 100" fill="none" xmlns="http://www.w3.org/2000/svg">
<circle cx="50" cy="50" r="49.5" stroke="#FFE000"/>
<path d="M99.5 50.9718C99.5 51.1254 99.3656 51.4209 98.7217 51.8181C98.1107 52.1949 97.1771 52.5763 95.9278 52.9491C93.4366 53.6925 89.8071 54.3683 85.2927 54.9381C76.2711 56.0767 63.793 56.7825 50 56.7825C36.207 56.7825 23.7289 56.0767 14.7073 54.9381C10.1929 54.3683 6.56336 53.6925 4.07222 52.9491C2.82294 52.5763 1.8893 52.1949 1.2783 51.8181C0.634424 51.4209 0.5 51.1254 0.5 50.9718C0.5 50.8183 0.634424 50.5227 1.2783 50.1256C1.8893 49.7487 2.82294 49.3673 4.07222 48.9945C6.56336 48.2512 10.1929 47.5753 14.7073 47.0056C23.7289 45.8669 36.207 45.1611 50 45.1611C63.793 45.1611 76.2711 45.8669 85.2927 47.0056C89.8071 47.5753 93.4366 48.2512 95.9278 48.9945C97.1771 49.3673 98.1107 49.7487 98.7217 50.1256C99.3656 50.5227 99.5 50.8183 99.5 50.9718Z" stroke="#FFE000"/>
<path d="M97.5579 64.0764C97.5579 64.2905 97.4001 64.6181 96.7973 65.0347C96.2136 65.438 95.3207 65.847 94.1227 66.2475C91.7334 67.0464 88.2493 67.7735 83.912 68.3869C75.2448 69.6126 63.2547 70.3725 49.9997 70.3725C36.7446 70.3725 24.7546 69.6126 16.0874 68.3869C11.75 67.7735 8.26587 67.0464 5.87661 66.2475C4.67865 65.847 3.78568 65.438 3.20204 65.0347C2.59918 64.6181 2.44141 64.2905 2.44141 64.0764C2.44141 63.8623 2.59918 63.5347 3.20204 63.1181C3.78568 62.7147 4.67865 62.3058 5.87661 61.9052C8.26587 61.1064 11.75 60.3792 16.0874 59.7659C24.7546 58.5402 36.7446 57.7803 49.9997 57.7803C63.2547 57.7803 75.2448 58.5402 83.912 59.7659C88.2493 60.3792 91.7334 61.1064 94.1227 61.9052C95.3207 62.3058 96.2136 62.7147 96.7973 63.1181C97.4001 63.5347 97.5579 63.8623 97.5579 64.0764Z" stroke="#FFE000"/>
<path d="M2.44209 37.3796C2.44209 37.1162 2.62 36.7552 3.216 36.3139C3.79914 35.8821 4.69085 35.4446 5.88737 35.016C8.27439 34.1609 11.7565 33.3821 16.0929 32.7251C24.7581 31.4122 36.7465 30.598 50.0003 30.598C63.2542 30.598 75.2426 31.4122 83.9078 32.7251C88.2442 33.3821 91.7263 34.1609 94.1133 35.016C95.3098 35.4446 96.2015 35.8822 96.7847 36.3139C97.3807 36.7552 97.5586 37.1162 97.5586 37.3796C97.5586 37.643 97.3807 38.0039 96.7847 38.4452C96.2015 38.877 95.3098 39.3146 94.1133 39.7432C91.7263 40.5983 88.2442 41.377 83.9078 42.0341C75.2426 43.347 63.2542 44.1611 50.0003 44.1611C36.7465 44.1611 24.7581 43.347 16.0929 42.0341C11.7565 41.377 8.27439 40.5983 5.88737 39.7432C4.69085 39.3146 3.79914 38.877 3.216 38.4452C2.62 38.0039 2.44209 37.643 2.44209 37.3796Z" stroke="#FFE000"/>
<path d="M90.7665 77.6692C90.7665 77.9174 90.614 78.2474 90.1147 78.6493C89.6222 79.0457 88.8652 79.4503 87.8424 79.8486C85.802 80.6432 82.8202 81.3686 79.0998 81.9814C71.6671 83.2056 61.38 83.9653 50.0043 83.9653C38.6287 83.9653 28.3416 83.2056 20.9088 81.9814C17.1885 81.3686 14.2066 80.6432 12.1662 79.8486C11.1434 79.4503 10.3865 79.0457 9.894 78.6493C9.3946 78.2474 9.24219 77.9174 9.24219 77.6692C9.24219 77.4209 9.3946 77.091 9.894 76.689C10.3865 76.2926 11.1434 75.888 12.1662 75.4897C14.2066 74.6952 17.1885 73.9697 20.9088 73.3569C28.3416 72.1327 38.6287 71.373 50.0043 71.373C61.38 71.373 71.6671 72.1327 79.0998 73.3569C82.8202 73.9697 85.802 74.6952 87.8424 75.4897C88.8652 75.888 89.6222 76.2926 90.1147 76.689C90.614 77.091 90.7665 77.4209 90.7665 77.6692Z" stroke="#FFE000"/>
<path d="M9.23354 23.787C9.23354 23.5885 9.3665 23.2928 9.87117 22.9156C10.3637 22.5475 11.1218 22.1712 12.1461 21.8008C14.189 21.0621 17.1731 20.3881 20.8945 19.8189C28.3296 18.6818 38.6186 17.9763 49.9957 17.9763C61.3727 17.9763 71.6618 18.6818 79.0968 19.8189C82.8182 20.3881 85.8024 21.0621 87.8452 21.8008C88.8696 22.1712 89.6276 22.5475 90.1202 22.9157C90.6248 23.2928 90.7578 23.5885 90.7578 23.787C90.7578 23.9855 90.6248 24.2811 90.1202 24.6583C89.6276 25.0265 88.8696 25.4028 87.8452 25.7732C85.8024 26.5118 82.8182 27.1859 79.0968 27.755C71.6618 28.8922 61.3727 29.5977 49.9957 29.5977C38.6186 29.5977 28.3296 28.8922 20.8945 27.755C17.1731 27.1859 14.189 26.5118 12.1461 25.7732C11.1218 25.4028 10.3637 25.0264 9.87117 24.6583C9.3665 24.2811 9.23354 23.9855 9.23354 23.787Z" stroke="#FFE000"/>
<path d="M75.2297 90.7765C75.2297 91.3572 74.7363 92.0585 73.4571 92.8004C72.2141 93.5212 70.3822 94.1873 68.075 94.7532C63.4684 95.8832 57.0782 96.5872 50.0016 96.5872C42.925 96.5872 36.5348 95.8832 31.9281 94.7532C29.6209 94.1873 27.7891 93.5212 26.5461 92.8004C25.2669 92.0585 24.7734 91.3572 24.7734 90.7765C24.7734 90.1958 25.2669 89.4945 26.5461 88.7526C27.7891 88.0318 29.6209 87.3657 31.9281 86.7998C36.5348 85.6698 42.925 84.9658 50.0016 84.9658C57.0782 84.9658 63.4684 85.6698 68.075 86.7998C70.3822 87.3657 72.2141 88.0318 73.4571 88.7526C74.7363 89.4945 75.2297 90.1958 75.2297 90.7765Z" stroke="#FFE000"/>
<path d="M21.8591 10.6795C21.8591 10.0399 22.422 9.27378 23.8544 8.47018C25.2455 7.68975 27.2917 6.97057 29.8632 6.36038C34.9983 5.14187 42.118 4.38335 49.9998 4.38336C57.8817 4.38336 65.0014 5.14188 70.1365 6.36038C72.708 6.97058 74.7542 7.68976 76.1453 8.47018C77.5777 9.27379 78.1406 10.0399 78.1406 10.6795C78.1406 11.319 77.5777 12.0852 76.1453 12.8888C74.7542 13.6692 72.708 14.3884 70.1365 14.9986C65.0014 16.2171 57.8817 16.9756 49.9998 16.9756C42.118 16.9756 34.9983 16.2171 29.8632 14.9986C27.2917 14.3884 25.2455 13.6692 23.8544 12.8888C22.422 12.0852 21.8591 11.319 21.8591 10.6795Z" stroke="#FFE000"/>
</svg>
