<svg width="28" height="28" viewBox="0 0 28 28" fill="none" xmlns="http://www.w3.org/2000/svg">
<path d="M14 23.3333L8.70666 26.5066C8.29191 26.7558 7.81718 26.8874 7.33333 26.8874C6.84948 26.8874 6.37475 26.7558 5.96 26.5066L1.96 24.1066C1.56634 23.8701 1.24044 23.5359 1.01385 23.1365C0.78726 22.737 0.667671 22.2858 0.666664 21.8266L0.666664 17.5066C0.667671 17.0473 0.78726 16.5961 1.01385 16.1967C1.24044 15.7973 1.56634 15.4631 1.96 15.2266L7.33333 11.9999M14 23.3333V15.9999M14 23.3333L19.2933 26.5066C19.7081 26.7558 20.1828 26.8874 20.6667 26.8874C21.1505 26.8874 21.6252 26.7558 22.04 26.5066L26.04 24.1066C26.4337 23.8701 26.7596 23.5359 26.9861 23.1365C27.2127 22.737 27.3323 22.2858 27.3333 21.8266V17.5066C27.3323 17.0473 27.2127 16.5961 26.9861 16.1967C26.7596 15.7973 26.4337 15.4631 26.04 15.2266L20.6667 11.9999M14 15.9999L7.33333 11.9999M14 15.9999L7.33334 19.9998M14 15.9999L20.6667 11.9999M14 15.9999L20.6667 19.9999M14 15.9999L13.9997 8.66645M7.33333 11.9999V6.17337C7.33434 5.71414 7.45393 5.26294 7.68051 4.86349C7.9071 4.46404 8.23301 4.12988 8.62666 3.89337L12.6267 1.49337C13.0414 1.24419 13.5161 1.11255 14 1.11255C14.4838 1.11255 14.9586 1.24419 15.3733 1.49337L19.3733 3.89337C19.767 4.12988 20.0929 4.46404 20.3195 4.86349C20.5461 5.26294 20.6657 5.71414 20.6667 6.17337V11.9999M7.33334 19.9998L1.01334 16.1998M7.33334 19.9998L7.33333 26.8933M20.6667 19.9999L26.9867 16.1998M20.6667 19.9999V26.8933M13.9997 8.66645L7.67969 4.86645M13.9997 8.66645L20.32 4.86645" stroke="#FEFCE8" stroke-width="1.3" stroke-linecap="round" stroke-linejoin="round"/>
</svg>
