<svg width="364" height="384" viewBox="0 0 364 384" fill="none" xmlns="http://www.w3.org/2000/svg">
<g opacity="0.8">
<path d="M0 170.945C0 156.825 11.4466 145.378 25.5666 145.378H338.433C352.553 145.378 364 156.825 364 170.945C364 185.065 352.553 196.512 338.433 196.512H25.5666C11.4466 196.512 0 185.065 0 170.945Z" fill="#080808"/>
<path d="M8.25 170.878C8.25 161.352 15.9731 153.628 25.5 153.628H88.5C98.0269 153.628 105.75 161.352 105.75 170.878C105.75 180.405 98.0269 188.128 88.5 188.128H25.5C15.9731 188.128 8.25 180.405 8.25 170.878Z" fill="black"/>
<path d="M8.25 170.878C8.25 161.352 15.9731 153.628 25.5 153.628H88.5C98.0269 153.628 105.75 161.352 105.75 170.878C105.75 180.405 98.0269 188.128 88.5 188.128H25.5C15.9731 188.128 8.25 180.405 8.25 170.878Z" stroke="url(#paint0_linear_462_5846)" stroke-width="0.5"/>
<path d="M8.25 170.878C8.25 161.352 15.9731 153.628 25.5 153.628H88.5C98.0269 153.628 105.75 161.352 105.75 170.878C105.75 180.405 98.0269 188.128 88.5 188.128H25.5C15.9731 188.128 8.25 180.405 8.25 170.878Z" stroke="url(#paint1_linear_462_5846)" stroke-width="0.5"/>
<path d="M32.625 165.337C32.625 166.649 29.435 167.712 25.5 167.712C21.565 167.712 18.375 166.649 18.375 165.337M32.625 165.337C32.625 164.025 29.435 162.962 25.5 162.962C21.565 162.962 18.375 164.025 18.375 165.337M32.625 165.337V167.712M18.375 165.337L18.3751 176.42C18.3706 176.801 18.6409 177.176 19.163 177.515C19.6852 177.854 20.4439 178.146 21.3752 178.366C22.3065 178.586 23.3831 178.729 24.5144 178.782C25.6456 178.834 26.7982 178.795 27.8751 178.669M32.625 170.879L30.25 174.837H33.4167L31.0417 178.795M18.375 170.879C18.3761 171.249 18.6368 171.614 19.1362 171.944C19.6355 172.275 20.3598 172.562 21.2511 172.783C22.1424 173.003 23.1762 173.152 24.2699 173.215C25.3636 173.279 26.487 173.257 27.5504 173.151" stroke="white" stroke-linecap="round" stroke-linejoin="round"/>
<path d="M50.2756 166.151V174.878H48.9588V166.151H50.2756ZM53.3651 170.992V174.878H52.0909V168.333H53.3139V169.398H53.3949C53.5455 169.052 53.7813 168.773 54.1023 168.563C54.4261 168.353 54.8338 168.248 55.3253 168.248C55.7713 168.248 56.1619 168.341 56.4972 168.529C56.8324 168.714 57.0923 168.989 57.277 169.356C57.4616 169.722 57.554 170.175 57.554 170.715V174.878H56.2798V170.868C56.2798 170.394 56.1563 170.023 55.9091 169.756C55.6619 169.486 55.3224 169.351 54.8906 169.351C54.5952 169.351 54.3324 169.415 54.1023 169.543C53.875 169.671 53.6946 169.859 53.5611 170.106C53.4304 170.35 53.3651 170.645 53.3651 170.992ZM61.7131 175.006C61.1847 175.006 60.7131 174.871 60.2983 174.601C59.8864 174.329 59.5625 173.941 59.3267 173.438C59.0938 172.932 58.9773 172.326 58.9773 171.618C58.9773 170.911 59.0952 170.306 59.331 169.803C59.5696 169.3 59.8963 168.915 60.3111 168.648C60.7259 168.381 61.196 168.248 61.7216 168.248C62.1278 168.248 62.4545 168.316 62.7017 168.452C62.9517 168.586 63.1449 168.742 63.2812 168.921C63.4205 169.1 63.5284 169.258 63.6051 169.394H63.6818V166.151H64.956V174.878H63.7116V173.86H63.6051C63.5284 173.999 63.4176 174.158 63.2727 174.337C63.1307 174.516 62.9347 174.672 62.6847 174.806C62.4347 174.939 62.1108 175.006 61.7131 175.006ZM61.9943 173.92C62.3608 173.92 62.6705 173.823 62.9233 173.63C63.179 173.434 63.3722 173.163 63.5028 172.816C63.6364 172.469 63.7031 172.066 63.7031 171.606C63.7031 171.151 63.6378 170.753 63.5071 170.413C63.3764 170.072 63.1847 169.806 62.9318 169.616C62.679 169.425 62.3665 169.33 61.9943 169.33C61.6108 169.33 61.2912 169.43 61.0355 169.628C60.7798 169.827 60.5866 170.099 60.456 170.442C60.3281 170.786 60.2642 171.174 60.2642 171.606C60.2642 172.043 60.3295 172.437 60.4602 172.786C60.5909 173.136 60.7841 173.413 61.0398 173.617C61.2983 173.819 61.6165 173.92 61.9943 173.92ZM69.5955 175.011C68.9506 175.011 68.3952 174.873 67.9293 174.597C67.4663 174.319 67.1083 173.928 66.8555 173.425C66.6055 172.92 66.4805 172.327 66.4805 171.648C66.4805 170.978 66.6055 170.387 66.8555 169.876C67.1083 169.364 67.4606 168.965 67.9123 168.678C68.3668 168.391 68.8981 168.248 69.506 168.248C69.8754 168.248 70.2333 168.309 70.5799 168.431C70.9265 168.553 71.2376 168.745 71.5131 169.006C71.7887 169.268 72.006 169.607 72.1651 170.025C72.3242 170.439 72.4038 170.944 72.4038 171.538V171.989H67.2006V171.035H71.1552C71.1552 170.699 71.087 170.403 70.9506 170.144C70.8143 169.883 70.6225 169.677 70.3754 169.526C70.131 169.376 69.8441 169.3 69.5146 169.3C69.1566 169.3 68.8441 169.388 68.5771 169.564C68.3129 169.738 68.1083 169.965 67.9634 170.246C67.8214 170.525 67.7504 170.827 67.7504 171.154V171.9C67.7504 172.337 67.8271 172.709 67.9805 173.016C68.1367 173.323 68.354 173.557 68.6325 173.719C68.9109 173.878 69.2362 173.958 69.6083 173.958C69.8498 173.958 70.07 173.924 70.2688 173.856C70.4677 173.785 70.6396 173.68 70.7844 173.54C70.9293 173.401 71.0401 173.229 71.1168 173.025L72.3228 173.242C72.2262 173.597 72.0529 173.908 71.8029 174.175C71.5558 174.439 71.2447 174.645 70.8697 174.793C70.4975 174.938 70.0728 175.011 69.5955 175.011ZM74.6708 168.333L76.1154 170.881L77.5728 168.333H78.9663L76.9251 171.606L78.9833 174.878H77.5898L76.1154 172.432L74.6452 174.878H73.2475L75.2844 171.606L73.2731 168.333H74.6708ZM82.8377 175.011C82.1928 175.011 81.6374 174.873 81.1715 174.597C80.7085 174.319 80.3505 173.928 80.0977 173.425C79.8477 172.92 79.7227 172.327 79.7227 171.648C79.7227 170.978 79.8477 170.387 80.0977 169.876C80.3505 169.364 80.7028 168.965 81.1545 168.678C81.609 168.391 82.1403 168.248 82.7482 168.248C83.1175 168.248 83.4755 168.309 83.8221 168.431C84.1687 168.553 84.4798 168.745 84.7553 169.006C85.0309 169.268 85.2482 169.607 85.4073 170.025C85.5664 170.439 85.646 170.944 85.646 171.538V171.989H80.4428V171.035H84.3974C84.3974 170.699 84.3292 170.403 84.1928 170.144C84.0565 169.883 83.8647 169.677 83.6175 169.526C83.3732 169.376 83.0863 169.3 82.7567 169.3C82.3988 169.3 82.0863 169.388 81.8192 169.564C81.555 169.738 81.3505 169.965 81.2056 170.246C81.0636 170.525 80.9925 170.827 80.9925 171.154V171.9C80.9925 172.337 81.0692 172.709 81.2227 173.016C81.3789 173.323 81.5962 173.557 81.8746 173.719C82.1531 173.878 82.4783 173.958 82.8505 173.958C83.092 173.958 83.3121 173.924 83.511 173.856C83.7099 173.785 83.8817 173.68 84.0266 173.54C84.1715 173.401 84.2823 173.229 84.359 173.025L85.565 173.242C85.4684 173.597 85.2951 173.908 85.0451 174.175C84.7979 174.439 84.4869 174.645 84.1119 174.793C83.7397 174.938 83.315 175.011 82.8377 175.011ZM87.0597 174.878V168.333H88.2912V169.373H88.3594C88.4787 169.02 88.6889 168.743 88.9901 168.542C89.294 168.337 89.6378 168.235 90.0213 168.235C90.1009 168.235 90.1946 168.238 90.3026 168.243C90.4134 168.249 90.5 168.256 90.5625 168.265V169.484C90.5114 169.469 90.4205 169.454 90.2898 169.437C90.1591 169.417 90.0284 169.407 89.8977 169.407C89.5966 169.407 89.3281 169.471 89.0923 169.599C88.8594 169.724 88.6747 169.898 88.5384 170.123C88.402 170.344 88.3338 170.597 88.3338 170.881V174.878H87.0597ZM96.57 169.931L95.4151 170.136C95.3668 169.988 95.2901 169.847 95.185 169.714C95.0827 169.58 94.9435 169.471 94.7674 169.386C94.5913 169.3 94.3711 169.258 94.1069 169.258C93.7461 169.258 93.445 169.339 93.2035 169.501C92.962 169.66 92.8413 169.866 92.8413 170.118C92.8413 170.337 92.9222 170.513 93.0842 170.647C93.2461 170.78 93.5075 170.89 93.8683 170.975L94.908 171.214C95.5103 171.353 95.9592 171.567 96.2546 171.857C96.5501 172.147 96.6978 172.523 96.6978 172.986C96.6978 173.378 96.5842 173.728 96.3569 174.035C96.1325 174.339 95.8185 174.577 95.4151 174.751C95.0146 174.924 94.5501 175.011 94.0217 175.011C93.2887 175.011 92.6907 174.854 92.2276 174.542C91.7646 174.226 91.4805 173.779 91.3754 173.199L92.6069 173.012C92.6836 173.333 92.8413 173.576 93.0799 173.741C93.3185 173.903 93.6296 173.984 94.0131 173.984C94.4308 173.984 94.7646 173.897 95.0146 173.724C95.2646 173.547 95.3896 173.333 95.3896 173.08C95.3896 172.876 95.3129 172.704 95.1594 172.564C95.0089 172.425 94.7773 172.32 94.4648 172.249L93.3569 172.006C92.7461 171.867 92.2944 171.645 92.0018 171.341C91.712 171.038 91.5671 170.653 91.5671 170.187C91.5671 169.8 91.6751 169.462 91.891 169.172C92.1069 168.883 92.4052 168.657 92.7859 168.495C93.1665 168.33 93.6026 168.248 94.0941 168.248C94.8015 168.248 95.3583 168.401 95.7646 168.708C96.1708 169.012 96.4393 169.42 96.57 169.931Z" fill="white"/>
<path d="M116.25 170.878C116.25 161.352 123.973 153.628 133.5 153.628H189.5C199.027 153.628 206.75 161.352 206.75 170.878C206.75 180.405 199.027 188.128 189.5 188.128H133.5C123.973 188.128 116.25 180.405 116.25 170.878Z" fill="black"/>
<path d="M116.25 170.878C116.25 161.352 123.973 153.628 133.5 153.628H189.5C199.027 153.628 206.75 161.352 206.75 170.878C206.75 180.405 199.027 188.128 189.5 188.128H133.5C123.973 188.128 116.25 180.405 116.25 170.878Z" stroke="url(#paint2_linear_462_5846)" stroke-width="0.5"/>
<path d="M116.25 170.878C116.25 161.352 123.973 153.628 133.5 153.628H189.5C199.027 153.628 206.75 161.352 206.75 170.878C206.75 180.405 199.027 188.128 189.5 188.128H133.5C123.973 188.128 116.25 180.405 116.25 170.878Z" stroke="url(#paint3_linear_462_5846)" stroke-width="0.5"/>
<path d="M131.996 163.106C132.989 162.913 134.011 162.913 135.004 163.106M135.004 178.651C134.011 178.843 132.989 178.843 131.996 178.651M137.94 164.324C138.781 164.893 139.504 165.619 140.07 166.462M125.727 172.383C125.535 171.389 125.535 170.368 125.727 169.374M140.054 175.319C139.485 176.159 138.759 176.882 137.917 177.448M141.272 169.374C141.465 170.368 141.465 171.389 141.272 172.383M126.946 166.438C127.515 165.597 128.241 164.874 129.083 164.308M129.059 177.433C128.219 176.863 127.496 176.138 126.93 175.295" stroke="white" stroke-linecap="round" stroke-linejoin="round"/>
<path d="M156.959 174.878V166.151H160.07C160.746 166.151 161.307 166.268 161.753 166.501C162.202 166.734 162.537 167.056 162.759 167.468C162.98 167.877 163.091 168.35 163.091 168.887C163.091 169.421 162.979 169.891 162.754 170.297C162.533 170.701 162.197 171.015 161.749 171.239C161.303 171.464 160.741 171.576 160.065 171.576H157.709V170.442H159.946C160.372 170.442 160.719 170.381 160.986 170.259C161.256 170.137 161.453 169.959 161.578 169.726C161.703 169.493 161.766 169.214 161.766 168.887C161.766 168.557 161.702 168.272 161.574 168.03C161.449 167.789 161.251 167.604 160.982 167.476C160.714 167.346 160.364 167.28 159.929 167.28H158.276V174.878H156.959ZM161.267 170.941L163.423 174.878H161.923L159.81 170.941H161.267ZM167.33 175.011C166.685 175.011 166.13 174.873 165.664 174.597C165.201 174.319 164.843 173.928 164.59 173.425C164.34 172.92 164.215 172.327 164.215 171.648C164.215 170.978 164.34 170.387 164.59 169.876C164.843 169.364 165.195 168.965 165.647 168.678C166.101 168.391 166.632 168.248 167.24 168.248C167.61 168.248 167.968 168.309 168.314 168.431C168.661 168.553 168.972 168.745 169.248 169.006C169.523 169.268 169.74 169.607 169.9 170.025C170.059 170.439 170.138 170.944 170.138 171.538V171.989H164.935V171.035H168.89C168.89 170.699 168.821 170.403 168.685 170.144C168.549 169.883 168.357 169.677 168.11 169.526C167.865 169.376 167.578 169.3 167.249 169.3C166.891 169.3 166.578 169.388 166.311 169.564C166.047 169.738 165.843 169.965 165.698 170.246C165.556 170.525 165.485 170.827 165.485 171.154V171.9C165.485 172.337 165.561 172.709 165.715 173.016C165.871 173.323 166.088 173.557 166.367 173.719C166.645 173.878 166.971 173.958 167.343 173.958C167.584 173.958 167.804 173.924 168.003 173.856C168.202 173.785 168.374 173.68 168.519 173.54C168.664 173.401 168.775 173.229 168.851 173.025L170.057 173.242C169.961 173.597 169.787 173.908 169.537 174.175C169.29 174.439 168.979 174.645 168.604 174.793C168.232 174.938 167.807 175.011 167.33 175.011ZM172.826 166.151V174.878H171.552V166.151H172.826ZM176.445 175.023C176.03 175.023 175.655 174.947 175.32 174.793C174.985 174.637 174.719 174.411 174.523 174.116C174.33 173.82 174.233 173.458 174.233 173.029C174.233 172.66 174.304 172.356 174.446 172.117C174.588 171.878 174.78 171.689 175.022 171.55C175.263 171.411 175.533 171.306 175.831 171.235C176.13 171.164 176.434 171.11 176.743 171.073C177.135 171.028 177.453 170.991 177.698 170.962C177.942 170.931 178.12 170.881 178.23 170.813C178.341 170.745 178.397 170.634 178.397 170.481V170.451C178.397 170.079 178.292 169.79 178.081 169.586C177.874 169.381 177.564 169.279 177.152 169.279C176.723 169.279 176.385 169.374 176.138 169.564C175.894 169.752 175.725 169.961 175.631 170.191L174.434 169.918C174.576 169.52 174.783 169.199 175.056 168.955C175.331 168.708 175.648 168.529 176.006 168.418C176.364 168.305 176.74 168.248 177.135 168.248C177.397 168.248 177.674 168.279 177.966 168.341C178.262 168.401 178.537 168.512 178.793 168.674C179.051 168.836 179.263 169.067 179.428 169.368C179.593 169.667 179.675 170.055 179.675 170.532V174.878H178.431V173.984H178.38C178.297 174.148 178.174 174.31 178.009 174.469C177.844 174.628 177.632 174.761 177.374 174.866C177.115 174.971 176.806 175.023 176.445 175.023ZM176.722 174.001C177.074 174.001 177.375 173.931 177.625 173.792C177.878 173.653 178.07 173.471 178.201 173.246C178.334 173.019 178.401 172.776 178.401 172.518V171.674C178.355 171.719 178.267 171.762 178.137 171.802C178.009 171.839 177.863 171.871 177.698 171.9C177.533 171.925 177.373 171.949 177.216 171.972C177.06 171.992 176.929 172.009 176.824 172.023C176.577 172.055 176.351 172.107 176.147 172.181C175.945 172.255 175.783 172.361 175.661 172.501C175.542 172.637 175.482 172.819 175.482 173.046C175.482 173.361 175.598 173.6 175.831 173.762C176.064 173.921 176.361 174.001 176.722 174.001ZM181.943 177.333C181.753 177.333 181.58 177.317 181.423 177.286C181.267 177.258 181.151 177.226 181.074 177.192L181.381 176.148C181.614 176.211 181.821 176.238 182.003 176.229C182.185 176.221 182.345 176.153 182.484 176.025C182.626 175.897 182.751 175.688 182.859 175.398L183.017 174.964L180.622 168.333H181.986L183.643 173.413H183.712L185.369 168.333H186.737L184.04 175.752C183.915 176.093 183.756 176.381 183.562 176.617C183.369 176.856 183.139 177.035 182.872 177.154C182.605 177.273 182.295 177.333 181.943 177.333ZM190.533 175.011C189.888 175.011 189.333 174.873 188.867 174.597C188.404 174.319 188.046 173.928 187.793 173.425C187.543 172.92 187.418 172.327 187.418 171.648C187.418 170.978 187.543 170.387 187.793 169.876C188.046 169.364 188.398 168.965 188.85 168.678C189.304 168.391 189.836 168.248 190.444 168.248C190.813 168.248 191.171 168.309 191.517 168.431C191.864 168.553 192.175 168.745 192.451 169.006C192.726 169.268 192.944 169.607 193.103 170.025C193.262 170.439 193.341 170.944 193.341 171.538V171.989H188.138V171.035H192.093C192.093 170.699 192.025 170.403 191.888 170.144C191.752 169.883 191.56 169.677 191.313 169.526C191.069 169.376 190.782 169.3 190.452 169.3C190.094 169.3 189.782 169.388 189.515 169.564C189.25 169.738 189.046 169.965 188.901 170.246C188.759 170.525 188.688 170.827 188.688 171.154V171.9C188.688 172.337 188.765 172.709 188.918 173.016C189.074 173.323 189.292 173.557 189.57 173.719C189.848 173.878 190.174 173.958 190.546 173.958C190.787 173.958 191.007 173.924 191.206 173.856C191.405 173.785 191.577 173.68 191.722 173.54C191.867 173.401 191.978 173.229 192.054 173.025L193.26 173.242C193.164 173.597 192.99 173.908 192.74 174.175C192.493 174.439 192.182 174.645 191.807 174.793C191.435 174.938 191.01 175.011 190.533 175.011ZM194.755 174.878V168.333H195.987V169.373H196.055C196.174 169.02 196.384 168.743 196.685 168.542C196.989 168.337 197.333 168.235 197.717 168.235C197.796 168.235 197.89 168.238 197.998 168.243C198.109 168.249 198.195 168.256 198.258 168.265V169.484C198.207 169.469 198.116 169.454 197.985 169.437C197.854 169.417 197.724 169.407 197.593 169.407C197.292 169.407 197.023 169.471 196.788 169.599C196.555 169.724 196.37 169.898 196.234 170.123C196.097 170.344 196.029 170.597 196.029 170.881V174.878H194.755Z" fill="white"/>
<path d="M217.25 170.878C217.25 161.352 224.973 153.628 234.5 153.628H338.5C348.027 153.628 355.75 161.352 355.75 170.878C355.75 180.405 348.027 188.128 338.5 188.128H234.5C224.973 188.128 217.25 180.405 217.25 170.878Z" fill="black"/>
<path d="M217.25 170.878C217.25 161.352 224.973 153.628 234.5 153.628H338.5C348.027 153.628 355.75 161.352 355.75 170.878C355.75 180.405 348.027 188.128 338.5 188.128H234.5C224.973 188.128 217.25 180.405 217.25 170.878Z" stroke="url(#paint4_linear_462_5846)" stroke-width="0.5"/>
<path d="M217.25 170.878C217.25 161.352 224.973 153.628 234.5 153.628H338.5C348.027 153.628 355.75 161.352 355.75 170.878C355.75 180.405 348.027 188.128 338.5 188.128H234.5C224.973 188.128 217.25 180.405 217.25 170.878Z" stroke="url(#paint5_linear_462_5846)" stroke-width="0.5"/>
<path d="M232.917 178.716V172.462M232.917 172.462L226.663 168.583M232.917 172.462L242.337 167M236.083 177.054V170.641M239.25 175.233V168.82M242.417 167.474C242.417 166.999 242.1 166.524 241.783 166.287L236.796 163.199C236.591 163.083 236.359 163.021 236.123 163.021C235.887 163.021 235.655 163.083 235.45 163.199L227.296 167.949C226.9 168.108 226.583 168.583 226.583 169.058V174.283C226.583 174.679 226.9 175.233 227.217 175.47L232.204 178.558C232.409 178.674 232.641 178.736 232.877 178.736C233.113 178.736 233.345 178.674 233.55 178.558L241.704 173.808C242.1 173.57 242.417 173.016 242.417 172.62V167.474Z" stroke="white" stroke-linecap="round" stroke-linejoin="round"/>
<path d="M265.54 170.515C265.54 171.447 265.369 172.248 265.028 172.918C264.688 173.586 264.22 174.1 263.626 174.461C263.036 174.819 262.364 174.998 261.611 174.998C260.855 174.998 260.18 174.819 259.587 174.461C258.996 174.1 258.53 173.584 258.189 172.914C257.848 172.243 257.678 171.444 257.678 170.515C257.678 169.583 257.848 168.783 258.189 168.116C258.53 167.445 258.996 166.931 259.587 166.573C260.18 166.212 260.855 166.032 261.611 166.032C262.364 166.032 263.036 166.212 263.626 166.573C264.22 166.931 264.688 167.445 265.028 168.116C265.369 168.783 265.54 169.583 265.54 170.515ZM264.236 170.515C264.236 169.805 264.121 169.207 263.891 168.721C263.663 168.232 263.351 167.863 262.953 167.613C262.558 167.36 262.111 167.234 261.611 167.234C261.108 167.234 260.659 167.36 260.264 167.613C259.869 167.863 259.557 168.232 259.327 168.721C259.099 169.207 258.986 169.805 258.986 170.515C258.986 171.225 259.099 171.824 259.327 172.313C259.557 172.799 259.869 173.168 260.264 173.421C260.659 173.671 261.108 173.796 261.611 173.796C262.111 173.796 262.558 173.671 262.953 173.421C263.351 173.168 263.663 172.799 263.891 172.313C264.121 171.824 264.236 171.225 264.236 170.515ZM267.079 174.878V168.333H268.311V169.373H268.379C268.498 169.02 268.708 168.743 269.01 168.542C269.314 168.337 269.657 168.235 270.041 168.235C270.12 168.235 270.214 168.238 270.322 168.243C270.433 168.249 270.52 168.256 270.582 168.265V169.484C270.531 169.469 270.44 169.454 270.309 169.437C270.179 169.417 270.048 169.407 269.917 169.407C269.616 169.407 269.348 169.471 269.112 169.599C268.879 169.724 268.694 169.898 268.558 170.123C268.422 170.344 268.353 170.597 268.353 170.881V174.878H267.079ZM273.531 175.023C273.116 175.023 272.741 174.947 272.406 174.793C272.071 174.637 271.805 174.411 271.609 174.116C271.416 173.82 271.319 173.458 271.319 173.029C271.319 172.66 271.39 172.356 271.532 172.117C271.674 171.878 271.866 171.689 272.108 171.55C272.349 171.411 272.619 171.306 272.917 171.235C273.216 171.164 273.52 171.11 273.829 171.073C274.221 171.028 274.539 170.991 274.784 170.962C275.028 170.931 275.206 170.881 275.316 170.813C275.427 170.745 275.483 170.634 275.483 170.481V170.451C275.483 170.079 275.377 169.79 275.167 169.586C274.96 169.381 274.65 169.279 274.238 169.279C273.809 169.279 273.471 169.374 273.224 169.564C272.98 169.752 272.811 169.961 272.717 170.191L271.52 169.918C271.662 169.52 271.869 169.199 272.142 168.955C272.417 168.708 272.734 168.529 273.092 168.418C273.45 168.305 273.826 168.248 274.221 168.248C274.483 168.248 274.76 168.279 275.052 168.341C275.348 168.401 275.623 168.512 275.879 168.674C276.137 168.836 276.349 169.067 276.514 169.368C276.679 169.667 276.761 170.055 276.761 170.532V174.878H275.517V173.984H275.466C275.383 174.148 275.26 174.31 275.095 174.469C274.93 174.628 274.718 174.761 274.46 174.866C274.201 174.971 273.892 175.023 273.531 175.023ZM273.808 174.001C274.16 174.001 274.461 173.931 274.711 173.792C274.964 173.653 275.156 173.471 275.287 173.246C275.42 173.019 275.487 172.776 275.487 172.518V171.674C275.441 171.719 275.353 171.762 275.223 171.802C275.095 171.839 274.949 171.871 274.784 171.9C274.619 171.925 274.458 171.949 274.302 171.972C274.146 171.992 274.015 172.009 273.91 172.023C273.663 172.055 273.437 172.107 273.233 172.181C273.031 172.255 272.869 172.361 272.747 172.501C272.627 172.637 272.568 172.819 272.568 173.046C272.568 173.361 272.684 173.6 272.917 173.762C273.15 173.921 273.447 174.001 273.808 174.001ZM281.215 175.011C280.582 175.011 280.036 174.867 279.579 174.58C279.124 174.29 278.775 173.891 278.531 173.383C278.286 172.874 278.164 172.292 278.164 171.636C278.164 170.971 278.289 170.384 278.539 169.876C278.789 169.364 279.141 168.965 279.596 168.678C280.05 168.391 280.586 168.248 281.202 168.248C281.7 168.248 282.143 168.34 282.532 168.525C282.921 168.707 283.235 168.962 283.474 169.292C283.715 169.621 283.859 170.006 283.904 170.447H282.664C282.596 170.14 282.44 169.876 282.195 169.654C281.954 169.432 281.63 169.322 281.224 169.322C280.869 169.322 280.558 169.415 280.29 169.603C280.026 169.788 279.82 170.052 279.673 170.395C279.525 170.736 279.451 171.14 279.451 171.606C279.451 172.083 279.523 172.495 279.668 172.841C279.813 173.188 280.018 173.457 280.282 173.647C280.549 173.837 280.863 173.932 281.224 173.932C281.465 173.932 281.684 173.888 281.88 173.8C282.079 173.709 282.245 173.58 282.379 173.413C282.515 173.245 282.61 173.043 282.664 172.807H283.904C283.859 173.231 283.721 173.609 283.491 173.941C283.261 174.273 282.952 174.535 282.566 174.725C282.183 174.915 281.732 175.011 281.215 175.011ZM286.541 166.151V174.878H285.267V166.151H286.541ZM291.076 175.011C290.431 175.011 289.876 174.873 289.41 174.597C288.947 174.319 288.589 173.928 288.336 173.425C288.086 172.92 287.961 172.327 287.961 171.648C287.961 170.978 288.086 170.387 288.336 169.876C288.589 169.364 288.941 168.965 289.393 168.678C289.847 168.391 290.379 168.248 290.987 168.248C291.356 168.248 291.714 168.309 292.06 168.431C292.407 168.553 292.718 168.745 292.994 169.006C293.269 169.268 293.487 169.607 293.646 170.025C293.805 170.439 293.884 170.944 293.884 171.538V171.989H288.681V171.035H292.636C292.636 170.699 292.567 170.403 292.431 170.144C292.295 169.883 292.103 169.677 291.856 169.526C291.612 169.376 291.325 169.3 290.995 169.3C290.637 169.3 290.325 169.388 290.058 169.564C289.793 169.738 289.589 169.965 289.444 170.246C289.302 170.525 289.231 170.827 289.231 171.154V171.9C289.231 172.337 289.308 172.709 289.461 173.016C289.617 173.323 289.835 173.557 290.113 173.719C290.391 173.878 290.717 173.958 291.089 173.958C291.33 173.958 291.55 173.924 291.749 173.856C291.948 173.785 292.12 173.68 292.265 173.54C292.41 173.401 292.521 173.229 292.597 173.025L293.803 173.242C293.707 173.597 293.533 173.908 293.283 174.175C293.036 174.439 292.725 174.645 292.35 174.793C291.978 174.938 291.553 175.011 291.076 175.011ZM305.825 168.989H304.495C304.444 168.705 304.349 168.455 304.21 168.239C304.07 168.023 303.9 167.84 303.698 167.689C303.496 167.539 303.271 167.425 303.021 167.349C302.773 167.272 302.511 167.234 302.232 167.234C301.729 167.234 301.279 167.36 300.881 167.613C300.487 167.866 300.174 168.236 299.944 168.725C299.717 169.214 299.603 169.81 299.603 170.515C299.603 171.225 299.717 171.824 299.944 172.313C300.174 172.802 300.488 173.171 300.886 173.421C301.283 173.671 301.731 173.796 302.228 173.796C302.504 173.796 302.765 173.759 303.012 173.685C303.262 173.609 303.488 173.496 303.69 173.349C303.891 173.201 304.062 173.02 304.201 172.807C304.343 172.591 304.441 172.344 304.495 172.066L305.825 172.07C305.754 172.499 305.616 172.894 305.411 173.255C305.21 173.613 304.95 173.922 304.631 174.184C304.316 174.442 303.955 174.643 303.549 174.785C303.143 174.927 302.7 174.998 302.219 174.998C301.464 174.998 300.79 174.819 300.2 174.461C299.609 174.1 299.143 173.584 298.802 172.914C298.464 172.243 298.295 171.444 298.295 170.515C298.295 169.583 298.465 168.783 298.806 168.116C299.147 167.445 299.613 166.931 300.204 166.573C300.795 166.212 301.467 166.032 302.219 166.032C302.683 166.032 303.114 166.099 303.515 166.232C303.918 166.363 304.281 166.556 304.602 166.812C304.923 167.064 305.188 167.374 305.398 167.741C305.609 168.104 305.751 168.52 305.825 168.989ZM310.055 175.011C309.441 175.011 308.906 174.87 308.449 174.589C307.991 174.307 307.636 173.914 307.383 173.408C307.13 172.903 307.004 172.312 307.004 171.636C307.004 170.957 307.13 170.363 307.383 169.854C307.636 169.346 307.991 168.951 308.449 168.67C308.906 168.388 309.441 168.248 310.055 168.248C310.669 168.248 311.204 168.388 311.662 168.67C312.119 168.951 312.474 169.346 312.727 169.854C312.98 170.363 313.106 170.957 313.106 171.636C313.106 172.312 312.98 172.903 312.727 173.408C312.474 173.914 312.119 174.307 311.662 174.589C311.204 174.87 310.669 175.011 310.055 175.011ZM310.059 173.941C310.457 173.941 310.787 173.836 311.048 173.626C311.309 173.415 311.502 173.136 311.627 172.786C311.755 172.437 311.819 172.052 311.819 171.631C311.819 171.214 311.755 170.83 311.627 170.481C311.502 170.128 311.309 169.846 311.048 169.633C310.787 169.42 310.457 169.313 310.059 169.313C309.659 169.313 309.326 169.42 309.062 169.633C308.801 169.846 308.606 170.128 308.478 170.481C308.353 170.83 308.291 171.214 308.291 171.631C308.291 172.052 308.353 172.437 308.478 172.786C308.606 173.136 308.801 173.415 309.062 173.626C309.326 173.836 309.659 173.941 310.059 173.941ZM315.803 170.992V174.878H314.528V168.333H315.751V169.398H315.832C315.983 169.052 316.219 168.773 316.54 168.563C316.864 168.353 317.271 168.248 317.763 168.248C318.209 168.248 318.599 168.341 318.935 168.529C319.27 168.714 319.53 168.989 319.714 169.356C319.899 169.722 319.991 170.175 319.991 170.715V174.878H318.717V170.868C318.717 170.394 318.594 170.023 318.347 169.756C318.099 169.486 317.76 169.351 317.328 169.351C317.033 169.351 316.77 169.415 316.54 169.543C316.313 169.671 316.132 169.859 315.999 170.106C315.868 170.35 315.803 170.645 315.803 170.992ZM324.756 168.333V169.356H321.18V168.333H324.756ZM322.139 166.765H323.413V172.957C323.413 173.204 323.45 173.39 323.524 173.515C323.598 173.637 323.693 173.721 323.81 173.766C323.929 173.809 324.058 173.83 324.197 173.83C324.3 173.83 324.389 173.823 324.466 173.809C324.543 173.795 324.602 173.783 324.645 173.775L324.875 174.827C324.801 174.856 324.696 174.884 324.56 174.913C324.423 174.944 324.253 174.961 324.048 174.964C323.713 174.969 323.401 174.91 323.111 174.785C322.821 174.66 322.587 174.466 322.408 174.205C322.229 173.944 322.139 173.616 322.139 173.221V166.765ZM326.165 174.878V168.333H327.397V169.373H327.465C327.584 169.02 327.794 168.743 328.096 168.542C328.4 168.337 328.743 168.235 329.127 168.235C329.206 168.235 329.3 168.238 329.408 168.243C329.519 168.249 329.605 168.256 329.668 168.265V169.484C329.617 169.469 329.526 169.454 329.395 169.437C329.265 169.417 329.134 169.407 329.003 169.407C328.702 169.407 328.434 169.471 328.198 169.599C327.965 169.724 327.78 169.898 327.644 170.123C327.507 170.344 327.439 170.597 327.439 170.881V174.878H326.165ZM332.617 175.023C332.202 175.023 331.827 174.947 331.492 174.793C331.157 174.637 330.891 174.411 330.695 174.116C330.502 173.82 330.405 173.458 330.405 173.029C330.405 172.66 330.476 172.356 330.618 172.117C330.76 171.878 330.952 171.689 331.194 171.55C331.435 171.411 331.705 171.306 332.003 171.235C332.301 171.164 332.605 171.11 332.915 171.073C333.307 171.028 333.625 170.991 333.87 170.962C334.114 170.931 334.292 170.881 334.402 170.813C334.513 170.745 334.569 170.634 334.569 170.481V170.451C334.569 170.079 334.463 169.79 334.253 169.586C334.046 169.381 333.736 169.279 333.324 169.279C332.895 169.279 332.557 169.374 332.31 169.564C332.066 169.752 331.897 169.961 331.803 170.191L330.605 169.918C330.748 169.52 330.955 169.199 331.228 168.955C331.503 168.708 331.82 168.529 332.178 168.418C332.536 168.305 332.912 168.248 333.307 168.248C333.569 168.248 333.846 168.279 334.138 168.341C334.434 168.401 334.709 168.512 334.965 168.674C335.223 168.836 335.435 169.067 335.6 169.368C335.765 169.667 335.847 170.055 335.847 170.532V174.878H334.603V173.984H334.551C334.469 174.148 334.346 174.31 334.181 174.469C334.016 174.628 333.804 174.761 333.546 174.866C333.287 174.971 332.978 175.023 332.617 175.023ZM332.894 174.001C333.246 174.001 333.547 173.931 333.797 173.792C334.05 173.653 334.242 173.471 334.373 173.246C334.506 173.019 334.573 172.776 334.573 172.518V171.674C334.527 171.719 334.439 171.762 334.309 171.802C334.181 171.839 334.034 171.871 333.87 171.9C333.705 171.925 333.544 171.949 333.388 171.972C333.232 171.992 333.101 172.009 332.996 172.023C332.749 172.055 332.523 172.107 332.319 172.181C332.117 172.255 331.955 172.361 331.833 172.501C331.713 172.637 331.654 172.819 331.654 173.046C331.654 173.361 331.77 173.6 332.003 173.762C332.236 173.921 332.533 174.001 332.894 174.001ZM340.301 175.011C339.668 175.011 339.122 174.867 338.665 174.58C338.21 174.29 337.861 173.891 337.616 173.383C337.372 172.874 337.25 172.292 337.25 171.636C337.25 170.971 337.375 170.384 337.625 169.876C337.875 169.364 338.227 168.965 338.682 168.678C339.136 168.391 339.672 168.248 340.288 168.248C340.786 168.248 341.229 168.34 341.618 168.525C342.007 168.707 342.321 168.962 342.56 169.292C342.801 169.621 342.945 170.006 342.99 170.447H341.75C341.682 170.14 341.526 169.876 341.281 169.654C341.04 169.432 340.716 169.322 340.31 169.322C339.955 169.322 339.643 169.415 339.376 169.603C339.112 169.788 338.906 170.052 338.759 170.395C338.611 170.736 338.537 171.14 338.537 171.606C338.537 172.083 338.609 172.495 338.754 172.841C338.899 173.188 339.104 173.457 339.368 173.647C339.635 173.837 339.949 173.932 340.31 173.932C340.551 173.932 340.77 173.888 340.966 173.8C341.165 173.709 341.331 173.58 341.464 173.413C341.601 173.245 341.696 173.043 341.75 172.807H342.99C342.945 173.231 342.807 173.609 342.577 173.941C342.347 174.273 342.038 174.535 341.652 174.725C341.268 174.915 340.818 175.011 340.301 175.011ZM347.408 168.333V169.356H343.833V168.333H347.408ZM344.792 166.765H346.066V172.957C346.066 173.204 346.103 173.39 346.176 173.515C346.25 173.637 346.346 173.721 346.462 173.766C346.581 173.809 346.711 173.83 346.85 173.83C346.952 173.83 347.042 173.823 347.118 173.809C347.195 173.795 347.255 173.783 347.297 173.775L347.527 174.827C347.453 174.856 347.348 174.884 347.212 174.913C347.076 174.944 346.905 174.961 346.701 174.964C346.365 174.969 346.053 174.91 345.763 174.785C345.473 174.66 345.239 174.466 345.06 174.205C344.881 173.944 344.792 173.616 344.792 173.221V166.765Z" fill="white"/>
</g>
<path d="M146.639 32.2197V32.2197C146.639 57.2702 129.55 79.0895 105.229 85.0919L101.633 85.9793C75.2007 92.5029 56.6278 116.217 56.6278 143.442L56.6278 145.515" stroke="url(#paint6_linear_462_5846)" stroke-width="0.5"/>
<path d="M231.703 32.2197V32.2197C231.703 56.5834 213.59 77.1476 189.421 80.2229L104.635 91.0112C77.1933 94.5029 56.627 117.852 56.627 145.515V145.515" stroke="url(#paint7_linear_462_5846)" stroke-width="0.5"/>
<line x1="55.8887" y1="32.2197" x2="55.8887" y2="145.515" stroke="url(#paint8_linear_462_5846)" stroke-width="0.5"/>
<g filter="url(#filter0_d_462_5846)">
<ellipse cx="106.084" cy="84.8566" rx="2.50653" ry="3.95652" transform="rotate(90 106.084 84.8566)" fill="white"/>
</g>
<g filter="url(#filter1_d_462_5846)">
<ellipse cx="2.00522" cy="3.46196" rx="2.00522" ry="3.46196" transform="matrix(2.06034e-08 1 1 -6.90191e-09 205.986 65.3057)" fill="white"/>
</g>
<g filter="url(#filter2_d_462_5846)">
<ellipse cx="2.00522" cy="3.46196" rx="2.00522" ry="3.46196" transform="matrix(2.06034e-08 1 1 -6.90191e-09 52.6719 49.2642)" fill="white"/>
</g>
<g opacity="0.8">
<path d="M23.7383 16.0418C23.7383 7.18215 30.9204 0 39.7801 0L72.9791 0C81.8387 0 89.0209 7.18215 89.0209 16.0418C89.0209 24.9014 81.8387 32.0835 72.9791 32.0835L39.7801 32.0835C30.9204 32.0835 23.7383 24.9014 23.7383 16.0418Z" fill="#08090B"/>
<path d="M37.0983 13.6073C37.0529 13.2039 36.8654 12.8914 36.5358 12.6698C36.2063 12.4454 35.7915 12.3332 35.2915 12.3332C34.9336 12.3332 34.6239 12.39 34.3625 12.5036C34.1012 12.6144 33.898 12.7678 33.7532 12.9639C33.6111 13.157 33.5401 13.3772 33.5401 13.6244C33.5401 13.8318 33.5884 14.0107 33.685 14.1613C33.7844 14.3119 33.9137 14.4383 34.0728 14.5406C34.2347 14.64 34.408 14.7238 34.5926 14.792C34.7773 14.8573 34.9549 14.9113 35.1253 14.9539L35.9776 15.1755C36.256 15.2437 36.5415 15.336 36.8341 15.4525C37.1267 15.569 37.398 15.7224 37.648 15.9127C37.898 16.1031 38.0997 16.3389 38.2532 16.6201C38.4094 16.9014 38.4875 17.238 38.4875 17.6301C38.4875 18.1244 38.3597 18.5633 38.104 18.9468C37.8512 19.3303 37.4833 19.6329 37.0003 19.8545C36.5202 20.0761 35.9392 20.1869 35.2574 20.1869C34.604 20.1869 34.0387 20.0832 33.5614 19.8758C33.0841 19.6684 32.7105 19.3744 32.4407 18.9937C32.1708 18.6102 32.0216 18.1556 31.9932 17.6301H33.3142C33.3398 17.9454 33.4421 18.2082 33.6211 18.4184C33.8029 18.6258 34.0344 18.7806 34.3157 18.8829C34.5997 18.9823 34.9108 19.032 35.2489 19.032C35.6211 19.032 35.952 18.9738 36.2418 18.8573C36.5344 18.738 36.7645 18.5732 36.9321 18.363C37.0997 18.1499 37.1836 17.9014 37.1836 17.6173C37.1836 17.3588 37.1097 17.1471 36.962 16.9823C36.8171 16.8176 36.6196 16.6812 36.3696 16.5732C36.1225 16.4653 35.8426 16.3701 35.5301 16.2877L34.4989 16.0065C33.8 15.8161 33.2461 15.5363 32.837 15.167C32.4307 14.7977 32.2276 14.309 32.2276 13.7011C32.2276 13.1982 32.364 12.7593 32.6367 12.3843C32.9094 12.0093 33.2787 11.7181 33.7446 11.5107C34.2105 11.3005 34.7361 11.1954 35.3213 11.1954C35.9122 11.1954 36.4336 11.2991 36.8853 11.5065C37.3398 11.7139 37.6978 11.9994 37.9591 12.363C38.2205 12.7238 38.3569 13.1386 38.3682 13.6073H37.0983ZM42.7159 20.1741C42.1022 20.1741 41.5667 20.0335 41.1093 19.7522C40.6519 19.471 40.2968 19.0775 40.044 18.5718C39.7912 18.0661 39.6647 17.4752 39.6647 16.7991C39.6647 16.1201 39.7912 15.5264 40.044 15.0178C40.2968 14.5093 40.6519 14.1144 41.1093 13.8332C41.5667 13.5519 42.1022 13.4113 42.7159 13.4113C43.3295 13.4113 43.865 13.5519 44.3224 13.8332C44.7798 14.1144 45.1349 14.5093 45.3877 15.0178C45.6406 15.5264 45.767 16.1201 45.767 16.7991C45.767 17.4752 45.6406 18.0661 45.3877 18.5718C45.1349 19.0775 44.7798 19.471 44.3224 19.7522C43.865 20.0335 43.3295 20.1741 42.7159 20.1741ZM42.7201 19.1045C43.1179 19.1045 43.4474 18.9994 43.7088 18.7892C43.9701 18.5789 44.1633 18.2991 44.2883 17.9497C44.4162 17.6002 44.4801 17.2153 44.4801 16.7948C44.4801 16.3772 44.4162 15.9937 44.2883 15.6443C44.1633 15.292 43.9701 15.0093 43.7088 14.7963C43.4474 14.5832 43.1179 14.4767 42.7201 14.4767C42.3196 14.4767 41.9872 14.5832 41.723 14.7963C41.4616 15.0093 41.267 15.292 41.1392 15.6443C41.0142 15.9937 40.9517 16.3772 40.9517 16.7948C40.9517 17.2153 41.0142 17.6002 41.1392 17.9497C41.267 18.2991 41.4616 18.5789 41.723 18.7892C41.9872 18.9994 42.3196 19.1045 42.7201 19.1045ZM51.3355 17.3275V13.4965H52.614V20.042H51.3611V18.9085H51.2929C51.1424 19.2579 50.9009 19.5491 50.5685 19.782C50.239 20.0122 49.8284 20.1272 49.337 20.1272C48.9165 20.1272 48.5444 20.0349 48.2205 19.8502C47.8995 19.6627 47.6466 19.3857 47.462 19.0193C47.2801 18.6528 47.1892 18.1997 47.1892 17.6599V13.4965H48.4634V17.5065C48.4634 17.9525 48.587 18.3076 48.8341 18.5718C49.0813 18.836 49.4023 18.9681 49.7972 18.9681C50.0358 18.9681 50.273 18.9085 50.5088 18.7892C50.7475 18.6698 50.9449 18.4894 51.1012 18.248C51.2603 18.0065 51.3384 17.6997 51.3355 17.3275ZM54.326 20.042V13.4965H55.5575V14.5363H55.6257C55.745 14.184 55.9552 13.907 56.2564 13.7053C56.5603 13.5008 56.9041 13.3985 57.2876 13.3985C57.3671 13.3985 57.4609 13.4014 57.5689 13.407C57.6796 13.4127 57.7663 13.4198 57.8288 13.4284V14.6471C57.7777 14.6329 57.6868 14.6173 57.5561 14.6002C57.4254 14.5803 57.2947 14.5704 57.164 14.5704C56.8629 14.5704 56.5944 14.6343 56.3586 14.7622C56.1257 14.8872 55.941 15.0619 55.8046 15.2863C55.6683 15.5079 55.6001 15.7607 55.6001 16.0448V20.042L54.326 20.042ZM61.4542 20.1741C60.8206 20.1741 60.2752 20.0306 59.8178 19.7437C59.3632 19.4539 59.0138 19.0548 58.7695 18.5463C58.5252 18.0377 58.403 17.4553 58.403 16.7991C58.403 16.1343 58.528 15.5477 58.778 15.0392C59.028 14.5278 59.3803 14.1286 59.8348 13.8417C60.2894 13.5548 60.8249 13.4113 61.4414 13.4113C61.9385 13.4113 62.3817 13.5036 62.7709 13.6883C63.1601 13.8701 63.474 14.1258 63.7127 14.4553C63.9542 14.7849 64.0976 15.1698 64.1431 15.6102H62.903C62.8348 15.3034 62.6786 15.0392 62.4343 14.8176C62.1928 14.596 61.8689 14.4852 61.4627 14.4852C61.1076 14.4852 60.7965 14.5789 60.5294 14.7664C60.2652 14.9511 60.0593 15.2153 59.9115 15.559C59.7638 15.8999 59.6899 16.3034 59.6899 16.7693C59.6899 17.2465 59.7624 17.6585 59.9073 18.0051C60.0522 18.3517 60.2567 18.6201 60.5209 18.8105C60.788 19.0008 61.1019 19.096 61.4627 19.096C61.7042 19.096 61.9229 19.0519 62.1189 18.9639C62.3178 18.873 62.484 18.7437 62.6175 18.5761C62.7539 18.4085 62.849 18.2068 62.903 17.971H64.1431C64.0976 18.3943 63.9598 18.7721 63.7297 19.1045C63.4996 19.4369 63.1914 19.6982 62.805 19.8886C62.4215 20.0789 61.9712 20.1741 61.4542 20.1741ZM68.3267 20.1741C67.6818 20.1741 67.1264 20.0363 66.6605 19.7607C66.1974 19.4823 65.8394 19.0917 65.5866 18.5889C65.3366 18.0832 65.2116 17.4909 65.2116 16.8119C65.2116 16.1414 65.3366 15.5505 65.5866 15.0392C65.8394 14.5278 66.1917 14.1286 66.6434 13.8417C67.098 13.5548 67.6292 13.4113 68.2372 13.4113C68.6065 13.4113 68.9645 13.4724 69.311 13.5945C69.6576 13.7167 69.9687 13.9085 70.2443 14.1698C70.5198 14.4312 70.7372 14.7707 70.8963 15.1883C71.0554 15.6031 71.1349 16.1073 71.1349 16.7011V17.1528H65.9318V16.1982H69.8863C69.8863 15.863 69.8181 15.5661 69.6818 15.3076C69.5454 15.0463 69.3537 14.8403 69.1065 14.6897C68.8622 14.5392 68.5752 14.4639 68.2457 14.4639C67.8877 14.4639 67.5752 14.5519 67.3082 14.7281C67.044 14.9014 66.8394 15.1286 66.6946 15.4099C66.5525 15.6883 66.4815 15.9909 66.4815 16.3176V17.0633C66.4815 17.5008 66.5582 17.873 66.7116 18.1798C66.8679 18.4866 67.0852 18.721 67.3636 18.8829C67.642 19.042 67.9673 19.1215 68.3394 19.1215C68.5809 19.1215 68.8011 19.0874 69 19.0193C69.1988 18.9482 69.3707 18.8431 69.5156 18.7039C69.6605 18.5647 69.7713 18.3928 69.848 18.1883L71.0539 18.4056C70.9573 18.7607 70.7841 19.0718 70.5341 19.3389C70.2869 19.6031 69.9758 19.809 69.6008 19.9568C69.2287 20.1017 68.8039 20.1741 68.3267 20.1741ZM79.0184 11.3147V20.042H77.6974V12.6357H77.6463L75.5582 13.9994V12.738L77.7358 11.3147H79.0184Z" fill="white"/>
</g>
<g opacity="0.8">
<path d="M113.262 16.0418C113.262 7.45829 120.22 0.5 128.803 0.5L162.992 0.5C171.575 0.5 178.533 7.45829 178.533 16.0418C178.533 24.6253 171.575 31.5835 162.992 31.5835L128.803 31.5835C120.22 31.5835 113.262 24.6253 113.262 16.0418Z" fill="#08090B"/>
<path d="M113.262 16.0418C113.262 7.45829 120.22 0.5 128.803 0.5L162.992 0.5C171.575 0.5 178.533 7.45829 178.533 16.0418C178.533 24.6253 171.575 31.5835 162.992 31.5835L128.803 31.5835C120.22 31.5835 113.262 24.6253 113.262 16.0418Z" stroke="url(#paint9_linear_462_5846)"/>
<path d="M126.116 13.6073C126.071 13.2039 125.883 12.8914 125.554 12.6698C125.224 12.4454 124.81 12.3332 124.31 12.3332C123.952 12.3332 123.642 12.39 123.381 12.5036C123.119 12.6144 122.916 12.7678 122.771 12.9639C122.629 13.157 122.558 13.3772 122.558 13.6244C122.558 13.8318 122.606 14.0107 122.703 14.1613C122.802 14.3119 122.932 14.4383 123.091 14.5406C123.253 14.64 123.426 14.7238 123.611 14.792C123.795 14.8573 123.973 14.9113 124.143 14.9539L124.996 15.1755C125.274 15.2437 125.56 15.336 125.852 15.4525C126.145 15.569 126.416 15.7224 126.666 15.9127C126.916 16.1031 127.118 16.3389 127.271 16.6201C127.427 16.9014 127.506 17.238 127.506 17.6301C127.506 18.1244 127.378 18.5633 127.122 18.9468C126.869 19.3303 126.501 19.6329 126.018 19.8545C125.538 20.0761 124.957 20.1869 124.275 20.1869C123.622 20.1869 123.057 20.0832 122.579 19.8758C122.102 19.6684 121.729 19.3744 121.459 18.9937C121.189 18.6102 121.04 18.1556 121.011 17.6301H122.332C122.358 17.9454 122.46 18.2082 122.639 18.4184C122.821 18.6258 123.052 18.7806 123.334 18.8829C123.618 18.9823 123.929 19.032 124.267 19.032C124.639 19.032 124.97 18.9738 125.26 18.8573C125.552 18.738 125.783 18.5732 125.95 18.363C126.118 18.1499 126.202 17.9014 126.202 17.6173C126.202 17.3588 126.128 17.1471 125.98 16.9823C125.835 16.8176 125.638 16.6812 125.388 16.5732C125.14 16.4653 124.861 16.3701 124.548 16.2877L123.517 16.0065C122.818 15.8161 122.264 15.5363 121.855 15.167C121.449 14.7977 121.246 14.309 121.246 13.7011C121.246 13.1982 121.382 12.7593 121.655 12.3843C121.927 12.0093 122.297 11.7181 122.763 11.5107C123.229 11.3005 123.754 11.1954 124.339 11.1954C124.93 11.1954 125.452 11.2991 125.903 11.5065C126.358 11.7139 126.716 11.9994 126.977 12.363C127.238 12.7238 127.375 13.1386 127.386 13.6073H126.116ZM131.734 20.1741C131.12 20.1741 130.585 20.0335 130.127 19.7522C129.67 19.471 129.315 19.0775 129.062 18.5718C128.809 18.0661 128.683 17.4752 128.683 16.7991C128.683 16.1201 128.809 15.5264 129.062 15.0178C129.315 14.5093 129.67 14.1144 130.127 13.8332C130.585 13.5519 131.12 13.4113 131.734 13.4113C132.348 13.4113 132.883 13.5519 133.34 13.8332C133.798 14.1144 134.153 14.5093 134.406 15.0178C134.659 15.5264 134.785 16.1201 134.785 16.7991C134.785 17.4752 134.659 18.0661 134.406 18.5718C134.153 19.0775 133.798 19.471 133.34 19.7522C132.883 20.0335 132.348 20.1741 131.734 20.1741ZM131.738 19.1045C132.136 19.1045 132.465 18.9994 132.727 18.7892C132.988 18.5789 133.181 18.2991 133.306 17.9497C133.434 17.6002 133.498 17.2153 133.498 16.7948C133.498 16.3772 133.434 15.9937 133.306 15.6443C133.181 15.292 132.988 15.0093 132.727 14.7963C132.465 14.5832 132.136 14.4767 131.738 14.4767C131.338 14.4767 131.005 14.5832 130.741 14.7963C130.48 15.0093 130.285 15.292 130.157 15.6443C130.032 15.9937 129.97 16.3772 129.97 16.7948C129.97 17.2153 130.032 17.6002 130.157 17.9497C130.285 18.2991 130.48 18.5789 130.741 18.7892C131.005 18.9994 131.338 19.1045 131.738 19.1045ZM140.354 17.3275V13.4965H141.632V20.042H140.379V18.9085H140.311C140.16 19.2579 139.919 19.5491 139.587 19.782C139.257 20.0122 138.846 20.1272 138.355 20.1272C137.935 20.1272 137.562 20.0349 137.238 19.8502C136.917 19.6627 136.665 19.3857 136.48 19.0193C136.298 18.6528 136.207 18.1997 136.207 17.6599V13.4965H137.481V17.5065C137.481 17.9525 137.605 18.3076 137.852 18.5718C138.099 18.836 138.42 18.9681 138.815 18.9681C139.054 18.9681 139.291 18.9085 139.527 18.7892C139.765 18.6698 139.963 18.4894 140.119 18.248C140.278 18.0065 140.356 17.6997 140.354 17.3275ZM143.344 20.042V13.4965H144.575V14.5363H144.644C144.763 14.184 144.973 13.907 145.274 13.7053C145.578 13.5008 145.922 13.3985 146.306 13.3985C146.385 13.3985 146.479 13.4014 146.587 13.407C146.698 13.4127 146.784 13.4198 146.847 13.4284V14.6471C146.796 14.6329 146.705 14.6173 146.574 14.6002C146.443 14.5803 146.313 14.5704 146.182 14.5704C145.881 14.5704 145.612 14.6343 145.377 14.7622C145.144 14.8872 144.959 15.0619 144.823 15.2863C144.686 15.5079 144.618 15.7607 144.618 16.0448V20.042L143.344 20.042ZM150.472 20.1741C149.839 20.1741 149.293 20.0306 148.836 19.7437C148.381 19.4539 148.032 19.0548 147.787 18.5463C147.543 18.0377 147.421 17.4553 147.421 16.7991C147.421 16.1343 147.546 15.5477 147.796 15.0392C148.046 14.5278 148.398 14.1286 148.853 13.8417C149.307 13.5548 149.843 13.4113 150.459 13.4113C150.957 13.4113 151.4 13.5036 151.789 13.6883C152.178 13.8701 152.492 14.1258 152.731 14.4553C152.972 14.7849 153.116 15.1698 153.161 15.6102H151.921C151.853 15.3034 151.697 15.0392 151.452 14.8176C151.211 14.596 150.887 14.4852 150.481 14.4852C150.126 14.4852 149.814 14.5789 149.547 14.7664C149.283 14.9511 149.077 15.2153 148.93 15.559C148.782 15.8999 148.708 16.3034 148.708 16.7693C148.708 17.2465 148.78 17.6585 148.925 18.0051C149.07 18.3517 149.275 18.6201 149.539 18.8105C149.806 19.0008 150.12 19.096 150.481 19.096C150.722 19.096 150.941 19.0519 151.137 18.9639C151.336 18.873 151.502 18.7437 151.636 18.5761C151.772 18.4085 151.867 18.2068 151.921 17.971H153.161C153.116 18.3943 152.978 18.7721 152.748 19.1045C152.518 19.4369 152.209 19.6982 151.823 19.8886C151.439 20.0789 150.989 20.1741 150.472 20.1741ZM157.345 20.1741C156.7 20.1741 156.144 20.0363 155.678 19.7607C155.215 19.4823 154.857 19.0917 154.605 18.5889C154.355 18.0832 154.23 17.4909 154.23 16.8119C154.23 16.1414 154.355 15.5505 154.605 15.0392C154.857 14.5278 155.21 14.1286 155.661 13.8417C156.116 13.5548 156.647 13.4113 157.255 13.4113C157.625 13.4113 157.982 13.4724 158.329 13.5945C158.676 13.7167 158.987 13.9085 159.262 14.1698C159.538 14.4312 159.755 14.7707 159.914 15.1883C160.073 15.6031 160.153 16.1073 160.153 16.7011V17.1528H154.95V16.1982H158.904C158.904 15.863 158.836 15.5661 158.7 15.3076C158.563 15.0463 158.372 14.8403 158.125 14.6897C157.88 14.5392 157.593 14.4639 157.264 14.4639C156.906 14.4639 156.593 14.5519 156.326 14.7281C156.062 14.9014 155.857 15.1286 155.713 15.4099C155.571 15.6883 155.5 15.9909 155.5 16.3176V17.0633C155.5 17.5008 155.576 17.873 155.73 18.1798C155.886 18.4866 156.103 18.721 156.382 18.8829C156.66 19.042 156.985 19.1215 157.357 19.1215C157.599 19.1215 157.819 19.0874 158.018 19.0193C158.217 18.9482 158.389 18.8431 158.534 18.7039C158.678 18.5647 158.789 18.3928 158.866 18.1883L160.072 18.4056C159.975 18.7607 159.802 19.0718 159.552 19.3389C159.305 19.6031 158.994 19.809 158.619 19.9568C158.247 20.1017 157.822 20.1741 157.345 20.1741ZM164.725 20.042V19.0874L167.678 16.0278C167.994 15.6954 168.254 15.4042 168.458 15.1542C168.666 14.9014 168.821 14.6613 168.923 14.434C169.025 14.2068 169.076 13.9653 169.076 13.7096C169.076 13.4198 169.008 13.1698 168.872 12.9596C168.735 12.7465 168.549 12.5832 168.313 12.4695C168.078 12.3531 167.812 12.2948 167.517 12.2948C167.204 12.2948 166.931 12.3588 166.698 12.4866C166.465 12.6144 166.286 12.7948 166.161 13.0278C166.036 13.2607 165.974 13.5335 165.974 13.846L164.717 13.846C164.717 13.3147 164.839 12.8502 165.083 12.4525C165.328 12.0548 165.663 11.7465 166.089 11.5278C166.515 11.3062 167 11.1954 167.542 11.1954C168.09 11.1954 168.573 11.3048 168.991 11.5235C169.411 11.7394 169.74 12.0349 169.975 12.4099C170.211 12.782 170.329 13.2025 170.329 13.6713C170.329 13.9951 170.268 14.3119 170.146 14.6215C170.026 14.9312 169.818 15.2764 169.519 15.657C169.221 16.0349 168.806 16.4937 168.275 17.0335L166.541 18.8488V18.9127H170.47V20.042H164.725Z" fill="white"/>
</g>
<g opacity="0.8">
<path d="M196.342 16.0418C196.342 7.18215 203.524 0 212.384 0L247.561 0C256.421 0 263.603 7.18215 263.603 16.0418C263.603 24.9014 256.421 32.0835 247.561 32.0835L212.384 32.0835C203.524 32.0835 196.342 24.9014 196.342 16.0418Z" fill="#08090B"/>
<path d="M209.691 13.6073C209.646 13.2039 209.458 12.8914 209.128 12.6698C208.799 12.4454 208.384 12.3332 207.884 12.3332C207.526 12.3332 207.217 12.39 206.955 12.5036C206.694 12.6144 206.491 12.7678 206.346 12.9639C206.204 13.157 206.133 13.3772 206.133 13.6244C206.133 13.8318 206.181 14.0107 206.278 14.1613C206.377 14.3119 206.506 14.4383 206.665 14.5406C206.827 14.64 207.001 14.7238 207.185 14.792C207.37 14.8573 207.548 14.9113 207.718 14.9539L208.57 15.1755C208.849 15.2437 209.134 15.336 209.427 15.4525C209.719 15.569 209.991 15.7224 210.241 15.9127C210.491 16.1031 210.692 16.3389 210.846 16.6201C211.002 16.9014 211.08 17.238 211.08 17.6301C211.08 18.1244 210.952 18.5633 210.697 18.9468C210.444 19.3303 210.076 19.6329 209.593 19.8545C209.113 20.0761 208.532 20.1869 207.85 20.1869C207.197 20.1869 206.631 20.0832 206.154 19.8758C205.677 19.6684 205.303 19.3744 205.033 18.9937C204.763 18.6102 204.614 18.1556 204.586 17.6301H205.907C205.932 17.9454 206.035 18.2082 206.214 18.4184C206.396 18.6258 206.627 18.7806 206.908 18.8829C207.192 18.9823 207.503 19.032 207.842 19.032C208.214 19.032 208.545 18.9738 208.834 18.8573C209.127 18.738 209.357 18.5732 209.525 18.363C209.692 18.1499 209.776 17.9014 209.776 17.6173C209.776 17.3588 209.702 17.1471 209.555 16.9823C209.41 16.8176 209.212 16.6812 208.962 16.5732C208.715 16.4653 208.435 16.3701 208.123 16.2877L207.092 16.0065C206.393 15.8161 205.839 15.5363 205.43 15.167C205.023 14.7977 204.82 14.309 204.82 13.7011C204.82 13.1982 204.957 12.7593 205.229 12.3843C205.502 12.0093 205.871 11.7181 206.337 11.5107C206.803 11.3005 207.329 11.1954 207.914 11.1954C208.505 11.1954 209.026 11.2991 209.478 11.5065C209.932 11.7139 210.29 11.9994 210.552 12.363C210.813 12.7238 210.95 13.1386 210.961 13.6073H209.691ZM215.309 20.1741C214.695 20.1741 214.159 20.0335 213.702 19.7522C213.245 19.471 212.889 19.0775 212.637 18.5718C212.384 18.0661 212.257 17.4752 212.257 16.7991C212.257 16.1201 212.384 15.5264 212.637 15.0178C212.889 14.5093 213.245 14.1144 213.702 13.8332C214.159 13.5519 214.695 13.4113 215.309 13.4113C215.922 13.4113 216.458 13.5519 216.915 13.8332C217.372 14.1144 217.728 14.5093 217.98 15.0178C218.233 15.5264 218.36 16.1201 218.36 16.7991C218.36 17.4752 218.233 18.0661 217.98 18.5718C217.728 19.0775 217.372 19.471 216.915 19.7522C216.458 20.0335 215.922 20.1741 215.309 20.1741ZM215.313 19.1045C215.711 19.1045 216.04 18.9994 216.301 18.7892C216.563 18.5789 216.756 18.2991 216.881 17.9497C217.009 17.6002 217.073 17.2153 217.073 16.7948C217.073 16.3772 217.009 15.9937 216.881 15.6443C216.756 15.292 216.563 15.0093 216.301 14.7963C216.04 14.5832 215.711 14.4767 215.313 14.4767C214.912 14.4767 214.58 14.5832 214.316 14.7963C214.054 15.0093 213.86 15.292 213.732 15.6443C213.607 15.9937 213.544 16.3772 213.544 16.7948C213.544 17.2153 213.607 17.6002 213.732 17.9497C213.86 18.2991 214.054 18.5789 214.316 18.7892C214.58 18.9994 214.912 19.1045 215.313 19.1045ZM223.928 17.3275V13.4965H225.207V20.042H223.954V18.9085H223.886C223.735 19.2579 223.494 19.5491 223.161 19.782C222.832 20.0122 222.421 20.1272 221.93 20.1272C221.509 20.1272 221.137 20.0349 220.813 19.8502C220.492 19.6627 220.239 19.3857 220.055 19.0193C219.873 18.6528 219.782 18.1997 219.782 17.6599V13.4965H221.056V17.5065C221.056 17.9525 221.18 18.3076 221.427 18.5718C221.674 18.836 221.995 18.9681 222.39 18.9681C222.628 18.9681 222.866 18.9085 223.101 18.7892C223.34 18.6698 223.538 18.4894 223.694 18.248C223.853 18.0065 223.931 17.6997 223.928 17.3275ZM226.919 20.042V13.4965H228.15V14.5363H228.218C228.338 14.184 228.548 13.907 228.849 13.7053C229.153 13.5008 229.497 13.3985 229.88 13.3985C229.96 13.3985 230.054 13.4014 230.162 13.407C230.272 13.4127 230.359 13.4198 230.421 13.4284V14.6471C230.37 14.6329 230.279 14.6173 230.149 14.6002C230.018 14.5803 229.887 14.5704 229.757 14.5704C229.456 14.5704 229.187 14.6343 228.951 14.7622C228.718 14.8872 228.534 15.0619 228.397 15.2863C228.261 15.5079 228.193 15.7607 228.193 16.0448V20.042L226.919 20.042ZM234.047 20.1741C233.413 20.1741 232.868 20.0306 232.41 19.7437C231.956 19.4539 231.606 19.0548 231.362 18.5463C231.118 18.0377 230.996 17.4553 230.996 16.7991C230.996 16.1343 231.121 15.5477 231.371 15.0392C231.621 14.5278 231.973 14.1286 232.427 13.8417C232.882 13.5548 233.418 13.4113 234.034 13.4113C234.531 13.4113 234.974 13.5036 235.364 13.6883C235.753 13.8701 236.067 14.1258 236.305 14.4553C236.547 14.7849 236.69 15.1698 236.736 15.6102H235.496C235.427 15.3034 235.271 15.0392 235.027 14.8176C234.785 14.596 234.462 14.4852 234.055 14.4852C233.7 14.4852 233.389 14.5789 233.122 14.7664C232.858 14.9511 232.652 15.2153 232.504 15.559C232.356 15.8999 232.283 16.3034 232.283 16.7693C232.283 17.2465 232.355 17.6585 232.5 18.0051C232.645 18.3517 232.849 18.6201 233.114 18.8105C233.381 19.0008 233.695 19.096 234.055 19.096C234.297 19.096 234.516 19.0519 234.712 18.9639C234.91 18.873 235.077 18.7437 235.21 18.5761C235.347 18.4085 235.442 18.2068 235.496 17.971H236.736C236.69 18.3943 236.552 18.7721 236.322 19.1045C236.092 19.4369 235.784 19.6982 235.398 19.8886C235.014 20.0789 234.564 20.1741 234.047 20.1741ZM240.919 20.1741C240.274 20.1741 239.719 20.0363 239.253 19.7607C238.79 19.4823 238.432 19.0917 238.179 18.5889C237.929 18.0832 237.804 17.4909 237.804 16.8119C237.804 16.1414 237.929 15.5505 238.179 15.0392C238.432 14.5278 238.784 14.1286 239.236 13.8417C239.691 13.5548 240.222 13.4113 240.83 13.4113C241.199 13.4113 241.557 13.4724 241.904 13.5945C242.25 13.7167 242.561 13.9085 242.837 14.1698C243.112 14.4312 243.33 14.7707 243.489 15.1883C243.648 15.6031 243.728 16.1073 243.728 16.7011V17.1528H238.524V16.1982H242.479C242.479 15.863 242.411 15.5661 242.274 15.3076C242.138 15.0463 241.946 14.8403 241.699 14.6897C241.455 14.5392 241.168 14.4639 240.838 14.4639C240.48 14.4639 240.168 14.5519 239.901 14.7281C239.637 14.9014 239.432 15.1286 239.287 15.4099C239.145 15.6883 239.074 15.9909 239.074 16.3176V17.0633C239.074 17.5008 239.151 17.873 239.304 18.1798C239.461 18.4866 239.678 18.721 239.956 18.8829C240.235 19.042 240.56 19.1215 240.932 19.1215C241.174 19.1215 241.394 19.0874 241.593 19.0193C241.791 18.9482 241.963 18.8431 242.108 18.7039C242.253 18.5647 242.364 18.3928 242.441 18.1883L243.647 18.4056C243.55 18.7607 243.377 19.0718 243.127 19.3389C242.88 19.6031 242.568 19.809 242.193 19.9568C241.821 20.1017 241.397 20.1741 240.919 20.1741ZM251.338 20.1613C250.753 20.1613 250.23 20.0605 249.77 19.8588C249.313 19.657 248.951 19.3772 248.684 19.0193C248.419 18.6585 248.277 18.2409 248.257 17.7664H249.595C249.612 18.0249 249.699 18.2494 249.855 18.4397C250.014 18.6272 250.222 18.7721 250.478 18.8744C250.733 18.9767 251.017 19.0278 251.33 19.0278C251.674 19.0278 251.978 18.9681 252.242 18.8488C252.509 18.7295 252.718 18.5633 252.868 18.3502C253.019 18.1343 253.094 17.8857 253.094 17.6045C253.094 17.3119 253.019 17.0548 252.868 16.8332C252.72 16.6088 252.503 16.4326 252.216 16.3048C251.932 16.1769 251.588 16.113 251.185 16.113H250.448V15.0392H251.185C251.509 15.0392 251.793 14.9809 252.037 14.8644C252.284 14.748 252.478 14.586 252.617 14.3786C252.756 14.1684 252.826 13.9227 252.826 13.6414C252.826 13.3715 252.764 13.1372 252.642 12.9383C252.523 12.7366 252.353 12.5789 252.131 12.4653C251.912 12.3517 251.654 12.2948 251.355 12.2948C251.071 12.2948 250.806 12.3474 250.559 12.4525C250.314 12.5548 250.115 12.7025 249.962 12.8957C249.809 13.086 249.726 13.3147 249.715 13.5818L248.441 13.5818C248.455 13.1102 248.594 12.6954 248.858 12.3374C249.125 11.9795 249.478 11.6997 249.915 11.498C250.353 11.2963 250.838 11.1954 251.372 11.1954C251.932 11.1954 252.415 11.3048 252.821 11.5235C253.23 11.7394 253.546 12.0278 253.767 12.3886C253.992 12.7494 254.103 13.1443 254.1 13.5732C254.103 14.0619 253.966 14.4767 253.691 14.8176C253.418 15.1585 253.054 15.3872 252.6 15.5036V15.5718C253.179 15.6599 253.628 15.89 253.946 16.2622C254.267 16.6343 254.426 17.096 254.424 17.6471C254.426 18.1272 254.293 18.5576 254.023 18.9383C253.756 19.319 253.391 19.6187 252.928 19.8374C252.465 20.0534 251.935 20.1613 251.338 20.1613Z" fill="white"/>
</g>
<path d="M105.59 351.917V351.917C105.59 318.113 129.934 289.222 163.247 283.488L217.179 274.206C255.004 267.697 282.644 234.893 282.644 196.512V196.512" stroke="url(#paint10_linear_462_5846)" stroke-width="0.5"/>
<path d="M191.645 351.917L191.645 341.394C191.645 312.732 209.965 287.277 237.145 278.175V278.175C264.324 269.074 282.645 243.619 282.645 214.957L282.645 196.512" stroke="url(#paint11_linear_462_5846)" stroke-width="0.5"/>
<line x1="282.895" y1="196.512" x2="282.895" y2="351.916" stroke="url(#paint12_linear_462_5846)" stroke-width="0.5"/>
<rect x="85.0645" y="351.917" width="53.413" height="32.0835" rx="16.0418" fill="#08090B"/>
<path d="M96.0778 372.086C95.5494 372.086 95.0778 371.951 94.663 371.682C94.2511 371.409 93.9272 371.021 93.6915 370.518C93.4585 370.012 93.342 369.406 93.342 368.699C93.342 367.991 93.4599 367.386 93.6957 366.883C93.9343 366.38 94.2611 365.995 94.6758 365.728C95.0906 365.461 95.5608 365.328 96.0863 365.328C96.4926 365.328 96.8193 365.396 97.0665 365.532C97.3165 365.666 97.5096 365.822 97.646 366.001C97.7852 366.18 97.8932 366.338 97.9699 366.474H98.0466V363.231H99.3207V371.958H98.0764V370.94H97.9699C97.8932 371.079 97.7824 371.238 97.6375 371.417C97.4954 371.596 97.2994 371.753 97.0494 371.886C96.7994 372.02 96.4755 372.086 96.0778 372.086ZM96.3591 371C96.7255 371 97.0352 370.903 97.288 370.71C97.5437 370.514 97.7369 370.243 97.8676 369.896C98.0011 369.549 98.0679 369.146 98.0679 368.686C98.0679 368.231 98.0025 367.833 97.8718 367.493C97.7412 367.152 97.5494 366.886 97.2966 366.696C97.0437 366.505 96.7312 366.41 96.3591 366.41C95.9755 366.41 95.6559 366.51 95.4003 366.708C95.1446 366.907 94.9514 367.179 94.8207 367.522C94.6929 367.866 94.629 368.254 94.629 368.686C94.629 369.123 94.6943 369.517 94.825 369.866C94.9557 370.216 95.1488 370.493 95.4045 370.697C95.663 370.899 95.9812 371 96.3591 371ZM101.979 371.958H100.581L103.722 363.231H105.243L108.384 371.958H106.986L104.519 364.816H104.45L101.979 371.958ZM102.213 368.541H106.747V369.649H102.213V368.541ZM109.542 374.413V365.413H110.786V366.474H110.892C110.966 366.338 111.073 366.18 111.212 366.001C111.351 365.822 111.544 365.666 111.792 365.532C112.039 365.396 112.365 365.328 112.772 365.328C113.3 365.328 113.772 365.461 114.186 365.728C114.601 365.995 114.927 366.38 115.162 366.883C115.401 367.386 115.52 367.991 115.52 368.699C115.52 369.406 115.402 370.012 115.167 370.518C114.931 371.021 114.607 371.409 114.195 371.682C113.783 371.951 113.313 372.086 112.784 372.086C112.387 372.086 112.061 372.02 111.809 371.886C111.559 371.753 111.363 371.596 111.221 371.417C111.079 371.238 110.969 371.079 110.892 370.94H110.816V374.413H109.542ZM110.79 368.686C110.79 369.146 110.857 369.549 110.99 369.896C111.124 370.243 111.317 370.514 111.57 370.71C111.823 370.903 112.133 371 112.499 371C112.88 371 113.198 370.899 113.454 370.697C113.709 370.493 113.902 370.216 114.033 369.866C114.167 369.517 114.233 369.123 114.233 368.686C114.233 368.254 114.168 367.866 114.037 367.522C113.909 367.179 113.716 366.907 113.458 366.708C113.202 366.51 112.883 366.41 112.499 366.41C112.13 366.41 111.817 366.505 111.561 366.696C111.309 366.886 111.117 367.152 110.986 367.493C110.856 367.833 110.79 368.231 110.79 368.686ZM116.948 374.413V365.413H118.192V366.474H118.299C118.373 366.338 118.479 366.18 118.618 366.001C118.758 365.822 118.951 365.666 119.198 365.532C119.445 365.396 119.772 365.328 120.178 365.328C120.706 365.328 121.178 365.461 121.593 365.728C122.008 365.995 122.333 366.38 122.569 366.883C122.807 367.386 122.927 367.991 122.927 368.699C122.927 369.406 122.809 370.012 122.573 370.518C122.337 371.021 122.013 371.409 121.601 371.682C121.189 371.951 120.719 372.086 120.191 372.086C119.793 372.086 119.468 372.02 119.215 371.886C118.965 371.753 118.769 371.596 118.627 371.417C118.485 371.238 118.375 371.079 118.299 370.94H118.222V374.413H116.948ZM118.196 368.686C118.196 369.146 118.263 369.549 118.397 369.896C118.53 370.243 118.723 370.514 118.976 370.71C119.229 370.903 119.539 371 119.905 371C120.286 371 120.604 370.899 120.86 370.697C121.115 370.493 121.309 370.216 121.439 369.866C121.573 369.517 121.64 369.123 121.64 368.686C121.64 368.254 121.574 367.866 121.444 367.522C121.316 367.179 121.123 366.907 120.864 366.708C120.608 366.51 120.289 366.41 119.905 366.41C119.536 366.41 119.223 366.505 118.968 366.696C118.715 366.886 118.523 367.152 118.392 367.493C118.262 367.833 118.196 368.231 118.196 368.686ZM129.259 367.011L128.104 367.216C128.056 367.068 127.979 366.927 127.874 366.794C127.772 366.66 127.633 366.551 127.456 366.466C127.28 366.38 127.06 366.338 126.796 366.338C126.435 366.338 126.134 366.419 125.892 366.581C125.651 366.74 125.53 366.946 125.53 367.199C125.53 367.417 125.611 367.593 125.773 367.727C125.935 367.86 126.196 367.97 126.557 368.055L127.597 368.294C128.199 368.433 128.648 368.647 128.944 368.937C129.239 369.227 129.387 369.603 129.387 370.066C129.387 370.458 129.273 370.808 129.046 371.115C128.821 371.419 128.508 371.657 128.104 371.831C127.704 372.004 127.239 372.091 126.711 372.091C125.978 372.091 125.38 371.934 124.917 371.622C124.454 371.307 124.169 370.859 124.064 370.28L125.296 370.092C125.373 370.413 125.53 370.656 125.769 370.821C126.008 370.983 126.319 371.064 126.702 371.064C127.12 371.064 127.454 370.977 127.704 370.804C127.954 370.628 128.079 370.413 128.079 370.16C128.079 369.956 128.002 369.784 127.848 369.645C127.698 369.505 127.466 369.4 127.154 369.329L126.046 369.086C125.435 368.947 124.983 368.726 124.691 368.422C124.401 368.118 124.256 367.733 124.256 367.267C124.256 366.88 124.364 366.542 124.58 366.253C124.796 365.963 125.094 365.737 125.475 365.575C125.856 365.41 126.292 365.328 126.783 365.328C127.49 365.328 128.047 365.481 128.454 365.788C128.86 366.092 129.128 366.5 129.259 367.011Z" fill="white"/>
<rect x="250.75" y="352.417" width="69.2283" height="31.0835" rx="15.5418" fill="#08090B"/>
<rect x="250.75" y="352.417" width="69.2283" height="31.0835" rx="15.5418" stroke="url(#paint13_linear_462_5846)"/>
<path d="M258.823 371.958V363.231H261.934C262.613 363.231 263.175 363.355 263.621 363.602C264.067 363.849 264.401 364.187 264.623 364.616C264.844 365.042 264.955 365.522 264.955 366.057C264.955 366.593 264.843 367.076 264.618 367.505C264.397 367.932 264.062 368.27 263.613 368.52C263.167 368.767 262.606 368.89 261.929 368.89H259.79V367.774H261.81C262.239 367.774 262.587 367.7 262.854 367.552C263.121 367.402 263.317 367.197 263.442 366.939C263.567 366.68 263.63 366.386 263.63 366.057C263.63 365.727 263.567 365.434 263.442 365.179C263.317 364.923 263.12 364.723 262.85 364.578C262.583 364.433 262.231 364.36 261.793 364.36H260.14V371.958H258.823ZM266.396 371.958V365.413H267.628V366.453H267.696C267.815 366.101 268.026 365.824 268.327 365.622C268.631 365.417 268.975 365.315 269.358 365.315C269.438 365.315 269.531 365.318 269.639 365.324C269.75 365.329 269.837 365.336 269.899 365.345V366.564C269.848 366.549 269.757 366.534 269.627 366.517C269.496 366.497 269.365 366.487 269.235 366.487C268.933 366.487 268.665 366.551 268.429 366.679C268.196 366.804 268.012 366.978 267.875 367.203C267.739 367.424 267.671 367.677 267.671 367.961V371.958H266.396ZM273.525 372.091C272.911 372.091 272.375 371.95 271.918 371.669C271.461 371.387 271.106 370.994 270.853 370.488C270.6 369.983 270.474 369.392 270.474 368.716C270.474 368.037 270.6 367.443 270.853 366.934C271.106 366.426 271.461 366.031 271.918 365.75C272.375 365.468 272.911 365.328 273.525 365.328C274.138 365.328 274.674 365.468 275.131 365.75C275.589 366.031 275.944 366.426 276.197 366.934C276.449 367.443 276.576 368.037 276.576 368.716C276.576 369.392 276.449 369.983 276.197 370.488C275.944 370.994 275.589 371.387 275.131 371.669C274.674 371.95 274.138 372.091 273.525 372.091ZM273.529 371.021C273.927 371.021 274.256 370.916 274.518 370.706C274.779 370.495 274.972 370.216 275.097 369.866C275.225 369.517 275.289 369.132 275.289 368.711C275.289 368.294 275.225 367.91 275.097 367.561C274.972 367.208 274.779 366.926 274.518 366.713C274.256 366.5 273.927 366.393 273.529 366.393C273.128 366.393 272.796 366.5 272.532 366.713C272.27 366.926 272.076 367.208 271.948 367.561C271.823 367.91 271.76 368.294 271.76 368.711C271.76 369.132 271.823 369.517 271.948 369.866C272.076 370.216 272.27 370.495 272.532 370.706C272.796 370.916 273.128 371.021 273.529 371.021ZM281.053 365.413V366.436H277.478V365.413H281.053ZM278.437 363.845H279.711V370.037C279.711 370.284 279.748 370.47 279.822 370.595C279.896 370.717 279.991 370.801 280.107 370.846C280.227 370.889 280.356 370.91 280.495 370.91C280.597 370.91 280.687 370.903 280.764 370.889C280.84 370.875 280.9 370.863 280.943 370.855L281.173 371.907C281.099 371.936 280.994 371.964 280.857 371.993C280.721 372.024 280.551 372.041 280.346 372.044C280.011 372.049 279.698 371.99 279.409 371.865C279.119 371.74 278.884 371.547 278.705 371.285C278.526 371.024 278.437 370.696 278.437 370.301V363.845ZM285.15 372.091C284.536 372.091 284 371.95 283.543 371.669C283.086 371.387 282.731 370.994 282.478 370.488C282.225 369.983 282.099 369.392 282.099 368.716C282.099 368.037 282.225 367.443 282.478 366.934C282.731 366.426 283.086 366.031 283.543 365.75C284 365.468 284.536 365.328 285.15 365.328C285.763 365.328 286.299 365.468 286.756 365.75C287.214 366.031 287.569 366.426 287.822 366.934C288.074 367.443 288.201 368.037 288.201 368.716C288.201 369.392 288.074 369.983 287.822 370.488C287.569 370.994 287.214 371.387 286.756 371.669C286.299 371.95 285.763 372.091 285.15 372.091ZM285.154 371.021C285.552 371.021 285.881 370.916 286.143 370.706C286.404 370.495 286.597 370.216 286.722 369.866C286.85 369.517 286.914 369.132 286.914 368.711C286.914 368.294 286.85 367.91 286.722 367.561C286.597 367.208 286.404 366.926 286.143 366.713C285.881 366.5 285.552 366.393 285.154 366.393C284.753 366.393 284.421 366.5 284.157 366.713C283.895 366.926 283.701 367.208 283.573 367.561C283.448 367.91 283.385 368.294 283.385 368.711C283.385 369.132 283.448 369.517 283.573 369.866C283.701 370.216 283.895 370.495 284.157 370.706C284.421 370.916 284.753 371.021 285.154 371.021ZM292.38 372.091C291.747 372.091 291.201 371.947 290.744 371.66C290.289 371.37 289.94 370.971 289.695 370.463C289.451 369.954 289.329 369.372 289.329 368.716C289.329 368.051 289.454 367.464 289.704 366.956C289.954 366.444 290.306 366.045 290.761 365.758C291.215 365.471 291.751 365.328 292.367 365.328C292.864 365.328 293.308 365.42 293.697 365.605C294.086 365.787 294.4 366.042 294.639 366.372C294.88 366.701 295.024 367.086 295.069 367.527H293.829C293.761 367.22 293.605 366.956 293.36 366.734C293.119 366.512 292.795 366.402 292.389 366.402C292.034 366.402 291.722 366.495 291.455 366.683C291.191 366.868 290.985 367.132 290.838 367.476C290.69 367.816 290.616 368.22 290.616 368.686C290.616 369.163 290.688 369.575 290.833 369.922C290.978 370.268 291.183 370.537 291.447 370.727C291.714 370.917 292.028 371.012 292.389 371.012C292.63 371.012 292.849 370.968 293.045 370.88C293.244 370.789 293.41 370.66 293.543 370.493C293.68 370.325 293.775 370.123 293.829 369.887H295.069C295.024 370.311 294.886 370.689 294.656 371.021C294.426 371.353 294.117 371.615 293.731 371.805C293.347 371.995 292.897 372.091 292.38 372.091ZM299.189 372.091C298.575 372.091 298.04 371.95 297.582 371.669C297.125 371.387 296.77 370.994 296.517 370.488C296.264 369.983 296.138 369.392 296.138 368.716C296.138 368.037 296.264 367.443 296.517 366.934C296.77 366.426 297.125 366.031 297.582 365.75C298.04 365.468 298.575 365.328 299.189 365.328C299.802 365.328 300.338 365.468 300.795 365.75C301.253 366.031 301.608 366.426 301.861 366.934C302.113 367.443 302.24 368.037 302.24 368.716C302.24 369.392 302.113 369.983 301.861 370.488C301.608 370.994 301.253 371.387 300.795 371.669C300.338 371.95 299.802 372.091 299.189 372.091ZM299.193 371.021C299.591 371.021 299.92 370.916 300.182 370.706C300.443 370.495 300.636 370.216 300.761 369.866C300.889 369.517 300.953 369.132 300.953 368.711C300.953 368.294 300.889 367.91 300.761 367.561C300.636 367.208 300.443 366.926 300.182 366.713C299.92 366.5 299.591 366.393 299.193 366.393C298.792 366.393 298.46 366.5 298.196 366.713C297.934 366.926 297.74 367.208 297.612 367.561C297.487 367.91 297.425 368.294 297.425 368.711C297.425 369.132 297.487 369.517 297.612 369.866C297.74 370.216 297.934 370.495 298.196 370.706C298.46 370.916 298.792 371.021 299.193 371.021ZM304.936 363.231V371.958H303.662V363.231H304.936ZM311.555 367.011L310.4 367.216C310.352 367.068 310.275 366.927 310.17 366.794C310.068 366.66 309.929 366.551 309.753 366.466C309.576 366.38 309.356 366.338 309.092 366.338C308.731 366.338 308.43 366.419 308.189 366.581C307.947 366.74 307.826 366.946 307.826 367.199C307.826 367.417 307.907 367.593 308.069 367.727C308.231 367.86 308.493 367.97 308.853 368.055L309.893 368.294C310.496 368.433 310.944 368.647 311.24 368.937C311.535 369.227 311.683 369.603 311.683 370.066C311.683 370.458 311.569 370.808 311.342 371.115C311.118 371.419 310.804 371.657 310.4 371.831C310 372.004 309.535 372.091 309.007 372.091C308.274 372.091 307.676 371.934 307.213 371.622C306.75 371.307 306.466 370.859 306.361 370.28L307.592 370.092C307.669 370.413 307.826 370.656 308.065 370.821C308.304 370.983 308.615 371.064 308.998 371.064C309.416 371.064 309.75 370.977 310 370.804C310.25 370.628 310.375 370.413 310.375 370.16C310.375 369.956 310.298 369.784 310.145 369.645C309.994 369.505 309.763 369.4 309.45 369.329L308.342 369.086C307.731 368.947 307.28 368.726 306.987 368.422C306.697 368.118 306.552 367.733 306.552 367.267C306.552 366.88 306.66 366.542 306.876 366.253C307.092 365.963 307.39 365.737 307.771 365.575C308.152 365.41 308.588 365.328 309.079 365.328C309.787 365.328 310.344 365.481 310.75 365.788C311.156 366.092 311.425 366.5 311.555 367.011Z" fill="white"/>
<rect x="161.229" y="351.917" width="71.2174" height="32.0835" rx="16.0418" fill="#08090B"/>
<path d="M176.84 363.231V371.958H175.63L171.194 365.558H171.113V371.958H169.796V363.231H171.015L175.455 369.64H175.536V363.231H176.84ZM181.48 372.091C180.835 372.091 180.279 371.953 179.813 371.677C179.35 371.399 178.992 371.008 178.74 370.505C178.49 370 178.365 369.407 178.365 368.728C178.365 368.058 178.49 367.467 178.74 366.956C178.992 366.444 179.345 366.045 179.796 365.758C180.251 365.471 180.782 365.328 181.39 365.328C181.759 365.328 182.117 365.389 182.464 365.511C182.811 365.633 183.122 365.825 183.397 366.086C183.673 366.348 183.89 366.687 184.049 367.105C184.208 367.52 184.288 368.024 184.288 368.618V369.069H179.085V368.115H183.039C183.039 367.78 182.971 367.483 182.835 367.224C182.698 366.963 182.507 366.757 182.259 366.606C182.015 366.456 181.728 366.38 181.399 366.38C181.041 366.38 180.728 366.468 180.461 366.645C180.197 366.818 179.992 367.045 179.848 367.326C179.705 367.605 179.634 367.907 179.634 368.234V368.98C179.634 369.417 179.711 369.789 179.865 370.096C180.021 370.403 180.238 370.637 180.517 370.799C180.795 370.958 181.12 371.038 181.492 371.038C181.734 371.038 181.954 371.004 182.153 370.936C182.352 370.865 182.524 370.76 182.669 370.62C182.813 370.481 182.924 370.309 183.001 370.105L184.207 370.322C184.11 370.677 183.937 370.988 183.687 371.255C183.44 371.52 183.129 371.726 182.754 371.873C182.382 372.018 181.957 372.091 181.48 372.091ZM188.757 365.413V366.436H185.182V365.413H188.757ZM186.14 363.845H187.415V370.037C187.415 370.284 187.452 370.47 187.525 370.595C187.599 370.717 187.694 370.801 187.811 370.846C187.93 370.889 188.06 370.91 188.199 370.91C188.301 370.91 188.39 370.903 188.467 370.889C188.544 370.875 188.604 370.863 188.646 370.855L188.876 371.907C188.802 371.936 188.697 371.964 188.561 371.993C188.425 372.024 188.254 372.041 188.05 372.044C187.714 372.049 187.402 371.99 187.112 371.865C186.822 371.74 186.588 371.547 186.409 371.285C186.23 371.024 186.14 370.696 186.14 370.301V363.845ZM191.585 371.958L189.659 365.413H190.976L192.259 370.22H192.323L193.61 365.413H194.926L196.205 370.199H196.269L197.543 365.413H198.86L196.938 371.958H195.638L194.308 367.233H194.21L192.881 371.958H191.585ZM202.627 372.091C202.013 372.091 201.477 371.95 201.02 371.669C200.563 371.387 200.208 370.994 199.955 370.488C199.702 369.983 199.576 369.392 199.576 368.716C199.576 368.037 199.702 367.443 199.955 366.934C200.208 366.426 200.563 366.031 201.02 365.75C201.477 365.468 202.013 365.328 202.627 365.328C203.24 365.328 203.776 365.468 204.233 365.75C204.691 366.031 205.046 366.426 205.299 366.934C205.551 367.443 205.678 368.037 205.678 368.716C205.678 369.392 205.551 369.983 205.299 370.488C205.046 370.994 204.691 371.387 204.233 371.669C203.776 371.95 203.24 372.091 202.627 372.091ZM202.631 371.021C203.029 371.021 203.358 370.916 203.62 370.706C203.881 370.495 204.074 370.216 204.199 369.866C204.327 369.517 204.391 369.132 204.391 368.711C204.391 368.294 204.327 367.91 204.199 367.561C204.074 367.208 203.881 366.926 203.62 366.713C203.358 366.5 203.029 366.393 202.631 366.393C202.23 366.393 201.898 366.5 201.634 366.713C201.372 366.926 201.178 367.208 201.05 367.561C200.925 367.91 200.862 368.294 200.862 368.711C200.862 369.132 200.925 369.517 201.05 369.866C201.178 370.216 201.372 370.495 201.634 370.706C201.898 370.916 202.23 371.021 202.631 371.021ZM207.1 371.958V365.413H208.332V366.453H208.4C208.519 366.101 208.729 365.824 209.03 365.622C209.334 365.417 209.678 365.315 210.062 365.315C210.141 365.315 210.235 365.318 210.343 365.324C210.454 365.329 210.54 365.336 210.603 365.345V366.564C210.552 366.549 210.461 366.534 210.33 366.517C210.199 366.497 210.069 366.487 209.938 366.487C209.637 366.487 209.368 366.551 209.133 366.679C208.9 366.804 208.715 366.978 208.579 367.203C208.442 367.424 208.374 367.677 208.374 367.961V371.958H207.1ZM212.877 369.738L212.869 368.183H213.09L215.698 365.413H217.224L214.25 368.566H214.049L212.877 369.738ZM211.705 371.958V363.231H212.98V371.958H211.705ZM215.839 371.958L213.495 368.848L214.373 367.957L217.403 371.958H215.839ZM223.29 367.011L222.135 367.216C222.087 367.068 222.01 366.927 221.905 366.794C221.803 366.66 221.664 366.551 221.487 366.466C221.311 366.38 221.091 366.338 220.827 366.338C220.466 366.338 220.165 366.419 219.924 366.581C219.682 366.74 219.561 366.946 219.561 367.199C219.561 367.417 219.642 367.593 219.804 367.727C219.966 367.86 220.227 367.97 220.588 368.055L221.628 368.294C222.23 368.433 222.679 368.647 222.975 368.937C223.27 369.227 223.418 369.603 223.418 370.066C223.418 370.458 223.304 370.808 223.077 371.115C222.852 371.419 222.539 371.657 222.135 371.831C221.735 372.004 221.27 372.091 220.742 372.091C220.009 372.091 219.411 371.934 218.948 371.622C218.485 371.307 218.201 370.859 218.095 370.28L219.327 370.092C219.404 370.413 219.561 370.656 219.8 370.821C220.039 370.983 220.35 371.064 220.733 371.064C221.151 371.064 221.485 370.977 221.735 370.804C221.985 370.628 222.11 370.413 222.11 370.16C222.11 369.956 222.033 369.784 221.879 369.645C221.729 369.505 221.497 369.4 221.185 369.329L220.077 369.086C219.466 368.947 219.014 368.726 218.722 368.422C218.432 368.118 218.287 367.733 218.287 367.267C218.287 366.88 218.395 366.542 218.611 366.253C218.827 365.963 219.125 365.737 219.506 365.575C219.887 365.41 220.323 365.328 220.814 365.328C221.522 365.328 222.078 365.481 222.485 365.788C222.891 366.092 223.159 366.5 223.29 367.011Z" fill="white"/>
<g filter="url(#filter3_d_462_5846)">
<ellipse cx="4.01044" cy="3.95652" rx="4.01044" ry="3.95652" transform="matrix(-1.17645e-08 -1 -1 1.20874e-08 187.936 284.742)" fill="#FFE000"/>
</g>
<g filter="url(#filter4_d_462_5846)">
<ellipse cx="250.745" cy="272.209" rx="3.50914" ry="3.46196" transform="rotate(-90 250.745 272.209)" fill="#FFE000"/>
</g>
<g filter="url(#filter5_d_462_5846)">
<ellipse cx="282.397" cy="326.35" rx="3.50914" ry="3.46196" transform="rotate(-90 282.397 326.35)" fill="#FFE000"/>
</g>
<defs>
<filter id="filter0_d_462_5846" x="86.128" y="66.3501" width="39.913" height="37.0132" filterUnits="userSpaceOnUse" color-interpolation-filters="sRGB">
<feFlood flood-opacity="0" result="BackgroundImageFix"/>
<feColorMatrix in="SourceAlpha" type="matrix" values="0 0 0 0 0 0 0 0 0 0 0 0 0 0 0 0 0 0 127 0" result="hardAlpha"/>
<feOffset/>
<feGaussianBlur stdDeviation="8"/>
<feComposite in2="hardAlpha" operator="out"/>
<feColorMatrix type="matrix" values="0 0 0 0 1 0 0 0 0 1 0 0 0 0 1 0 0 0 1 0"/>
<feBlend mode="normal" in2="BackgroundImageFix" result="effect1_dropShadow_462_5846"/>
<feBlend mode="normal" in="SourceGraphic" in2="effect1_dropShadow_462_5846" result="shape"/>
</filter>
<filter id="filter1_d_462_5846" x="189.986" y="49.3057" width="38.9239" height="36.0103" filterUnits="userSpaceOnUse" color-interpolation-filters="sRGB">
<feFlood flood-opacity="0" result="BackgroundImageFix"/>
<feColorMatrix in="SourceAlpha" type="matrix" values="0 0 0 0 0 0 0 0 0 0 0 0 0 0 0 0 0 0 127 0" result="hardAlpha"/>
<feOffset/>
<feGaussianBlur stdDeviation="8"/>
<feComposite in2="hardAlpha" operator="out"/>
<feColorMatrix type="matrix" values="0 0 0 0 1 0 0 0 0 1 0 0 0 0 1 0 0 0 1 0"/>
<feBlend mode="normal" in2="BackgroundImageFix" result="effect1_dropShadow_462_5846"/>
<feBlend mode="normal" in="SourceGraphic" in2="effect1_dropShadow_462_5846" result="shape"/>
</filter>
<filter id="filter2_d_462_5846" x="36.6719" y="33.2642" width="38.9239" height="36.0103" filterUnits="userSpaceOnUse" color-interpolation-filters="sRGB">
<feFlood flood-opacity="0" result="BackgroundImageFix"/>
<feColorMatrix in="SourceAlpha" type="matrix" values="0 0 0 0 0 0 0 0 0 0 0 0 0 0 0 0 0 0 127 0" result="hardAlpha"/>
<feOffset/>
<feGaussianBlur stdDeviation="8"/>
<feComposite in2="hardAlpha" operator="out"/>
<feColorMatrix type="matrix" values="0 0 0 0 1 0 0 0 0 1 0 0 0 0 1 0 0 0 1 0"/>
<feBlend mode="normal" in2="BackgroundImageFix" result="effect1_dropShadow_462_5846"/>
<feBlend mode="normal" in="SourceGraphic" in2="effect1_dropShadow_462_5846" result="shape"/>
</filter>
<filter id="filter3_d_462_5846" x="164.023" y="260.721" width="39.913" height="40.021" filterUnits="userSpaceOnUse" color-interpolation-filters="sRGB">
<feFlood flood-opacity="0" result="BackgroundImageFix"/>
<feColorMatrix in="SourceAlpha" type="matrix" values="0 0 0 0 0 0 0 0 0 0 0 0 0 0 0 0 0 0 127 0" result="hardAlpha"/>
<feOffset/>
<feGaussianBlur stdDeviation="8"/>
<feComposite in2="hardAlpha" operator="out"/>
<feColorMatrix type="matrix" values="0 0 0 0 0.619213 0 0 0 0 1 0 0 0 0 0.347222 0 0 0 1 0"/>
<feBlend mode="normal" in2="BackgroundImageFix" result="effect1_dropShadow_462_5846"/>
<feBlend mode="normal" in="SourceGraphic" in2="effect1_dropShadow_462_5846" result="shape"/>
</filter>
<filter id="filter4_d_462_5846" x="231.283" y="252.7" width="38.9239" height="39.0181" filterUnits="userSpaceOnUse" color-interpolation-filters="sRGB">
<feFlood flood-opacity="0" result="BackgroundImageFix"/>
<feColorMatrix in="SourceAlpha" type="matrix" values="0 0 0 0 0 0 0 0 0 0 0 0 0 0 0 0 0 0 127 0" result="hardAlpha"/>
<feOffset/>
<feGaussianBlur stdDeviation="8"/>
<feComposite in2="hardAlpha" operator="out"/>
<feColorMatrix type="matrix" values="0 0 0 0 0.619213 0 0 0 0 1 0 0 0 0 0.347222 0 0 0 1 0"/>
<feBlend mode="normal" in2="BackgroundImageFix" result="effect1_dropShadow_462_5846"/>
<feBlend mode="normal" in="SourceGraphic" in2="effect1_dropShadow_462_5846" result="shape"/>
</filter>
<filter id="filter5_d_462_5846" x="262.936" y="306.841" width="38.9239" height="39.0181" filterUnits="userSpaceOnUse" color-interpolation-filters="sRGB">
<feFlood flood-opacity="0" result="BackgroundImageFix"/>
<feColorMatrix in="SourceAlpha" type="matrix" values="0 0 0 0 0 0 0 0 0 0 0 0 0 0 0 0 0 0 127 0" result="hardAlpha"/>
<feOffset/>
<feGaussianBlur stdDeviation="8"/>
<feComposite in2="hardAlpha" operator="out"/>
<feColorMatrix type="matrix" values="0 0 0 0 0.619213 0 0 0 0 1 0 0 0 0 0.347222 0 0 0 1 0"/>
<feBlend mode="normal" in2="BackgroundImageFix" result="effect1_dropShadow_462_5846"/>
<feBlend mode="normal" in="SourceGraphic" in2="effect1_dropShadow_462_5846" result="shape"/>
</filter>
<linearGradient id="paint0_linear_462_5846" x1="11.3688" y1="153.378" x2="22.1614" y2="166.334" gradientUnits="userSpaceOnUse">
<stop stop-color="#FFE000"/>
<stop offset="1" stop-color="#1E1E1E"/>
</linearGradient>
<linearGradient id="paint1_linear_462_5846" x1="94.6687" y1="177.931" x2="104.096" y2="189.88" gradientUnits="userSpaceOnUse">
<stop stop-color="#0B0B0B" stop-opacity="0"/>
<stop offset="1" stop-color="#FFE000"/>
</linearGradient>
<linearGradient id="paint2_linear_462_5846" x1="119.128" y1="153.378" x2="130.037" y2="165.538" gradientUnits="userSpaceOnUse">
<stop stop-color="#FFE000"/>
<stop offset="1" stop-color="#1E1E1E"/>
</linearGradient>
<linearGradient id="paint3_linear_462_5846" x1="196.478" y1="177.931" x2="206.044" y2="189.19" gradientUnits="userSpaceOnUse">
<stop stop-color="#0B0B0B" stop-opacity="0"/>
<stop offset="1" stop-color="#FFE000"/>
</linearGradient>
<linearGradient id="paint4_linear_462_5846" x1="234.375" y1="179.498" x2="235.616" y2="175.075" gradientUnits="userSpaceOnUse">
<stop stop-color="#FFE000"/>
<stop offset="1" stop-color="#1E1E1E"/>
</linearGradient>
<linearGradient id="paint5_linear_462_5846" x1="339.928" y1="177.931" x2="347.493" y2="161.27" gradientUnits="userSpaceOnUse">
<stop stop-color="#0B0B0B" stop-opacity="0"/>
<stop offset="1" stop-color="#FFE000"/>
</linearGradient>
<linearGradient id="paint6_linear_462_5846" x1="146.639" y1="30.8035" x2="114.118" y2="159.987" gradientUnits="userSpaceOnUse">
<stop offset="0.387413" stop-color="#1E1E1E"/>
<stop offset="0.472615" stop-color="white"/>
<stop offset="0.544046" stop-color="#1E1E1E"/>
</linearGradient>
<linearGradient id="paint7_linear_462_5846" x1="231.703" y1="30.8045" x2="214.241" y2="165.822" gradientUnits="userSpaceOnUse">
<stop offset="0.46091" stop-color="#1E1E1E"/>
<stop offset="0.57641" stop-color="white"/>
<stop offset="0.628954" stop-color="#1E1E1E"/>
</linearGradient>
<linearGradient id="paint8_linear_462_5846" x1="55.1387" y1="32.2197" x2="55.1387" y2="145.515" gradientUnits="userSpaceOnUse">
<stop offset="0.0953358" stop-color="#1E1E1E"/>
<stop offset="0.170531" stop-color="white"/>
<stop offset="0.238677" stop-color="#1E1E1E"/>
<stop offset="0.798999" stop-color="#1E1E1E"/>
<stop offset="0.900358" stop-color="white"/>
<stop offset="0.985651" stop-color="#1E1E1E"/>
</linearGradient>
<linearGradient id="paint9_linear_462_5846" x1="171.068" y1="16.0418" x2="179.033" y2="16.0418" gradientUnits="userSpaceOnUse">
<stop stop-opacity="0"/>
<stop offset="1" stop-color="white"/>
</linearGradient>
<linearGradient id="paint10_linear_462_5846" x1="105.59" y1="353.859" x2="137.679" y2="171.064" gradientUnits="userSpaceOnUse">
<stop offset="0.387413" stop-color="#1E1E1E"/>
<stop offset="0.472615" stop-color="#FFE000"/>
<stop offset="0.544046" stop-color="#1E1E1E"/>
</linearGradient>
<linearGradient id="paint11_linear_462_5846" x1="191.645" y1="353.859" x2="250.033" y2="185.705" gradientUnits="userSpaceOnUse">
<stop offset="0.46091" stop-color="#1E1E1E"/>
<stop offset="0.57641" stop-color="#FFE000"/>
<stop offset="0.628954" stop-color="#1E1E1E"/>
</linearGradient>
<linearGradient id="paint12_linear_462_5846" x1="282.145" y1="196.512" x2="282.145" y2="351.916" gradientUnits="userSpaceOnUse">
<stop offset="0.753114" stop-color="#1E1E1E"/>
<stop offset="0.833094" stop-color="#FFE000"/>
<stop offset="0.912265" stop-color="#1E1E1E"/>
</linearGradient>
<linearGradient id="paint13_linear_462_5846" x1="257.746" y1="367.958" x2="250.25" y2="367.958" gradientUnits="userSpaceOnUse">
<stop stop-opacity="0"/>
<stop offset="1" stop-color="#FACC15"/>
</linearGradient>
</defs>
</svg>
