<svg xmlns="http://www.w3.org/2000/svg" width="1178" height="215" fill="none"><style>.B{fill:#fff}.C{color-interpolation-filters:sRGB}.D{flood-opacity:0}.E{stroke:#fff}.F{stroke-linecap:round}.G{stroke-linejoin:round}.H{fill:#08090b}.I{fill:#ffe000}.J{stroke-width:.5}.K{fill-rule:evenodd}</style><g class="I" filter="url(#L)"><circle cx="4" cy="4" r="4" transform="matrix(-1 0 0 1 989 53)"/></g><g class="I" filter="url(#M)"><circle cx="974.5" cy="137.5" r="3.5" transform="rotate(180 974.5 137.5)"/></g><g class="I" filter="url(#N)"><circle cx="1045.5" cy="106.5" r="3.5" transform="rotate(180 1045.5 106.5)"/></g><path stroke="url(#A)" d="M462 106.5h47"/><path stroke="url(#B)" d="M669 106.5h47"/><use fill="#000" href="#S"/><g class="J"><use stroke="url(#C)" href="#T"/><use stroke="url(#D)" href="#T"/></g><path d="M357.625 100.958c0 1.312-3.19 2.375-7.125 2.375s-7.125-1.063-7.125-2.375m14.25 0c0-1.311-3.19-2.374-7.125-2.374s-7.125 1.063-7.125 2.374m14.25 0v2.375m-14.25-2.375v11.084c-.004.381.266.756.788 1.095s1.281.63 2.212.851 2.008.362 3.139.415 2.284.014 3.361-.113m4.75-7.79-2.375 3.958h3.167l-2.375 3.959m-12.667-7.917c.001.37.262.735.761 1.066s1.224.617 2.115.838 1.925.369 3.019.433a21 21 0 0 0 3.28-.065" class="E F G"/><path d="M375.276 101.773v8.727h-1.317v-8.727zm3.089 4.841v3.886h-1.274v-6.545h1.223v1.065h.081q.225-.52.707-.835.486-.316 1.223-.316.67 0 1.172.282.502.276.78.826.277.55.277 1.36v4.163h-1.274v-4.01q0-.711-.371-1.112-.371-.405-1.018-.405-.444 0-.789.192a1.4 1.4 0 0 0-.541.562q-.196.367-.196.887m8.348 4.014q-.792 0-1.415-.405-.618-.41-.971-1.163-.35-.76-.35-1.82t.354-1.815q.358-.755.98-1.155a2.55 2.55 0 0 1 1.411-.401q.61 0 .98.205.375.2.579.469.209.268.324.473h.077v-3.243h1.274v8.727h-1.244v-1.018h-.107a3.4 3.4 0 0 1-.332.477 1.9 1.9 0 0 1-.588.469q-.375.2-.972.2m.281-1.087q.55 0 .929-.29.384-.294.58-.813.2-.52.2-1.211 0-.681-.196-1.193a1.76 1.76 0 0 0-.575-.797q-.38-.285-.938-.285-.575 0-.958.298-.384.298-.58.814a3.3 3.3 0 0 0-.192 1.163q0 .656.196 1.181.196.523.58.831.387.302.954.302m7.602 1.091q-.968 0-1.667-.413a2.8 2.8 0 0 1-1.074-1.172q-.375-.759-.375-1.777 0-1.006.375-1.773a2.9 2.9 0 0 1 1.057-1.197q.682-.43 1.594-.431.553 0 1.074.184.52.183.933.575t.652 1.018q.239.622.239 1.513v.452h-5.203v-.955h3.954q0-.503-.204-.89a1.54 1.54 0 0 0-.576-.618 1.6 1.6 0 0 0-.86-.226q-.537 0-.938.264a1.8 1.8 0 0 0-.614.682 2 2 0 0 0-.213.908v.745q0 .657.23 1.117.235.46.652.703.418.239.976.239.363 0 .661-.103.299-.106.515-.315a1.4 1.4 0 0 0 .333-.516l1.206.218q-.145.532-.52.933-.37.396-.933.618a3.5 3.5 0 0 1-1.274.217m5.075-6.677 1.444 2.548 1.458-2.548h1.393l-2.041 3.272 2.058 3.273h-1.393l-1.475-2.446-1.47 2.446h-1.397l2.036-3.273-2.011-3.272zm8.167 6.677q-.968 0-1.666-.413a2.8 2.8 0 0 1-1.074-1.172q-.375-.759-.375-1.777 0-1.006.375-1.773a2.9 2.9 0 0 1 1.056-1.197q.682-.43 1.594-.431.554 0 1.074.184.52.183.933.575t.652 1.018q.239.622.239 1.513v.452h-5.203v-.955h3.954q0-.503-.204-.89a1.54 1.54 0 0 0-.575-.618 1.6 1.6 0 0 0-.861-.226q-.537 0-.938.264a1.77 1.77 0 0 0-.613.682 2 2 0 0 0-.213.908v.745q0 .657.23 1.117.234.46.652.703.417.239.975.239.363 0 .661-.103a1.37 1.37 0 0 0 .848-.831l1.206.218q-.145.532-.52.933-.37.396-.933.618a3.5 3.5 0 0 1-1.274.217m4.222-.132v-6.545h1.231v1.039h.068q.18-.528.631-.831a1.8 1.8 0 0 1 1.031-.306 5 5 0 0 1 .541.029v1.219a2 2 0 0 0-.272-.047 3 3 0 0 0-.392-.03q-.452 0-.806.192-.349.188-.554.524a1.4 1.4 0 0 0-.204.759v3.997zm9.51-4.947-1.155.204a1.4 1.4 0 0 0-.23-.422 1.1 1.1 0 0 0-.418-.328 1.5 1.5 0 0 0-.66-.128q-.541 0-.904.243-.362.239-.362.618a.65.65 0 0 0 .243.528q.243.2.784.329l1.04.238q.903.209 1.347.644.443.434.443 1.129 0 .588-.341 1.048-.337.456-.942.716-.6.26-1.393.26-1.1 0-1.794-.469-.695-.472-.853-1.342l1.232-.187q.115.481.473.728.358.243.933.243.627 0 1.002-.26.375-.264.375-.643a.67.67 0 0 0-.231-.516q-.226-.209-.694-.315l-1.108-.243q-.917-.209-1.355-.665-.435-.456-.435-1.155 0-.579.324-1.014t.895-.678a3.3 3.3 0 0 1 1.308-.247q1.06 0 1.671.461.609.456.805 1.223" class="B"/><use x="208" fill="#000" href="#S"/><g class="J"><use x="208" stroke="url(#E)" href="#T"/><use x="208" stroke="url(#D)" href="#T"/></g><path d="M560.496 98.727a7.9 7.9 0 0 1 3.008 0m0 15.546a7.9 7.9 0 0 1-3.008 0m5.944-14.327a7.9 7.9 0 0 1 2.13 2.137m-14.343 5.921a7.9 7.9 0 0 1 0-3.008m14.327 5.944a7.9 7.9 0 0 1-2.137 2.13m3.355-8.074a7.9 7.9 0 0 1 0 3.008m-14.326-5.945a7.9 7.9 0 0 1 2.137-2.13m-.024 13.125a7.9 7.9 0 0 1-2.129-2.137" class="E F G"/><path d="M585.459 110.5v-8.727h3.111q1.014 0 1.683.349.673.35 1.006.967.332.615.332 1.42 0 .801-.337 1.41a2.27 2.27 0 0 1-1.005.942q-.67.336-1.684.336h-2.356v-1.133h2.237q.64 0 1.04-.183.405-.183.592-.533.188-.35.188-.839 0-.495-.192-.857a1.24 1.24 0 0 0-.592-.554q-.401-.196-1.053-.196h-1.653v7.598zm4.308-3.938 2.156 3.938h-1.5l-2.113-3.938zm6.063 4.07q-.967 0-1.666-.413a2.8 2.8 0 0 1-1.074-1.172q-.375-.759-.375-1.777 0-1.006.375-1.773.38-.766 1.057-1.197.681-.43 1.593-.431.555 0 1.074.184.52.183.934.575.412.392.652 1.018.238.622.238 1.513v.452h-5.203v-.955h3.955q0-.503-.205-.89a1.54 1.54 0 0 0-.575-.618 1.6 1.6 0 0 0-.861-.226q-.537 0-.938.264a1.8 1.8 0 0 0-.613.682 2 2 0 0 0-.213.908v.745q0 .657.23 1.117.234.46.652.703.418.239.976.239.362 0 .66-.103a1.36 1.36 0 0 0 .848-.831l1.206.218q-.144.532-.52.933-.37.396-.933.618a3.5 3.5 0 0 1-1.274.217m5.496-8.859v8.727h-1.274v-8.727zm3.619 8.872q-.623 0-1.125-.23a1.9 1.9 0 0 1-.797-.678q-.29-.442-.29-1.086 0-.555.213-.912.213-.359.576-.567.362-.209.809-.315t.912-.162l.955-.111q.367-.047.532-.149.167-.103.167-.333v-.03q0-.558-.316-.865-.31-.306-.929-.306-.644 0-1.014.285-.366.281-.507.626l-1.197-.272q.213-.597.622-.963.413-.37.95-.537a3.7 3.7 0 0 1 1.129-.171q.393 0 .831.094.444.09.827.332.387.243.635.695.247.447.247 1.163v4.347h-1.244v-.895h-.051a1.8 1.8 0 0 1-.371.486 2 2 0 0 1-.635.396 2.5 2.5 0 0 1-.929.158m.277-1.023q.528 0 .903-.209.38-.209.576-.545.2-.34.2-.729v-.844a.65.65 0 0 1-.264.128q-.192.056-.439.098l-.482.073-.392.051a3 3 0 0 0-.677.158q-.303.11-.486.319-.179.205-.179.546 0 .473.349.716.35.238.891.238m5.221 3.333q-.285 0-.52-.047a1.7 1.7 0 0 1-.349-.094l.307-1.044q.35.093.622.081a.75.75 0 0 0 .481-.205q.213-.192.375-.626l.158-.435-2.395-6.63h1.364l1.657 5.079h.069l1.657-5.079h1.368l-2.697 7.419q-.187.51-.478.865a1.9 1.9 0 0 1-.69.537 2.3 2.3 0 0 1-.929.179m8.59-2.323q-.967 0-1.666-.413a2.8 2.8 0 0 1-1.074-1.172q-.375-.759-.375-1.777 0-1.006.375-1.773.38-.766 1.057-1.197.681-.43 1.594-.431.554 0 1.073.184.52.183.934.575.413.392.652 1.018.238.622.238 1.513v.452h-5.203v-.955h3.955a1.9 1.9 0 0 0-.205-.89 1.54 1.54 0 0 0-.575-.618 1.6 1.6 0 0 0-.861-.226q-.537 0-.937.264a1.77 1.77 0 0 0-.614.682 2 2 0 0 0-.213.908v.745q0 .657.23 1.117.234.46.652.703.418.239.976.239.361 0 .66-.103a1.36 1.36 0 0 0 .848-.831l1.206.218q-.144.532-.52.933-.37.396-.933.618a3.5 3.5 0 0 1-1.274.217m4.222-.132v-6.545h1.232v1.039h.068q.178-.528.63-.831a1.8 1.8 0 0 1 1.032-.306 5 5 0 0 1 .541.029v1.219a2 2 0 0 0-.273-.047 3 3 0 0 0-.392-.03q-.452 0-.805.192a1.43 1.43 0 0 0-.759 1.283v3.997z" class="B"/><use x="416" fill="#000" href="#S"/><g class="J"><use x="416" stroke="url(#F)" href="#T"/><use x="416" stroke="url(#G)" href="#T"/></g><path d="M744.417 114.338v-6.254m0 0-6.254-3.88m6.254 3.88 9.421-5.463m-6.255 10.054v-6.412m3.167 4.591v-6.412m3.167-1.346c0-.475-.317-.95-.634-1.188l-4.987-3.087a1.36 1.36 0 0 0-1.346 0l-8.154 4.75c-.396.158-.713.633-.713 1.108v5.225c0 .396.317.95.634 1.188l4.987 3.087a1.36 1.36 0 0 0 1.346 0l8.154-4.75c.396-.237.713-.791.713-1.187z" class="E F G"/><path d="M777.04 106.136q0 1.398-.512 2.404-.51 1.001-1.402 1.542-.885.537-2.015.537-1.134 0-2.024-.537-.886-.54-1.398-1.546t-.511-2.4q0-1.397.511-2.399.512-1.005 1.398-1.542.89-.542 2.024-.542 1.13 0 2.015.542.891.537 1.402 1.542.512 1.002.512 2.399m-1.304 0q0-1.065-.345-1.794-.341-.732-.938-1.108a2.44 2.44 0 0 0-1.342-.379q-.755 0-1.347.379-.592.376-.937 1.108-.341.729-.341 1.794 0 1.066.341 1.799.345.728.937 1.108.592.375 1.347.375.75 0 1.342-.375.596-.38.938-1.108.345-.733.345-1.799m2.843 4.364v-6.545h1.232v1.039h.068a1.58 1.58 0 0 1 .631-.831 1.8 1.8 0 0 1 1.031-.306 5 5 0 0 1 .541.029v1.219a2 2 0 0 0-.273-.047q-.195-.03-.392-.03a1.66 1.66 0 0 0-.805.192 1.43 1.43 0 0 0-.759 1.283v3.997zm6.452.145q-.622 0-1.125-.23a1.9 1.9 0 0 1-.797-.678q-.29-.442-.29-1.086 0-.555.213-.912.213-.359.576-.567.362-.209.809-.315t.912-.162l.955-.111q.366-.047.532-.149.167-.103.167-.333v-.03q0-.558-.316-.865-.31-.306-.929-.306-.644 0-1.014.285-.366.281-.507.626l-1.197-.272q.213-.597.622-.963.413-.37.95-.537a3.7 3.7 0 0 1 1.129-.171q.393 0 .831.094.444.09.827.332.387.243.635.695.247.447.247 1.163v4.347h-1.244v-.895h-.051a1.8 1.8 0 0 1-.371.486 2 2 0 0 1-.635.396 2.5 2.5 0 0 1-.929.158m.277-1.023q.528 0 .903-.209.38-.209.576-.545.2-.34.2-.729v-.844a.65.65 0 0 1-.264.128q-.192.056-.439.098l-.482.073-.392.051a3 3 0 0 0-.677.158q-.303.11-.486.319-.18.205-.179.546 0 .473.349.716.35.238.891.238m7.407 1.01q-.95 0-1.636-.43a2.84 2.84 0 0 1-1.048-1.198q-.367-.762-.367-1.747 0-.997.375-1.76.375-.766 1.057-1.197.681-.43 1.606-.431.747 0 1.33.277.583.273.942.767.362.495.43 1.155h-1.24a1.48 1.48 0 0 0-.469-.792q-.362-.333-.971-.333a1.6 1.6 0 0 0-.934.281q-.396.277-.617.793-.222.511-.222 1.21 0 .716.217 1.236.218.52.614.805.4.286.942.286.362 0 .656-.132.298-.136.499-.388.204-.252.285-.605h1.24a2.4 2.4 0 0 1-.413 1.133q-.346.499-.925.785-.575.285-1.351.285m5.326-8.859v8.727h-1.274v-8.727zm4.535 8.859q-.967 0-1.666-.413a2.8 2.8 0 0 1-1.074-1.172q-.375-.759-.375-1.777 0-1.006.375-1.773.38-.766 1.057-1.197.682-.43 1.594-.431.554 0 1.073.184.52.183.934.575.413.392.652 1.018.238.622.238 1.513v.452h-5.203v-.955h3.955q0-.503-.205-.89a1.54 1.54 0 0 0-.575-.618 1.6 1.6 0 0 0-.861-.226q-.537 0-.937.264a1.77 1.77 0 0 0-.614.682 2 2 0 0 0-.213.908v.745q0 .657.23 1.117.234.46.652.703.418.239.976.239.362 0 .66-.103a1.36 1.36 0 0 0 .848-.831l1.206.218q-.144.532-.52.933-.37.396-.933.618a3.5 3.5 0 0 1-1.274.217m14.749-6.021h-1.33a2.04 2.04 0 0 0-.797-1.3 2.2 2.2 0 0 0-.677-.341 2.6 2.6 0 0 0-.789-.115q-.754 0-1.351.379-.591.38-.937 1.113-.34.733-.341 1.789 0 1.066.341 1.799.345.733.942 1.108.596.375 1.342.375.414 0 .784-.111.375-.115.678-.337.302-.222.511-.541.213-.324.294-.741l1.33.004a3.5 3.5 0 0 1-.414 1.184 3.2 3.2 0 0 1-.78.929 3.5 3.5 0 0 1-1.082.601 4 4 0 0 1-1.33.213q-1.133 0-2.019-.537-.887-.54-1.398-1.546-.507-1.007-.507-2.4 0-1.397.511-2.399.511-1.005 1.398-1.542.887-.542 2.015-.542.695 0 1.296.201.605.196 1.087.579.481.38.796.929.316.546.427 1.249m4.23 6.021q-.92 0-1.606-.422a2.84 2.84 0 0 1-1.066-1.18q-.38-.759-.379-1.773 0-1.019.379-1.781a2.83 2.83 0 0 1 1.066-1.185q.685-.422 1.606-.422.92 0 1.607.422.685.422 1.065 1.185.38.762.379 1.781 0 1.014-.379 1.773a2.84 2.84 0 0 1-1.065 1.18q-.687.422-1.607.422m.004-1.07q.597 0 .989-.315.391-.315.579-.839a3.3 3.3 0 0 0 .192-1.155q0-.627-.192-1.151a1.9 1.9 0 0 0-.579-.848q-.392-.32-.989-.319-.6 0-.997.319a1.9 1.9 0 0 0-.584.848q-.187.524-.187 1.151 0 .63.187 1.155.192.524.584.839.396.315.997.315m5.744-2.948v3.886h-1.275v-6.545h1.223v1.065h.081q.226-.52.708-.835.486-.316 1.223-.316.669 0 1.172.282.503.276.779.826.277.55.277 1.36v4.163h-1.274v-4.01q0-.711-.37-1.112-.372-.405-1.019-.405-.443 0-.788.192a1.4 1.4 0 0 0-.541.562q-.196.367-.196.887m8.953-2.659v1.022h-3.576v-1.022zm-2.617-1.569h1.274v6.192q0 .37.111.558a.58.58 0 0 0 .286.252q.178.064.387.064.154 0 .269-.022l.179-.034.23 1.053a2.5 2.5 0 0 1-.827.136 2.2 2.2 0 0 1-.937-.179 1.6 1.6 0 0 1-.703-.579q-.269-.393-.269-.985zm4.026 8.114v-6.545h1.232v1.039h.068a1.58 1.58 0 0 1 .631-.831 1.8 1.8 0 0 1 1.031-.306 5 5 0 0 1 .541.029v1.219a2 2 0 0 0-.273-.047q-.195-.03-.392-.03a1.66 1.66 0 0 0-.805.192 1.43 1.43 0 0 0-.759 1.283v3.997zm6.452.145q-.623 0-1.125-.23a1.9 1.9 0 0 1-.797-.678q-.29-.442-.29-1.086 0-.555.213-.912.213-.359.576-.567.362-.209.809-.315t.912-.162l.955-.111q.367-.047.532-.149.167-.103.167-.333v-.03q0-.558-.316-.865-.31-.306-.929-.306-.644 0-1.014.285-.366.281-.507.626l-1.198-.272q.214-.597.623-.963.413-.37.95-.537a3.7 3.7 0 0 1 1.129-.171q.393 0 .831.094.444.09.827.332.387.243.635.695.247.447.247 1.163v4.347h-1.244v-.895h-.052a1.8 1.8 0 0 1-.37.486 2 2 0 0 1-.635.396 2.5 2.5 0 0 1-.929.158m.277-1.023q.528 0 .903-.209.38-.209.576-.545.2-.34.2-.729v-.844a.65.65 0 0 1-.264.128q-.193.056-.439.098l-.482.073-.392.051a3 3 0 0 0-.677.158q-.303.11-.486.319-.18.205-.179.546 0 .473.349.716.35.238.891.238m7.407 1.01q-.95 0-1.636-.43a2.85 2.85 0 0 1-1.049-1.198q-.366-.762-.366-1.747 0-.997.375-1.76.375-.766 1.057-1.197.681-.43 1.606-.431.747 0 1.33.277.584.273.942.767.362.495.43 1.155h-1.24a1.48 1.48 0 0 0-.469-.792q-.362-.333-.971-.333-.533 0-.934.281-.396.277-.617.793-.222.511-.222 1.21 0 .716.217 1.236.218.52.614.805.4.286.942.286.362 0 .656-.132a1.3 1.3 0 0 0 .498-.388q.205-.252.286-.605h1.24a2.4 2.4 0 0 1-.413 1.133q-.345.499-.925.785-.576.285-1.351.285m7.107-6.677v1.022h-3.575v-1.022zm-2.616-1.569h1.274v6.192q0 .37.11.558.111.184.286.252.179.064.388.064.154 0 .268-.022l.179-.034.23 1.053a2.5 2.5 0 0 1-.826.136 2.2 2.2 0 0 1-.938-.179 1.6 1.6 0 0 1-.703-.579q-.268-.393-.268-.985z" class="B"/><path fill="url(#H)" d="M1050.23 15.5H1077V15h-26.77c-30.04 0-57.237 17.765-69.31 45.274-11.993 27.326-39.011 44.974-68.853 44.974H875v.5h37.067c30.04 0 57.238-17.765 69.311-45.274C993.371 33.148 1020.39 15.5 1050.23 15.5m0 180.999H1077v.5h-26.77c-30.04 0-57.237-17.766-69.31-45.274-11.993-27.326-39.011-44.974-68.853-44.974H875v-.75h202v.5H918.227a75.7 75.7 0 0 1 63.151 45.023c11.993 27.327 39.012 44.975 68.852 44.975" class="K"/><rect width="100" height="36" x="1078" class="H" rx="18"/><path d="M1113.31 22.128a2.56 2.56 0 0 1-1.42-.405c-.41-.273-.73-.66-.97-1.163-.23-.506-.35-1.113-.35-1.82s.12-1.312.35-1.815c.24-.503.57-.888.98-1.155.42-.267.89-.4 1.42-.4.4 0 .73.068.98.204s.44.29.58.469l.32.473h.08v-3.243h1.27V22h-1.24v-1.018h-.11q-.12.208-.33.477a2 2 0 0 1-.59.469c-.25.133-.58.2-.97.2m.28-1.087q.54 0 .93-.29c.25-.196.45-.467.58-.814s.2-.75.2-1.21c0-.454-.07-.852-.2-1.193a1.76 1.76 0 0 0-.57-.797c-.26-.19-.57-.285-.94-.285q-.585 0-.96.298c-.26.199-.45.47-.58.814s-.19.732-.19 1.163c0 .438.06.831.19 1.18s.33.627.58.832q.39.302.96.302m5.62.959h-1.4l3.14-8.727h1.52l3.14 8.727h-1.4l-2.46-7.142h-.07zm.23-3.418h4.54v1.108h-4.54zm7.33 5.872v-9h1.24v1.062h.11c.08-.137.18-.294.32-.473s.33-.336.58-.47.57-.204.98-.204a2.6 2.6 0 0 1 1.42.4c.41.268.74.653.97 1.156q.36.755.36 1.815c0 .707-.12 1.314-.35 1.82-.24.503-.56.89-.98 1.163q-.615.405-1.41.405c-.39 0-.72-.067-.97-.2s-.45-.29-.59-.47a4 4 0 0 1-.33-.476h-.08v3.473zm1.25-5.727c0 .46.07.864.2 1.21s.33.618.58.814q.375.29.93.29c.38 0 .7-.1.95-.302.26-.205.45-.482.58-.831.14-.35.2-.743.2-1.18s-.06-.82-.19-1.164a1.8 1.8 0 0 0-.58-.814q-.39-.298-.96-.298c-.37 0-.68.095-.94.285q-.375.285-.57.797c-.14.341-.2.739-.2 1.193m6.16 5.727v-9h1.24v1.062h.11c.07-.137.18-.294.32-.473s.33-.336.58-.47c.24-.136.57-.204.98-.204q.795 0 1.41.4c.42.268.74.653.98 1.156q.36.755.36 1.815t-.36 1.82c-.23.503-.56.89-.97 1.163q-.615.405-1.41.405c-.4 0-.72-.067-.98-.2-.25-.134-.44-.29-.58-.47a2.6 2.6 0 0 1-.33-.476h-.08v3.473zm1.25-5.727c0 .46.06.864.2 1.21.13.347.32.618.58.814.25.194.56.29.92.29q.57 0 .96-.302c.25-.205.45-.482.58-.831s.2-.743.2-1.18-.07-.82-.2-1.164a1.8 1.8 0 0 0-.58-.814q-.375-.298-.96-.298-.555 0-.93.285c-.26.19-.45.456-.58.797s-.19.739-.19 1.193m11.06-1.674-1.16.204a1.3 1.3 0 0 0-.23-.422c-.1-.133-.24-.243-.41-.328-.18-.085-.4-.128-.67-.128q-.54 0-.9.243-.36.24-.36.618 0 .328.24.529c.16.133.43.242.79.328l1.04.238c.6.14 1.05.354 1.34.644q.45.435.45 1.129c0 .392-.12.741-.35 1.048-.22.304-.53.543-.94.716-.4.174-.86.26-1.39.26-.73 0-1.33-.156-1.79-.469-.47-.315-.75-.762-.86-1.342l1.23-.187q.12.48.48.728.36.243.93.243c.42 0 .75-.087 1-.26s.38-.39.38-.643a.68.68 0 0 0-.23-.516c-.15-.14-.38-.244-.7-.315l-1.11-.243q-.915-.21-1.35-.665c-.29-.304-.43-.689-.43-1.155 0-.386.1-.724.32-1.014.21-.29.51-.516.89-.678a3.3 3.3 0 0 1 1.31-.247c.71 0 1.27.154 1.67.46q.615.457.81 1.224" class="B"/><rect width="99" height="35" x="1078.5" y="89.5" stroke="url(#I)" class="H" rx="17.5"/><path d="M1101.96 111v-8.727h3.11c.68 0 1.24.123 1.69.37.44.248.78.586 1 1.015q.33.639.33 1.44c0 .537-.11 1.02-.34 1.449-.22.426-.55.764-1 1.014q-.675.37-1.68.371h-2.14v-1.117h2.02c.43 0 .77-.074 1.04-.221s.46-.355.59-.614a2.1 2.1 0 0 0 .19-.882c0-.33-.07-.622-.19-.878a1.36 1.36 0 0 0-.59-.601c-.27-.145-.62-.217-1.06-.217h-1.65V111zm7.57 0v-6.545h1.23v1.039h.07q.18-.528.63-.831c.31-.204.65-.306 1.03-.306a5 5 0 0 1 .55.029v1.219a3 3 0 0 0-.28-.047q-.195-.03-.39-.03-.45 0-.81.192c-.23.125-.41.3-.55.524s-.2.475-.2.759V111zm7.13.132c-.61 0-1.15-.141-1.61-.422a2.86 2.86 0 0 1-1.06-1.18c-.25-.506-.38-1.097-.38-1.773s.13-1.273.38-1.781.61-.904 1.06-1.185c.46-.281 1-.422 1.61-.422s1.15.141 1.61.422c.45.281.81.676 1.06 1.185.26.508.38 1.102.38 1.781s-.12 1.267-.38 1.773a2.86 2.86 0 0 1-1.06 1.18c-.46.281-1 .422-1.61.422m0-1.07q.6 0 .99-.315a1.8 1.8 0 0 0 .58-.839c.13-.35.19-.735.19-1.155s-.06-.801-.19-1.151a1.85 1.85 0 0 0-.58-.848q-.39-.32-.99-.319-.6 0-.99.319c-.26.213-.46.496-.59.848q-.18.524-.18 1.151 0 .63.18 1.155c.13.349.33.629.59.839q.39.315.99.315m7.53-5.607v1.022h-3.58v-1.022zm-2.62-1.569h1.28v6.192c0 .247.03.433.11.558a.58.58 0 0 0 .28.252q.18.064.39.064.15 0 .27-.022.12-.02.18-.034l.23 1.053c-.08.028-.18.057-.32.085q-.195.047-.51.051c-.33.006-.65-.054-.94-.179a1.6 1.6 0 0 1-.7-.579q-.27-.393-.27-.985zm6.72 8.246c-.62 0-1.15-.141-1.61-.422a2.9 2.9 0 0 1-1.07-1.18c-.25-.506-.38-1.097-.38-1.773s.13-1.273.38-1.781c.26-.509.61-.904 1.07-1.185s.99-.422 1.61-.422c.61 0 1.14.141 1.6.422s.81.676 1.07 1.185c.25.508.38 1.102.38 1.781s-.13 1.267-.38 1.773c-.26.506-.61.899-1.07 1.18s-.99.422-1.6.422m0-1.07q.6 0 .99-.315c.26-.21.45-.49.58-.839s.19-.735.19-1.155-.06-.801-.19-1.151a1.93 1.93 0 0 0-.58-.848q-.39-.32-.99-.319c-.4 0-.73.106-1 .319-.26.213-.45.496-.58.848s-.19.733-.19 1.151.06.805.19 1.155.32.629.58.839c.27.21.6.315 1 .315m7.23 1.07c-.64 0-1.18-.143-1.64-.43q-.675-.435-1.05-1.198a4.05 4.05 0 0 1-.37-1.747c0-.665.13-1.251.38-1.76s.6-.91 1.06-1.197c.45-.287.99-.431 1.6-.431a3.1 3.1 0 0 1 1.33.277c.39.182.71.438.94.767.25.33.39.715.43 1.155h-1.24a1.44 1.44 0 0 0-.46-.792c-.25-.222-.57-.333-.98-.333q-.525 0-.93.281c-.26.185-.47.449-.62.793-.14.341-.22.744-.22 1.21 0 .478.07.889.22 1.236.14.347.35.615.61.805.27.191.58.286.94.286.25 0 .46-.044.66-.132s.37-.22.5-.388c.14-.168.23-.369.28-.605h1.24c-.04.423-.18.801-.41 1.133s-.54.594-.92.785q-.585.285-1.35.285m6.8 0c-.61 0-1.14-.141-1.6-.422a2.9 2.9 0 0 1-1.07-1.18c-.25-.506-.38-1.097-.38-1.773s.13-1.273.38-1.781c.26-.509.61-.904 1.07-1.185s.99-.422 1.6-.422c.62 0 1.15.141 1.61.422s.81.676 1.07 1.185c.25.508.38 1.102.38 1.781s-.13 1.267-.38 1.773c-.26.506-.61.899-1.07 1.18s-.99.422-1.61.422m.01-1.07q.6 0 .99-.315c.26-.21.45-.49.58-.839a3.5 3.5 0 0 0 .19-1.155c0-.418-.07-.801-.19-1.151a1.93 1.93 0 0 0-.58-.848q-.39-.32-.99-.319c-.4 0-.73.106-1 .319-.26.213-.45.496-.58.848s-.19.733-.19 1.151.06.805.19 1.155.32.629.58.839c.27.21.6.315 1 .315m5.74-7.789V111h-1.27v-8.727zm6.62 3.78-1.15.204a1.5 1.5 0 0 0-.23-.422 1.3 1.3 0 0 0-.42-.328q-.27-.128-.66-.128c-.36 0-.66.081-.91.243q-.36.239-.36.618c0 .219.08.395.25.528q.24.2.78.329l1.04.238q.9.209 1.35.644c.29.289.44.666.44 1.129 0 .392-.11.741-.34 1.048s-.54.543-.94.716-.87.26-1.4.26c-.73 0-1.33-.156-1.79-.469a1.97 1.97 0 0 1-.85-1.342l1.23-.187c.07.321.23.563.47.728q.36.243.93.243c.42 0 .76-.087 1.01-.26s.37-.39.37-.643a.68.68 0 0 0-.23-.516q-.225-.209-.69-.315l-1.11-.243c-.61-.139-1.06-.361-1.36-.665-.29-.304-.43-.689-.43-1.155 0-.386.11-.724.32-1.014q.33-.435.9-.678c.38-.164.81-.247 1.31-.247.7 0 1.26.154 1.67.461.4.304.67.711.8 1.223" class="B"/><rect width="100" height="36" x="1078" y="179" class="H" rx="18"/><path d="M1108 192.273V201h-1.21l-4.43-6.401h-.08V201h-1.32v-8.727h1.22l4.44 6.409h.08v-6.409zm4.64 8.859c-.64 0-1.2-.138-1.66-.413a2.8 2.8 0 0 1-1.08-1.172c-.25-.506-.37-1.098-.37-1.777 0-.671.12-1.261.37-1.773.26-.511.61-.91 1.06-1.197q.675-.43 1.59-.431.555 0 1.08.184.51.183.93.575c.28.261.49.601.65 1.018q.24.622.24 1.513v.452h-5.2v-.955h3.95c0-.335-.07-.632-.2-.89a1.56 1.56 0 0 0-.58-.618 1.6 1.6 0 0 0-.86-.226c-.36 0-.67.088-.94.264a1.84 1.84 0 0 0-.61.682q-.21.417-.21.908v.745c0 .438.07.81.23 1.117a1.6 1.6 0 0 0 .65.703c.28.159.6.239.98.239q.36 0 .66-.103a1.4 1.4 0 0 0 .51-.315q.225-.209.33-.516l1.21.218a2.2 2.2 0 0 1-.52.933q-.375.396-.93.618c-.38.145-.8.217-1.28.217m7.28-6.677v1.022h-3.58v-1.022zm-2.62-1.569h1.28v6.192c0 .247.03.433.11.558a.58.58 0 0 0 .28.252q.18.063.39.064.15 0 .27-.022.12-.02.18-.034l.23 1.053a2 2 0 0 1-.32.085q-.195.046-.51.051c-.33.006-.65-.054-.94-.179a1.66 1.66 0 0 1-.7-.579q-.27-.393-.27-.985zm5.45 8.114-1.93-6.545h1.32l1.28 4.806h.07l1.28-4.806h1.32l1.28 4.785h.06l1.28-4.785h1.31L1128.1 201h-1.3l-1.33-4.726h-.1l-1.33 4.726zm11.04.132c-.61 0-1.15-.141-1.61-.422a2.86 2.86 0 0 1-1.06-1.18c-.26-.506-.38-1.097-.38-1.773s.12-1.273.38-1.781c.25-.509.61-.904 1.06-1.185.46-.281 1-.422 1.61-.422s1.15.141 1.61.422c.45.281.81.676 1.06 1.185s.38 1.102.38 1.781-.13 1.267-.38 1.773a2.86 2.86 0 0 1-1.06 1.18c-.46.281-1 .422-1.61.422m0-1.07q.6 0 .99-.315a1.8 1.8 0 0 0 .58-.839c.13-.35.19-.735.19-1.155s-.06-.801-.19-1.151a1.85 1.85 0 0 0-.58-.848q-.39-.32-.99-.319-.6 0-.99.319c-.26.213-.46.496-.59.848q-.18.524-.18 1.151 0 .63.18 1.155c.13.349.33.629.59.839q.39.315.99.315m4.47.938v-6.545h1.23v1.039h.07q.18-.528.63-.831c.31-.204.65-.306 1.03-.306a5 5 0 0 1 .55.029v1.219a3 3 0 0 0-.28-.047q-.195-.03-.39-.03c-.3 0-.57.064-.8.192a1.4 1.4 0 0 0-.56.524c-.13.222-.2.475-.2.759V201zm5.78-2.22-.01-1.556h.22l2.61-2.769h1.53l-2.98 3.153h-.2zm-1.17 2.22v-8.727h1.27V201zm4.13 0-2.34-3.111.88-.89 3.03 4.001zm7.45-4.947-1.15.204a1.5 1.5 0 0 0-.23-.422q-.15-.2-.42-.328t-.66-.128q-.54 0-.9.243c-.25.159-.37.365-.37.618a.66.66 0 0 0 .25.528q.24.2.78.329l1.04.238q.9.209 1.35.644c.29.289.44.666.44 1.129 0 .392-.11.741-.34 1.048-.22.304-.54.543-.94.716s-.87.26-1.4.26c-.73 0-1.33-.156-1.79-.469a1.97 1.97 0 0 1-.85-1.342l1.23-.187c.08.321.23.563.47.728s.55.243.94.243c.41 0 .75-.087 1-.26s.37-.39.37-.643a.65.65 0 0 0-.23-.516q-.225-.209-.69-.315l-1.11-.243c-.61-.139-1.06-.361-1.36-.665-.29-.304-.43-.689-.43-1.155 0-.386.11-.724.32-1.014q.33-.435.9-.678a3.3 3.3 0 0 1 1.31-.247c.7 0 1.26.154 1.67.461.4.304.67.711.8 1.223" class="B"/><g class="B" filter="url(#O)"><circle cx="3.5" cy="3.5" r="3.5" transform="matrix(1 0 0 -1 484 110)"/></g><path fill="url(#J)" d="M129.419 15.5H104V15h25.419a74.86 74.86 0 0 1 68.764 45.275c11.739 27.29 38.596 44.973 68.304 44.973H302v.5h-35.513a74.86 74.86 0 0 1-68.764-45.275C185.984 33.183 159.127 15.5 129.419 15.5m0 180.999H104v.5h25.419a74.86 74.86 0 0 0 68.764-45.276 74.36 74.36 0 0 1 68.304-44.972H302v-.75H104v.5h156.361a74.86 74.86 0 0 0-62.638 45.025c-11.739 27.29-38.596 44.973-68.304 44.973" class="K"/><g class="B" filter="url(#P)"><circle cx="197" cy="57" r="4"/></g><g class="B" filter="url(#Q)"><circle cx="3.5" cy="3.5" r="3.5" transform="matrix(1 0 0 -1 204 141)"/></g><g class="B" filter="url(#R)"><circle cx="3.5" cy="3.5" r="3.5" transform="matrix(1 0 0 -1 133 110)"/></g><g opacity=".8"><path d="M0 16C0 7.163 7.163 0 16 0h72c8.837 0 16 7.163 16 16s-7.163 16-16 16H16C7.163 32 0 24.837 0 16" class="H"/><path d="M30 11.334c0 1.104-2.686 2-6 2s-6-.896-6-2m12 0c0-1.105-2.686-2-6-2s-6 .895-6 2m12 0v2m-12-2v9.333c-.004.32.224.637.664.922s1.078.53 1.862.716 1.691.306 2.644.35 1.923.012 2.83-.095M30 16l-2 3.334h2.667l-2 3.333M18 16c.001.312.22.62.641.898s1.03.52 1.781.706 1.621.31 2.542.364a18 18 0 0 0 2.763-.055" class="E F G"/><path d="M43.719 13.565a1.25 1.25 0 0 0-.563-.937q-.495-.337-1.244-.337-.537 0-.929.17a1.43 1.43 0 0 0-.61.46 1.1 1.1 0 0 0-.212.661q0 .312.144.537.15.225.388.38.243.149.52.251.277.098.533.162l.852.221a6.5 6.5 0 0 1 .857.278q.438.175.814.46.374.285.605.707.234.422.234 1.01 0 .741-.384 1.317-.378.575-1.103.907-.72.333-1.743.333-.98 0-1.696-.311-.716-.312-1.12-.882-.406-.576-.448-1.364h1.32q.04.473.308.788.272.312.694.465.426.15.933.15.559-.001.993-.176.44-.179.69-.494.252-.32.252-.746a.92.92 0 0 0-.222-.635 1.6 1.6 0 0 0-.592-.409 6 6 0 0 0-.84-.285l-1.03-.281q-1.049-.285-1.663-.84-.609-.554-.609-1.466 0-.755.41-1.317a2.7 2.7 0 0 1 1.107-.873q.699-.316 1.577-.316.886 0 1.564.311.681.312 1.074.857.39.541.409 1.244zm5.617 6.567q-.92 0-1.606-.422a2.85 2.85 0 0 1-1.066-1.18q-.379-.759-.379-1.773 0-1.019.38-1.781a2.84 2.84 0 0 1 1.065-1.185q.686-.422 1.606-.422.921 0 1.607.422t1.065 1.185.38 1.781q0 1.014-.38 1.773t-1.065 1.18-1.607.422m.005-1.07q.596 0 .988-.315.393-.315.58-.84.191-.524.191-1.154 0-.627-.191-1.15a1.87 1.87 0 0 0-.58-.849q-.391-.32-.988-.32-.601 0-.998.32a1.9 1.9 0 0 0-.583.848q-.188.525-.188 1.15 0 .631.188 1.156.191.524.583.84.397.315.998.314m8.615-1.777v-3.83h1.278V20h-1.253v-1.134h-.068q-.225.525-.724.874-.494.345-1.232.345-.63 0-1.116-.277a1.95 1.95 0 0 1-.759-.83q-.272-.55-.272-1.36v-4.163h1.274v4.01q0 .668.37 1.065.372.396.964.396.358 0 .711-.179a1.5 1.5 0 0 0 .593-.541q.239-.362.234-.92M60.946 20v-6.546h1.232v1.04h.068q.18-.528.63-.83a1.8 1.8 0 0 1 1.032-.307 5 5 0 0 1 .541.03v1.218a2 2 0 0 0-.272-.047q-.197-.03-.393-.03-.451 0-.805.192a1.43 1.43 0 0 0-.758 1.283V20zm7.129.132q-.951 0-1.637-.43a2.85 2.85 0 0 1-1.048-1.198q-.367-.762-.367-1.747 0-.997.375-1.76.376-.766 1.057-1.197.682-.43 1.607-.43.745 0 1.33.276.584.273.941.767.363.495.43 1.155h-1.24a1.5 1.5 0 0 0-.468-.792q-.363-.333-.972-.333-.532 0-.933.281-.396.278-.618.793-.222.511-.222 1.21 0 .716.218 1.236t.613.805q.4.285.942.286.362 0 .656-.132.299-.136.499-.388.204-.252.285-.605h1.24a2.4 2.4 0 0 1-.413 1.134q-.345.498-.925.784-.575.285-1.35.285m6.872 0q-.967 0-1.666-.413a2.8 2.8 0 0 1-1.074-1.172q-.375-.759-.375-1.777 0-1.005.375-1.773.38-.766 1.057-1.197.681-.43 1.594-.43.554 0 1.073.183a2.6 2.6 0 0 1 .934.575q.413.391.652 1.018.238.623.238 1.513v.452h-5.203v-.955h3.955a1.9 1.9 0 0 0-.205-.89 1.55 1.55 0 0 0-.575-.618 1.6 1.6 0 0 0-.86-.226q-.538 0-.938.264-.398.26-.614.682a2 2 0 0 0-.213.908v.745q0 .657.23 1.117.234.46.652.703.418.238.976.238.362 0 .66-.102.3-.106.516-.315a1.4 1.4 0 0 0 .332-.516l1.206.218q-.144.533-.52.933-.37.396-.933.618a3.5 3.5 0 0 1-1.274.217m10.692-8.86V20h-1.321v-7.406h-.051l-2.088 1.363v-1.261l2.177-1.423z" class="B"/></g><g opacity=".8"><path d="M.5 106c0-8.56 6.94-15.5 15.5-15.5h72c8.56 0 15.5 6.94 15.5 15.5s-6.94 15.5-15.5 15.5H16C7.44 121.5.5 114.56.5 106" class="H"/><path stroke="url(#K)" d="M.5 106c0-8.56 6.94-15.5 15.5-15.5h72c8.56 0 15.5 6.94 15.5 15.5s-6.94 15.5-15.5 15.5H16C7.44 121.5.5 114.56.5 106Z"/><path d="M29.5 101.333c0 1.105-2.686 2-6 2s-6-.895-6-2m12 0c0-1.104-2.686-2-6-2s-6 .896-6 2m12 0v2m-12-2v9.334c-.004.32.224.637.664.922s1.078.531 1.862.716 1.691.306 2.644.35 1.923.012 2.83-.095m4-6.56-2 3.333h2.667l-2 3.334M17.5 106c.001.312.22.619.641.898s1.03.52 1.781.706 1.621.31 2.542.364a18 18 0 0 0 2.763-.055" class="E F G"/><path d="M43.219 103.565a1.24 1.24 0 0 0-.563-.937q-.495-.337-1.244-.337a2.3 2.3 0 0 0-.929.171q-.391.165-.61.46a1.1 1.1 0 0 0-.212.66.97.97 0 0 0 .144.537q.15.226.388.38.243.149.52.251.277.097.533.162l.852.222q.417.102.857.277.438.174.814.46.374.285.605.707.234.422.234 1.01 0 .741-.384 1.317-.378.575-1.103.907-.72.333-1.743.333-.98 0-1.696-.311-.716-.312-1.12-.882-.406-.576-.448-1.364h1.32q.04.473.308.788.272.312.694.465.426.149.933.149.559 0 .993-.175.44-.179.69-.494.252-.32.252-.746a.92.92 0 0 0-.222-.635 1.65 1.65 0 0 0-.592-.409 6 6 0 0 0-.84-.285l-1.03-.282q-1.049-.285-1.663-.839-.609-.554-.609-1.466 0-.754.41-1.317a2.7 2.7 0 0 1 1.107-.873q.699-.316 1.577-.316.886 0 1.564.311.681.311 1.074.857.39.542.409 1.244zm5.617 6.567q-.92 0-1.606-.422a2.84 2.84 0 0 1-1.066-1.18q-.379-.759-.379-1.773 0-1.019.38-1.781a2.84 2.84 0 0 1 1.065-1.185q.686-.422 1.606-.422.921 0 1.607.422t1.065 1.185q.38.762.38 1.781 0 1.014-.38 1.773a2.84 2.84 0 0 1-1.065 1.18q-.687.422-1.607.422m.005-1.07q.596 0 .988-.315.393-.315.58-.839.191-.525.191-1.155 0-.627-.191-1.151a1.9 1.9 0 0 0-.58-.848q-.391-.32-.988-.319-.601 0-.998.319a1.9 1.9 0 0 0-.583.848q-.188.524-.188 1.151 0 .63.188 1.155.191.524.583.839.397.315.998.315m8.615-1.776v-3.831h1.278V110h-1.253v-1.134h-.068q-.225.525-.724.874-.494.345-1.232.345a2.2 2.2 0 0 1-1.116-.277 1.94 1.94 0 0 1-.759-.831q-.272-.549-.272-1.359v-4.163h1.274v4.009q0 .67.37 1.066.372.396.964.396.358 0 .711-.179a1.5 1.5 0 0 0 .593-.541q.239-.363.234-.92m2.99 2.714v-6.545h1.232v1.039h.068q.18-.528.63-.831a1.8 1.8 0 0 1 1.032-.306 5 5 0 0 1 .541.029v1.219a2 2 0 0 0-.273-.047q-.194-.03-.392-.03-.451 0-.805.192a1.43 1.43 0 0 0-.758 1.283V110zm7.129.132q-.951 0-1.637-.43a2.85 2.85 0 0 1-1.048-1.198q-.367-.762-.367-1.747 0-.997.375-1.76.376-.766 1.057-1.197.682-.43 1.607-.431.745 0 1.33.277.584.273.941.767.363.495.43 1.155h-1.24a1.5 1.5 0 0 0-.468-.792q-.363-.333-.972-.333-.532 0-.933.281a1.8 1.8 0 0 0-.618.793q-.222.511-.222 1.21 0 .716.218 1.236t.613.805q.4.286.942.286.362 0 .656-.132.299-.136.499-.388.204-.252.285-.605h1.24a2.4 2.4 0 0 1-1.338 1.918q-.575.285-1.35.285m6.872 0q-.967 0-1.666-.413a2.8 2.8 0 0 1-1.074-1.172q-.375-.759-.375-1.777 0-1.006.375-1.773.38-.766 1.057-1.197.681-.43 1.594-.431.554 0 1.073.184.52.183.934.575.413.392.652 1.018.238.622.238 1.513v.452h-5.203v-.955h3.955q0-.503-.205-.89a1.54 1.54 0 0 0-.575-.618 1.6 1.6 0 0 0-.86-.226q-.538 0-.938.264a1.8 1.8 0 0 0-.614.682 2 2 0 0 0-.213.908v.745q0 .657.23 1.117.234.46.652.703.418.239.976.239.362 0 .66-.103.3-.106.516-.315.218-.209.332-.516l1.206.218q-.144.532-.52.933-.37.396-.933.618a3.5 3.5 0 0 1-1.274.217m7.38-.132v-.955l2.954-3.059q.472-.5.78-.874.31-.38.464-.72.154-.341.154-.724 0-.435-.205-.75a1.33 1.33 0 0 0-.558-.49 1.8 1.8 0 0 0-.797-.175q-.468 0-.818.192a1.3 1.3 0 0 0-.537.541 1.7 1.7 0 0 0-.188.818H81.82q0-.797.367-1.393a2.5 2.5 0 0 1 1.005-.925q.64-.333 1.453-.333.823 0 1.45.329.63.323.984.886.353.559.353 1.261 0 .486-.183.951-.18.463-.626 1.035-.448.567-1.245 1.376l-1.734 1.816v.064h3.93V110z" class="B"/></g><g opacity=".8"><path d="M0 197c0-8.837 7.163-16 16-16h72c8.837 0 16 7.163 16 16s-7.163 16-16 16H16c-8.837 0-16-7.163-16-16" class="H"/><path d="M29 192.333c0 1.105-2.686 2-6 2s-6-.895-6-2m12 0c0-1.104-2.686-2-6-2s-6 .896-6 2m12 0v2m-12-2v9.334c-.004.32.224.637.664.922s1.078.531 1.862.716 1.691.306 2.644.35 1.923.012 2.83-.095m4-6.56-2 3.333h2.667l-2 3.334M17 197c.001.312.22.619.641.898s1.03.52 1.781.706 1.621.31 2.542.364a18 18 0 0 0 2.763-.055" class="E F G"/><path d="M42.719 194.565a1.24 1.24 0 0 0-.563-.937q-.495-.337-1.244-.337a2.3 2.3 0 0 0-.929.171q-.391.166-.61.46a1.1 1.1 0 0 0-.212.66.97.97 0 0 0 .144.537q.15.226.388.38.243.149.52.251.277.097.533.162l.852.222q.417.102.857.277.438.174.814.46.374.285.605.707.234.422.234 1.01 0 .741-.384 1.317-.378.575-1.103.907-.72.333-1.743.333-.98 0-1.696-.311-.716-.312-1.12-.882-.406-.575-.448-1.364h1.32q.04.473.308.788.272.312.694.465.426.149.933.149.559 0 .993-.175.44-.179.69-.494.252-.32.252-.746a.92.92 0 0 0-.222-.635 1.65 1.65 0 0 0-.592-.409 6 6 0 0 0-.84-.285l-1.03-.282q-1.049-.285-1.663-.839-.609-.554-.609-1.466 0-.754.41-1.317a2.7 2.7 0 0 1 1.107-.873q.699-.316 1.577-.316.886 0 1.564.311.681.311 1.074.857.39.542.409 1.244zm5.617 6.567q-.92 0-1.606-.422a2.84 2.84 0 0 1-1.066-1.18q-.379-.759-.379-1.773 0-1.019.38-1.781a2.84 2.84 0 0 1 1.065-1.185q.686-.422 1.606-.422.921 0 1.607.422.685.421 1.065 1.185.38.762.38 1.781 0 1.014-.38 1.773a2.84 2.84 0 0 1-1.065 1.18q-.687.422-1.607.422m.005-1.07q.596 0 .988-.315.393-.315.58-.839.191-.525.191-1.155 0-.627-.191-1.151a1.9 1.9 0 0 0-.58-.848q-.391-.32-.988-.319-.601 0-.998.319a1.9 1.9 0 0 0-.583.848q-.188.524-.188 1.151 0 .63.188 1.155.191.524.583.839.397.315.998.315m8.615-1.776v-3.831h1.278V201h-1.253v-1.134h-.068q-.225.525-.724.874-.494.345-1.232.345a2.2 2.2 0 0 1-1.116-.277 1.94 1.94 0 0 1-.759-.831q-.272-.549-.272-1.359v-4.163h1.274v4.009q0 .67.37 1.066.372.396.964.396.358 0 .711-.179a1.5 1.5 0 0 0 .593-.541q.239-.362.234-.92m2.99 2.714v-6.545h1.232v1.039h.068q.18-.528.63-.831a1.8 1.8 0 0 1 1.032-.306 5 5 0 0 1 .541.029v1.219a2 2 0 0 0-.273-.047q-.194-.03-.392-.03-.451 0-.805.192a1.43 1.43 0 0 0-.758 1.283V201zm7.129.132q-.951 0-1.637-.43a2.85 2.85 0 0 1-1.048-1.198q-.367-.763-.367-1.747 0-.997.375-1.76.376-.766 1.057-1.197.682-.43 1.607-.431.745 0 1.33.277.584.273.941.767.363.495.43 1.155h-1.24a1.5 1.5 0 0 0-.468-.792q-.363-.333-.972-.333-.532 0-.933.281a1.8 1.8 0 0 0-.618.793q-.222.511-.222 1.21 0 .716.218 1.236t.613.805q.4.286.942.286.362 0 .656-.132.299-.136.499-.388.204-.251.285-.605h1.24a2.4 2.4 0 0 1-1.338 1.918q-.575.285-1.35.285m6.872 0q-.967 0-1.666-.413a2.8 2.8 0 0 1-1.074-1.172q-.375-.759-.375-1.777 0-1.006.375-1.773.38-.766 1.057-1.197.681-.43 1.594-.431.554 0 1.073.184.52.183.934.575.413.392.652 1.018.238.622.238 1.513v.452h-5.203v-.955h3.955q0-.503-.205-.89a1.54 1.54 0 0 0-.575-.618 1.6 1.6 0 0 0-.86-.226q-.538 0-.938.264a1.8 1.8 0 0 0-.614.682 2 2 0 0 0-.213.908v.745q0 .657.23 1.117.234.46.652.703.418.239.976.239.362 0 .66-.103.3-.106.516-.315.218-.209.332-.516l1.206.218q-.144.532-.52.933-.37.396-.933.618a3.5 3.5 0 0 1-1.274.217m10.42-.013q-.879 0-1.57-.302a2.67 2.67 0 0 1-1.086-.84 2.23 2.23 0 0 1-.426-1.253h1.338q.026.388.26.674.24.28.622.434.384.154.853.154a2.2 2.2 0 0 0 .911-.179q.401-.18.627-.499.225-.324.226-.746 0-.438-.226-.771a1.5 1.5 0 0 0-.652-.528q-.426-.192-1.031-.192h-.737v-1.074h.737q.486 0 .852-.175.37-.174.58-.485.208-.316.208-.738 0-.404-.183-.703a1.24 1.24 0 0 0-.511-.473 1.7 1.7 0 0 0-.776-.17 2 2 0 0 0-.797.158 1.5 1.5 0 0 0-.596.443 1.14 1.14 0 0 0-.247.686h-1.275q.022-.708.418-1.245.401-.537 1.057-.839a3.4 3.4 0 0 1 1.457-.303q.84 0 1.45.329.613.323.945.865.336.54.332 1.184.005.734-.409 1.245-.409.51-1.09.686v.068q.869.132 1.346.69.481.558.477 1.385.005.72-.4 1.291a2.7 2.7 0 0 1-1.095.899q-.695.324-1.59.324" class="B"/></g><defs><linearGradient id="A" x1="476.745" x2="492.873" y1="107.5" y2="107.5" href="#U"><stop stop-color="#373937"/><stop offset=".532" stop-color="#fff"/><stop offset="1" stop-color="#363636"/></linearGradient><linearGradient id="B" x1="683.745" x2="699.873" y1="107.5" y2="107.5" href="#U"><stop stop-color="#373937"/></linearGradient><linearGradient id="C" x1="325.5" x2="328.5" y1="65.5" y2="94.5" href="#U"><stop stop-color="#ffe000"/><stop offset="1" stop-color="#1e1e1e"/></linearGradient><linearGradient id="D" x1="443.5" x2="462" y1="120" y2="140" href="#U"><stop stop-color="#0b0b0b" stop-opacity="0"/><stop offset="1" stop-color="#ffe000"/></linearGradient><linearGradient id="E" x1="307.5" x2="328.5" y1="73" y2="94.5" href="#U"><stop stop-color="#ffe000"/><stop offset="1" stop-color="#1e1e1e"/></linearGradient><linearGradient id="F" x1="322" x2="325.5" y1="123" y2="115.5" href="#U"><stop stop-color="#ffe000"/><stop offset="1" stop-color="#1e1e1e"/></linearGradient><linearGradient id="G" x1="443.5" x2="462" y1="120" y2="95.5" href="#U"><stop stop-color="#0b0b0b" stop-opacity="0"/><stop offset="1" stop-color="#ffe000"/></linearGradient><linearGradient id="H" x1="875" x2="1077" y1="105.999" y2="105.999" href="#U"><stop offset=".753" stop-color="#1e1e1e"/><stop offset=".833" stop-color="#ffe000"/><stop offset=".912" stop-color="#1e1e1e"/></linearGradient><linearGradient id="I" x1="1088.67" x2="1078" y1="107" y2="107" href="#U"><stop stop-opacity="0"/><stop offset="1" stop-color="#facc15"/></linearGradient><linearGradient id="J" x1="104" x2="302" y1="105.999" y2="105.999" href="#U"><stop offset=".095" stop-color="#1e1e1e"/><stop offset=".171" stop-color="#fff"/><stop offset=".239" stop-color="#1e1e1e"/><stop offset=".799" stop-color="#1e1e1e"/><stop offset=".9" stop-color="#fff"/><stop offset=".986" stop-color="#1e1e1e"/></linearGradient><linearGradient id="K" x1="91.5" x2="104" y1="106" y2="106" href="#U"><stop stop-opacity="0"/><stop offset="1" stop-color="#fff"/></linearGradient><linearGradient id="U" gradientUnits="userSpaceOnUse"/><filter id="L" width="40" height="40" x="965" y="37" class="C" filterUnits="userSpaceOnUse"><feFlood class="D" result="A"/><feColorMatrix in="SourceAlpha" result="B" values="0 0 0 0 0 0 0 0 0 0 0 0 0 0 0 0 0 0 127 0"/><feOffset/><feGaussianBlur stdDeviation="8"/><feComposite in2="B" operator="out"/><feColorMatrix values="0 0 0 0 0.619213 0 0 0 0 1 0 0 0 0 0.347222 0 0 0 1 0"/><feBlend in2="A"/><feBlend in="SourceGraphic"/></filter><filter id="M" width="39" height="39" x="955" y="118" class="C" filterUnits="userSpaceOnUse"><feFlood class="D" result="A"/><feColorMatrix in="SourceAlpha" result="B" values="0 0 0 0 0 0 0 0 0 0 0 0 0 0 0 0 0 0 127 0"/><feOffset/><feGaussianBlur stdDeviation="8"/><feComposite in2="B" operator="out"/><feColorMatrix values="0 0 0 0 0.619213 0 0 0 0 1 0 0 0 0 0.347222 0 0 0 1 0"/><feBlend in2="A"/><feBlend in="SourceGraphic"/></filter><filter id="N" width="39" height="39" x="1026" y="87" class="C" filterUnits="userSpaceOnUse"><feFlood class="D" result="A"/><feColorMatrix in="SourceAlpha" result="B" values="0 0 0 0 0 0 0 0 0 0 0 0 0 0 0 0 0 0 127 0"/><feOffset/><feGaussianBlur stdDeviation="8"/><feComposite in2="B" operator="out"/><feColorMatrix values="0 0 0 0 0.619213 0 0 0 0 1 0 0 0 0 0.347222 0 0 0 1 0"/><feBlend in2="A"/><feBlend in="SourceGraphic"/></filter><filter id="O" width="39" height="39" x="468" y="87" class="C" filterUnits="userSpaceOnUse"><feFlood class="D" result="A"/><feColorMatrix in="SourceAlpha" result="B" values="0 0 0 0 0 0 0 0 0 0 0 0 0 0 0 0 0 0 127 0"/><feOffset/><feGaussianBlur stdDeviation="8"/><feComposite in2="B" operator="out"/><feColorMatrix values="0 0 0 0 1 0 0 0 0 1 0 0 0 0 1 0 0 0 1 0"/><feBlend in2="A"/><feBlend in="SourceGraphic"/></filter><filter id="P" width="40" height="40" x="177" y="37" class="C" filterUnits="userSpaceOnUse"><feFlood class="D" result="A"/><feColorMatrix in="SourceAlpha" result="B" values="0 0 0 0 0 0 0 0 0 0 0 0 0 0 0 0 0 0 127 0"/><feOffset/><feGaussianBlur stdDeviation="8"/><feComposite in2="B" operator="out"/><feColorMatrix values="0 0 0 0 1 0 0 0 0 1 0 0 0 0 1 0 0 0 1 0"/><feBlend in2="A"/><feBlend in="SourceGraphic"/></filter><filter id="Q" width="39" height="39" x="188" y="118" class="C" filterUnits="userSpaceOnUse"><feFlood class="D" result="A"/><feColorMatrix in="SourceAlpha" result="B" values="0 0 0 0 0 0 0 0 0 0 0 0 0 0 0 0 0 0 127 0"/><feOffset/><feGaussianBlur stdDeviation="8"/><feComposite in2="B" operator="out"/><feColorMatrix values="0 0 0 0 1 0 0 0 0 1 0 0 0 0 1 0 0 0 1 0"/><feBlend in2="A"/><feBlend in="SourceGraphic"/></filter><filter id="R" width="39" height="39" x="117" y="87" class="C" filterUnits="userSpaceOnUse"><feFlood class="D" result="A"/><feColorMatrix in="SourceAlpha" result="B" values="0 0 0 0 0 0 0 0 0 0 0 0 0 0 0 0 0 0 127 0"/><feOffset/><feGaussianBlur stdDeviation="8"/><feComposite in2="B" operator="out"/><feColorMatrix values="0 0 0 0 1 0 0 0 0 1 0 0 0 0 1 0 0 0 1 0"/><feBlend in2="A"/><feBlend in="SourceGraphic"/></filter><path id="S" d="M302.25 106.5c0-18.364 14.887-33.25 33.25-33.25h93c18.363 0 33.25 14.886 33.25 33.25s-14.887 33.25-33.25 33.25h-93c-18.363 0-33.25-14.887-33.25-33.25"/><path id="T" d="M302.25 106.5c0-18.364 14.887-33.25 33.25-33.25h93c18.363 0 33.25 14.886 33.25 33.25 0 18.363-14.887 33.25-33.25 33.25h-93c-18.363 0-33.25-14.887-33.25-33.25"/></defs></svg>