<svg xmlns="http://www.w3.org/2000/svg" width="364" height="384" fill="none"><style>.B{fill:#fff}.C{fill:#08090b}.D{color-interpolation-filters:sRGB}.E{flood-opacity:0}.F{stroke-width:.5}.G{stroke-linecap:round}.H{stroke-linejoin:round}.I{fill:#ffe000}</style><g opacity=".8"><path fill="#080808" d="M0 170.945c0-14.12 11.447-25.567 25.567-25.567h312.866c14.12 0 25.567 11.447 25.567 25.567s-11.447 25.567-25.567 25.567H25.567C11.447 196.512 0 185.065 0 170.945"/><path fill="#000" d="M8.25 170.878c0-9.526 7.723-17.25 17.25-17.25h63c9.527 0 17.25 7.724 17.25 17.25s-7.723 17.25-17.25 17.25h-63c-9.527 0-17.25-7.723-17.25-17.25"/><g class="F"><use stroke="url(#A)" href="#U"/><use stroke="url(#B)" href="#U"/></g><path stroke="#fff" d="M32.625 165.337c0 1.312-3.19 2.375-7.125 2.375s-7.125-1.063-7.125-2.375m14.25 0c0-1.312-3.19-2.375-7.125-2.375s-7.125 1.063-7.125 2.375m14.25 0v2.375m-14.25-2.375v11.083c-.004.381.266.756.788 1.095s1.28.631 2.212.851 2.008.363 3.14.416a21 21 0 0 0 3.36-.113m4.75-7.79-2.375 3.958h3.167l-2.375 3.958m-12.667-7.916c.001.37.262.735.761 1.065s1.224.618 2.115.839 1.925.369 3.019.432 2.217.042 3.28-.064" class="G H"/><path d="M50.276 166.151v8.727h-1.317v-8.727zm3.09 4.841v3.886H52.09v-6.545h1.223v1.065h.08q.226-.52.708-.835.486-.315 1.223-.315.67 0 1.172.281.503.277.78.827t.277 1.359v4.163H56.28v-4.01q0-.711-.37-1.112-.372-.405-1.02-.405-.443 0-.788.192a1.4 1.4 0 0 0-.54.563q-.198.366-.197.886m8.347 4.014q-.792 0-1.415-.405-.618-.408-.971-1.163-.35-.759-.35-1.82t.354-1.815q.358-.755.98-1.155t1.41-.4q.61 0 .98.204.376.2.58.469.21.269.324.473h.077v-3.243h1.274v8.727h-1.244v-1.018h-.107a3.4 3.4 0 0 1-.332.477 1.9 1.9 0 0 1-.588.469q-.375.2-.972.2m.281-1.086q.55 0 .93-.29a1.8 1.8 0 0 0 .579-.814q.2-.52.2-1.21 0-.683-.196-1.193a1.75 1.75 0 0 0-.575-.797q-.38-.286-.938-.286-.575 0-.959.298a1.83 1.83 0 0 0-.579.814 3.3 3.3 0 0 0-.192 1.164q0 .656.196 1.18.195.525.58.831.388.303.954.303m7.602 1.091q-.967 0-1.667-.414a2.8 2.8 0 0 1-1.073-1.172q-.375-.758-.375-1.777 0-1.005.375-1.772a2.9 2.9 0 0 1 1.056-1.198q.682-.43 1.594-.43.554 0 1.074.183t.933.575q.414.393.652 1.019.24.622.239 1.513v.451H67.2v-.954h3.954a1.9 1.9 0 0 0-.204-.891 1.55 1.55 0 0 0-.576-.618 1.6 1.6 0 0 0-.86-.226q-.537 0-.938.264a1.8 1.8 0 0 0-.614.682 2 2 0 0 0-.213.908v.746q0 .655.23 1.116.235.46.652.703.418.239.976.239.363 0 .66-.102.3-.106.516-.316a1.4 1.4 0 0 0 .333-.515l1.206.217q-.145.532-.52.933-.37.396-.933.618a3.5 3.5 0 0 1-1.275.218m5.075-6.678 1.444 2.548 1.458-2.548h1.393l-2.04 3.273 2.057 3.272H77.59l-1.475-2.446-1.47 2.446h-1.397l2.036-3.272-2.01-3.273zm8.167 6.678q-.967 0-1.666-.414a2.8 2.8 0 0 1-1.074-1.172q-.375-.758-.375-1.777 0-1.005.375-1.772a2.9 2.9 0 0 1 1.056-1.198q.682-.43 1.594-.43.554 0 1.074.183t.933.575q.414.393.652 1.019.24.622.239 1.513v.451h-5.203v-.954h3.954a1.9 1.9 0 0 0-.204-.891 1.55 1.55 0 0 0-.575-.618 1.6 1.6 0 0 0-.861-.226q-.537 0-.938.264a1.8 1.8 0 0 0-.613.682 2 2 0 0 0-.213.908v.746q0 .655.23 1.116.234.46.652.703.417.239.975.239.363 0 .661-.102.298-.106.516-.316a1.4 1.4 0 0 0 .332-.515l1.206.217q-.145.532-.52.933-.37.396-.933.618a3.5 3.5 0 0 1-1.274.218m4.222-.133v-6.545h1.231v1.04h.068q.18-.53.631-.831a1.8 1.8 0 0 1 1.031-.307q.12 0 .282.008.165.009.26.022v1.219a2 2 0 0 0-.273-.047q-.196-.03-.392-.03-.452 0-.806.192a1.42 1.42 0 0 0-.758 1.282v3.997zm9.51-4.947-1.155.205a1.4 1.4 0 0 0-.23-.422 1.1 1.1 0 0 0-.418-.328 1.5 1.5 0 0 0-.66-.128q-.54 0-.903.243-.363.239-.363.617 0 .328.243.529.243.2.784.328l1.04.239q.903.208 1.347.643t.443 1.129q0 .588-.341 1.049-.337.456-.942.716-.6.26-1.393.26-1.1 0-1.794-.469-.694-.474-.853-1.343l1.232-.187q.115.481.473.729.358.243.933.243.627 0 1.002-.26.375-.265.375-.644a.67.67 0 0 0-.23-.516q-.227-.208-.695-.315l-1.108-.243q-.916-.209-1.355-.665-.435-.455-.435-1.154 0-.58.324-1.015t.895-.677q.57-.247 1.308-.247 1.061 0 1.67.46.61.456.806 1.223" class="B"/><path fill="#000" d="M116.25 170.878c0-9.526 7.723-17.25 17.25-17.25h56c9.527 0 17.25 7.724 17.25 17.25s-7.723 17.25-17.25 17.25h-56c-9.527 0-17.25-7.723-17.25-17.25"/><g class="F"><use stroke="url(#C)" href="#V"/><use stroke="url(#D)" href="#V"/></g><path stroke="#fff" d="M131.996 163.106a7.9 7.9 0 0 1 3.008 0m0 15.545a7.9 7.9 0 0 1-3.008 0m5.944-14.327a7.9 7.9 0 0 1 2.13 2.138m-14.343 5.921a7.9 7.9 0 0 1 0-3.009m14.327 5.945a7.9 7.9 0 0 1-2.137 2.129m3.355-8.074a7.9 7.9 0 0 1 0 3.009m-14.326-5.945a7.9 7.9 0 0 1 2.137-2.13m-.024 13.125a7.9 7.9 0 0 1-2.129-2.138" class="G H"/><path d="M156.959 174.878v-8.727h3.111q1.014 0 1.683.35a2.3 2.3 0 0 1 1.006.967q.332.614.332 1.419 0 .801-.337 1.41a2.26 2.26 0 0 1-1.005.942q-.67.337-1.684.337h-2.356v-1.134h2.237q.64 0 1.04-.183.405-.183.592-.533a1.75 1.75 0 0 0 .188-.839q0-.495-.192-.857a1.24 1.24 0 0 0-.592-.554q-.401-.195-1.053-.196h-1.653v7.598zm4.308-3.937 2.156 3.937h-1.5l-2.113-3.937zm6.063 4.07q-.967 0-1.666-.414a2.8 2.8 0 0 1-1.074-1.172q-.375-.758-.375-1.777 0-1.005.375-1.772a2.9 2.9 0 0 1 1.057-1.198q.681-.43 1.593-.43.555 0 1.074.183.52.183.934.575.412.393.652 1.019.238.622.238 1.513v.451h-5.203v-.954h3.955q0-.503-.205-.891a1.55 1.55 0 0 0-1.436-.844q-.537 0-.938.264a1.8 1.8 0 0 0-.613.682 2 2 0 0 0-.213.908v.746q0 .655.23 1.116.234.46.652.703.418.239.976.239.362 0 .66-.102.298-.106.516-.316a1.36 1.36 0 0 0 .332-.515l1.206.217q-.145.532-.52.933-.37.396-.933.618a3.5 3.5 0 0 1-1.274.218m5.496-8.86v8.727h-1.274v-8.727zm3.619 8.872q-.622 0-1.125-.23a1.9 1.9 0 0 1-.797-.677q-.29-.444-.29-1.087 0-.553.213-.912.213-.358.576-.567.362-.209.809-.315t.912-.162l.955-.111q.367-.047.532-.149.167-.102.167-.332v-.03q0-.559-.316-.865-.31-.307-.929-.307-.643 0-1.014.285a1.54 1.54 0 0 0-.507.627l-1.197-.273q.213-.597.622-.963.413-.37.95-.537.537-.17 1.129-.17.393 0 .831.093.444.09.827.333.387.243.635.694.247.449.247 1.164v4.346h-1.244v-.894h-.051a1.8 1.8 0 0 1-.371.485 2 2 0 0 1-.635.397 2.5 2.5 0 0 1-.929.157m.277-1.022q.528 0 .903-.209.38-.209.576-.546.2-.34.2-.728v-.844a.7.7 0 0 1-.264.128 4 4 0 0 1-.439.098l-.482.072-.392.051a3.2 3.2 0 0 0-.677.158q-.303.11-.486.32-.179.204-.179.545 0 .473.349.716.35.239.891.239m5.221 3.332q-.285 0-.52-.047a1.6 1.6 0 0 1-.349-.094l.307-1.044q.35.094.622.081a.74.74 0 0 0 .481-.204q.213-.192.375-.627l.158-.434-2.395-6.631h1.364l1.657 5.08h.069l1.657-5.08h1.368l-2.697 7.419a3 3 0 0 1-.478.865 1.84 1.84 0 0 1-.69.537 2.3 2.3 0 0 1-.929.179m8.59-2.322q-.967 0-1.666-.414a2.8 2.8 0 0 1-1.074-1.172q-.375-.758-.375-1.777 0-1.005.375-1.772a2.9 2.9 0 0 1 1.057-1.198q.681-.43 1.594-.43.554 0 1.073.183.52.183.934.575.413.393.652 1.019.238.622.238 1.513v.451h-5.203v-.954h3.955q0-.503-.205-.891a1.55 1.55 0 0 0-1.436-.844q-.537 0-.937.264a1.8 1.8 0 0 0-.614.682 2 2 0 0 0-.213.908v.746q0 .655.23 1.116.234.46.652.703.418.239.976.239.361 0 .66-.102.299-.106.516-.316a1.36 1.36 0 0 0 .332-.515l1.206.217q-.145.532-.52.933-.37.396-.933.618a3.5 3.5 0 0 1-1.274.218m4.222-.133v-6.545h1.232v1.04h.068q.179-.53.63-.831a1.8 1.8 0 0 1 1.032-.307q.119 0 .281.008.166.009.26.022v1.219a2 2 0 0 0-.273-.047 3 3 0 0 0-.392-.03q-.452 0-.805.192a1.4 1.4 0 0 0-.759 1.282v3.997z" class="B"/><path fill="#000" d="M217.25 170.878c0-9.526 7.723-17.25 17.25-17.25h104c9.527 0 17.25 7.724 17.25 17.25s-7.723 17.25-17.25 17.25h-104c-9.527 0-17.25-7.723-17.25-17.25"/><g class="F"><use stroke="url(#E)" href="#W"/><use stroke="url(#F)" href="#W"/></g><path stroke="#fff" d="M232.917 178.716v-6.254m0 0-6.254-3.879m6.254 3.879 9.42-5.462m-6.254 10.054v-6.413m3.167 4.592v-6.413m3.167-1.346c0-.475-.317-.95-.634-1.187l-4.987-3.088a1.37 1.37 0 0 0-1.346 0l-8.154 4.75c-.396.159-.713.634-.713 1.109v5.225c0 .396.317.95.634 1.187l4.987 3.088a1.37 1.37 0 0 0 1.346 0l8.154-4.75c.396-.238.713-.792.713-1.188z" class="G H"/><path d="M265.54 170.515q0 1.398-.512 2.403-.51 1.002-1.402 1.543-.885.537-2.015.537-1.134 0-2.024-.537-.887-.542-1.398-1.547-.511-1.006-.511-2.399 0-1.398.511-2.399.512-1.006 1.398-1.543.89-.541 2.024-.541 1.13 0 2.015.541.892.537 1.402 1.543.512 1 .512 2.399m-1.304 0q0-1.065-.345-1.794-.342-.733-.938-1.108a2.43 2.43 0 0 0-1.342-.379q-.755 0-1.347.379-.592.375-.937 1.108-.341.729-.341 1.794t.341 1.798q.345.729.937 1.108.592.375 1.347.375.75 0 1.342-.375.596-.38.938-1.108.345-.733.345-1.798m2.843 4.363v-6.545h1.232v1.04h.068q.178-.53.631-.831a1.8 1.8 0 0 1 1.031-.307q.119 0 .281.008.167.009.26.022v1.219a2 2 0 0 0-.273-.047q-.195-.03-.392-.03a1.66 1.66 0 0 0-.805.192 1.4 1.4 0 0 0-.759 1.282v3.997zm6.452.145q-.623 0-1.125-.23a1.9 1.9 0 0 1-.797-.677q-.29-.444-.29-1.087 0-.553.213-.912.213-.358.576-.567.362-.209.809-.315.449-.106.912-.162l.955-.111q.367-.047.532-.149.167-.102.167-.332v-.03q0-.559-.316-.865-.31-.307-.929-.307-.643 0-1.014.285a1.54 1.54 0 0 0-.507.627l-1.197-.273q.213-.597.622-.963.413-.37.95-.537.537-.17 1.129-.17.393 0 .831.093.444.09.827.333.387.243.635.694.247.449.247 1.164v4.346h-1.244v-.894h-.051a1.8 1.8 0 0 1-.371.485 2 2 0 0 1-.635.397 2.5 2.5 0 0 1-.929.157m.277-1.022q.528 0 .903-.209.38-.209.576-.546.2-.34.2-.728v-.844a.7.7 0 0 1-.264.128 4 4 0 0 1-.439.098l-.482.072-.392.051a3.2 3.2 0 0 0-.677.158q-.303.11-.486.32-.18.204-.179.545 0 .473.349.716.35.239.891.239m7.407 1.01q-.95 0-1.636-.431a2.85 2.85 0 0 1-1.048-1.197q-.367-.763-.367-1.747 0-.998.375-1.76.375-.768 1.057-1.198t1.606-.43q.747 0 1.33.277.584.273.942.767.362.494.43 1.155h-1.24a1.5 1.5 0 0 0-.469-.793q-.362-.333-.971-.332-.532 0-.934.281-.396.278-.617.792-.222.512-.222 1.211 0 .716.217 1.235.218.52.614.806.4.285.942.285.362 0 .656-.132a1.35 1.35 0 0 0 .499-.387q.204-.252.285-.606h1.24a2.4 2.4 0 0 1-.413 1.134q-.346.498-.925.784-.575.286-1.351.286m5.326-8.86v8.727h-1.274v-8.727zm4.535 8.86q-.967 0-1.666-.414a2.8 2.8 0 0 1-1.074-1.172q-.375-.758-.375-1.777 0-1.005.375-1.772a2.9 2.9 0 0 1 1.057-1.198q.681-.43 1.594-.43.554 0 1.073.183.52.183.934.575.413.393.652 1.019.238.622.238 1.513v.451h-5.203v-.954h3.955q0-.503-.205-.891a1.55 1.55 0 0 0-1.436-.844q-.537 0-.937.264a1.8 1.8 0 0 0-.614.682 2 2 0 0 0-.213.908v.746q0 .655.23 1.116.235.46.652.703.417.239.976.239.362 0 .66-.102.298-.106.516-.316a1.36 1.36 0 0 0 .332-.515l1.206.217q-.144.532-.52.933-.37.396-.933.618a3.5 3.5 0 0 1-1.274.218m14.749-6.022h-1.33a2.04 2.04 0 0 0-.797-1.3 2.2 2.2 0 0 0-.677-.34 2.6 2.6 0 0 0-.789-.115q-.754 0-1.351.379-.591.379-.937 1.112-.34.733-.341 1.79 0 1.065.341 1.798.345.733.942 1.108.596.375 1.342.375.414 0 .784-.111.375-.115.678-.336.302-.222.511-.542.213-.324.294-.741l1.33.004a3.6 3.6 0 0 1-.414 1.185 3.3 3.3 0 0 1-.78.929 3.5 3.5 0 0 1-1.082.601 4 4 0 0 1-1.33.213q-1.133 0-2.019-.537-.887-.542-1.398-1.547-.507-1.006-.507-2.399 0-1.398.511-2.399.512-1.006 1.398-1.543.887-.541 2.015-.541.695 0 1.296.2.605.196 1.087.58.481.378.796.929.316.544.427 1.248m4.23 6.022q-.92 0-1.606-.422a2.85 2.85 0 0 1-1.066-1.181q-.38-.758-.379-1.772 0-1.018.379-1.782a2.84 2.84 0 0 1 1.066-1.184q.685-.423 1.606-.422.92 0 1.607.422.685.422 1.065 1.184.38.763.379 1.782 0 1.014-.379 1.772a2.85 2.85 0 0 1-1.065 1.181q-.687.422-1.607.422m.004-1.07q.597 0 .989-.315.392-.316.579-.84.192-.524.192-1.155a3.3 3.3 0 0 0-.192-1.15 1.87 1.87 0 0 0-.579-.848q-.392-.32-.989-.32-.6 0-.997.32a1.9 1.9 0 0 0-.584.848 3.4 3.4 0 0 0-.187 1.15q0 .631.187 1.155.192.524.584.84.396.315.997.315m5.744-2.949v3.886h-1.275v-6.545h1.223v1.065h.081q.226-.52.708-.835.486-.315 1.223-.315.669 0 1.172.281.503.277.779.827.277.549.277 1.359v4.163h-1.274v-4.01q0-.711-.37-1.112-.371-.405-1.019-.405-.443 0-.788.192a1.4 1.4 0 0 0-.541.563q-.196.366-.196.886m8.953-2.659v1.023h-3.576v-1.023zm-2.617-1.568h1.274v6.192q0 .37.111.558a.57.57 0 0 0 .286.251q.179.064.387.064.154 0 .269-.021l.179-.034.23 1.052a2.5 2.5 0 0 1-.827.137 2.25 2.25 0 0 1-.937-.179 1.6 1.6 0 0 1-.703-.58q-.269-.391-.269-.984zm4.026 8.113v-6.545h1.232v1.04h.068q.178-.53.631-.831a1.8 1.8 0 0 1 1.031-.307q.119 0 .281.008.166.009.26.022v1.219a2 2 0 0 0-.273-.047q-.195-.03-.392-.03a1.66 1.66 0 0 0-.805.192 1.4 1.4 0 0 0-.759 1.282v3.997zm6.452.145q-.623 0-1.125-.23a1.9 1.9 0 0 1-.797-.677q-.29-.444-.29-1.087 0-.553.213-.912.213-.358.576-.567.362-.209.809-.315t.912-.162l.955-.111q.367-.047.532-.149.167-.102.167-.332v-.03q0-.559-.316-.865-.31-.307-.929-.307-.643 0-1.014.285a1.54 1.54 0 0 0-.507.627l-1.198-.273q.214-.597.623-.963.413-.37.95-.537.537-.17 1.129-.17.393 0 .831.093.444.09.827.333.387.243.635.694.247.449.247 1.164v4.346h-1.244v-.894h-.052a1.8 1.8 0 0 1-.37.485 2 2 0 0 1-.635.397 2.5 2.5 0 0 1-.929.157m.277-1.022q.528 0 .903-.209.38-.209.576-.546.2-.34.2-.728v-.844a.7.7 0 0 1-.264.128 4 4 0 0 1-.439.098l-.482.072-.392.051a3.2 3.2 0 0 0-.677.158q-.303.11-.486.32-.18.204-.179.545 0 .473.349.716.35.239.891.239m7.407 1.01q-.95 0-1.636-.431a2.86 2.86 0 0 1-1.049-1.197q-.366-.763-.366-1.747 0-.998.375-1.76.375-.768 1.057-1.198t1.606-.43q.747 0 1.33.277.584.273.942.767.362.494.43 1.155h-1.24a1.5 1.5 0 0 0-.469-.793q-.362-.333-.971-.332-.533 0-.934.281-.396.278-.617.792-.222.512-.222 1.211 0 .716.217 1.235.218.52.614.806.4.285.942.285.362 0 .656-.132.298-.137.498-.387.205-.252.286-.606h1.24a2.4 2.4 0 0 1-.413 1.134q-.346.498-.925.784-.576.286-1.351.286m7.107-6.678v1.023h-3.575v-1.023zm-2.616-1.568h1.274v6.192q0 .37.11.558a.58.58 0 0 0 .286.251q.179.064.388.064.154 0 .268-.021l.179-.034.23 1.052a2.5 2.5 0 0 1-.826.137 2.3 2.3 0 0 1-.938-.179 1.6 1.6 0 0 1-.703-.58q-.268-.391-.268-.984z" class="B"/></g><g class="F"><path stroke="url(#G)" d="M146.639 32.22c0 25.05-17.089 46.87-41.41 52.872l-3.596.887c-26.432 6.524-45.005 30.238-45.005 57.463v2.073"/><path stroke="url(#H)" d="M231.703 32.22c0 24.363-18.113 44.928-42.282 48.003L104.635 91.01c-27.442 3.492-48.008 26.841-48.008 54.504"/><path stroke="url(#I)" d="M55.889 32.22v113.295"/></g><g class="B" filter="url(#O)"><ellipse cx="106.084" cy="84.857" rx="2.507" ry="3.957" transform="rotate(90 106.084 84.857)"/></g><g class="B" filter="url(#P)"><ellipse cx="2.005" cy="3.462" rx="2.005" ry="3.462" transform="matrix(0 1 1 0 205.986 65.306)"/></g><g class="B" filter="url(#Q)"><ellipse cx="2.005" cy="3.462" rx="2.005" ry="3.462" transform="matrix(0 1 1 0 52.672 49.264)"/></g><g opacity=".8"><path d="M23.738 16.042C23.738 7.182 30.92 0 39.78 0h33.2c8.859 0 16.04 7.182 16.04 16.042s-7.18 16.042-16.04 16.042h-33.2c-8.86 0-16.042-7.183-16.042-16.042" class="C"/><path d="M37.098 13.607a1.25 1.25 0 0 0-.562-.937q-.495-.337-1.245-.337-.536 0-.928.17a1.43 1.43 0 0 0-.61.46 1.1 1.1 0 0 0-.213.661q0 .312.145.537.15.225.388.38.243.149.52.251.276.098.532.162l.853.221a6.5 6.5 0 0 1 .856.277q.44.175.814.46.375.286.605.708.234.422.234 1.01 0 .741-.383 1.317-.379.575-1.104.908-.72.332-1.743.332-.98 0-1.696-.311-.715-.312-1.12-.882-.406-.576-.448-1.364h1.321q.039.473.307.788.272.312.695.465.426.15.933.149.558 0 .993-.175.439-.179.69-.494.252-.32.252-.746a.92.92 0 0 0-.222-.635 1.6 1.6 0 0 0-.592-.409 6 6 0 0 0-.84-.285l-1.031-.282q-1.048-.285-1.662-.839-.61-.554-.61-1.466 0-.755.41-1.317a2.7 2.7 0 0 1 1.108-.873q.699-.316 1.576-.316.887 0 1.564.312.683.31 1.074.856.392.541.41 1.244zm5.618 6.567q-.921 0-1.607-.422a2.84 2.84 0 0 1-1.065-1.18q-.38-.759-.38-1.773 0-1.019.38-1.781a2.84 2.84 0 0 1 1.065-1.185q.687-.422 1.607-.422t1.606.422 1.066 1.185.379 1.781q0 1.014-.38 1.773-.378.759-1.065 1.18-.685.422-1.606.422m.004-1.07q.596 0 .989-.315.391-.315.58-.84.19-.524.191-1.154 0-.627-.192-1.15a1.87 1.87 0 0 0-.58-.849q-.39-.32-.988-.32-.6 0-.997.32a1.9 1.9 0 0 0-.584.848q-.187.525-.187 1.15 0 .631.187 1.156.192.524.584.84.397.315.997.315m8.616-1.776v-3.831h1.278v6.545h-1.253v-1.134h-.068q-.226.525-.724.874-.494.345-1.232.345-.63 0-1.117-.277a1.95 1.95 0 0 1-.758-.83q-.273-.55-.273-1.36v-4.164h1.274v4.01q0 .67.371 1.066.37.396.963.396.358 0 .712-.179a1.5 1.5 0 0 0 .592-.541q.239-.363.235-.92m2.99 2.714v-6.546h1.231v1.04h.069q.18-.528.63-.83a1.8 1.8 0 0 1 1.032-.307 6 6 0 0 1 .54.03v1.218a2 2 0 0 0-.272-.047q-.195-.03-.392-.03-.452 0-.805.192a1.43 1.43 0 0 0-.759 1.283v3.997zm7.128.132q-.95 0-1.636-.43a2.85 2.85 0 0 1-1.048-1.198q-.367-.762-.367-1.747 0-.997.375-1.76.375-.766 1.057-1.197.681-.43 1.606-.43.745 0 1.33.276.584.273.942.767.362.495.43 1.155h-1.24a1.5 1.5 0 0 0-.469-.792q-.362-.333-.971-.333-.532 0-.934.281-.396.278-.618.793-.22.51-.221 1.21 0 .717.217 1.236.218.52.614.806.4.285.942.285.362 0 .656-.132.298-.136.498-.388.205-.252.286-.605h1.24a2.4 2.4 0 0 1-.413 1.134q-.346.498-.925.784-.575.285-1.35.285m6.873 0q-.967 0-1.666-.413a2.8 2.8 0 0 1-1.074-1.172q-.375-.759-.375-1.777 0-1.006.375-1.773.379-.766 1.056-1.197.682-.43 1.594-.43.555 0 1.074.182.52.184.933.576t.652 1.018q.24.623.239 1.513v.452h-5.203v-.955h3.954q0-.503-.204-.89a1.55 1.55 0 0 0-.576-.618 1.6 1.6 0 0 0-.86-.226q-.537 0-.938.264-.396.26-.613.682a2 2 0 0 0-.213.908v.745q0 .657.23 1.117.234.46.652.703.417.239.975.239.363 0 .661-.103.298-.106.516-.315a1.4 1.4 0 0 0 .332-.516l1.206.218q-.145.532-.52.933-.37.396-.933.618a3.5 3.5 0 0 1-1.274.217m10.691-8.86v8.728h-1.32v-7.406h-.052L75.559 14v-1.261l2.178-1.423z" class="B"/></g><g opacity=".8"><path d="M113.262 16.042C113.262 7.458 120.22.5 128.803.5h34.189c8.583 0 15.541 6.958 15.541 15.542s-6.958 15.542-15.541 15.542h-34.189c-8.583 0-15.541-6.959-15.541-15.542" class="C"/><path stroke="url(#J)" d="M113.262 16.042C113.262 7.458 120.22.5 128.803.5h34.189c8.583 0 15.541 6.958 15.541 15.542s-6.958 15.542-15.541 15.542h-34.189c-8.583 0-15.541-6.959-15.541-15.542Z"/><path d="M126.116 13.607a1.25 1.25 0 0 0-.562-.937q-.494-.337-1.244-.337-.537 0-.929.17-.393.167-.61.46a1.1 1.1 0 0 0-.213.661.97.97 0 0 0 .145.537q.149.225.388.38.243.149.52.251.276.098.532.162l.853.221q.418.103.856.277.44.175.814.46.375.286.605.708.235.422.235 1.01 0 .741-.384 1.317-.38.575-1.104.908-.72.332-1.743.332-.98 0-1.696-.311a2.6 2.6 0 0 1-1.12-.882q-.405-.576-.448-1.364h1.321q.039.473.307.788.272.312.695.465.426.15.933.149.558 0 .993-.175.439-.179.69-.494a1.17 1.17 0 0 0 .252-.746.9.9 0 0 0-.222-.635 1.6 1.6 0 0 0-.592-.409 6 6 0 0 0-.84-.285l-1.031-.282q-1.048-.285-1.662-.839-.609-.554-.609-1.466 0-.755.409-1.317a2.7 2.7 0 0 1 1.108-.873q.699-.316 1.576-.316.887 0 1.564.312.682.31 1.074.856.392.541.409 1.244zm5.618 6.567q-.92 0-1.607-.422a2.85 2.85 0 0 1-1.065-1.18q-.38-.759-.379-1.773 0-1.019.379-1.781a2.84 2.84 0 0 1 1.065-1.185q.686-.422 1.607-.422t1.606.422q.687.422 1.066 1.185.38.762.379 1.781 0 1.014-.379 1.773-.38.759-1.066 1.18-.685.422-1.606.422m.004-1.07q.596 0 .989-.315.391-.315.579-.84.192-.524.192-1.154 0-.627-.192-1.15a1.9 1.9 0 0 0-.579-.849q-.393-.32-.989-.32-.6 0-.997.32a1.9 1.9 0 0 0-.584.848q-.187.525-.187 1.15 0 .631.187 1.156.192.524.584.84.397.315.997.315m8.616-1.776v-3.831h1.278v6.545h-1.253v-1.134h-.068q-.226.525-.724.874-.495.345-1.232.345-.63 0-1.117-.277a1.95 1.95 0 0 1-.758-.83q-.273-.55-.273-1.36v-4.164h1.274v4.01q0 .67.371 1.066.37.396.963.396.358 0 .712-.179.358-.18.592-.541.238-.363.235-.92m2.99 2.714v-6.546h1.231v1.04h.069a1.58 1.58 0 0 1 .63-.83 1.8 1.8 0 0 1 1.032-.307 6 6 0 0 1 .541.03v1.218a2 2 0 0 0-.273-.047 3 3 0 0 0-.392-.03q-.452 0-.805.192a1.42 1.42 0 0 0-.759 1.283v3.997zm7.128.132q-.95 0-1.636-.43a2.85 2.85 0 0 1-1.049-1.198q-.366-.762-.366-1.747 0-.997.375-1.76a2.87 2.87 0 0 1 1.057-1.197q.682-.43 1.606-.43.747 0 1.33.276.584.273.942.767.362.495.43 1.155h-1.24a1.5 1.5 0 0 0-.469-.792q-.362-.333-.971-.333-.533 0-.934.281-.396.278-.617.793-.222.51-.222 1.21 0 .717.217 1.236.218.52.614.806.4.285.942.285.362 0 .656-.132.298-.136.499-.388.204-.252.285-.605h1.24a2.4 2.4 0 0 1-.413 1.134q-.345.498-.925.784-.576.285-1.351.285m6.873 0q-.968 0-1.667-.413a2.8 2.8 0 0 1-1.073-1.172q-.375-.759-.375-1.777 0-1.006.375-1.773.379-.766 1.056-1.197.682-.43 1.594-.43.554 0 1.074.182.52.184.933.576t.652 1.018q.239.623.239 1.513v.452h-5.203v-.955h3.954q0-.503-.204-.89a1.55 1.55 0 0 0-.575-.618 1.6 1.6 0 0 0-.861-.226q-.537 0-.938.264-.397.26-.613.682a2 2 0 0 0-.213.908v.745q0 .657.23 1.117.234.46.652.703.417.239.975.239.363 0 .661-.103a1.4 1.4 0 0 0 .516-.315q.216-.21.332-.516l1.206.218q-.145.532-.52.933-.37.396-.933.618a3.5 3.5 0 0 1-1.274.217m7.38-.132v-.955l2.953-3.06q.474-.498.78-.873.312-.38.465-.72.153-.341.153-.724 0-.435-.204-.75a1.34 1.34 0 0 0-.559-.49 1.8 1.8 0 0 0-.796-.175q-.47 0-.819.192a1.3 1.3 0 0 0-.537.54 1.7 1.7 0 0 0-.187.819h-1.257q0-.797.366-1.393.367-.598 1.006-.925a3.1 3.1 0 0 1 1.453-.333q.822 0 1.449.329.63.322.984.886.354.558.354 1.261 0 .486-.183.95-.18.465-.627 1.036-.447.567-1.244 1.377l-1.734 1.815v.064h3.929v1.129z" class="B"/></g><g opacity=".8"><path d="M196.342 16.042c0-8.86 7.182-16.042 16.042-16.042h35.177c8.86 0 16.042 7.182 16.042 16.042s-7.182 16.042-16.042 16.042h-35.177c-8.86 0-16.042-7.183-16.042-16.042" class="C"/><path d="M209.691 13.607a1.24 1.24 0 0 0-.563-.937q-.494-.337-1.244-.337a2.3 2.3 0 0 0-.929.17q-.391.167-.609.46a1.1 1.1 0 0 0-.213.661.97.97 0 0 0 .145.537q.149.225.387.38.244.149.52.251.278.098.533.162l.852.221q.418.103.857.277.438.175.814.46t.605.708q.234.422.234 1.01 0 .741-.383 1.317-.38.575-1.104.908-.72.332-1.743.332-.98 0-1.696-.311-.716-.312-1.121-.882-.405-.576-.447-1.364h1.321q.038.473.307.788.273.312.694.465.426.15.934.149.558 0 .992-.175.44-.179.691-.494.25-.32.251-.746a.92.92 0 0 0-.221-.635 1.64 1.64 0 0 0-.593-.409 6 6 0 0 0-.839-.285l-1.031-.282q-1.049-.285-1.662-.839-.61-.554-.61-1.466 0-.755.409-1.317a2.7 2.7 0 0 1 1.108-.873q.7-.316 1.577-.316.886 0 1.564.312.681.31 1.074.856.392.541.409 1.244zm5.618 6.567q-.921 0-1.607-.422a2.84 2.84 0 0 1-1.065-1.18q-.38-.759-.38-1.773 0-1.019.38-1.781a2.84 2.84 0 0 1 1.065-1.185q.686-.422 1.607-.422t1.606.422q.686.422 1.065 1.185.38.762.38 1.781 0 1.014-.38 1.773a2.84 2.84 0 0 1-1.065 1.18q-.686.422-1.606.422m.004-1.07q.597 0 .988-.315.393-.315.58-.84.192-.524.192-1.154 0-.627-.192-1.15a1.87 1.87 0 0 0-.58-.849q-.391-.32-.988-.32-.601 0-.997.32a1.9 1.9 0 0 0-.584.848q-.188.525-.188 1.15 0 .631.188 1.156.191.524.584.84.396.315.997.315m8.615-1.776v-3.831h1.279v6.545h-1.253v-1.134h-.068q-.226.525-.725.874-.494.345-1.231.345-.631 0-1.117-.277a1.94 1.94 0 0 1-.758-.83q-.273-.55-.273-1.36v-4.164h1.274v4.01q0 .67.371 1.066.37.396.963.396.358 0 .711-.179.359-.18.593-.541.238-.363.234-.92m2.991 2.714v-6.546h1.231v1.04h.068q.18-.528.631-.83a1.8 1.8 0 0 1 1.031-.307 6 6 0 0 1 .541.03v1.218a2 2 0 0 0-.272-.047 3 3 0 0 0-.392-.03q-.452 0-.806.192a1.43 1.43 0 0 0-.758 1.283v3.997zm7.128.132q-.95 0-1.637-.43a2.85 2.85 0 0 1-1.048-1.198q-.366-.762-.366-1.747 0-.997.375-1.76.375-.766 1.056-1.197.683-.43 1.607-.43.745 0 1.33.276.584.273.941.767.362.495.431 1.155h-1.24a1.5 1.5 0 0 0-.469-.792q-.362-.333-.972-.333-.532 0-.933.281-.396.278-.618.793-.222.51-.221 1.21 0 .717.217 1.236.217.52.614.806.4.285.941.285.363 0 .657-.132.298-.136.498-.388.205-.252.286-.605h1.24a2.4 2.4 0 0 1-.414 1.134q-.345.498-.924.784-.576.285-1.351.285m6.872 0q-.967 0-1.666-.413a2.8 2.8 0 0 1-1.074-1.172q-.375-.759-.375-1.777 0-1.006.375-1.773.38-.766 1.057-1.197.682-.43 1.594-.43.553 0 1.074.182.519.184.933.576.413.391.652 1.018.239.623.239 1.513v.452h-5.204v-.955h3.955q0-.503-.205-.89a1.55 1.55 0 0 0-.575-.618 1.6 1.6 0 0 0-.861-.226q-.537 0-.937.264-.396.26-.614.682a2 2 0 0 0-.213.908v.745q0 .657.23 1.117.235.46.652.703.418.239.976.239.363 0 .661-.103.297-.106.515-.315.217-.21.333-.516l1.206.218q-.145.532-.52.933-.371.396-.934.618a3.5 3.5 0 0 1-1.274.217m10.419-.013q-.878 0-1.568-.302a2.66 2.66 0 0 1-1.086-.84 2.2 2.2 0 0 1-.427-1.253h1.338q.026.388.26.674.239.28.623.434.382.154.852.154.516 0 .912-.18.4-.178.626-.498.226-.324.226-.745 0-.44-.226-.772a1.47 1.47 0 0 0-.652-.528q-.426-.192-1.031-.192h-.737V15.04h.737q.486 0 .852-.175.371-.174.58-.485.209-.315.209-.738 0-.405-.184-.703a1.23 1.23 0 0 0-.511-.473 1.66 1.66 0 0 0-.776-.17 2 2 0 0 0-.796.158q-.367.153-.597.443a1.14 1.14 0 0 0-.247.686h-1.274q.021-.708.417-1.245.401-.536 1.057-.839a3.4 3.4 0 0 1 1.457-.303q.84 0 1.449.329.614.323.946.865.337.54.333 1.184.004.733-.409 1.245-.41.511-1.091.686v.068q.869.132 1.346.69.481.558.478 1.385.004.72-.401 1.291-.4.57-1.095.9-.694.323-1.59.323" class="B"/></g><g class="F"><path stroke="url(#K)" d="M105.59 351.917c0-33.804 24.344-62.695 57.657-68.429l53.932-9.282c37.825-6.509 65.465-39.313 65.465-77.694"/><path stroke="url(#L)" d="M191.645 351.917v-10.523c0-28.662 18.32-54.117 45.5-63.219 27.179-9.101 45.5-34.556 45.5-63.218v-18.445"/><path stroke="url(#M)" d="M282.895 196.512v155.404"/></g><rect width="53.413" height="32.084" x="85.064" y="351.917" class="C" rx="16.042"/><path d="M96.078 372.086q-.793 0-1.415-.404-.618-.41-.971-1.164-.35-.759-.35-1.819 0-1.062.354-1.816.357-.755.98-1.155t1.41-.4q.61 0 .98.204.376.2.58.469.21.269.324.473h.077v-3.243h1.274v8.727h-1.245v-1.018h-.106a3.4 3.4 0 0 1-.332.477 1.8 1.8 0 0 1-.589.469q-.375.2-.971.2m.281-1.086q.55 0 .929-.29a1.8 1.8 0 0 0 .58-.814q.2-.52.2-1.21 0-.683-.196-1.193a1.75 1.75 0 0 0-.575-.797q-.38-.286-.938-.286-.575 0-.959.298a1.83 1.83 0 0 0-.58.814 3.3 3.3 0 0 0-.191 1.164q0 .656.196 1.18.195.525.58.831.387.303.954.303m5.62.958h-1.398l3.141-8.727h1.521l3.141 8.727h-1.398l-2.467-7.142h-.069zm.234-3.417h4.534v1.108h-4.534zm7.329 5.872v-9h1.244v1.061h.106q.111-.204.32-.473.208-.268.58-.469.37-.204.98-.204.793 0 1.414.4.623.4.976 1.155.358.754.358 1.816 0 1.06-.353 1.819-.354.754-.972 1.164a2.5 2.5 0 0 1-1.411.404q-.596 0-.975-.2a1.8 1.8 0 0 1-.588-.469 3.6 3.6 0 0 1-.329-.477h-.076v3.473zm1.248-5.727q0 .69.2 1.21t.58.814q.38.29.929.29.571 0 .955-.303.382-.306.579-.831.2-.524.2-1.18 0-.648-.196-1.164a1.8 1.8 0 0 0-.579-.814q-.383-.298-.959-.298-.554 0-.938.286-.378.285-.575.797-.195.51-.196 1.193m6.158 5.727v-9h1.244v1.061h.107q.11-.204.319-.473.21-.268.58-.469.37-.204.98-.204.792 0 1.415.4.622.4.976 1.155.357.754.358 1.816 0 1.06-.354 1.819-.354.754-.972 1.164a2.5 2.5 0 0 1-1.41.404q-.597 0-.976-.2a1.8 1.8 0 0 1-.588-.469 3.5 3.5 0 0 1-.328-.477h-.077v3.473zm1.248-5.727q0 .69.201 1.21.2.52.579.814.38.29.929.29.571 0 .955-.303a1.87 1.87 0 0 0 .579-.831q.201-.524.201-1.18 0-.648-.196-1.164a1.8 1.8 0 0 0-.58-.814q-.383-.298-.959-.298-.554 0-.937.286-.38.285-.576.797-.196.51-.196 1.193m11.063-1.675-1.155.205a1.4 1.4 0 0 0-.23-.422 1.1 1.1 0 0 0-.418-.328 1.5 1.5 0 0 0-.66-.128q-.541 0-.904.243-.362.239-.362.618 0 .327.243.528.243.2.784.328l1.04.239q.903.208 1.347.643t.443 1.129q0 .588-.341 1.049-.337.456-.942.716-.6.26-1.393.26-1.1 0-1.794-.469-.695-.473-.853-1.342l1.232-.188q.115.482.473.729.358.243.933.243.627 0 1.002-.26.375-.264.375-.644a.67.67 0 0 0-.231-.515q-.226-.21-.694-.316l-1.108-.243q-.917-.208-1.355-.664-.435-.456-.435-1.155 0-.58.324-1.014t.895-.678a3.3 3.3 0 0 1 1.308-.247q1.06 0 1.671.46.609.456.805 1.223" class="B"/><rect width="69.228" height="31.084" x="250.75" y="352.417" class="C" rx="15.542"/><rect width="69.228" height="31.084" x="250.75" y="352.417" stroke="url(#N)" rx="15.542"/><path d="M258.823 371.958v-8.727h3.111q1.018 0 1.687.371.669.37 1.002 1.014.332.639.332 1.441a3.1 3.1 0 0 1-.337 1.448 2.43 2.43 0 0 1-1.005 1.015q-.669.37-1.684.37h-2.139v-1.116h2.02q.643 0 1.044-.222a1.4 1.4 0 0 0 .588-.613q.188-.389.188-.882 0-.495-.188-.878a1.34 1.34 0 0 0-.592-.601q-.4-.218-1.057-.218h-1.653v7.598zm7.573 0v-6.545h1.232v1.04h.068q.179-.528.631-.831a1.8 1.8 0 0 1 1.031-.307 5 5 0 0 1 .541.03v1.219a2 2 0 0 0-.272-.047 3 3 0 0 0-.392-.03q-.452 0-.806.192a1.42 1.42 0 0 0-.758 1.282v3.997zm7.129.133q-.921 0-1.607-.422a2.85 2.85 0 0 1-1.065-1.181q-.38-.758-.379-1.772 0-1.019.379-1.782a2.84 2.84 0 0 1 1.065-1.184q.686-.423 1.607-.422.92 0 1.606.422.687.422 1.066 1.184.379.764.379 1.782 0 1.014-.379 1.772a2.85 2.85 0 0 1-1.066 1.181q-.686.422-1.606.422m.004-1.07q.596 0 .989-.315.392-.316.579-.84.192-.524.192-1.155a3.3 3.3 0 0 0-.192-1.15 1.87 1.87 0 0 0-.579-.848q-.392-.32-.989-.32-.601 0-.997.32a1.9 1.9 0 0 0-.584.848 3.4 3.4 0 0 0-.188 1.15q0 .631.188 1.155.192.524.584.84.396.315.997.315m7.524-5.608v1.023h-3.575v-1.023zm-2.616-1.568h1.274v6.192q0 .37.111.558a.58.58 0 0 0 .285.251q.18.064.388.064.153 0 .269-.021l.179-.034.23 1.052a2.5 2.5 0 0 1-.827.137 2.25 2.25 0 0 1-.937-.179 1.6 1.6 0 0 1-.704-.58q-.268-.392-.268-.984zm6.713 8.246q-.921 0-1.607-.422a2.85 2.85 0 0 1-1.065-1.181q-.38-.758-.379-1.772 0-1.019.379-1.782a2.84 2.84 0 0 1 1.065-1.184q.686-.423 1.607-.422.92 0 1.606.422.687.422 1.066 1.184.379.764.379 1.782 0 1.014-.379 1.772a2.85 2.85 0 0 1-1.066 1.181q-.686.422-1.606.422m.004-1.07q.596 0 .989-.315.392-.316.579-.84.192-.524.192-1.155a3.3 3.3 0 0 0-.192-1.15 1.87 1.87 0 0 0-.579-.848q-.392-.32-.989-.32-.601 0-.997.32a1.9 1.9 0 0 0-.584.848 3.4 3.4 0 0 0-.188 1.15q0 .631.188 1.155.192.524.584.84.396.315.997.315m7.226 1.07q-.95 0-1.636-.431a2.86 2.86 0 0 1-1.049-1.197q-.366-.763-.366-1.747 0-.998.375-1.76.375-.768 1.057-1.198t1.606-.43q.746 0 1.33.277.583.273.942.767.362.493.43 1.155h-1.24a1.5 1.5 0 0 0-.469-.793q-.362-.332-.971-.332-.533 0-.934.281-.396.277-.617.793-.222.51-.222 1.21 0 .715.217 1.236.218.52.614.805.4.285.942.285.362 0 .656-.132.299-.136.498-.387.205-.252.286-.606h1.24a2.4 2.4 0 0 1-.413 1.134q-.345.498-.925.784-.576.286-1.351.286m6.809 0q-.92 0-1.607-.422a2.85 2.85 0 0 1-1.065-1.181q-.38-.758-.379-1.772 0-1.019.379-1.782a2.84 2.84 0 0 1 1.065-1.184q.687-.423 1.607-.422.92 0 1.606.422.687.422 1.066 1.184.379.764.379 1.782 0 1.014-.379 1.772a2.85 2.85 0 0 1-1.066 1.181q-.686.422-1.606.422m.004-1.07q.596 0 .989-.315.392-.316.579-.84.192-.524.192-1.155a3.3 3.3 0 0 0-.192-1.15 1.87 1.87 0 0 0-.579-.848q-.393-.32-.989-.32-.601 0-.997.32a1.9 1.9 0 0 0-.584.848 3.4 3.4 0 0 0-.187 1.15q0 .631.187 1.155.191.524.584.84.396.315.997.315m5.743-7.79v8.727h-1.274v-8.727zm6.619 3.78-1.155.205a1.4 1.4 0 0 0-.23-.422 1.1 1.1 0 0 0-.417-.328 1.5 1.5 0 0 0-.661-.128q-.541 0-.903.243-.363.239-.363.618 0 .327.243.528.243.2.784.328l1.04.239q.904.208 1.347.643t.443 1.129q0 .588-.341 1.049-.336.456-.942.716-.6.26-1.393.26-1.1 0-1.794-.469-.695-.473-.852-1.342l1.231-.188q.115.482.473.729.358.243.933.243.627 0 1.002-.26.375-.264.375-.644a.67.67 0 0 0-.23-.515q-.226-.21-.695-.316l-1.108-.243q-.916-.208-1.355-.664-.435-.456-.435-1.155 0-.58.324-1.014t.895-.678a3.3 3.3 0 0 1 1.308-.247q1.062 0 1.671.46.61.456.805 1.223" class="B"/><rect width="71.217" height="32.084" x="161.229" y="351.917" class="C" rx="16.042"/><path d="M176.84 363.231v8.727h-1.21l-4.436-6.4h-.081v6.4h-1.317v-8.727h1.219l4.44 6.409h.081v-6.409zm4.64 8.86q-.968 0-1.667-.414a2.8 2.8 0 0 1-1.073-1.172q-.375-.758-.375-1.777 0-1.005.375-1.772a2.9 2.9 0 0 1 1.056-1.198q.682-.43 1.594-.43.553 0 1.074.183.52.183.933.575a2.7 2.7 0 0 1 .652 1.019q.239.622.239 1.513v.451h-5.203v-.954h3.954q0-.502-.204-.891a1.55 1.55 0 0 0-1.436-.844q-.537 0-.938.265-.397.26-.613.681a1.96 1.96 0 0 0-.214.908v.746q0 .656.231 1.116.234.46.652.703.417.239.975.239.363 0 .661-.102.299-.106.516-.316.216-.209.332-.515l1.206.217q-.145.532-.52.933a2.5 2.5 0 0 1-.933.618 3.5 3.5 0 0 1-1.274.218m7.277-6.678v1.023h-3.575v-1.023zm-2.617-1.568h1.275v6.192q0 .37.11.558a.57.57 0 0 0 .286.251q.179.064.388.064.153 0 .268-.021l.179-.034.23 1.052a2.5 2.5 0 0 1-.826.137 2.3 2.3 0 0 1-.938-.179 1.6 1.6 0 0 1-.703-.58q-.269-.392-.269-.984zm5.445 8.113-1.926-6.545h1.317l1.283 4.807h.064l1.287-4.807h1.316l1.279 4.786h.064l1.274-4.786h1.317l-1.922 6.545h-1.3l-1.33-4.725h-.098l-1.329 4.725zm11.042.133q-.921 0-1.607-.422a2.85 2.85 0 0 1-1.065-1.181q-.38-.758-.379-1.772 0-1.019.379-1.782a2.84 2.84 0 0 1 1.065-1.184q.686-.423 1.607-.422.92 0 1.606.422.687.422 1.066 1.184.379.764.379 1.782 0 1.014-.379 1.772a2.85 2.85 0 0 1-1.066 1.181q-.686.422-1.606.422m.004-1.07q.597 0 .989-.315.392-.316.579-.84.192-.524.192-1.155a3.3 3.3 0 0 0-.192-1.15 1.87 1.87 0 0 0-.579-.848q-.392-.32-.989-.32-.601 0-.997.32a1.9 1.9 0 0 0-.584.848 3.4 3.4 0 0 0-.188 1.15q0 .631.188 1.155.191.524.584.84.396.315.997.315m4.469.937v-6.545h1.232v1.04h.068q.179-.528.63-.831a1.8 1.8 0 0 1 1.032-.307 5 5 0 0 1 .541.03v1.219a2 2 0 0 0-.273-.047 3 3 0 0 0-.392-.03q-.452 0-.805.192a1.4 1.4 0 0 0-.759 1.282v3.997zm5.777-2.22-.008-1.555h.221l2.608-2.77h1.526l-2.974 3.153h-.201zm-1.172 2.22v-8.727h1.275v8.727zm4.134 0-2.344-3.11.878-.891 3.03 4.001zm7.451-4.947-1.155.205a1.4 1.4 0 0 0-.23-.422 1.1 1.1 0 0 0-.418-.328 1.5 1.5 0 0 0-.66-.128q-.541 0-.903.243-.363.239-.363.618 0 .327.243.528.243.2.784.328l1.04.239q.903.208 1.347.643t.443 1.129q0 .588-.341 1.049-.337.456-.942.716-.6.26-1.393.26-1.1 0-1.794-.469-.694-.473-.853-1.342l1.232-.188q.115.482.473.729.359.243.933.243.627 0 1.002-.26.375-.264.375-.644a.67.67 0 0 0-.231-.515q-.226-.21-.694-.316l-1.108-.243q-.917-.208-1.355-.664-.435-.456-.435-1.155 0-.58.324-1.014t.895-.678a3.3 3.3 0 0 1 1.308-.247q1.061 0 1.671.46.609.456.805 1.223" class="B"/><g class="I" filter="url(#R)"><ellipse cx="4.01" cy="3.957" rx="4.01" ry="3.957" transform="matrix(0 -1 -1 0 187.936 284.742)"/></g><g class="I" filter="url(#S)"><ellipse cx="250.745" cy="272.209" rx="3.509" ry="3.462" transform="rotate(270 250.745 272.209)"/></g><g class="I" filter="url(#T)"><ellipse cx="282.397" cy="326.35" rx="3.509" ry="3.462" transform="rotate(270 282.397 326.35)"/></g><defs><linearGradient id="A" x1="11.369" x2="22.161" y1="153.378" y2="166.334" href="#X"><stop stop-color="#ffe000"/><stop offset="1" stop-color="#1e1e1e"/></linearGradient><linearGradient id="B" x1="94.669" x2="104.096" y1="177.931" y2="189.88" href="#X"><stop stop-color="#0b0b0b" stop-opacity="0"/><stop offset="1" stop-color="#ffe000"/></linearGradient><linearGradient id="C" x1="119.128" x2="130.037" y1="153.378" y2="165.538" href="#X"><stop stop-color="#ffe000"/><stop offset="1" stop-color="#1e1e1e"/></linearGradient><linearGradient id="D" x1="196.478" x2="206.044" y1="177.931" y2="189.19" href="#X"><stop stop-color="#0b0b0b" stop-opacity="0"/><stop offset="1" stop-color="#ffe000"/></linearGradient><linearGradient id="E" x1="234.375" x2="235.616" y1="179.498" y2="175.075" href="#X"><stop stop-color="#ffe000"/><stop offset="1" stop-color="#1e1e1e"/></linearGradient><linearGradient id="F" x1="339.928" x2="347.493" y1="177.931" y2="161.27" href="#X"><stop stop-color="#0b0b0b" stop-opacity="0"/><stop offset="1" stop-color="#ffe000"/></linearGradient><linearGradient id="G" x1="146.639" x2="114.118" y1="30.803" y2="159.987" href="#X"><stop offset=".387" stop-color="#1e1e1e"/><stop offset=".473" stop-color="#fff"/><stop offset=".544" stop-color="#1e1e1e"/></linearGradient><linearGradient id="H" x1="231.703" x2="214.241" y1="30.805" y2="165.822" href="#X"><stop offset=".461" stop-color="#1e1e1e"/><stop offset=".576" stop-color="#fff"/><stop offset=".629" stop-color="#1e1e1e"/></linearGradient><linearGradient id="I" x1="55.139" x2="55.139" y1="32.22" y2="145.515" href="#X"><stop offset=".095" stop-color="#1e1e1e"/><stop offset=".171" stop-color="#fff"/><stop offset=".239" stop-color="#1e1e1e"/><stop offset=".799" stop-color="#1e1e1e"/><stop offset=".9" stop-color="#fff"/><stop offset=".986" stop-color="#1e1e1e"/></linearGradient><linearGradient id="J" x1="171.068" x2="179.033" y1="16.042" y2="16.042" href="#X"><stop stop-opacity="0"/><stop offset="1" stop-color="#fff"/></linearGradient><linearGradient id="K" x1="105.59" x2="137.679" y1="353.859" y2="171.064" href="#X"><stop offset=".387" stop-color="#1e1e1e"/><stop offset=".473" stop-color="#ffe000"/><stop offset=".544" stop-color="#1e1e1e"/></linearGradient><linearGradient id="L" x1="191.645" x2="250.033" y1="353.859" y2="185.705" href="#X"><stop offset=".461" stop-color="#1e1e1e"/><stop offset=".576" stop-color="#ffe000"/><stop offset=".629" stop-color="#1e1e1e"/></linearGradient><linearGradient id="M" x1="282.145" x2="282.145" y1="196.512" y2="351.916" href="#X"><stop offset=".753" stop-color="#1e1e1e"/><stop offset=".833" stop-color="#ffe000"/><stop offset=".912" stop-color="#1e1e1e"/></linearGradient><linearGradient id="N" x1="257.746" x2="250.25" y1="367.958" y2="367.958" href="#X"><stop stop-opacity="0"/><stop offset="1" stop-color="#facc15"/></linearGradient><linearGradient id="X" gradientUnits="userSpaceOnUse"/><filter id="O" width="39.913" height="37.013" x="86.128" y="66.35" class="D" filterUnits="userSpaceOnUse"><feFlood class="E" result="A"/><feColorMatrix in="SourceAlpha" result="B" values="0 0 0 0 0 0 0 0 0 0 0 0 0 0 0 0 0 0 127 0"/><feOffset/><feGaussianBlur stdDeviation="8"/><feComposite in2="B" operator="out"/><feColorMatrix values="0 0 0 0 1 0 0 0 0 1 0 0 0 0 1 0 0 0 1 0"/><feBlend in2="A"/><feBlend in="SourceGraphic"/></filter><filter id="P" width="38.924" height="36.01" x="189.986" y="49.306" class="D" filterUnits="userSpaceOnUse"><feFlood class="E" result="A"/><feColorMatrix in="SourceAlpha" result="B" values="0 0 0 0 0 0 0 0 0 0 0 0 0 0 0 0 0 0 127 0"/><feOffset/><feGaussianBlur stdDeviation="8"/><feComposite in2="B" operator="out"/><feColorMatrix values="0 0 0 0 1 0 0 0 0 1 0 0 0 0 1 0 0 0 1 0"/><feBlend in2="A"/><feBlend in="SourceGraphic"/></filter><filter id="Q" width="38.924" height="36.01" x="36.672" y="33.264" class="D" filterUnits="userSpaceOnUse"><feFlood class="E" result="A"/><feColorMatrix in="SourceAlpha" result="B" values="0 0 0 0 0 0 0 0 0 0 0 0 0 0 0 0 0 0 127 0"/><feOffset/><feGaussianBlur stdDeviation="8"/><feComposite in2="B" operator="out"/><feColorMatrix values="0 0 0 0 1 0 0 0 0 1 0 0 0 0 1 0 0 0 1 0"/><feBlend in2="A"/><feBlend in="SourceGraphic"/></filter><filter id="R" width="39.913" height="40.021" x="164.023" y="260.721" class="D" filterUnits="userSpaceOnUse"><feFlood class="E" result="A"/><feColorMatrix in="SourceAlpha" result="B" values="0 0 0 0 0 0 0 0 0 0 0 0 0 0 0 0 0 0 127 0"/><feOffset/><feGaussianBlur stdDeviation="8"/><feComposite in2="B" operator="out"/><feColorMatrix values="0 0 0 0 0.619213 0 0 0 0 1 0 0 0 0 0.347222 0 0 0 1 0"/><feBlend in2="A"/><feBlend in="SourceGraphic"/></filter><filter id="S" width="38.924" height="39.018" x="231.283" y="252.7" class="D" filterUnits="userSpaceOnUse"><feFlood class="E" result="A"/><feColorMatrix in="SourceAlpha" result="B" values="0 0 0 0 0 0 0 0 0 0 0 0 0 0 0 0 0 0 127 0"/><feOffset/><feGaussianBlur stdDeviation="8"/><feComposite in2="B" operator="out"/><feColorMatrix values="0 0 0 0 0.619213 0 0 0 0 1 0 0 0 0 0.347222 0 0 0 1 0"/><feBlend in2="A"/><feBlend in="SourceGraphic"/></filter><filter id="T" width="38.924" height="39.018" x="262.936" y="306.841" class="D" filterUnits="userSpaceOnUse"><feFlood class="E" result="A"/><feColorMatrix in="SourceAlpha" result="B" values="0 0 0 0 0 0 0 0 0 0 0 0 0 0 0 0 0 0 127 0"/><feOffset/><feGaussianBlur stdDeviation="8"/><feComposite in2="B" operator="out"/><feColorMatrix values="0 0 0 0 0.619213 0 0 0 0 1 0 0 0 0 0.347222 0 0 0 1 0"/><feBlend in2="A"/><feBlend in="SourceGraphic"/></filter><path id="U" d="M8.25 170.878c0-9.526 7.723-17.25 17.25-17.25h63c9.527 0 17.25 7.724 17.25 17.25s-7.723 17.25-17.25 17.25h-63c-9.527 0-17.25-7.723-17.25-17.25"/><path id="V" d="M116.25 170.878c0-9.526 7.723-17.25 17.25-17.25h56c9.527 0 17.25 7.724 17.25 17.25s-7.723 17.25-17.25 17.25h-56c-9.527 0-17.25-7.723-17.25-17.25"/><path id="W" d="M217.25 170.878c0-9.526 7.723-17.25 17.25-17.25h104c9.527 0 17.25 7.724 17.25 17.25s-7.723 17.25-17.25 17.25h-104c-9.527 0-17.25-7.723-17.25-17.25"/></defs></svg>