<svg width="1178" height="215" viewBox="0 0 1178 215" fill="none" xmlns="http://www.w3.org/2000/svg">
<g filter="url(#filter0_d_462_5387)">
<circle cx="4" cy="4" r="4" transform="matrix(-1 0 0 1 989 53)" fill="#FFE000"/>
</g>
<g filter="url(#filter1_d_462_5387)">
<circle cx="974.5" cy="137.5" r="3.5" transform="rotate(180 974.5 137.5)" fill="#FFE000"/>
</g>
<g filter="url(#filter2_d_462_5387)">
<circle cx="1045.5" cy="106.5" r="3.5" transform="rotate(180 1045.5 106.5)" fill="#FFE000"/>
</g>
<line x1="462" y1="106.5" x2="509" y2="106.5" stroke="url(#paint0_linear_462_5387)"/>
<line x1="669" y1="106.5" x2="716" y2="106.5" stroke="url(#paint1_linear_462_5387)"/>
<path d="M302.25 106.5C302.25 88.1365 317.137 73.25 335.5 73.25H428.5C446.863 73.25 461.75 88.1365 461.75 106.5C461.75 124.863 446.863 139.75 428.5 139.75H335.5C317.137 139.75 302.25 124.863 302.25 106.5Z" fill="black"/>
<path d="M302.25 106.5C302.25 88.1365 317.137 73.25 335.5 73.25H428.5C446.863 73.25 461.75 88.1365 461.75 106.5C461.75 124.863 446.863 139.75 428.5 139.75H335.5C317.137 139.75 302.25 124.863 302.25 106.5Z" stroke="url(#paint2_linear_462_5387)" stroke-width="0.5"/>
<path d="M302.25 106.5C302.25 88.1365 317.137 73.25 335.5 73.25H428.5C446.863 73.25 461.75 88.1365 461.75 106.5C461.75 124.863 446.863 139.75 428.5 139.75H335.5C317.137 139.75 302.25 124.863 302.25 106.5Z" stroke="url(#paint3_linear_462_5387)" stroke-width="0.5"/>
<path d="M357.625 100.958C357.625 102.27 354.435 103.333 350.5 103.333C346.565 103.333 343.375 102.27 343.375 100.958M357.625 100.958C357.625 99.6468 354.435 98.5835 350.5 98.5835C346.565 98.5835 343.375 99.6468 343.375 100.958M357.625 100.958V103.333M343.375 100.958L343.375 112.042C343.371 112.423 343.641 112.798 344.163 113.137C344.685 113.475 345.444 113.767 346.375 113.988C347.307 114.208 348.383 114.35 349.514 114.403C350.646 114.456 351.798 114.417 352.875 114.29M357.625 106.5L355.25 110.458H358.417L356.042 114.417M343.375 106.5C343.376 106.87 343.637 107.235 344.136 107.566C344.636 107.896 345.36 108.183 346.251 108.404C347.142 108.625 348.176 108.773 349.27 108.837C350.364 108.901 351.487 108.879 352.55 108.772" stroke="white" stroke-linecap="round" stroke-linejoin="round"/>
<path d="M375.276 101.773V110.5H373.959V101.773H375.276ZM378.365 106.614V110.5H377.091V103.955H378.314V105.02H378.395C378.545 104.673 378.781 104.395 379.102 104.185C379.426 103.974 379.834 103.869 380.325 103.869C380.771 103.869 381.162 103.963 381.497 104.151C381.832 104.335 382.092 104.611 382.277 104.977C382.462 105.344 382.554 105.797 382.554 106.337V110.5H381.28V106.49C381.28 106.016 381.156 105.645 380.909 105.378C380.662 105.108 380.322 104.973 379.891 104.973C379.595 104.973 379.332 105.037 379.102 105.165C378.875 105.293 378.695 105.48 378.561 105.727C378.43 105.972 378.365 106.267 378.365 106.614ZM386.713 110.628C386.185 110.628 385.713 110.493 385.298 110.223C384.886 109.95 384.563 109.562 384.327 109.06C384.094 108.554 383.977 107.947 383.977 107.24C383.977 106.533 384.095 105.928 384.331 105.425C384.57 104.922 384.896 104.537 385.311 104.27C385.726 104.003 386.196 103.869 386.722 103.869C387.128 103.869 387.455 103.938 387.702 104.074C387.952 104.207 388.145 104.364 388.281 104.543C388.42 104.722 388.528 104.879 388.605 105.016H388.682V101.773H389.956V110.5H388.712V109.482H388.605C388.528 109.621 388.418 109.78 388.273 109.959C388.131 110.138 387.935 110.294 387.685 110.428C387.435 110.561 387.111 110.628 386.713 110.628ZM386.994 109.541C387.361 109.541 387.67 109.445 387.923 109.251C388.179 109.055 388.372 108.784 388.503 108.438C388.636 108.091 388.703 107.687 388.703 107.227C388.703 106.773 388.638 106.375 388.507 106.034C388.376 105.693 388.185 105.428 387.932 105.237C387.679 105.047 387.366 104.952 386.994 104.952C386.611 104.952 386.291 105.051 386.036 105.25C385.78 105.449 385.587 105.72 385.456 106.064C385.328 106.408 385.264 106.795 385.264 107.227C385.264 107.665 385.33 108.058 385.46 108.408C385.591 108.757 385.784 109.034 386.04 109.239C386.298 109.44 386.616 109.541 386.994 109.541ZM394.596 110.632C393.951 110.632 393.395 110.494 392.929 110.219C392.466 109.94 392.108 109.55 391.855 109.047C391.605 108.541 391.48 107.949 391.48 107.27C391.48 106.599 391.605 106.009 391.855 105.497C392.108 104.986 392.461 104.587 392.912 104.3C393.367 104.013 393.898 103.869 394.506 103.869C394.875 103.869 395.233 103.93 395.58 104.053C395.926 104.175 396.238 104.366 396.513 104.628C396.789 104.889 397.006 105.229 397.165 105.646C397.324 106.061 397.404 106.565 397.404 107.159V107.611H392.201V106.656H396.155C396.155 106.321 396.087 106.024 395.951 105.766C395.814 105.504 395.623 105.298 395.375 105.148C395.131 104.997 394.844 104.922 394.515 104.922C394.157 104.922 393.844 105.01 393.577 105.186C393.313 105.359 393.108 105.587 392.963 105.868C392.821 106.146 392.75 106.449 392.75 106.776V107.521C392.75 107.959 392.827 108.331 392.98 108.638C393.137 108.945 393.354 109.179 393.632 109.341C393.911 109.5 394.236 109.58 394.608 109.58C394.85 109.58 395.07 109.545 395.269 109.477C395.468 109.406 395.64 109.301 395.784 109.162C395.929 109.023 396.04 108.851 396.117 108.646L397.323 108.864C397.226 109.219 397.053 109.53 396.803 109.797C396.556 110.061 396.245 110.267 395.87 110.415C395.498 110.56 395.073 110.632 394.596 110.632ZM399.671 103.955L401.115 106.503L402.573 103.955H403.966L401.925 107.227L403.983 110.5H402.59L401.115 108.054L399.645 110.5H398.248L400.284 107.227L398.273 103.955H399.671ZM407.838 110.632C407.193 110.632 406.637 110.494 406.172 110.219C405.708 109.94 405.35 109.55 405.098 109.047C404.848 108.541 404.723 107.949 404.723 107.27C404.723 106.599 404.848 106.009 405.098 105.497C405.35 104.986 405.703 104.587 406.154 104.3C406.609 104.013 407.14 103.869 407.748 103.869C408.118 103.869 408.475 103.93 408.822 104.053C409.169 104.175 409.48 104.366 409.755 104.628C410.031 104.889 410.248 105.229 410.407 105.646C410.566 106.061 410.646 106.565 410.646 107.159V107.611H405.443V106.656H409.397C409.397 106.321 409.329 106.024 409.193 105.766C409.056 105.504 408.865 105.298 408.618 105.148C408.373 104.997 408.086 104.922 407.757 104.922C407.399 104.922 407.086 105.01 406.819 105.186C406.555 105.359 406.35 105.587 406.206 105.868C406.064 106.146 405.993 106.449 405.993 106.776V107.521C405.993 107.959 406.069 108.331 406.223 108.638C406.379 108.945 406.596 109.179 406.875 109.341C407.153 109.5 407.478 109.58 407.85 109.58C408.092 109.58 408.312 109.545 408.511 109.477C408.71 109.406 408.882 109.301 409.027 109.162C409.172 109.023 409.282 108.851 409.359 108.646L410.565 108.864C410.468 109.219 410.295 109.53 410.045 109.797C409.798 110.061 409.487 110.267 409.112 110.415C408.74 110.56 408.315 110.632 407.838 110.632ZM412.06 110.5V103.955H413.291V104.994H413.359C413.479 104.642 413.689 104.365 413.99 104.163C414.294 103.959 414.638 103.857 415.021 103.857C415.101 103.857 415.195 103.859 415.303 103.865C415.413 103.871 415.5 103.878 415.562 103.886V105.105C415.511 105.091 415.42 105.075 415.29 105.058C415.159 105.038 415.028 105.028 414.898 105.028C414.597 105.028 414.328 105.092 414.092 105.22C413.859 105.345 413.675 105.52 413.538 105.744C413.402 105.966 413.334 106.219 413.334 106.503V110.5H412.06ZM421.57 105.553L420.415 105.757C420.367 105.609 420.29 105.469 420.185 105.335C420.083 105.202 419.944 105.092 419.767 105.007C419.591 104.922 419.371 104.879 419.107 104.879C418.746 104.879 418.445 104.96 418.203 105.122C417.962 105.281 417.841 105.487 417.841 105.74C417.841 105.959 417.922 106.135 418.084 106.268C418.246 106.402 418.507 106.511 418.868 106.597L419.908 106.835C420.51 106.974 420.959 107.189 421.255 107.479C421.55 107.768 421.698 108.145 421.698 108.608C421.698 109 421.584 109.349 421.357 109.656C421.132 109.96 420.819 110.199 420.415 110.372C420.015 110.545 419.55 110.632 419.022 110.632C418.289 110.632 417.691 110.476 417.228 110.163C416.765 109.848 416.48 109.401 416.375 108.821L417.607 108.634C417.684 108.955 417.841 109.197 418.08 109.362C418.319 109.524 418.63 109.605 419.013 109.605C419.431 109.605 419.765 109.518 420.015 109.345C420.265 109.169 420.39 108.955 420.39 108.702C420.39 108.497 420.313 108.325 420.159 108.186C420.009 108.047 419.777 107.942 419.465 107.871L418.357 107.628C417.746 107.489 417.294 107.267 417.002 106.963C416.712 106.659 416.567 106.274 416.567 105.808C416.567 105.422 416.675 105.084 416.891 104.794C417.107 104.504 417.405 104.278 417.786 104.116C418.167 103.952 418.603 103.869 419.094 103.869C419.801 103.869 420.358 104.023 420.765 104.33C421.171 104.634 421.439 105.041 421.57 105.553Z" fill="white"/>
<path d="M510.25 106.5C510.25 88.1365 525.137 73.25 543.5 73.25H636.5C654.863 73.25 669.75 88.1365 669.75 106.5C669.75 124.863 654.863 139.75 636.5 139.75H543.5C525.137 139.75 510.25 124.863 510.25 106.5Z" fill="black"/>
<path d="M510.25 106.5C510.25 88.1365 525.137 73.25 543.5 73.25H636.5C654.863 73.25 669.75 88.1365 669.75 106.5C669.75 124.863 654.863 139.75 636.5 139.75H543.5C525.137 139.75 510.25 124.863 510.25 106.5Z" stroke="url(#paint4_linear_462_5387)" stroke-width="0.5"/>
<path d="M510.25 106.5C510.25 88.1365 525.137 73.25 543.5 73.25H636.5C654.863 73.25 669.75 88.1365 669.75 106.5C669.75 124.863 654.863 139.75 636.5 139.75H543.5C525.137 139.75 510.25 124.863 510.25 106.5Z" stroke="url(#paint5_linear_462_5387)" stroke-width="0.5"/>
<path d="M560.496 98.7272C561.489 98.5349 562.511 98.5349 563.504 98.7272M563.504 114.273C562.511 114.465 561.489 114.465 560.496 114.273M566.44 99.9456C567.281 100.515 568.004 101.241 568.57 102.083M554.227 108.004C554.035 107.011 554.035 105.989 554.227 104.996M568.554 110.94C567.985 111.781 567.259 112.504 566.417 113.07M569.772 104.996C569.965 105.989 569.965 107.011 569.772 108.004M555.446 102.059C556.015 101.219 556.741 100.496 557.583 99.9298M557.559 113.054C556.719 112.485 555.996 111.759 555.43 110.917" stroke="white" stroke-linecap="round" stroke-linejoin="round"/>
<path d="M585.459 110.5V101.773H588.57C589.246 101.773 589.807 101.889 590.253 102.122C590.702 102.355 591.037 102.678 591.259 103.089C591.48 103.499 591.591 103.972 591.591 104.509C591.591 105.043 591.479 105.513 591.254 105.919C591.033 106.322 590.697 106.636 590.249 106.861C589.803 107.085 589.241 107.197 588.565 107.197H586.209V106.064H588.446C588.872 106.064 589.219 106.003 589.486 105.881C589.756 105.759 589.953 105.581 590.078 105.348C590.203 105.115 590.266 104.835 590.266 104.509C590.266 104.179 590.202 103.893 590.074 103.652C589.949 103.411 589.751 103.226 589.482 103.098C589.214 102.967 588.864 102.902 588.429 102.902H586.776V110.5H585.459ZM589.767 106.562L591.923 110.5H590.423L588.31 106.562H589.767ZM595.83 110.632C595.185 110.632 594.63 110.494 594.164 110.219C593.701 109.94 593.343 109.55 593.09 109.047C592.84 108.541 592.715 107.949 592.715 107.27C592.715 106.599 592.84 106.009 593.09 105.497C593.343 104.986 593.695 104.587 594.147 104.3C594.601 104.013 595.132 103.869 595.74 103.869C596.11 103.869 596.468 103.93 596.814 104.053C597.161 104.175 597.472 104.366 597.748 104.628C598.023 104.889 598.24 105.229 598.4 105.646C598.559 106.061 598.638 106.565 598.638 107.159V107.611H593.435V106.656H597.39C597.39 106.321 597.321 106.024 597.185 105.766C597.049 105.504 596.857 105.298 596.61 105.148C596.365 104.997 596.078 104.922 595.749 104.922C595.391 104.922 595.078 105.01 594.811 105.186C594.547 105.359 594.343 105.587 594.198 105.868C594.056 106.146 593.985 106.449 593.985 106.776V107.521C593.985 107.959 594.061 108.331 594.215 108.638C594.371 108.945 594.588 109.179 594.867 109.341C595.145 109.5 595.471 109.58 595.843 109.58C596.084 109.58 596.304 109.545 596.503 109.477C596.702 109.406 596.874 109.301 597.019 109.162C597.164 109.023 597.275 108.851 597.351 108.646L598.557 108.864C598.461 109.219 598.287 109.53 598.037 109.797C597.79 110.061 597.479 110.267 597.104 110.415C596.732 110.56 596.307 110.632 595.83 110.632ZM601.326 101.773V110.5H600.052V101.773H601.326ZM604.945 110.645C604.53 110.645 604.155 110.568 603.82 110.415C603.485 110.259 603.219 110.033 603.023 109.737C602.83 109.442 602.733 109.08 602.733 108.651C602.733 108.281 602.804 107.977 602.946 107.739C603.088 107.5 603.28 107.311 603.522 107.172C603.763 107.033 604.033 106.928 604.331 106.857C604.63 106.786 604.934 106.732 605.243 106.695C605.635 106.649 605.953 106.612 606.198 106.584C606.442 106.553 606.62 106.503 606.73 106.435C606.841 106.366 606.897 106.256 606.897 106.102V106.072C606.897 105.7 606.792 105.412 606.581 105.207C606.374 105.003 606.064 104.901 605.652 104.901C605.223 104.901 604.885 104.996 604.638 105.186C604.394 105.374 604.225 105.582 604.131 105.812L602.934 105.54C603.076 105.142 603.283 104.821 603.556 104.577C603.831 104.33 604.148 104.151 604.506 104.04C604.864 103.926 605.24 103.869 605.635 103.869C605.897 103.869 606.174 103.901 606.466 103.963C606.762 104.023 607.037 104.134 607.293 104.295C607.551 104.457 607.763 104.689 607.928 104.99C608.093 105.288 608.175 105.676 608.175 106.153V110.5H606.931V109.605H606.88C606.797 109.77 606.674 109.932 606.509 110.091C606.344 110.25 606.132 110.382 605.874 110.487C605.615 110.592 605.306 110.645 604.945 110.645ZM605.222 109.622C605.574 109.622 605.875 109.553 606.125 109.413C606.378 109.274 606.57 109.092 606.701 108.868C606.834 108.641 606.901 108.398 606.901 108.139V107.295C606.855 107.341 606.767 107.384 606.637 107.423C606.509 107.46 606.363 107.493 606.198 107.521C606.033 107.547 605.873 107.571 605.716 107.594C605.56 107.614 605.429 107.631 605.324 107.645C605.077 107.676 604.851 107.729 604.647 107.803C604.445 107.876 604.283 107.983 604.161 108.122C604.042 108.259 603.982 108.44 603.982 108.668C603.982 108.983 604.098 109.222 604.331 109.384C604.564 109.543 604.861 109.622 605.222 109.622ZM610.443 112.955C610.253 112.955 610.08 112.939 609.923 112.908C609.767 112.879 609.651 112.848 609.574 112.814L609.881 111.77C610.114 111.832 610.321 111.859 610.503 111.851C610.685 111.842 610.845 111.774 610.984 111.646C611.126 111.518 611.251 111.31 611.359 111.02L611.517 110.585L609.122 103.955H610.486L612.143 109.034H612.212L613.869 103.955H615.237L612.54 111.374C612.415 111.714 612.256 112.003 612.062 112.239C611.869 112.477 611.639 112.656 611.372 112.776C611.105 112.895 610.795 112.955 610.443 112.955ZM619.033 110.632C618.388 110.632 617.833 110.494 617.367 110.219C616.904 109.94 616.546 109.55 616.293 109.047C616.043 108.541 615.918 107.949 615.918 107.27C615.918 106.599 616.043 106.009 616.293 105.497C616.546 104.986 616.898 104.587 617.35 104.3C617.804 104.013 618.336 103.869 618.944 103.869C619.313 103.869 619.671 103.93 620.017 104.053C620.364 104.175 620.675 104.366 620.951 104.628C621.226 104.889 621.444 105.229 621.603 105.646C621.762 106.061 621.841 106.565 621.841 107.159V107.611H616.638V106.656H620.593C620.593 106.321 620.525 106.024 620.388 105.766C620.252 105.504 620.06 105.298 619.813 105.148C619.569 104.997 619.282 104.922 618.952 104.922C618.594 104.922 618.282 105.01 618.015 105.186C617.75 105.359 617.546 105.587 617.401 105.868C617.259 106.146 617.188 106.449 617.188 106.776V107.521C617.188 107.959 617.265 108.331 617.418 108.638C617.574 108.945 617.792 109.179 618.07 109.341C618.348 109.5 618.674 109.58 619.046 109.58C619.287 109.58 619.507 109.545 619.706 109.477C619.905 109.406 620.077 109.301 620.222 109.162C620.367 109.023 620.478 108.851 620.554 108.646L621.76 108.864C621.664 109.219 621.49 109.53 621.24 109.797C620.993 110.061 620.682 110.267 620.307 110.415C619.935 110.56 619.51 110.632 619.033 110.632ZM623.255 110.5V103.955H624.487V104.994H624.555C624.674 104.642 624.884 104.365 625.185 104.163C625.489 103.959 625.833 103.857 626.217 103.857C626.296 103.857 626.39 103.859 626.498 103.865C626.609 103.871 626.695 103.878 626.758 103.886V105.105C626.707 105.091 626.616 105.075 626.485 105.058C626.354 105.038 626.224 105.028 626.093 105.028C625.792 105.028 625.523 105.092 625.288 105.22C625.055 105.345 624.87 105.52 624.734 105.744C624.597 105.966 624.529 106.219 624.529 106.503V110.5H623.255Z" fill="white"/>
<path d="M718.25 106.5C718.25 88.1365 733.137 73.25 751.5 73.25H844.5C862.863 73.25 877.75 88.1365 877.75 106.5C877.75 124.863 862.863 139.75 844.5 139.75H751.5C733.137 139.75 718.25 124.863 718.25 106.5Z" fill="black"/>
<path d="M718.25 106.5C718.25 88.1365 733.137 73.25 751.5 73.25H844.5C862.863 73.25 877.75 88.1365 877.75 106.5C877.75 124.863 862.863 139.75 844.5 139.75H751.5C733.137 139.75 718.25 124.863 718.25 106.5Z" stroke="url(#paint6_linear_462_5387)" stroke-width="0.5"/>
<path d="M718.25 106.5C718.25 88.1365 733.137 73.25 751.5 73.25H844.5C862.863 73.25 877.75 88.1365 877.75 106.5C877.75 124.863 862.863 139.75 844.5 139.75H751.5C733.137 139.75 718.25 124.863 718.25 106.5Z" stroke="url(#paint7_linear_462_5387)" stroke-width="0.5"/>
<path d="M744.417 114.338V108.084M744.417 108.084L738.163 104.204M744.417 108.084L753.838 102.621M747.583 112.675V106.263M750.75 110.854V104.442M753.917 103.096C753.917 102.621 753.6 102.146 753.283 101.908L748.296 98.821C748.091 98.7044 747.859 98.6431 747.623 98.6431C747.387 98.6431 747.155 98.7044 746.95 98.821L738.796 103.571C738.4 103.729 738.083 104.204 738.083 104.679V109.904C738.083 110.3 738.4 110.854 738.717 111.092L743.704 114.179C743.909 114.296 744.141 114.357 744.377 114.357C744.613 114.357 744.845 114.296 745.05 114.179L753.204 109.429C753.6 109.192 753.917 108.638 753.917 108.242V103.096Z" stroke="white" stroke-linecap="round" stroke-linejoin="round"/>
<path d="M777.04 106.136C777.04 107.068 776.869 107.869 776.528 108.54C776.188 109.207 775.72 109.722 775.126 110.082C774.536 110.44 773.864 110.619 773.111 110.619C772.355 110.619 771.68 110.44 771.087 110.082C770.496 109.722 770.03 109.206 769.689 108.536C769.348 107.865 769.178 107.065 769.178 106.136C769.178 105.205 769.348 104.405 769.689 103.737C770.03 103.067 770.496 102.553 771.087 102.195C771.68 101.834 772.355 101.653 773.111 101.653C773.864 101.653 774.536 101.834 775.126 102.195C775.72 102.553 776.188 103.067 776.528 103.737C776.869 104.405 777.04 105.205 777.04 106.136ZM775.736 106.136C775.736 105.426 775.621 104.828 775.391 104.342C775.163 103.854 774.851 103.484 774.453 103.234C774.058 102.982 773.611 102.855 773.111 102.855C772.608 102.855 772.159 102.982 771.764 103.234C771.369 103.484 771.057 103.854 770.827 104.342C770.599 104.828 770.486 105.426 770.486 106.136C770.486 106.847 770.599 107.446 770.827 107.935C771.057 108.42 771.369 108.79 771.764 109.043C772.159 109.293 772.608 109.418 773.111 109.418C773.611 109.418 774.058 109.293 774.453 109.043C774.851 108.79 775.163 108.42 775.391 107.935C775.621 107.446 775.736 106.847 775.736 106.136ZM778.579 110.5V103.955H779.811V104.994H779.879C779.998 104.642 780.208 104.365 780.51 104.163C780.814 103.959 781.157 103.857 781.541 103.857C781.62 103.857 781.714 103.859 781.822 103.865C781.933 103.871 782.02 103.878 782.082 103.886V105.105C782.031 105.091 781.94 105.075 781.809 105.058C781.679 105.038 781.548 105.028 781.417 105.028C781.116 105.028 780.848 105.092 780.612 105.22C780.379 105.345 780.194 105.52 780.058 105.744C779.922 105.966 779.853 106.219 779.853 106.503V110.5H778.579ZM785.031 110.645C784.616 110.645 784.241 110.568 783.906 110.415C783.571 110.259 783.305 110.033 783.109 109.737C782.916 109.442 782.819 109.08 782.819 108.651C782.819 108.281 782.89 107.977 783.032 107.739C783.174 107.5 783.366 107.311 783.608 107.172C783.849 107.033 784.119 106.928 784.417 106.857C784.716 106.786 785.02 106.732 785.329 106.695C785.721 106.649 786.039 106.612 786.284 106.584C786.528 106.553 786.706 106.503 786.816 106.435C786.927 106.366 786.983 106.256 786.983 106.102V106.072C786.983 105.7 786.877 105.412 786.667 105.207C786.46 105.003 786.15 104.901 785.738 104.901C785.309 104.901 784.971 104.996 784.724 105.186C784.48 105.374 784.311 105.582 784.217 105.812L783.02 105.54C783.162 105.142 783.369 104.821 783.642 104.577C783.917 104.33 784.234 104.151 784.592 104.04C784.95 103.926 785.326 103.869 785.721 103.869C785.983 103.869 786.26 103.901 786.552 103.963C786.848 104.023 787.123 104.134 787.379 104.295C787.637 104.457 787.849 104.689 788.014 104.99C788.179 105.288 788.261 105.676 788.261 106.153V110.5H787.017V109.605H786.966C786.883 109.77 786.76 109.932 786.595 110.091C786.43 110.25 786.218 110.382 785.96 110.487C785.701 110.592 785.392 110.645 785.031 110.645ZM785.308 109.622C785.66 109.622 785.961 109.553 786.211 109.413C786.464 109.274 786.656 109.092 786.787 108.868C786.92 108.641 786.987 108.398 786.987 108.139V107.295C786.941 107.341 786.853 107.384 786.723 107.423C786.595 107.46 786.449 107.493 786.284 107.521C786.119 107.547 785.958 107.571 785.802 107.594C785.646 107.614 785.515 107.631 785.41 107.645C785.163 107.676 784.937 107.729 784.733 107.803C784.531 107.876 784.369 107.983 784.247 108.122C784.127 108.259 784.068 108.44 784.068 108.668C784.068 108.983 784.184 109.222 784.417 109.384C784.65 109.543 784.947 109.622 785.308 109.622ZM792.715 110.632C792.082 110.632 791.536 110.489 791.079 110.202C790.624 109.912 790.275 109.513 790.031 109.004C789.786 108.496 789.664 107.913 789.664 107.257C789.664 106.592 789.789 106.006 790.039 105.497C790.289 104.986 790.641 104.587 791.096 104.3C791.55 104.013 792.086 103.869 792.702 103.869C793.2 103.869 793.643 103.962 794.032 104.146C794.421 104.328 794.735 104.584 794.974 104.913C795.215 105.243 795.359 105.628 795.404 106.068H794.164C794.096 105.761 793.94 105.497 793.695 105.276C793.454 105.054 793.13 104.943 792.724 104.943C792.369 104.943 792.058 105.037 791.79 105.224C791.526 105.409 791.32 105.673 791.173 106.017C791.025 106.358 790.951 106.761 790.951 107.227C790.951 107.705 791.023 108.116 791.168 108.463C791.313 108.81 791.518 109.078 791.782 109.268C792.049 109.459 792.363 109.554 792.724 109.554C792.965 109.554 793.184 109.51 793.38 109.422C793.579 109.331 793.745 109.202 793.879 109.034C794.015 108.866 794.11 108.665 794.164 108.429H795.404C795.359 108.852 795.221 109.23 794.991 109.562C794.761 109.895 794.452 110.156 794.066 110.347C793.683 110.537 793.232 110.632 792.715 110.632ZM798.041 101.773V110.5H796.767V101.773H798.041ZM802.576 110.632C801.931 110.632 801.376 110.494 800.91 110.219C800.447 109.94 800.089 109.55 799.836 109.047C799.586 108.541 799.461 107.949 799.461 107.27C799.461 106.599 799.586 106.009 799.836 105.497C800.089 104.986 800.441 104.587 800.893 104.3C801.347 104.013 801.879 103.869 802.487 103.869C802.856 103.869 803.214 103.93 803.56 104.053C803.907 104.175 804.218 104.366 804.494 104.628C804.769 104.889 804.987 105.229 805.146 105.646C805.305 106.061 805.384 106.565 805.384 107.159V107.611H800.181V106.656H804.136C804.136 106.321 804.067 106.024 803.931 105.766C803.795 105.504 803.603 105.298 803.356 105.148C803.112 104.997 802.825 104.922 802.495 104.922C802.137 104.922 801.825 105.01 801.558 105.186C801.293 105.359 801.089 105.587 800.944 105.868C800.802 106.146 800.731 106.449 800.731 106.776V107.521C800.731 107.959 800.808 108.331 800.961 108.638C801.117 108.945 801.335 109.179 801.613 109.341C801.891 109.5 802.217 109.58 802.589 109.58C802.83 109.58 803.05 109.545 803.249 109.477C803.448 109.406 803.62 109.301 803.765 109.162C803.91 109.023 804.021 108.851 804.097 108.646L805.303 108.864C805.207 109.219 805.033 109.53 804.783 109.797C804.536 110.061 804.225 110.267 803.85 110.415C803.478 110.56 803.053 110.632 802.576 110.632ZM817.325 104.611H815.995C815.944 104.327 815.849 104.077 815.71 103.861C815.57 103.645 815.4 103.462 815.198 103.311C814.996 103.161 814.771 103.047 814.521 102.97C814.273 102.893 814.011 102.855 813.732 102.855C813.229 102.855 812.779 102.982 812.381 103.234C811.987 103.487 811.674 103.858 811.444 104.347C811.217 104.835 811.103 105.432 811.103 106.136C811.103 106.847 811.217 107.446 811.444 107.935C811.674 108.423 811.988 108.793 812.386 109.043C812.783 109.293 813.231 109.418 813.728 109.418C814.004 109.418 814.265 109.381 814.512 109.307C814.762 109.23 814.988 109.118 815.19 108.97C815.391 108.822 815.562 108.642 815.701 108.429C815.843 108.213 815.941 107.966 815.995 107.688L817.325 107.692C817.254 108.121 817.116 108.516 816.911 108.876C816.71 109.234 816.45 109.544 816.131 109.805C815.816 110.064 815.455 110.264 815.049 110.406C814.643 110.548 814.2 110.619 813.719 110.619C812.964 110.619 812.29 110.44 811.7 110.082C811.109 109.722 810.643 109.206 810.302 108.536C809.964 107.865 809.795 107.065 809.795 106.136C809.795 105.205 809.965 104.405 810.306 103.737C810.647 103.067 811.113 102.553 811.704 102.195C812.295 101.834 812.967 101.653 813.719 101.653C814.183 101.653 814.614 101.72 815.015 101.854C815.418 101.984 815.781 102.178 816.102 102.433C816.423 102.686 816.688 102.996 816.898 103.362C817.109 103.726 817.251 104.142 817.325 104.611ZM821.555 110.632C820.941 110.632 820.406 110.491 819.949 110.21C819.491 109.929 819.136 109.536 818.883 109.03C818.63 108.524 818.504 107.933 818.504 107.257C818.504 106.578 818.63 105.984 818.883 105.476C819.136 104.967 819.491 104.572 819.949 104.291C820.406 104.01 820.941 103.869 821.555 103.869C822.169 103.869 822.704 104.01 823.162 104.291C823.619 104.572 823.974 104.967 824.227 105.476C824.48 105.984 824.606 106.578 824.606 107.257C824.606 107.933 824.48 108.524 824.227 109.03C823.974 109.536 823.619 109.929 823.162 110.21C822.704 110.491 822.169 110.632 821.555 110.632ZM821.559 109.562C821.957 109.562 822.287 109.457 822.548 109.247C822.809 109.037 823.002 108.757 823.127 108.408C823.255 108.058 823.319 107.673 823.319 107.253C823.319 106.835 823.255 106.452 823.127 106.102C823.002 105.75 822.809 105.467 822.548 105.254C822.287 105.041 821.957 104.935 821.559 104.935C821.159 104.935 820.826 105.041 820.562 105.254C820.301 105.467 820.106 105.75 819.978 106.102C819.853 106.452 819.791 106.835 819.791 107.253C819.791 107.673 819.853 108.058 819.978 108.408C820.106 108.757 820.301 109.037 820.562 109.247C820.826 109.457 821.159 109.562 821.559 109.562ZM827.303 106.614V110.5H826.028V103.955H827.251V105.02H827.332C827.483 104.673 827.719 104.395 828.04 104.185C828.364 103.974 828.771 103.869 829.263 103.869C829.709 103.869 830.099 103.963 830.435 104.151C830.77 104.335 831.03 104.611 831.214 104.977C831.399 105.344 831.491 105.797 831.491 106.337V110.5H830.217V106.49C830.217 106.016 830.094 105.645 829.847 105.378C829.599 105.108 829.26 104.973 828.828 104.973C828.533 104.973 828.27 105.037 828.04 105.165C827.813 105.293 827.632 105.48 827.499 105.727C827.368 105.972 827.303 106.267 827.303 106.614ZM836.256 103.955V104.977H832.68V103.955H836.256ZM833.639 102.386H834.913V108.578C834.913 108.825 834.95 109.011 835.024 109.136C835.098 109.259 835.193 109.342 835.31 109.388C835.429 109.43 835.558 109.452 835.697 109.452C835.8 109.452 835.889 109.445 835.966 109.43C836.043 109.416 836.102 109.405 836.145 109.396L836.375 110.449C836.301 110.477 836.196 110.506 836.06 110.534C835.923 110.565 835.753 110.582 835.548 110.585C835.213 110.591 834.901 110.531 834.611 110.406C834.321 110.281 834.087 110.088 833.908 109.827C833.729 109.565 833.639 109.237 833.639 108.842V102.386ZM837.665 110.5V103.955H838.897V104.994H838.965C839.084 104.642 839.294 104.365 839.596 104.163C839.9 103.959 840.243 103.857 840.627 103.857C840.706 103.857 840.8 103.859 840.908 103.865C841.019 103.871 841.105 103.878 841.168 103.886V105.105C841.117 105.091 841.026 105.075 840.895 105.058C840.765 105.038 840.634 105.028 840.503 105.028C840.202 105.028 839.934 105.092 839.698 105.22C839.465 105.345 839.28 105.52 839.144 105.744C839.007 105.966 838.939 106.219 838.939 106.503V110.5H837.665ZM844.117 110.645C843.702 110.645 843.327 110.568 842.992 110.415C842.657 110.259 842.391 110.033 842.195 109.737C842.002 109.442 841.905 109.08 841.905 108.651C841.905 108.281 841.976 107.977 842.118 107.739C842.26 107.5 842.452 107.311 842.694 107.172C842.935 107.033 843.205 106.928 843.503 106.857C843.801 106.786 844.105 106.732 844.415 106.695C844.807 106.649 845.125 106.612 845.37 106.584C845.614 106.553 845.792 106.503 845.902 106.435C846.013 106.366 846.069 106.256 846.069 106.102V106.072C846.069 105.7 845.963 105.412 845.753 105.207C845.546 105.003 845.236 104.901 844.824 104.901C844.395 104.901 844.057 104.996 843.81 105.186C843.566 105.374 843.397 105.582 843.303 105.812L842.105 105.54C842.248 105.142 842.455 104.821 842.728 104.577C843.003 104.33 843.32 104.151 843.678 104.04C844.036 103.926 844.412 103.869 844.807 103.869C845.069 103.869 845.346 103.901 845.638 103.963C845.934 104.023 846.209 104.134 846.465 104.295C846.723 104.457 846.935 104.689 847.1 104.99C847.265 105.288 847.347 105.676 847.347 106.153V110.5H846.103V109.605H846.051C845.969 109.77 845.846 109.932 845.681 110.091C845.516 110.25 845.304 110.382 845.046 110.487C844.787 110.592 844.478 110.645 844.117 110.645ZM844.394 109.622C844.746 109.622 845.047 109.553 845.297 109.413C845.55 109.274 845.742 109.092 845.873 108.868C846.006 108.641 846.073 108.398 846.073 108.139V107.295C846.027 107.341 845.939 107.384 845.809 107.423C845.681 107.46 845.534 107.493 845.37 107.521C845.205 107.547 845.044 107.571 844.888 107.594C844.732 107.614 844.601 107.631 844.496 107.645C844.249 107.676 844.023 107.729 843.819 107.803C843.617 107.876 843.455 107.983 843.333 108.122C843.213 108.259 843.154 108.44 843.154 108.668C843.154 108.983 843.27 109.222 843.503 109.384C843.736 109.543 844.033 109.622 844.394 109.622ZM851.801 110.632C851.168 110.632 850.622 110.489 850.165 110.202C849.71 109.912 849.361 109.513 849.116 109.004C848.872 108.496 848.75 107.913 848.75 107.257C848.75 106.592 848.875 106.006 849.125 105.497C849.375 104.986 849.727 104.587 850.182 104.3C850.636 104.013 851.172 103.869 851.788 103.869C852.286 103.869 852.729 103.962 853.118 104.146C853.507 104.328 853.821 104.584 854.06 104.913C854.301 105.243 854.445 105.628 854.49 106.068H853.25C853.182 105.761 853.026 105.497 852.781 105.276C852.54 105.054 852.216 104.943 851.81 104.943C851.455 104.943 851.143 105.037 850.876 105.224C850.612 105.409 850.406 105.673 850.259 106.017C850.111 106.358 850.037 106.761 850.037 107.227C850.037 107.705 850.109 108.116 850.254 108.463C850.399 108.81 850.604 109.078 850.868 109.268C851.135 109.459 851.449 109.554 851.81 109.554C852.051 109.554 852.27 109.51 852.466 109.422C852.665 109.331 852.831 109.202 852.964 109.034C853.101 108.866 853.196 108.665 853.25 108.429H854.49C854.445 108.852 854.307 109.23 854.077 109.562C853.847 109.895 853.538 110.156 853.152 110.347C852.768 110.537 852.318 110.632 851.801 110.632ZM858.908 103.955V104.977H855.333V103.955H858.908ZM856.292 102.386H857.566V108.578C857.566 108.825 857.603 109.011 857.676 109.136C857.75 109.259 857.846 109.342 857.962 109.388C858.081 109.43 858.211 109.452 858.35 109.452C858.452 109.452 858.542 109.445 858.618 109.43C858.695 109.416 858.755 109.405 858.797 109.396L859.027 110.449C858.953 110.477 858.848 110.506 858.712 110.534C858.576 110.565 858.405 110.582 858.201 110.585C857.865 110.591 857.553 110.531 857.263 110.406C856.973 110.281 856.739 110.088 856.56 109.827C856.381 109.565 856.292 109.237 856.292 108.842V102.386Z" fill="white"/>
<path fill-rule="evenodd" clip-rule="evenodd" d="M1050.23 15.5H1077V15H1050.23C1020.19 15 992.993 32.7654 980.92 60.2735C968.927 87.5999 941.909 105.248 912.067 105.248H875V105.748H912.067C942.107 105.748 969.305 87.9826 981.378 60.4744C993.371 33.148 1020.39 15.5 1050.23 15.5ZM1050.23 196.499H1077V196.999H1050.23C1020.19 196.999 992.993 179.233 980.92 151.725C968.927 124.399 941.909 106.751 912.067 106.751H875V106.501V106.251V106.001H1077V106.501H918.227C945.781 108.743 970.136 125.91 981.378 151.524C993.371 178.851 1020.39 196.499 1050.23 196.499Z" fill="url(#paint8_linear_462_5387)"/>
<rect x="1078" width="100" height="36" rx="18" fill="#08090B"/>
<path d="M1113.31 22.1278C1112.78 22.1278 1112.31 21.9929 1111.89 21.723C1111.48 21.4503 1111.16 21.0625 1110.92 20.5597C1110.69 20.054 1110.57 19.4474 1110.57 18.7401C1110.57 18.0327 1110.69 17.4276 1110.92 16.9247C1111.16 16.4219 1111.49 16.0369 1111.9 15.7699C1112.32 15.5028 1112.79 15.3693 1113.32 15.3693C1113.72 15.3693 1114.05 15.4375 1114.3 15.5739C1114.55 15.7074 1114.74 15.8636 1114.88 16.0426C1115.01 16.2216 1115.12 16.3793 1115.2 16.5156H1115.28V13.2727H1116.55V22H1115.31V20.9815H1115.2C1115.12 21.1207 1115.01 21.2798 1114.87 21.4588C1114.72 21.6378 1114.53 21.794 1114.28 21.9276C1114.03 22.0611 1113.7 22.1278 1113.31 22.1278ZM1113.59 21.0412C1113.95 21.0412 1114.26 20.9446 1114.52 20.7514C1114.77 20.5554 1114.97 20.2841 1115.1 19.9375C1115.23 19.5909 1115.3 19.1875 1115.3 18.7273C1115.3 18.2727 1115.23 17.875 1115.1 17.5341C1114.97 17.1932 1114.78 16.9276 1114.53 16.7372C1114.27 16.5469 1113.96 16.4517 1113.59 16.4517C1113.2 16.4517 1112.88 16.5511 1112.63 16.75C1112.37 16.9489 1112.18 17.2202 1112.05 17.5639C1111.92 17.9077 1111.86 18.2955 1111.86 18.7273C1111.86 19.1648 1111.92 19.5582 1112.05 19.9077C1112.18 20.2571 1112.38 20.5341 1112.63 20.7386C1112.89 20.9403 1113.21 21.0412 1113.59 21.0412ZM1119.21 22H1117.81L1120.95 13.2727H1122.47L1125.61 22H1124.21L1121.75 14.858H1121.68L1119.21 22ZM1119.44 18.5824H1123.98V19.6903H1119.44V18.5824ZM1126.77 24.4545V15.4545H1128.01V16.5156H1128.12C1128.2 16.3793 1128.3 16.2216 1128.44 16.0426C1128.58 15.8636 1128.77 15.7074 1129.02 15.5739C1129.27 15.4375 1129.59 15.3693 1130 15.3693C1130.53 15.3693 1131 15.5028 1131.42 15.7699C1131.83 16.0369 1132.16 16.4219 1132.39 16.9247C1132.63 17.4276 1132.75 18.0327 1132.75 18.7401C1132.75 19.4474 1132.63 20.054 1132.4 20.5597C1132.16 21.0625 1131.84 21.4503 1131.42 21.723C1131.01 21.9929 1130.54 22.1278 1130.01 22.1278C1129.62 22.1278 1129.29 22.0611 1129.04 21.9276C1128.79 21.794 1128.59 21.6378 1128.45 21.4588C1128.31 21.2798 1128.2 21.1207 1128.12 20.9815H1128.04V24.4545H1126.77ZM1128.02 18.7273C1128.02 19.1875 1128.09 19.5909 1128.22 19.9375C1128.35 20.2841 1128.55 20.5554 1128.8 20.7514C1129.05 20.9446 1129.36 21.0412 1129.73 21.0412C1130.11 21.0412 1130.43 20.9403 1130.68 20.7386C1130.94 20.5341 1131.13 20.2571 1131.26 19.9077C1131.4 19.5582 1131.46 19.1648 1131.46 18.7273C1131.46 18.2955 1131.4 17.9077 1131.27 17.5639C1131.14 17.2202 1130.95 16.9489 1130.69 16.75C1130.43 16.5511 1130.11 16.4517 1129.73 16.4517C1129.36 16.4517 1129.05 16.5469 1128.79 16.7372C1128.54 16.9276 1128.35 17.1932 1128.22 17.5341C1128.08 17.875 1128.02 18.2727 1128.02 18.7273ZM1134.18 24.4545V15.4545H1135.42V16.5156H1135.53C1135.6 16.3793 1135.71 16.2216 1135.85 16.0426C1135.99 15.8636 1136.18 15.7074 1136.43 15.5739C1136.67 15.4375 1137 15.3693 1137.41 15.3693C1137.94 15.3693 1138.41 15.5028 1138.82 15.7699C1139.24 16.0369 1139.56 16.4219 1139.8 16.9247C1140.04 17.4276 1140.16 18.0327 1140.16 18.7401C1140.16 19.4474 1140.04 20.054 1139.8 20.5597C1139.57 21.0625 1139.24 21.4503 1138.83 21.723C1138.42 21.9929 1137.95 22.1278 1137.42 22.1278C1137.02 22.1278 1136.7 22.0611 1136.44 21.9276C1136.19 21.794 1136 21.6378 1135.86 21.4588C1135.71 21.2798 1135.6 21.1207 1135.53 20.9815H1135.45V24.4545H1134.18ZM1135.43 18.7273C1135.43 19.1875 1135.49 19.5909 1135.63 19.9375C1135.76 20.2841 1135.95 20.5554 1136.21 20.7514C1136.46 20.9446 1136.77 21.0412 1137.13 21.0412C1137.51 21.0412 1137.83 20.9403 1138.09 20.7386C1138.34 20.5341 1138.54 20.2571 1138.67 19.9077C1138.8 19.5582 1138.87 19.1648 1138.87 18.7273C1138.87 18.2955 1138.8 17.9077 1138.67 17.5639C1138.54 17.2202 1138.35 16.9489 1138.09 16.75C1137.84 16.5511 1137.52 16.4517 1137.13 16.4517C1136.76 16.4517 1136.45 16.5469 1136.2 16.7372C1135.94 16.9276 1135.75 17.1932 1135.62 17.5341C1135.49 17.875 1135.43 18.2727 1135.43 18.7273ZM1146.49 17.0526L1145.33 17.2571C1145.28 17.1094 1145.21 16.9687 1145.1 16.8352C1145 16.7017 1144.86 16.5923 1144.69 16.5071C1144.51 16.4219 1144.29 16.3793 1144.02 16.3793C1143.66 16.3793 1143.36 16.4602 1143.12 16.6222C1142.88 16.7812 1142.76 16.9872 1142.76 17.2401C1142.76 17.4588 1142.84 17.6349 1143 17.7685C1143.16 17.902 1143.43 18.0114 1143.79 18.0966L1144.83 18.3352C1145.43 18.4744 1145.88 18.6889 1146.17 18.9787C1146.47 19.2685 1146.62 19.6449 1146.62 20.108C1146.62 20.5 1146.5 20.8494 1146.27 21.1562C1146.05 21.4602 1145.74 21.6989 1145.33 21.8722C1144.93 22.0455 1144.47 22.1321 1143.94 22.1321C1143.21 22.1321 1142.61 21.9759 1142.15 21.6634C1141.68 21.348 1141.4 20.9006 1141.29 20.321L1142.52 20.1335C1142.6 20.4545 1142.76 20.6974 1143 20.8622C1143.24 21.0241 1143.55 21.1051 1143.93 21.1051C1144.35 21.1051 1144.68 21.0185 1144.93 20.8452C1145.18 20.669 1145.31 20.4545 1145.31 20.2017C1145.31 19.9972 1145.23 19.8253 1145.08 19.6861C1144.93 19.5469 1144.7 19.4418 1144.38 19.3707L1143.27 19.1278C1142.66 18.9886 1142.21 18.767 1141.92 18.4631C1141.63 18.1591 1141.49 17.7741 1141.49 17.3082C1141.49 16.9219 1141.59 16.5838 1141.81 16.294C1142.02 16.0043 1142.32 15.7784 1142.7 15.6165C1143.08 15.4517 1143.52 15.3693 1144.01 15.3693C1144.72 15.3693 1145.28 15.5227 1145.68 15.8295C1146.09 16.1335 1146.36 16.5412 1146.49 17.0526Z" fill="white"/>
<rect x="1078.5" y="89.5" width="99" height="35" rx="17.5" fill="#08090B" stroke="url(#paint9_linear_462_5387)"/>
<path d="M1101.96 111V102.273H1105.07C1105.75 102.273 1106.31 102.396 1106.76 102.643C1107.2 102.891 1107.54 103.229 1107.76 103.658C1107.98 104.084 1108.09 104.564 1108.09 105.098C1108.09 105.635 1107.98 106.118 1107.75 106.547C1107.53 106.973 1107.2 107.311 1106.75 107.561C1106.3 107.808 1105.74 107.932 1105.07 107.932H1102.93V106.815H1104.95C1105.38 106.815 1105.72 106.741 1105.99 106.594C1106.26 106.443 1106.45 106.239 1106.58 105.98C1106.7 105.722 1106.77 105.428 1106.77 105.098C1106.77 104.768 1106.7 104.476 1106.58 104.22C1106.45 103.964 1106.26 103.764 1105.99 103.619C1105.72 103.474 1105.37 103.402 1104.93 103.402H1103.28V111H1101.96ZM1109.53 111V104.455H1110.76V105.494H1110.83C1110.95 105.142 1111.16 104.865 1111.46 104.663C1111.77 104.459 1112.11 104.357 1112.49 104.357C1112.57 104.357 1112.67 104.359 1112.78 104.365C1112.89 104.371 1112.97 104.378 1113.04 104.386V105.605C1112.98 105.591 1112.89 105.575 1112.76 105.558C1112.63 105.538 1112.5 105.528 1112.37 105.528C1112.07 105.528 1111.8 105.592 1111.56 105.72C1111.33 105.845 1111.15 106.02 1111.01 106.244C1110.87 106.466 1110.81 106.719 1110.81 107.003V111H1109.53ZM1116.66 111.132C1116.05 111.132 1115.51 110.991 1115.05 110.71C1114.6 110.429 1114.24 110.036 1113.99 109.53C1113.74 109.024 1113.61 108.433 1113.61 107.757C1113.61 107.078 1113.74 106.484 1113.99 105.976C1114.24 105.467 1114.6 105.072 1115.05 104.791C1115.51 104.51 1116.05 104.369 1116.66 104.369C1117.27 104.369 1117.81 104.51 1118.27 104.791C1118.72 105.072 1119.08 105.467 1119.33 105.976C1119.59 106.484 1119.71 107.078 1119.71 107.757C1119.71 108.433 1119.59 109.024 1119.33 109.53C1119.08 110.036 1118.72 110.429 1118.27 110.71C1117.81 110.991 1117.27 111.132 1116.66 111.132ZM1116.66 110.062C1117.06 110.062 1117.39 109.957 1117.65 109.747C1117.91 109.537 1118.11 109.257 1118.23 108.908C1118.36 108.558 1118.42 108.173 1118.42 107.753C1118.42 107.335 1118.36 106.952 1118.23 106.602C1118.11 106.25 1117.91 105.967 1117.65 105.754C1117.39 105.541 1117.06 105.435 1116.66 105.435C1116.26 105.435 1115.93 105.541 1115.67 105.754C1115.41 105.967 1115.21 106.25 1115.08 106.602C1114.96 106.952 1114.9 107.335 1114.9 107.753C1114.9 108.173 1114.96 108.558 1115.08 108.908C1115.21 109.257 1115.41 109.537 1115.67 109.747C1115.93 109.957 1116.26 110.062 1116.66 110.062ZM1124.19 104.455V105.477H1120.61V104.455H1124.19ZM1121.57 102.886H1122.85V109.078C1122.85 109.325 1122.88 109.511 1122.96 109.636C1123.03 109.759 1123.13 109.842 1123.24 109.888C1123.36 109.93 1123.49 109.952 1123.63 109.952C1123.73 109.952 1123.82 109.945 1123.9 109.93C1123.98 109.916 1124.04 109.905 1124.08 109.896L1124.31 110.949C1124.23 110.977 1124.13 111.006 1123.99 111.034C1123.86 111.065 1123.69 111.082 1123.48 111.085C1123.15 111.091 1122.83 111.031 1122.54 110.906C1122.25 110.781 1122.02 110.588 1121.84 110.327C1121.66 110.065 1121.57 109.737 1121.57 109.342V102.886ZM1128.29 111.132C1127.67 111.132 1127.14 110.991 1126.68 110.71C1126.22 110.429 1125.87 110.036 1125.61 109.53C1125.36 109.024 1125.23 108.433 1125.23 107.757C1125.23 107.078 1125.36 106.484 1125.61 105.976C1125.87 105.467 1126.22 105.072 1126.68 104.791C1127.14 104.51 1127.67 104.369 1128.29 104.369C1128.9 104.369 1129.43 104.51 1129.89 104.791C1130.35 105.072 1130.7 105.467 1130.96 105.976C1131.21 106.484 1131.34 107.078 1131.34 107.757C1131.34 108.433 1131.21 109.024 1130.96 109.53C1130.7 110.036 1130.35 110.429 1129.89 110.71C1129.43 110.991 1128.9 111.132 1128.29 111.132ZM1128.29 110.062C1128.69 110.062 1129.02 109.957 1129.28 109.747C1129.54 109.537 1129.73 109.257 1129.86 108.908C1129.99 108.558 1130.05 108.173 1130.05 107.753C1130.05 107.335 1129.99 106.952 1129.86 106.602C1129.73 106.25 1129.54 105.967 1129.28 105.754C1129.02 105.541 1128.69 105.435 1128.29 105.435C1127.89 105.435 1127.56 105.541 1127.29 105.754C1127.03 105.967 1126.84 106.25 1126.71 106.602C1126.58 106.952 1126.52 107.335 1126.52 107.753C1126.52 108.173 1126.58 108.558 1126.71 108.908C1126.84 109.257 1127.03 109.537 1127.29 109.747C1127.56 109.957 1127.89 110.062 1128.29 110.062ZM1135.52 111.132C1134.88 111.132 1134.34 110.989 1133.88 110.702C1133.43 110.412 1133.08 110.013 1132.83 109.504C1132.59 108.996 1132.46 108.413 1132.46 107.757C1132.46 107.092 1132.59 106.506 1132.84 105.997C1133.09 105.486 1133.44 105.087 1133.9 104.8C1134.35 104.513 1134.89 104.369 1135.5 104.369C1136 104.369 1136.44 104.462 1136.83 104.646C1137.22 104.828 1137.54 105.084 1137.77 105.413C1138.02 105.743 1138.16 106.128 1138.2 106.568H1136.96C1136.9 106.261 1136.74 105.997 1136.5 105.776C1136.25 105.554 1135.93 105.443 1135.52 105.443C1135.17 105.443 1134.86 105.537 1134.59 105.724C1134.33 105.909 1134.12 106.173 1133.97 106.517C1133.83 106.858 1133.75 107.261 1133.75 107.727C1133.75 108.205 1133.82 108.616 1133.97 108.963C1134.11 109.31 1134.32 109.578 1134.58 109.768C1134.85 109.959 1135.16 110.054 1135.52 110.054C1135.77 110.054 1135.98 110.01 1136.18 109.922C1136.38 109.831 1136.55 109.702 1136.68 109.534C1136.82 109.366 1136.91 109.165 1136.96 108.929H1138.2C1138.16 109.352 1138.02 109.73 1137.79 110.062C1137.56 110.395 1137.25 110.656 1136.87 110.847C1136.48 111.037 1136.03 111.132 1135.52 111.132ZM1142.32 111.132C1141.71 111.132 1141.18 110.991 1140.72 110.71C1140.26 110.429 1139.91 110.036 1139.65 109.53C1139.4 109.024 1139.27 108.433 1139.27 107.757C1139.27 107.078 1139.4 106.484 1139.65 105.976C1139.91 105.467 1140.26 105.072 1140.72 104.791C1141.18 104.51 1141.71 104.369 1142.32 104.369C1142.94 104.369 1143.47 104.51 1143.93 104.791C1144.39 105.072 1144.74 105.467 1145 105.976C1145.25 106.484 1145.38 107.078 1145.38 107.757C1145.38 108.433 1145.25 109.024 1145 109.53C1144.74 110.036 1144.39 110.429 1143.93 110.71C1143.47 110.991 1142.94 111.132 1142.32 111.132ZM1142.33 110.062C1142.73 110.062 1143.06 109.957 1143.32 109.747C1143.58 109.537 1143.77 109.257 1143.9 108.908C1144.02 108.558 1144.09 108.173 1144.09 107.753C1144.09 107.335 1144.02 106.952 1143.9 106.602C1143.77 106.25 1143.58 105.967 1143.32 105.754C1143.06 105.541 1142.73 105.435 1142.33 105.435C1141.93 105.435 1141.6 105.541 1141.33 105.754C1141.07 105.967 1140.88 106.25 1140.75 106.602C1140.62 106.952 1140.56 107.335 1140.56 107.753C1140.56 108.173 1140.62 108.558 1140.75 108.908C1140.88 109.257 1141.07 109.537 1141.33 109.747C1141.6 109.957 1141.93 110.062 1142.33 110.062ZM1148.07 102.273V111H1146.8V102.273H1148.07ZM1154.69 106.053L1153.54 106.257C1153.49 106.109 1153.41 105.969 1153.31 105.835C1153.2 105.702 1153.06 105.592 1152.89 105.507C1152.71 105.422 1152.49 105.379 1152.23 105.379C1151.87 105.379 1151.57 105.46 1151.32 105.622C1151.08 105.781 1150.96 105.987 1150.96 106.24C1150.96 106.459 1151.04 106.635 1151.21 106.768C1151.37 106.902 1151.63 107.011 1151.99 107.097L1153.03 107.335C1153.63 107.474 1154.08 107.689 1154.38 107.979C1154.67 108.268 1154.82 108.645 1154.82 109.108C1154.82 109.5 1154.71 109.849 1154.48 110.156C1154.25 110.46 1153.94 110.699 1153.54 110.872C1153.14 111.045 1152.67 111.132 1152.14 111.132C1151.41 111.132 1150.81 110.976 1150.35 110.663C1149.89 110.348 1149.6 109.901 1149.5 109.321L1150.73 109.134C1150.8 109.455 1150.96 109.697 1151.2 109.862C1151.44 110.024 1151.75 110.105 1152.13 110.105C1152.55 110.105 1152.89 110.018 1153.14 109.845C1153.39 109.669 1153.51 109.455 1153.51 109.202C1153.51 108.997 1153.43 108.825 1153.28 108.686C1153.13 108.547 1152.9 108.442 1152.59 108.371L1151.48 108.128C1150.87 107.989 1150.42 107.767 1150.12 107.463C1149.83 107.159 1149.69 106.774 1149.69 106.308C1149.69 105.922 1149.8 105.584 1150.01 105.294C1150.23 105.004 1150.53 104.778 1150.91 104.616C1151.29 104.452 1151.72 104.369 1152.22 104.369C1152.92 104.369 1153.48 104.523 1153.89 104.83C1154.29 105.134 1154.56 105.541 1154.69 106.053Z" fill="white"/>
<rect x="1078" y="179" width="100" height="36" rx="18" fill="#08090B"/>
<path d="M1108 192.273V201H1106.79L1102.36 194.599H1102.28V201H1100.96V192.273H1102.18L1106.62 198.682H1106.7V192.273H1108ZM1112.64 201.132C1112 201.132 1111.44 200.994 1110.98 200.719C1110.51 200.44 1110.16 200.05 1109.9 199.547C1109.65 199.041 1109.53 198.449 1109.53 197.77C1109.53 197.099 1109.65 196.509 1109.9 195.997C1110.16 195.486 1110.51 195.087 1110.96 194.8C1111.41 194.513 1111.94 194.369 1112.55 194.369C1112.92 194.369 1113.28 194.43 1113.63 194.553C1113.97 194.675 1114.28 194.866 1114.56 195.128C1114.84 195.389 1115.05 195.729 1115.21 196.146C1115.37 196.561 1115.45 197.065 1115.45 197.659V198.111H1110.25V197.156H1114.2C1114.2 196.821 1114.13 196.524 1114 196.266C1113.86 196.004 1113.67 195.798 1113.42 195.648C1113.18 195.497 1112.89 195.422 1112.56 195.422C1112.2 195.422 1111.89 195.51 1111.62 195.686C1111.36 195.859 1111.16 196.087 1111.01 196.368C1110.87 196.646 1110.8 196.949 1110.8 197.276V198.021C1110.8 198.459 1110.87 198.831 1111.03 199.138C1111.18 199.445 1111.4 199.679 1111.68 199.841C1111.96 200 1112.28 200.08 1112.66 200.08C1112.9 200.08 1113.12 200.045 1113.32 199.977C1113.51 199.906 1113.69 199.801 1113.83 199.662C1113.98 199.523 1114.09 199.351 1114.16 199.146L1115.37 199.364C1115.27 199.719 1115.1 200.03 1114.85 200.297C1114.6 200.561 1114.29 200.767 1113.92 200.915C1113.54 201.06 1113.12 201.132 1112.64 201.132ZM1119.92 194.455V195.477H1116.34V194.455H1119.92ZM1117.3 192.886H1118.58V199.078C1118.58 199.325 1118.61 199.511 1118.69 199.636C1118.76 199.759 1118.86 199.842 1118.97 199.888C1119.09 199.93 1119.22 199.952 1119.36 199.952C1119.46 199.952 1119.55 199.945 1119.63 199.93C1119.71 199.916 1119.77 199.905 1119.81 199.896L1120.04 200.949C1119.97 200.977 1119.86 201.006 1119.72 201.034C1119.59 201.065 1119.42 201.082 1119.21 201.085C1118.88 201.091 1118.56 201.031 1118.27 200.906C1117.99 200.781 1117.75 200.588 1117.57 200.327C1117.39 200.065 1117.3 199.737 1117.3 199.342V192.886ZM1122.75 201L1120.82 194.455H1122.14L1123.42 199.261H1123.49L1124.77 194.455H1126.09L1127.37 199.24H1127.43L1128.71 194.455H1130.02L1128.1 201H1126.8L1125.47 196.274H1125.37L1124.04 201H1122.75ZM1133.79 201.132C1133.18 201.132 1132.64 200.991 1132.18 200.71C1131.73 200.429 1131.37 200.036 1131.12 199.53C1130.86 199.024 1130.74 198.433 1130.74 197.757C1130.74 197.078 1130.86 196.484 1131.12 195.976C1131.37 195.467 1131.73 195.072 1132.18 194.791C1132.64 194.51 1133.18 194.369 1133.79 194.369C1134.4 194.369 1134.94 194.51 1135.4 194.791C1135.85 195.072 1136.21 195.467 1136.46 195.976C1136.71 196.484 1136.84 197.078 1136.84 197.757C1136.84 198.433 1136.71 199.024 1136.46 199.53C1136.21 200.036 1135.85 200.429 1135.4 200.71C1134.94 200.991 1134.4 201.132 1133.79 201.132ZM1133.79 200.062C1134.19 200.062 1134.52 199.957 1134.78 199.747C1135.04 199.537 1135.24 199.257 1135.36 198.908C1135.49 198.558 1135.55 198.173 1135.55 197.753C1135.55 197.335 1135.49 196.952 1135.36 196.602C1135.24 196.25 1135.04 195.967 1134.78 195.754C1134.52 195.541 1134.19 195.435 1133.79 195.435C1133.39 195.435 1133.06 195.541 1132.8 195.754C1132.54 195.967 1132.34 196.25 1132.21 196.602C1132.09 196.952 1132.03 197.335 1132.03 197.753C1132.03 198.173 1132.09 198.558 1132.21 198.908C1132.34 199.257 1132.54 199.537 1132.8 199.747C1133.06 199.957 1133.39 200.062 1133.79 200.062ZM1138.26 201V194.455H1139.49V195.494H1139.56C1139.68 195.142 1139.89 194.865 1140.19 194.663C1140.5 194.459 1140.84 194.357 1141.22 194.357C1141.3 194.357 1141.4 194.359 1141.51 194.365C1141.62 194.371 1141.7 194.378 1141.77 194.386V195.605C1141.71 195.591 1141.62 195.575 1141.49 195.558C1141.36 195.538 1141.23 195.528 1141.1 195.528C1140.8 195.528 1140.53 195.592 1140.3 195.72C1140.06 195.845 1139.88 196.02 1139.74 196.244C1139.61 196.466 1139.54 196.719 1139.54 197.003V201H1138.26ZM1144.04 198.78L1144.03 197.224H1144.25L1146.86 194.455H1148.39L1145.41 197.608H1145.21L1144.04 198.78ZM1142.87 201V192.273H1144.14V201H1142.87ZM1147 201L1144.66 197.889L1145.54 196.999L1148.57 201H1147ZM1154.45 196.053L1153.3 196.257C1153.25 196.109 1153.17 195.969 1153.07 195.835C1152.97 195.702 1152.83 195.592 1152.65 195.507C1152.47 195.422 1152.25 195.379 1151.99 195.379C1151.63 195.379 1151.33 195.46 1151.09 195.622C1150.84 195.781 1150.72 195.987 1150.72 196.24C1150.72 196.459 1150.81 196.635 1150.97 196.768C1151.13 196.902 1151.39 197.011 1151.75 197.097L1152.79 197.335C1153.39 197.474 1153.84 197.689 1154.14 197.979C1154.43 198.268 1154.58 198.645 1154.58 199.108C1154.58 199.5 1154.47 199.849 1154.24 200.156C1154.02 200.46 1153.7 200.699 1153.3 200.872C1152.9 201.045 1152.43 201.132 1151.9 201.132C1151.17 201.132 1150.57 200.976 1150.11 200.663C1149.65 200.348 1149.36 199.901 1149.26 199.321L1150.49 199.134C1150.57 199.455 1150.72 199.697 1150.96 199.862C1151.2 200.024 1151.51 200.105 1151.9 200.105C1152.31 200.105 1152.65 200.018 1152.9 199.845C1153.15 199.669 1153.27 199.455 1153.27 199.202C1153.27 198.997 1153.2 198.825 1153.04 198.686C1152.89 198.547 1152.66 198.442 1152.35 198.371L1151.24 198.128C1150.63 197.989 1150.18 197.767 1149.88 197.463C1149.59 197.159 1149.45 196.774 1149.45 196.308C1149.45 195.922 1149.56 195.584 1149.77 195.294C1149.99 195.004 1150.29 194.778 1150.67 194.616C1151.05 194.452 1151.49 194.369 1151.98 194.369C1152.68 194.369 1153.24 194.523 1153.65 194.83C1154.05 195.134 1154.32 195.541 1154.45 196.053Z" fill="white"/>
<g filter="url(#filter3_d_462_5387)">
<circle cx="3.5" cy="3.5" r="3.5" transform="matrix(1 0 0 -1 484 110)" fill="white"/>
</g>
<path fill-rule="evenodd" clip-rule="evenodd" d="M129.419 15.5H104V15H129.419C159.327 15 186.364 32.8019 198.183 60.2752C209.922 87.565 236.779 105.248 266.487 105.248H302V105.748H266.487C236.579 105.748 209.542 87.946 197.723 60.4728C185.984 33.183 159.127 15.5 129.419 15.5ZM129.419 196.499H104V196.999H129.419C159.327 196.999 186.364 179.197 198.183 151.723C209.922 124.434 236.779 106.751 266.487 106.751H302L302 106.501L302 106.251L302 106.001H104V106.501H260.361C232.932 108.745 208.729 125.942 197.723 151.526C185.984 178.816 159.127 196.499 129.419 196.499Z" fill="url(#paint10_linear_462_5387)"/>
<g filter="url(#filter4_d_462_5387)">
<circle cx="197" cy="57" r="4" fill="white"/>
</g>
<g filter="url(#filter5_d_462_5387)">
<circle cx="3.5" cy="3.5" r="3.5" transform="matrix(1 0 0 -1 204 141)" fill="white"/>
</g>
<g filter="url(#filter6_d_462_5387)">
<circle cx="3.5" cy="3.5" r="3.5" transform="matrix(1 0 0 -1 133 110)" fill="white"/>
</g>
<g opacity="0.8">
<path d="M0 16C0 7.16344 7.16344 0 16 0H88C96.8366 0 104 7.16344 104 16C104 24.8366 96.8366 32 88 32H16C7.16344 32 0 24.8366 0 16Z" fill="#08090B"/>
<path d="M30 11.3335C30 12.4381 27.3137 13.3335 24 13.3335C20.6863 13.3335 18 12.4381 18 11.3335M30 11.3335C30 10.2289 27.3137 9.3335 24 9.3335C20.6863 9.3335 18 10.2289 18 11.3335M30 11.3335V13.3335M18 11.3335L18 20.6668C17.9963 20.9874 18.2239 21.3037 18.6636 21.5888C19.1033 21.874 19.7422 22.1197 20.5265 22.3053C21.3107 22.4909 22.2174 22.611 23.17 22.6553C24.1226 22.6997 25.0932 22.667 26 22.5602M30 16.0002L28 19.3335H30.6667L28.6667 22.6668M18 16.0002C18.001 16.3118 18.2205 16.6191 18.641 16.8975C19.0615 17.1759 19.6714 17.4177 20.422 17.6036C21.1726 17.7894 22.0431 17.9143 22.9641 17.9681C23.8852 18.0219 24.8312 18.0032 25.7267 17.9135" stroke="white" stroke-linecap="round" stroke-linejoin="round"/>
<path d="M43.7188 13.5653C43.6733 13.1619 43.4858 12.8494 43.1562 12.6278C42.8267 12.4034 42.4119 12.2912 41.9119 12.2912C41.554 12.2912 41.2443 12.348 40.983 12.4616C40.7216 12.5724 40.5185 12.7259 40.3736 12.9219C40.2315 13.1151 40.1605 13.3352 40.1605 13.5824C40.1605 13.7898 40.2088 13.9687 40.3054 14.1193C40.4048 14.2699 40.5341 14.3963 40.6932 14.4986C40.8551 14.598 41.0284 14.6818 41.2131 14.75C41.3977 14.8153 41.5753 14.8693 41.7457 14.9119L42.598 15.1335C42.8764 15.2017 43.1619 15.294 43.4545 15.4105C43.7472 15.527 44.0185 15.6804 44.2685 15.8707C44.5185 16.0611 44.7202 16.2969 44.8736 16.5781C45.0298 16.8594 45.108 17.196 45.108 17.5881C45.108 18.0824 44.9801 18.5213 44.7244 18.9048C44.4716 19.2884 44.1037 19.5909 43.6207 19.8125C43.1406 20.0341 42.5597 20.1449 41.8778 20.1449C41.2244 20.1449 40.6591 20.0412 40.1818 19.8338C39.7045 19.6264 39.331 19.3324 39.0611 18.9517C38.7912 18.5682 38.642 18.1136 38.6136 17.5881H39.9347C39.9602 17.9034 40.0625 18.1662 40.2415 18.3764C40.4233 18.5838 40.6548 18.7386 40.9361 18.8409C41.2202 18.9403 41.5312 18.9901 41.8693 18.9901C42.2415 18.9901 42.5724 18.9318 42.8622 18.8153C43.1548 18.696 43.3849 18.5312 43.5526 18.321C43.7202 18.108 43.804 17.8594 43.804 17.5753C43.804 17.3168 43.7301 17.1051 43.5824 16.9403C43.4375 16.7756 43.2401 16.6392 42.9901 16.5312C42.7429 16.4233 42.4631 16.3281 42.1506 16.2457L41.1193 15.9645C40.4205 15.7741 39.8665 15.4943 39.4574 15.125C39.0511 14.7557 38.848 14.267 38.848 13.6591C38.848 13.1562 38.9844 12.7173 39.2571 12.3423C39.5298 11.9673 39.8991 11.6761 40.3651 11.4688C40.831 11.2585 41.3565 11.1534 41.9418 11.1534C42.5327 11.1534 43.054 11.2571 43.5057 11.4645C43.9602 11.6719 44.3182 11.9574 44.5795 12.321C44.8409 12.6818 44.9773 13.0966 44.9886 13.5653H43.7188ZM49.3363 20.1321C48.7227 20.1321 48.1871 19.9915 47.7298 19.7102C47.2724 19.429 46.9173 19.0355 46.6644 18.5298C46.4116 18.0241 46.2852 17.4332 46.2852 16.7571C46.2852 16.0781 46.4116 15.4844 46.6644 14.9759C46.9173 14.4673 47.2724 14.0724 47.7298 13.7912C48.1871 13.5099 48.7227 13.3693 49.3363 13.3693C49.9499 13.3693 50.4854 13.5099 50.9428 13.7912C51.4002 14.0724 51.7553 14.4673 52.0082 14.9759C52.261 15.4844 52.3874 16.0781 52.3874 16.7571C52.3874 17.4332 52.261 18.0241 52.0082 18.5298C51.7553 19.0355 51.4002 19.429 50.9428 19.7102C50.4854 19.9915 49.9499 20.1321 49.3363 20.1321ZM49.3406 19.0625C49.7383 19.0625 50.0678 18.9574 50.3292 18.7472C50.5906 18.5369 50.7837 18.2571 50.9087 17.9077C51.0366 17.5582 51.1005 17.1733 51.1005 16.7528C51.1005 16.3352 51.0366 15.9517 50.9087 15.6023C50.7837 15.25 50.5906 14.9673 50.3292 14.7543C50.0678 14.5412 49.7383 14.4347 49.3406 14.4347C48.94 14.4347 48.6076 14.5412 48.3434 14.7543C48.082 14.9673 47.8874 15.25 47.7596 15.6023C47.6346 15.9517 47.5721 16.3352 47.5721 16.7528C47.5721 17.1733 47.6346 17.5582 47.7596 17.9077C47.8874 18.2571 48.082 18.5369 48.3434 18.7472C48.6076 18.9574 48.94 19.0625 49.3406 19.0625ZM57.956 17.2855V13.4545H59.2344V20H57.9815V18.8665H57.9134C57.7628 19.2159 57.5213 19.5071 57.1889 19.7401C56.8594 19.9702 56.4489 20.0852 55.9574 20.0852C55.5369 20.0852 55.1648 19.9929 54.8409 19.8082C54.5199 19.6207 54.267 19.3438 54.0824 18.9773C53.9006 18.6108 53.8097 18.1577 53.8097 17.6179V13.4545H55.0838V17.4645C55.0838 17.9105 55.2074 18.2656 55.4545 18.5298C55.7017 18.794 56.0227 18.9261 56.4176 18.9261C56.6563 18.9261 56.8935 18.8665 57.1293 18.7472C57.3679 18.6278 57.5653 18.4474 57.7216 18.206C57.8807 17.9645 57.9588 17.6577 57.956 17.2855ZM60.9464 20V13.4545H62.1779V14.4943H62.2461C62.3654 14.142 62.5756 13.8651 62.8768 13.6634C63.1808 13.4588 63.5245 13.3565 63.908 13.3565C63.9876 13.3565 64.0813 13.3594 64.1893 13.3651C64.3001 13.3707 64.3867 13.3778 64.4492 13.3864V14.6051C64.3981 14.5909 64.3072 14.5753 64.1765 14.5582C64.0458 14.5384 63.9151 14.5284 63.7844 14.5284C63.4833 14.5284 63.2148 14.5923 62.979 14.7202C62.7461 14.8452 62.5614 15.0199 62.4251 15.2443C62.2887 15.4659 62.2205 15.7187 62.2205 16.0028V20H60.9464ZM68.0746 20.1321C67.4411 20.1321 66.8956 19.9886 66.4382 19.7017C65.9837 19.4119 65.6342 19.0128 65.3899 18.5043C65.1456 17.9957 65.0234 17.4134 65.0234 16.7571C65.0234 16.0923 65.1484 15.5057 65.3984 14.9972C65.6484 14.4858 66.0007 14.0866 66.4553 13.7997C66.9098 13.5128 67.4453 13.3693 68.0618 13.3693C68.5589 13.3693 69.0021 13.4616 69.3913 13.6463C69.7805 13.8281 70.0945 14.0838 70.3331 14.4134C70.5746 14.7429 70.718 15.1278 70.7635 15.5682H69.5234C69.4553 15.2614 69.299 14.9972 69.0547 14.7756C68.8132 14.554 68.4893 14.4432 68.0831 14.4432C67.728 14.4432 67.4169 14.5369 67.1499 14.7244C66.8857 14.9091 66.6797 15.1733 66.532 15.517C66.3842 15.858 66.3104 16.2614 66.3104 16.7273C66.3104 17.2045 66.3828 17.6165 66.5277 17.9631C66.6726 18.3097 66.8771 18.5781 67.1413 18.7685C67.4084 18.9588 67.7223 19.054 68.0831 19.054C68.3246 19.054 68.5433 19.0099 68.7393 18.9219C68.9382 18.831 69.1044 18.7017 69.2379 18.5341C69.3743 18.3665 69.4695 18.1648 69.5234 17.929H70.7635C70.718 18.3523 70.5803 18.7301 70.3501 19.0625C70.12 19.3949 69.8118 19.6562 69.4254 19.8466C69.0419 20.0369 68.5916 20.1321 68.0746 20.1321ZM74.9471 20.1321C74.3022 20.1321 73.7468 19.9943 73.2809 19.7188C72.8178 19.4403 72.4599 19.0497 72.207 18.5469C71.957 18.0412 71.832 17.4489 71.832 16.7699C71.832 16.0994 71.957 15.5085 72.207 14.9972C72.4599 14.4858 72.8121 14.0866 73.2638 13.7997C73.7184 13.5128 74.2496 13.3693 74.8576 13.3693C75.2269 13.3693 75.5849 13.4304 75.9315 13.5526C76.2781 13.6747 76.5891 13.8665 76.8647 14.1278C77.1403 14.3892 77.3576 14.7287 77.5167 15.1463C77.6758 15.5611 77.7553 16.0653 77.7553 16.6591V17.1108H72.5522V16.1562H76.5067C76.5067 15.821 76.4386 15.5241 76.3022 15.2656C76.1658 15.0043 75.9741 14.7983 75.7269 14.6477C75.4826 14.4972 75.1957 14.4219 74.8661 14.4219C74.5082 14.4219 74.1957 14.5099 73.9286 14.6861C73.6644 14.8594 73.4599 15.0866 73.315 15.3679C73.1729 15.6463 73.1019 15.9489 73.1019 16.2756V17.0213C73.1019 17.4588 73.1786 17.831 73.332 18.1378C73.4883 18.4446 73.7056 18.679 73.984 18.8409C74.2624 19 74.5877 19.0795 74.9599 19.0795C75.2013 19.0795 75.4215 19.0455 75.6204 18.9773C75.8192 18.9062 75.9911 18.8011 76.136 18.6619C76.2809 18.5227 76.3917 18.3509 76.4684 18.1463L77.6744 18.3636C77.5778 18.7187 77.4045 19.0298 77.1545 19.2969C76.9073 19.5611 76.5962 19.767 76.2212 19.9148C75.8491 20.0597 75.4244 20.1321 74.9471 20.1321ZM85.6388 11.2727V20H84.3178V12.5938H84.2667L82.1786 13.9574V12.696L84.3562 11.2727H85.6388Z" fill="white"/>
</g>
<g opacity="0.8">
<path d="M0.5 106C0.5 97.4396 7.43959 90.5 16 90.5H88C96.5604 90.5 103.5 97.4396 103.5 106C103.5 114.56 96.5604 121.5 88 121.5H16C7.43959 121.5 0.5 114.56 0.5 106Z" fill="#08090B"/>
<path d="M0.5 106C0.5 97.4396 7.43959 90.5 16 90.5H88C96.5604 90.5 103.5 97.4396 103.5 106C103.5 114.56 96.5604 121.5 88 121.5H16C7.43959 121.5 0.5 114.56 0.5 106Z" stroke="url(#paint11_linear_462_5387)"/>
<path d="M29.5 101.333C29.5 102.438 26.8137 103.333 23.5 103.333C20.1863 103.333 17.5 102.438 17.5 101.333M29.5 101.333C29.5 100.229 26.8137 99.3335 23.5 99.3335C20.1863 99.3335 17.5 100.229 17.5 101.333M29.5 101.333V103.333M17.5 101.333L17.5 110.667C17.4963 110.987 17.7239 111.304 18.1636 111.589C18.6033 111.874 19.2422 112.12 20.0265 112.305C20.8107 112.491 21.7174 112.611 22.67 112.655C23.6226 112.7 24.5932 112.667 25.5 112.56M29.5 106L27.5 109.333H30.1667L28.1667 112.667M17.5 106C17.501 106.312 17.7205 106.619 18.141 106.898C18.5615 107.176 19.1714 107.418 19.922 107.604C20.6726 107.789 21.5431 107.914 22.4641 107.968C23.3852 108.022 24.3312 108.003 25.2267 107.913" stroke="white" stroke-linecap="round" stroke-linejoin="round"/>
<path d="M43.2188 103.565C43.1733 103.162 42.9858 102.849 42.6562 102.628C42.3267 102.403 41.9119 102.291 41.4119 102.291C41.054 102.291 40.7443 102.348 40.483 102.462C40.2216 102.572 40.0185 102.726 39.8736 102.922C39.7315 103.115 39.6605 103.335 39.6605 103.582C39.6605 103.79 39.7088 103.969 39.8054 104.119C39.9048 104.27 40.0341 104.396 40.1932 104.499C40.3551 104.598 40.5284 104.682 40.7131 104.75C40.8977 104.815 41.0753 104.869 41.2457 104.912L42.098 105.134C42.3764 105.202 42.6619 105.294 42.9545 105.411C43.2472 105.527 43.5185 105.68 43.7685 105.871C44.0185 106.061 44.2202 106.297 44.3736 106.578C44.5298 106.859 44.608 107.196 44.608 107.588C44.608 108.082 44.4801 108.521 44.2244 108.905C43.9716 109.288 43.6037 109.591 43.1207 109.812C42.6406 110.034 42.0597 110.145 41.3778 110.145C40.7244 110.145 40.1591 110.041 39.6818 109.834C39.2045 109.626 38.831 109.332 38.5611 108.952C38.2912 108.568 38.142 108.114 38.1136 107.588H39.4347C39.4602 107.903 39.5625 108.166 39.7415 108.376C39.9233 108.584 40.1548 108.739 40.4361 108.841C40.7202 108.94 41.0312 108.99 41.3693 108.99C41.7415 108.99 42.0724 108.932 42.3622 108.815C42.6548 108.696 42.8849 108.531 43.0526 108.321C43.2202 108.108 43.304 107.859 43.304 107.575C43.304 107.317 43.2301 107.105 43.0824 106.94C42.9375 106.776 42.7401 106.639 42.4901 106.531C42.2429 106.423 41.9631 106.328 41.6506 106.246L40.6193 105.964C39.9205 105.774 39.3665 105.494 38.9574 105.125C38.5511 104.756 38.348 104.267 38.348 103.659C38.348 103.156 38.4844 102.717 38.7571 102.342C39.0298 101.967 39.3991 101.676 39.8651 101.469C40.331 101.259 40.8565 101.153 41.4418 101.153C42.0327 101.153 42.554 101.257 43.0057 101.464C43.4602 101.672 43.8182 101.957 44.0795 102.321C44.3409 102.682 44.4773 103.097 44.4886 103.565H43.2188ZM48.8363 110.132C48.2227 110.132 47.6871 109.991 47.2298 109.71C46.7724 109.429 46.4173 109.036 46.1644 108.53C45.9116 108.024 45.7852 107.433 45.7852 106.757C45.7852 106.078 45.9116 105.484 46.1644 104.976C46.4173 104.467 46.7724 104.072 47.2298 103.791C47.6871 103.51 48.2227 103.369 48.8363 103.369C49.4499 103.369 49.9854 103.51 50.4428 103.791C50.9002 104.072 51.2553 104.467 51.5082 104.976C51.761 105.484 51.8874 106.078 51.8874 106.757C51.8874 107.433 51.761 108.024 51.5082 108.53C51.2553 109.036 50.9002 109.429 50.4428 109.71C49.9854 109.991 49.4499 110.132 48.8363 110.132ZM48.8406 109.062C49.2383 109.062 49.5678 108.957 49.8292 108.747C50.0906 108.537 50.2837 108.257 50.4087 107.908C50.5366 107.558 50.6005 107.173 50.6005 106.753C50.6005 106.335 50.5366 105.952 50.4087 105.602C50.2837 105.25 50.0906 104.967 49.8292 104.754C49.5678 104.541 49.2383 104.435 48.8406 104.435C48.44 104.435 48.1076 104.541 47.8434 104.754C47.582 104.967 47.3874 105.25 47.2596 105.602C47.1346 105.952 47.0721 106.335 47.0721 106.753C47.0721 107.173 47.1346 107.558 47.2596 107.908C47.3874 108.257 47.582 108.537 47.8434 108.747C48.1076 108.957 48.44 109.062 48.8406 109.062ZM57.456 107.286V103.455H58.7344V110H57.4815V108.866H57.4134C57.2628 109.216 57.0213 109.507 56.6889 109.74C56.3594 109.97 55.9489 110.085 55.4574 110.085C55.0369 110.085 54.6648 109.993 54.3409 109.808C54.0199 109.621 53.767 109.344 53.5824 108.977C53.4006 108.611 53.3097 108.158 53.3097 107.618V103.455H54.5838V107.464C54.5838 107.911 54.7074 108.266 54.9545 108.53C55.2017 108.794 55.5227 108.926 55.9176 108.926C56.1563 108.926 56.3935 108.866 56.6293 108.747C56.8679 108.628 57.0653 108.447 57.2216 108.206C57.3807 107.964 57.4588 107.658 57.456 107.286ZM60.4464 110V103.455H61.6779V104.494H61.7461C61.8654 104.142 62.0756 103.865 62.3768 103.663C62.6808 103.459 63.0245 103.357 63.408 103.357C63.4876 103.357 63.5813 103.359 63.6893 103.365C63.8001 103.371 63.8867 103.378 63.9492 103.386V104.605C63.8981 104.591 63.8072 104.575 63.6765 104.558C63.5458 104.538 63.4151 104.528 63.2844 104.528C62.9833 104.528 62.7148 104.592 62.479 104.72C62.2461 104.845 62.0614 105.02 61.9251 105.244C61.7887 105.466 61.7205 105.719 61.7205 106.003V110H60.4464ZM67.5746 110.132C66.9411 110.132 66.3956 109.989 65.9382 109.702C65.4837 109.412 65.1342 109.013 64.8899 108.504C64.6456 107.996 64.5234 107.413 64.5234 106.757C64.5234 106.092 64.6484 105.506 64.8984 104.997C65.1484 104.486 65.5007 104.087 65.9553 103.8C66.4098 103.513 66.9453 103.369 67.5618 103.369C68.0589 103.369 68.5021 103.462 68.8913 103.646C69.2805 103.828 69.5945 104.084 69.8331 104.413C70.0746 104.743 70.218 105.128 70.2635 105.568H69.0234C68.9553 105.261 68.799 104.997 68.5547 104.776C68.3132 104.554 67.9893 104.443 67.5831 104.443C67.228 104.443 66.9169 104.537 66.6499 104.724C66.3857 104.909 66.1797 105.173 66.032 105.517C65.8842 105.858 65.8104 106.261 65.8104 106.727C65.8104 107.205 65.8828 107.616 66.0277 107.963C66.1726 108.31 66.3771 108.578 66.6413 108.768C66.9084 108.959 67.2223 109.054 67.5831 109.054C67.8246 109.054 68.0433 109.01 68.2393 108.922C68.4382 108.831 68.6044 108.702 68.7379 108.534C68.8743 108.366 68.9695 108.165 69.0234 107.929H70.2635C70.218 108.352 70.0803 108.73 69.8501 109.062C69.62 109.395 69.3118 109.656 68.9254 109.847C68.5419 110.037 68.0916 110.132 67.5746 110.132ZM74.4471 110.132C73.8022 110.132 73.2468 109.994 72.7809 109.719C72.3178 109.44 71.9599 109.05 71.707 108.547C71.457 108.041 71.332 107.449 71.332 106.77C71.332 106.099 71.457 105.509 71.707 104.997C71.9599 104.486 72.3121 104.087 72.7638 103.8C73.2184 103.513 73.7496 103.369 74.3576 103.369C74.7269 103.369 75.0849 103.43 75.4315 103.553C75.7781 103.675 76.0891 103.866 76.3647 104.128C76.6403 104.389 76.8576 104.729 77.0167 105.146C77.1758 105.561 77.2553 106.065 77.2553 106.659V107.111H72.0522V106.156H76.0067C76.0067 105.821 75.9386 105.524 75.8022 105.266C75.6658 105.004 75.4741 104.798 75.2269 104.648C74.9826 104.497 74.6957 104.422 74.3661 104.422C74.0082 104.422 73.6957 104.51 73.4286 104.686C73.1644 104.859 72.9599 105.087 72.815 105.368C72.6729 105.646 72.6019 105.949 72.6019 106.276V107.021C72.6019 107.459 72.6786 107.831 72.832 108.138C72.9883 108.445 73.2056 108.679 73.484 108.841C73.7624 109 74.0877 109.08 74.4599 109.08C74.7013 109.08 74.9215 109.045 75.1204 108.977C75.3192 108.906 75.4911 108.801 75.636 108.662C75.7809 108.523 75.8917 108.351 75.9684 108.146L77.1744 108.364C77.0778 108.719 76.9045 109.03 76.6545 109.297C76.4073 109.561 76.0962 109.767 75.7212 109.915C75.3491 110.06 74.9244 110.132 74.4471 110.132ZM81.8278 110V109.045L84.7809 105.986C85.0962 105.653 85.3562 105.362 85.5607 105.112C85.7681 104.859 85.9229 104.619 86.0252 104.392C86.1275 104.165 86.1786 103.923 86.1786 103.668C86.1786 103.378 86.1104 103.128 85.9741 102.918C85.8377 102.705 85.6516 102.541 85.4158 102.428C85.18 102.311 84.9144 102.253 84.619 102.253C84.3065 102.253 84.0337 102.317 83.8008 102.445C83.5678 102.572 83.3888 102.753 83.2638 102.986C83.1388 103.219 83.0763 103.491 83.0763 103.804H81.8192C81.8192 103.273 81.9414 102.808 82.1857 102.411C82.43 102.013 82.7653 101.705 83.1914 101.486C83.6175 101.264 84.1019 101.153 84.6445 101.153C85.1928 101.153 85.6758 101.263 86.0934 101.482C86.5138 101.697 86.842 101.993 87.0778 102.368C87.3136 102.74 87.4315 103.161 87.4315 103.629C87.4315 103.953 87.3704 104.27 87.2482 104.58C87.1289 104.889 86.9201 105.234 86.6218 105.615C86.3235 105.993 85.9087 106.452 85.3775 106.991L83.6431 108.807V108.871H87.5721V110H81.8278Z" fill="white"/>
</g>
<g opacity="0.8">
<path d="M0 197C0 188.163 7.16344 181 16 181H88C96.8366 181 104 188.163 104 197C104 205.837 96.8366 213 88 213H16C7.16344 213 0 205.837 0 197Z" fill="#08090B"/>
<path d="M29 192.333C29 193.438 26.3137 194.333 23 194.333C19.6863 194.333 17 193.438 17 192.333M29 192.333C29 191.229 26.3137 190.333 23 190.333C19.6863 190.333 17 191.229 17 192.333M29 192.333V194.333M17 192.333L17 201.667C16.9963 201.987 17.2239 202.304 17.6636 202.589C18.1033 202.874 18.7422 203.12 19.5265 203.305C20.3107 203.491 21.2174 203.611 22.17 203.655C23.1226 203.7 24.0932 203.667 25 203.56M29 197L27 200.333H29.6667L27.6667 203.667M17 197C17.001 197.312 17.2205 197.619 17.641 197.898C18.0615 198.176 18.6714 198.418 19.422 198.604C20.1726 198.789 21.0431 198.914 21.9641 198.968C22.8852 199.022 23.8312 199.003 24.7267 198.913" stroke="white" stroke-linecap="round" stroke-linejoin="round"/>
<path d="M42.7188 194.565C42.6733 194.162 42.4858 193.849 42.1562 193.628C41.8267 193.403 41.4119 193.291 40.9119 193.291C40.554 193.291 40.2443 193.348 39.983 193.462C39.7216 193.572 39.5185 193.726 39.3736 193.922C39.2315 194.115 39.1605 194.335 39.1605 194.582C39.1605 194.79 39.2088 194.969 39.3054 195.119C39.4048 195.27 39.5341 195.396 39.6932 195.499C39.8551 195.598 40.0284 195.682 40.2131 195.75C40.3977 195.815 40.5753 195.869 40.7457 195.912L41.598 196.134C41.8764 196.202 42.1619 196.294 42.4545 196.411C42.7472 196.527 43.0185 196.68 43.2685 196.871C43.5185 197.061 43.7202 197.297 43.8736 197.578C44.0298 197.859 44.108 198.196 44.108 198.588C44.108 199.082 43.9801 199.521 43.7244 199.905C43.4716 200.288 43.1037 200.591 42.6207 200.812C42.1406 201.034 41.5597 201.145 40.8778 201.145C40.2244 201.145 39.6591 201.041 39.1818 200.834C38.7045 200.626 38.331 200.332 38.0611 199.952C37.7912 199.568 37.642 199.114 37.6136 198.588H38.9347C38.9602 198.903 39.0625 199.166 39.2415 199.376C39.4233 199.584 39.6548 199.739 39.9361 199.841C40.2202 199.94 40.5312 199.99 40.8693 199.99C41.2415 199.99 41.5724 199.932 41.8622 199.815C42.1548 199.696 42.3849 199.531 42.5526 199.321C42.7202 199.108 42.804 198.859 42.804 198.575C42.804 198.317 42.7301 198.105 42.5824 197.94C42.4375 197.776 42.2401 197.639 41.9901 197.531C41.7429 197.423 41.4631 197.328 41.1506 197.246L40.1193 196.964C39.4205 196.774 38.8665 196.494 38.4574 196.125C38.0511 195.756 37.848 195.267 37.848 194.659C37.848 194.156 37.9844 193.717 38.2571 193.342C38.5298 192.967 38.8991 192.676 39.3651 192.469C39.831 192.259 40.3565 192.153 40.9418 192.153C41.5327 192.153 42.054 192.257 42.5057 192.464C42.9602 192.672 43.3182 192.957 43.5795 193.321C43.8409 193.682 43.9773 194.097 43.9886 194.565H42.7188ZM48.3363 201.132C47.7227 201.132 47.1871 200.991 46.7298 200.71C46.2724 200.429 45.9173 200.036 45.6644 199.53C45.4116 199.024 45.2852 198.433 45.2852 197.757C45.2852 197.078 45.4116 196.484 45.6644 195.976C45.9173 195.467 46.2724 195.072 46.7298 194.791C47.1871 194.51 47.7227 194.369 48.3363 194.369C48.9499 194.369 49.4854 194.51 49.9428 194.791C50.4002 195.072 50.7553 195.467 51.0082 195.976C51.261 196.484 51.3874 197.078 51.3874 197.757C51.3874 198.433 51.261 199.024 51.0082 199.53C50.7553 200.036 50.4002 200.429 49.9428 200.71C49.4854 200.991 48.9499 201.132 48.3363 201.132ZM48.3406 200.062C48.7383 200.062 49.0678 199.957 49.3292 199.747C49.5906 199.537 49.7837 199.257 49.9087 198.908C50.0366 198.558 50.1005 198.173 50.1005 197.753C50.1005 197.335 50.0366 196.952 49.9087 196.602C49.7837 196.25 49.5906 195.967 49.3292 195.754C49.0678 195.541 48.7383 195.435 48.3406 195.435C47.94 195.435 47.6076 195.541 47.3434 195.754C47.082 195.967 46.8874 196.25 46.7596 196.602C46.6346 196.952 46.5721 197.335 46.5721 197.753C46.5721 198.173 46.6346 198.558 46.7596 198.908C46.8874 199.257 47.082 199.537 47.3434 199.747C47.6076 199.957 47.94 200.062 48.3406 200.062ZM56.956 198.286V194.455H58.2344V201H56.9815V199.866H56.9134C56.7628 200.216 56.5213 200.507 56.1889 200.74C55.8594 200.97 55.4489 201.085 54.9574 201.085C54.5369 201.085 54.1648 200.993 53.8409 200.808C53.5199 200.621 53.267 200.344 53.0824 199.977C52.9006 199.611 52.8097 199.158 52.8097 198.618V194.455H54.0838V198.464C54.0838 198.911 54.2074 199.266 54.4545 199.53C54.7017 199.794 55.0227 199.926 55.4176 199.926C55.6563 199.926 55.8935 199.866 56.1293 199.747C56.3679 199.628 56.5653 199.447 56.7216 199.206C56.8807 198.964 56.9588 198.658 56.956 198.286ZM59.9464 201V194.455H61.1779V195.494H61.2461C61.3654 195.142 61.5756 194.865 61.8768 194.663C62.1808 194.459 62.5245 194.357 62.908 194.357C62.9876 194.357 63.0813 194.359 63.1893 194.365C63.3001 194.371 63.3867 194.378 63.4492 194.386V195.605C63.3981 195.591 63.3072 195.575 63.1765 195.558C63.0458 195.538 62.9151 195.528 62.7844 195.528C62.4833 195.528 62.2148 195.592 61.979 195.72C61.7461 195.845 61.5614 196.02 61.4251 196.244C61.2887 196.466 61.2205 196.719 61.2205 197.003V201H59.9464ZM67.0746 201.132C66.4411 201.132 65.8956 200.989 65.4382 200.702C64.9837 200.412 64.6342 200.013 64.3899 199.504C64.1456 198.996 64.0234 198.413 64.0234 197.757C64.0234 197.092 64.1484 196.506 64.3984 195.997C64.6484 195.486 65.0007 195.087 65.4553 194.8C65.9098 194.513 66.4453 194.369 67.0618 194.369C67.5589 194.369 68.0021 194.462 68.3913 194.646C68.7805 194.828 69.0945 195.084 69.3331 195.413C69.5746 195.743 69.718 196.128 69.7635 196.568H68.5234C68.4553 196.261 68.299 195.997 68.0547 195.776C67.8132 195.554 67.4893 195.443 67.0831 195.443C66.728 195.443 66.4169 195.537 66.1499 195.724C65.8857 195.909 65.6797 196.173 65.532 196.517C65.3842 196.858 65.3104 197.261 65.3104 197.727C65.3104 198.205 65.3828 198.616 65.5277 198.963C65.6726 199.31 65.8771 199.578 66.1413 199.768C66.4084 199.959 66.7223 200.054 67.0831 200.054C67.3246 200.054 67.5433 200.01 67.7393 199.922C67.9382 199.831 68.1044 199.702 68.2379 199.534C68.3743 199.366 68.4695 199.165 68.5234 198.929H69.7635C69.718 199.352 69.5803 199.73 69.3501 200.062C69.12 200.395 68.8118 200.656 68.4254 200.847C68.0419 201.037 67.5916 201.132 67.0746 201.132ZM73.9471 201.132C73.3022 201.132 72.7468 200.994 72.2809 200.719C71.8178 200.44 71.4599 200.05 71.207 199.547C70.957 199.041 70.832 198.449 70.832 197.77C70.832 197.099 70.957 196.509 71.207 195.997C71.4599 195.486 71.8121 195.087 72.2638 194.8C72.7184 194.513 73.2496 194.369 73.8576 194.369C74.2269 194.369 74.5849 194.43 74.9315 194.553C75.2781 194.675 75.5891 194.866 75.8647 195.128C76.1403 195.389 76.3576 195.729 76.5167 196.146C76.6758 196.561 76.7553 197.065 76.7553 197.659V198.111H71.5522V197.156H75.5067C75.5067 196.821 75.4386 196.524 75.3022 196.266C75.1658 196.004 74.9741 195.798 74.7269 195.648C74.4826 195.497 74.1957 195.422 73.8661 195.422C73.5082 195.422 73.1957 195.51 72.9286 195.686C72.6644 195.859 72.4599 196.087 72.315 196.368C72.1729 196.646 72.1019 196.949 72.1019 197.276V198.021C72.1019 198.459 72.1786 198.831 72.332 199.138C72.4883 199.445 72.7056 199.679 72.984 199.841C73.2624 200 73.5877 200.08 73.9599 200.08C74.2013 200.08 74.4215 200.045 74.6204 199.977C74.8192 199.906 74.9911 199.801 75.136 199.662C75.2809 199.523 75.3917 199.351 75.4684 199.146L76.6744 199.364C76.5778 199.719 76.4045 200.03 76.1545 200.297C75.9073 200.561 75.5962 200.767 75.2212 200.915C74.8491 201.06 74.4244 201.132 73.9471 201.132ZM84.3661 201.119C83.7809 201.119 83.2582 201.018 82.7979 200.817C82.3406 200.615 81.9783 200.335 81.7113 199.977C81.4471 199.616 81.305 199.199 81.2852 198.724H82.6232C82.6403 198.983 82.7269 199.207 82.8832 199.398C83.0423 199.585 83.2496 199.73 83.5053 199.832C83.761 199.935 84.0451 199.986 84.3576 199.986C84.7013 199.986 85.0053 199.926 85.2695 199.807C85.5366 199.687 85.7454 199.521 85.896 199.308C86.0465 199.092 86.1218 198.844 86.1218 198.562C86.1218 198.27 86.0465 198.013 85.896 197.791C85.7482 197.567 85.5309 197.391 85.244 197.263C84.9599 197.135 84.6161 197.071 84.2127 197.071H83.4755V195.997H84.2127C84.5366 195.997 84.8207 195.939 85.065 195.822C85.3121 195.706 85.5053 195.544 85.6445 195.337C85.7837 195.126 85.8533 194.881 85.8533 194.599C85.8533 194.33 85.7923 194.095 85.6701 193.896C85.5508 193.695 85.3803 193.537 85.1587 193.423C84.94 193.31 84.6815 193.253 84.3832 193.253C84.0991 193.253 83.8335 193.305 83.5863 193.411C83.342 193.513 83.1431 193.661 82.9897 193.854C82.8363 194.044 82.7539 194.273 82.7425 194.54H81.4684C81.4826 194.068 81.6218 193.653 81.886 193.295C82.1531 192.937 82.5053 192.658 82.9428 192.456C83.3803 192.254 83.8661 192.153 84.4002 192.153C84.9599 192.153 85.4428 192.263 85.8491 192.482C86.2582 192.697 86.5735 192.986 86.7951 193.347C87.0195 193.707 87.1303 194.102 87.1275 194.531C87.1303 195.02 86.994 195.435 86.7184 195.776C86.4457 196.116 86.082 196.345 85.6275 196.462V196.53C86.207 196.618 86.6559 196.848 86.9741 197.22C87.2951 197.592 87.4542 198.054 87.4513 198.605C87.4542 199.085 87.3207 199.516 87.0508 199.896C86.7837 200.277 86.4187 200.577 85.9556 200.795C85.4925 201.011 84.9627 201.119 84.3661 201.119Z" fill="white"/>
</g>
<defs>
<filter id="filter0_d_462_5387" x="965" y="37" width="40" height="40" filterUnits="userSpaceOnUse" color-interpolation-filters="sRGB">
<feFlood flood-opacity="0" result="BackgroundImageFix"/>
<feColorMatrix in="SourceAlpha" type="matrix" values="0 0 0 0 0 0 0 0 0 0 0 0 0 0 0 0 0 0 127 0" result="hardAlpha"/>
<feOffset/>
<feGaussianBlur stdDeviation="8"/>
<feComposite in2="hardAlpha" operator="out"/>
<feColorMatrix type="matrix" values="0 0 0 0 0.619213 0 0 0 0 1 0 0 0 0 0.347222 0 0 0 1 0"/>
<feBlend mode="normal" in2="BackgroundImageFix" result="effect1_dropShadow_462_5387"/>
<feBlend mode="normal" in="SourceGraphic" in2="effect1_dropShadow_462_5387" result="shape"/>
</filter>
<filter id="filter1_d_462_5387" x="955" y="118" width="39" height="39" filterUnits="userSpaceOnUse" color-interpolation-filters="sRGB">
<feFlood flood-opacity="0" result="BackgroundImageFix"/>
<feColorMatrix in="SourceAlpha" type="matrix" values="0 0 0 0 0 0 0 0 0 0 0 0 0 0 0 0 0 0 127 0" result="hardAlpha"/>
<feOffset/>
<feGaussianBlur stdDeviation="8"/>
<feComposite in2="hardAlpha" operator="out"/>
<feColorMatrix type="matrix" values="0 0 0 0 0.619213 0 0 0 0 1 0 0 0 0 0.347222 0 0 0 1 0"/>
<feBlend mode="normal" in2="BackgroundImageFix" result="effect1_dropShadow_462_5387"/>
<feBlend mode="normal" in="SourceGraphic" in2="effect1_dropShadow_462_5387" result="shape"/>
</filter>
<filter id="filter2_d_462_5387" x="1026" y="87" width="39" height="39" filterUnits="userSpaceOnUse" color-interpolation-filters="sRGB">
<feFlood flood-opacity="0" result="BackgroundImageFix"/>
<feColorMatrix in="SourceAlpha" type="matrix" values="0 0 0 0 0 0 0 0 0 0 0 0 0 0 0 0 0 0 127 0" result="hardAlpha"/>
<feOffset/>
<feGaussianBlur stdDeviation="8"/>
<feComposite in2="hardAlpha" operator="out"/>
<feColorMatrix type="matrix" values="0 0 0 0 0.619213 0 0 0 0 1 0 0 0 0 0.347222 0 0 0 1 0"/>
<feBlend mode="normal" in2="BackgroundImageFix" result="effect1_dropShadow_462_5387"/>
<feBlend mode="normal" in="SourceGraphic" in2="effect1_dropShadow_462_5387" result="shape"/>
</filter>
<filter id="filter3_d_462_5387" x="468" y="87" width="39" height="39" filterUnits="userSpaceOnUse" color-interpolation-filters="sRGB">
<feFlood flood-opacity="0" result="BackgroundImageFix"/>
<feColorMatrix in="SourceAlpha" type="matrix" values="0 0 0 0 0 0 0 0 0 0 0 0 0 0 0 0 0 0 127 0" result="hardAlpha"/>
<feOffset/>
<feGaussianBlur stdDeviation="8"/>
<feComposite in2="hardAlpha" operator="out"/>
<feColorMatrix type="matrix" values="0 0 0 0 1 0 0 0 0 1 0 0 0 0 1 0 0 0 1 0"/>
<feBlend mode="normal" in2="BackgroundImageFix" result="effect1_dropShadow_462_5387"/>
<feBlend mode="normal" in="SourceGraphic" in2="effect1_dropShadow_462_5387" result="shape"/>
</filter>
<filter id="filter4_d_462_5387" x="177" y="37" width="40" height="40" filterUnits="userSpaceOnUse" color-interpolation-filters="sRGB">
<feFlood flood-opacity="0" result="BackgroundImageFix"/>
<feColorMatrix in="SourceAlpha" type="matrix" values="0 0 0 0 0 0 0 0 0 0 0 0 0 0 0 0 0 0 127 0" result="hardAlpha"/>
<feOffset/>
<feGaussianBlur stdDeviation="8"/>
<feComposite in2="hardAlpha" operator="out"/>
<feColorMatrix type="matrix" values="0 0 0 0 1 0 0 0 0 1 0 0 0 0 1 0 0 0 1 0"/>
<feBlend mode="normal" in2="BackgroundImageFix" result="effect1_dropShadow_462_5387"/>
<feBlend mode="normal" in="SourceGraphic" in2="effect1_dropShadow_462_5387" result="shape"/>
</filter>
<filter id="filter5_d_462_5387" x="188" y="118" width="39" height="39" filterUnits="userSpaceOnUse" color-interpolation-filters="sRGB">
<feFlood flood-opacity="0" result="BackgroundImageFix"/>
<feColorMatrix in="SourceAlpha" type="matrix" values="0 0 0 0 0 0 0 0 0 0 0 0 0 0 0 0 0 0 127 0" result="hardAlpha"/>
<feOffset/>
<feGaussianBlur stdDeviation="8"/>
<feComposite in2="hardAlpha" operator="out"/>
<feColorMatrix type="matrix" values="0 0 0 0 1 0 0 0 0 1 0 0 0 0 1 0 0 0 1 0"/>
<feBlend mode="normal" in2="BackgroundImageFix" result="effect1_dropShadow_462_5387"/>
<feBlend mode="normal" in="SourceGraphic" in2="effect1_dropShadow_462_5387" result="shape"/>
</filter>
<filter id="filter6_d_462_5387" x="117" y="87" width="39" height="39" filterUnits="userSpaceOnUse" color-interpolation-filters="sRGB">
<feFlood flood-opacity="0" result="BackgroundImageFix"/>
<feColorMatrix in="SourceAlpha" type="matrix" values="0 0 0 0 0 0 0 0 0 0 0 0 0 0 0 0 0 0 127 0" result="hardAlpha"/>
<feOffset/>
<feGaussianBlur stdDeviation="8"/>
<feComposite in2="hardAlpha" operator="out"/>
<feColorMatrix type="matrix" values="0 0 0 0 1 0 0 0 0 1 0 0 0 0 1 0 0 0 1 0"/>
<feBlend mode="normal" in2="BackgroundImageFix" result="effect1_dropShadow_462_5387"/>
<feBlend mode="normal" in="SourceGraphic" in2="effect1_dropShadow_462_5387" result="shape"/>
</filter>
<linearGradient id="paint0_linear_462_5387" x1="476.745" y1="107.5" x2="492.873" y2="107.5" gradientUnits="userSpaceOnUse">
<stop stop-color="#373937"/>
<stop offset="0.531865" stop-color="white"/>
<stop offset="1" stop-color="#363636"/>
</linearGradient>
<linearGradient id="paint1_linear_462_5387" x1="683.745" y1="107.5" x2="699.873" y2="107.5" gradientUnits="userSpaceOnUse">
<stop stop-color="#373937"/>
<stop offset="0.531865" stop-color="#373937"/>
<stop offset="1" stop-color="#373937"/>
</linearGradient>
<linearGradient id="paint2_linear_462_5387" x1="325.5" y1="65.5" x2="328.5" y2="94.5" gradientUnits="userSpaceOnUse">
<stop stop-color="#FFE000"/>
<stop offset="1" stop-color="#1E1E1E"/>
</linearGradient>
<linearGradient id="paint3_linear_462_5387" x1="443.5" y1="120" x2="462" y2="140" gradientUnits="userSpaceOnUse">
<stop stop-color="#0B0B0B" stop-opacity="0"/>
<stop offset="1" stop-color="#FFE000"/>
</linearGradient>
<linearGradient id="paint4_linear_462_5387" x1="515.5" y1="73" x2="536.5" y2="94.5" gradientUnits="userSpaceOnUse">
<stop stop-color="#FFE000"/>
<stop offset="1" stop-color="#1E1E1E"/>
</linearGradient>
<linearGradient id="paint5_linear_462_5387" x1="651.5" y1="120" x2="670" y2="140" gradientUnits="userSpaceOnUse">
<stop stop-color="#0B0B0B" stop-opacity="0"/>
<stop offset="1" stop-color="#FFE000"/>
</linearGradient>
<linearGradient id="paint6_linear_462_5387" x1="738" y1="123" x2="741.5" y2="115.5" gradientUnits="userSpaceOnUse">
<stop stop-color="#FFE000"/>
<stop offset="1" stop-color="#1E1E1E"/>
</linearGradient>
<linearGradient id="paint7_linear_462_5387" x1="859.5" y1="120" x2="878" y2="95.5" gradientUnits="userSpaceOnUse">
<stop stop-color="#0B0B0B" stop-opacity="0"/>
<stop offset="1" stop-color="#FFE000"/>
</linearGradient>
<linearGradient id="paint8_linear_462_5387" x1="875" y1="105.999" x2="1077" y2="105.999" gradientUnits="userSpaceOnUse">
<stop offset="0.753114" stop-color="#1E1E1E"/>
<stop offset="0.833094" stop-color="#FFE000"/>
<stop offset="0.912265" stop-color="#1E1E1E"/>
</linearGradient>
<linearGradient id="paint9_linear_462_5387" x1="1088.67" y1="107" x2="1078" y2="107" gradientUnits="userSpaceOnUse">
<stop stop-opacity="0"/>
<stop offset="1" stop-color="#FACC15"/>
</linearGradient>
<linearGradient id="paint10_linear_462_5387" x1="104" y1="105.999" x2="302" y2="105.999" gradientUnits="userSpaceOnUse">
<stop offset="0.0953358" stop-color="#1E1E1E"/>
<stop offset="0.170531" stop-color="white"/>
<stop offset="0.238677" stop-color="#1E1E1E"/>
<stop offset="0.798999" stop-color="#1E1E1E"/>
<stop offset="0.900358" stop-color="white"/>
<stop offset="0.985651" stop-color="#1E1E1E"/>
</linearGradient>
<linearGradient id="paint11_linear_462_5387" x1="91.5" y1="106" x2="104" y2="106" gradientUnits="userSpaceOnUse">
<stop stop-opacity="0"/>
<stop offset="1" stop-color="white"/>
</linearGradient>
</defs>
</svg>
