<svg width="28" height="27" viewBox="0 0 28 27" fill="none" xmlns="http://www.w3.org/2000/svg">
<path d="M22 20.6401H14.0133C12.5467 20.6401 11.4133 21.8934 10.7067 23.1734C10.1473 24.2231 9.25306 25.0556 8.16617 25.5387C7.07928 26.0218 5.86209 26.1277 4.7081 25.8396C3.55411 25.5515 2.52954 24.8859 1.79727 23.9486C1.065 23.0113 0.667043 21.8562 0.666672 20.6667C0.680005 19.7334 0.933338 18.8001 1.42667 18.0001M6.00001 20.6667L10.1733 12.96C10.88 11.6667 10.3067 10.0533 9.50667 8.82666C9.12909 8.2228 8.87628 7.54943 8.76315 6.84628C8.65002 6.14312 8.67887 5.42444 8.84799 4.73262C9.01711 4.0408 9.32308 3.38985 9.74785 2.8182C10.1726 2.24654 10.7076 1.76574 11.3212 1.40418C11.9348 1.04262 12.6145 0.807609 13.3204 0.71302C14.0263 0.618431 14.744 0.666177 15.4311 0.853442C16.1183 1.04071 16.7609 1.3637 17.3212 1.80336C17.8815 2.24302 18.348 2.79044 18.6933 3.41333M14 6.00008L18.1733 13.6401C18.88 14.9334 20.5333 15.3334 22 15.3334C23.4145 15.3334 24.771 15.8953 25.7712 16.8955C26.7714 17.8957 27.3333 19.2523 27.3333 20.6667C27.3333 22.0812 26.7714 23.4378 25.7712 24.438C24.771 25.4382 23.4145 26.0001 22 26.0001" stroke="#FEFCE8" stroke-width="1.3" stroke-linecap="round" stroke-linejoin="round"/>
</svg>
