<svg xmlns="http://www.w3.org/2000/svg" width="109" height="20" fill="none"><g clip-path="url(#a)"><mask id="b" width="109" height="20" x="0" y="0" maskUnits="userSpaceOnUse" style="mask-type:luminance"><path fill="#fff" d="M108.5 0H.5v20h108z"/></mask><g fill="#B0B0B5" mask="url(#b)"><path d="M23.088 14.77V13.1c1.032-.353 1.778-1.451 1.778-2.748s-.746-2.396-1.778-2.747v-1.67c.966-.33 1.69-1.32 1.756-2.528h-1.163v.505a.99.99 0 0 1-.593.901v-.197c0-.352-.307-.638-.68-.638h-.066c-.374 0-.68.286-.68.638v.241c-.352-.176-.594-.505-.594-.9V3.45h-1.163c.088 1.187.79 2.197 1.756 2.527v1.67C20.63 8 19.883 9.1 19.883 10.396s.746 2.395 1.778 2.747v1.67c-.966.33-1.69 1.319-1.756 2.528h1.163v-.506a.99.99 0 0 1 .593-.9v.241c0 .352.307.637.68.637h.066c.374 0 .68-.285.68-.637v-.242c.352.176.594.506.594.901v.506h1.163c-.066-1.253-.79-2.242-1.756-2.572m-2.02-3.693v-1.45a.99.99 0 0 1 .593-.902v.242c0 .352.307.638.68.638h.066c.374 0 .68-.286.68-.638v-.242c.352.176.594.506.594.902v1.45a.99.99 0 0 1-.593.901v-.242c0-.351-.307-.637-.68-.637h-.066c-.374 0-.68.286-.68.637v.242a.99.99 0 0 1-.594-.9m9.22.153V9.45C31.32 9.1 32.066 8 32.066 6.704s-.746-2.395-1.778-2.747v-.55h-1.405v.55c-1.032.352-1.778 1.45-1.778 2.747s.746 2.396 1.778 2.748v1.78c-1.032.352-1.778 1.45-1.778 2.747s.746 2.396 1.778 2.747v.55h1.405v-.55c1.032-.351 1.778-1.45 1.778-2.747s-.746-2.395-1.778-2.747M28.29 7.45V6a.99.99 0 0 1 .593-.9v.24c0 .352.307.638.68.638h.066c.374 0 .68-.286.68-.637v-.242c.352.176.594.506.594.901v1.45a.99.99 0 0 1-.593.902v-.22c0-.352-.307-.637-.68-.637h-.066c-.374 0-.68.285-.68.637v.242a1.05 1.05 0 0 1-.594-.923m2.59 7.253a.99.99 0 0 1-.592.902v-.352c0-.352-.307-.637-.68-.637h-.066c-.373 0-.68.285-.68.637v.351c-.352-.175-.593-.505-.593-.9v-1.451a.99.99 0 0 1 .592-.901v.132c0 .351.308.637.68.637h.067c.373 0 .68-.286.68-.637v-.132c.351.176.593.505.593.9zM14.966 8.945c-.022-.066-.022-.132-.066-.198 0-.022 2.217-2.879.175-4.637-2.04-1.758-4.412.528-4.434.55A7 7 0 0 0 9.5 4.44c-.768-.11-1.866 0-1.866 0a5 5 0 0 0-1.12.198c-.021-.022-2.392-2.308-4.434-.55-2.041 1.758.154 4.616.176 4.637l-.066.198C1.97 10.154.478 10.528.478 12.66c0 2.176 1.558 3.89 4.763 3.89h1.317s.505.682 1.559.726c0 0 .241.022.79 0 1.12 0 1.647-.703 1.647-.725h1.317c3.204 0 4.763-1.715 4.763-3.89.066-2.11-1.449-2.506-1.668-3.715m22.851 6.878V5.055h4.478c.68 0 1.273.11 1.734.308.461.197.835.505 1.054.923.242.395.373.9.373 1.472s-.153 1.077-.483 1.495c-.307.417-.768.681-1.339.835V9.78c.483.11.9.286 1.252.55.35.263.636.571.834.967.197.395.307.835.307 1.34s-.088.967-.242 1.363a2.5 2.5 0 0 1-.702.989c-.307.264-.68.462-1.12.615q-.657.198-1.514.198zm1.669-1.604h2.897a2.9 2.9 0 0 0 1.054-.176c.307-.132.527-.308.68-.55a1.64 1.64 0 0 0 .242-.879 1.3 1.3 0 0 0-.264-.813 1.42 1.42 0 0 0-.702-.505c-.307-.132-.68-.176-1.098-.176h-2.81zm0-4.703h2.722c.307 0 .57-.066.812-.176.241-.132.439-.286.57-.506.154-.22.22-.461.22-.747q0-.692-.461-1.055c-.307-.242-.746-.374-1.317-.374h-2.546zm11.678 6.461c-.835 0-1.559-.176-2.218-.527a3.9 3.9 0 0 1-1.514-1.473c-.351-.615-.527-1.319-.527-2.132 0-.637.11-1.209.307-1.736a3.98 3.98 0 0 1 2.152-2.264 4.2 4.2 0 0 1 1.668-.33c.527 0 1.01.11 1.449.308.46.198.834.462 1.163.813.33.352.593.77.768 1.253.176.462.264.99.264 1.56l-.022.682h-6.586l-.35-1.253h5.575l-.242.264v-.374a1.87 1.87 0 0 0-.329-.9 2.1 2.1 0 0 0-.746-.638 2.1 2.1 0 0 0-.966-.22c-.549 0-1.01.11-1.405.33a1.95 1.95 0 0 0-.856.923c-.198.395-.285.9-.285 1.494 0 .572.11 1.055.35 1.473.242.417.572.725.989.945.439.22.922.33 1.492.33.395 0 .769-.066 1.098-.198q.526-.198 1.12-.726l.79 1.121a3.5 3.5 0 0 1-.9.638 6.3 6.3 0 0 1-1.12.44c-.351.153-.746.197-1.12.197m4.785-.154V7.736h1.602v2.528l-.153-.616c.11-.395.307-.747.57-1.055.286-.307.593-.571.944-.747a2.5 2.5 0 0 1 1.098-.286c.175 0 .33.022.483.044.154.022.285.066.395.11l-.417 1.715c-.132-.044-.263-.088-.417-.132a1.5 1.5 0 0 0-.44-.066c-.285 0-.548.066-.79.176-.24.11-.46.241-.658.44-.176.175-.33.395-.439.659a2 2 0 0 0-.176.813v4.505zm8.495.154a3.17 3.17 0 0 1-1.822-.55 4 4 0 0 1-1.317-1.516c-.33-.637-.483-1.363-.483-2.154 0-.813.154-1.538.483-2.154a3.74 3.74 0 0 1 1.361-1.494 3.6 3.6 0 0 1 1.932-.55c.417 0 .812.066 1.141.176.351.132.659.308.9.528.264.22.483.461.637.747q.262.429.33.923l-.352-.132V7.714h1.602v8.11h-1.602V13.89l.373-.11a2.15 2.15 0 0 1-.395.813c-.176.264-.417.484-.725.704a3.6 3.6 0 0 1-.965.483 3 3 0 0 1-1.098.198m.417-1.45c.483 0 .9-.11 1.273-.352s.659-.55.856-.967c.22-.418.33-.901.33-1.429 0-.527-.11-.989-.33-1.406a2.3 2.3 0 0 0-.856-.967c-.373-.242-.79-.352-1.273-.352-.46 0-.9.11-1.251.352a2.6 2.6 0 0 0-.856.967 3.2 3.2 0 0 0-.307 1.406c0 .528.11 1.011.307 1.429.22.417.505.725.856.967.351.22.768.351 1.251.351m9.176 1.45c-.747 0-1.427-.176-2.02-.55a4.06 4.06 0 0 1-1.405-1.516 4.56 4.56 0 0 1-.504-2.132c0-.791.175-1.494.504-2.132a4.06 4.06 0 0 1 1.405-1.516c.593-.374 1.273-.55 2.02-.55a4.4 4.4 0 0 1 1.953.44c.593.286 1.054.681 1.362 1.187l-.879 1.077a2.2 2.2 0 0 0-.636-.638 3.4 3.4 0 0 0-.812-.461 2.4 2.4 0 0 0-.835-.176c-.483 0-.921.132-1.317.374-.373.241-.68.571-.9.989-.22.417-.329.9-.329 1.406s.11.99.351 1.407c.242.417.549.747.944.989s.812.373 1.295.373q.43 0 .79-.131a2.4 2.4 0 0 0 .769-.418 4 4 0 0 0 .702-.681l.878 1.077c-.329.461-.79.835-1.404 1.143-.66.285-1.296.439-1.932.439m4.324-.154V4.44h1.58v4.967l-.285.175q.165-.526.593-.989a4 4 0 0 1 1.053-.747 2.9 2.9 0 0 1 1.252-.286c.614 0 1.119.132 1.537.374.416.242.724.593.922 1.099.197.484.307 1.12.307 1.868v4.923h-1.581v-4.813c0-.461-.066-.835-.175-1.143-.132-.308-.308-.527-.571-.66-.264-.153-.57-.197-.944-.175-.308 0-.593.044-.834.154-.263.088-.483.22-.68.395a2.1 2.1 0 0 0-.44.616 1.6 1.6 0 0 0-.154.747v4.88h-1.58m11.788.154a3.17 3.17 0 0 1-1.822-.55 3.8 3.8 0 0 1-1.295-1.516c-.33-.637-.483-1.363-.483-2.154 0-.813.153-1.538.483-2.154.33-.637.79-1.142 1.36-1.494a3.6 3.6 0 0 1 1.933-.55c.416 0 .811.066 1.14.176.352.132.66.308.9.528.264.22.484.461.637.747q.265.429.33.923l-.351-.132V7.714h1.602v8.11H92.98V13.89l.373-.11a2.15 2.15 0 0 1-.395.813c-.176.264-.418.484-.725.704a3.6 3.6 0 0 1-.966.483 3.3 3.3 0 0 1-1.119.198m.417-1.45c.483 0 .9-.11 1.273-.352.374-.242.659-.55.856-.967.22-.418.33-.901.33-1.429 0-.527-.11-.989-.33-1.406a2.3 2.3 0 0 0-.856-.967c-.373-.242-.79-.352-1.273-.352-.461 0-.9.11-1.25.352a2.6 2.6 0 0 0-.857.967 3.2 3.2 0 0 0-.307 1.406c0 .528.11 1.011.307 1.429.22.417.504.725.856.967.35.22.768.351 1.25.351m5.993 1.296V7.736h1.58v8.088zm.768-9.868q-.495 0-.79-.264c-.176-.176-.285-.417-.285-.747 0-.308.087-.55.285-.725.197-.176.46-.286.79-.286q.495 0 .79.264c.176.176.285.417.285.747 0 .308-.087.55-.285.725-.197.198-.46.286-.79.286m2.788 9.868V7.736h1.58v1.67l-.285.176q.165-.526.592-.989a4 4 0 0 1 1.054-.747 2.9 2.9 0 0 1 1.251-.286c.615 0 1.12.132 1.537.374s.724.593.922 1.099c.197.484.307 1.12.307 1.868v4.923h-1.58v-4.813c0-.461-.066-.835-.176-1.143-.131-.308-.307-.527-.57-.66-.264-.153-.572-.197-.945-.175-.307 0-.592.044-.855.154-.264.088-.484.22-.681.395a2.1 2.1 0 0 0-.439.616c-.11.22-.154.461-.154.747v4.88h-1.558"/></g></g><defs><clipPath id="a"><path fill="#fff" d="M.5 0h108v20H.5z"/></clipPath></defs></svg>