<svg width="16" height="16" viewBox="0 0 16 16" fill="none" xmlns="http://www.w3.org/2000/svg">
<path d="M9.33464 1.33301V3.99967C9.33464 4.3533 9.47511 4.69244 9.72516 4.94248C9.97521 5.19253 10.3143 5.33301 10.668 5.33301H13.3346M8.0013 11.9997V7.99967M8.0013 11.9997L6.0013 9.99967M8.0013 11.9997L10.0013 9.99967M10.0013 1.33301H4.0013C3.64768 1.33301 3.30854 1.47348 3.05849 1.72353C2.80844 1.97358 2.66797 2.31272 2.66797 2.66634V13.333C2.66797 13.6866 2.80844 14.0258 3.05849 14.2758C3.30854 14.5259 3.64768 14.6663 4.0013 14.6663H12.0013C12.3549 14.6663 12.6941 14.5259 12.9441 14.2758C13.1942 14.0258 13.3346 13.6866 13.3346 13.333V4.66634L10.0013 1.33301Z" stroke="#FAFAFA" stroke-linecap="round" stroke-linejoin="round"/>
</svg>
