<svg xmlns="http://www.w3.org/2000/svg" width="40" height="26" viewBox="0 0 40 26">
  <style>
    path { fill: #000000; }
    @media (prefers-color-scheme: dark) {
      path { fill: #ffffff; }
    }
  </style>
  <path fill="#fff" d="M20 24.106A13.294 13.294 0 013.847 22.2a12.916 12.916 0 010-18.393A13.294 13.294 0 0120 1.894 13.294 13.294 0 0136.153 3.8a12.916 12.916 0 010 18.393A13.3 13.3 0 0120 24.106zm13.315-4.715a8.976 8.976 0 000-12.782 9.234 9.234 0 00-9.993-1.947L31.755 13l-8.434 8.338a9.234 9.234 0 009.994-1.947zM6.685 6.609a8.976 8.976 0 000 12.782 9.234 9.234 0 009.993 1.947L8.245 13l8.434-8.338a9.266 9.266 0 00-3.529-.7 9.168 9.168 0 00-6.465 2.647zM13.921 13L20 19.01 26.079 13 20 6.99z"/>
</svg>