<svg width="192" height="117" viewBox="0 0 192 117" fill="none" xmlns="http://www.w3.org/2000/svg">
<path d="M4.9377 115.848C2.98217 115.037 1.41797 113.473 0.607044 111.517L1.53077 111.134C1.18908 110.31 1 109.406 1 108.455V104.573H0L0 96.8096H1V92.9277C1 91.9768 1.18908 91.0725 1.53077 90.2485L0.607044 89.8654C1.41797 87.9099 2.98217 86.3457 4.9377 85.5348L5.32075 86.4585C6.14472 86.1168 7.04902 85.9277 8 85.9277H11.4072V84.9277H18.2216V85.9277H25.0359V84.9277H31.8503V85.9277H38.6647V84.9277H45.479V85.9277H48.8862C49.8372 85.9277 50.7415 86.1168 51.5655 86.4585L51.9485 85.5348C53.904 86.3457 55.4682 87.9099 56.2792 89.8654L55.3554 90.2485C55.6971 91.0725 55.8862 91.9768 55.8862 92.9277V96.8096H56.8862V104.573H55.8862V108.455C55.8862 109.406 55.6971 110.31 55.3554 111.134L56.2792 111.517C55.4682 113.473 53.904 115.037 51.9485 115.848L51.5655 114.924C50.7415 115.266 49.8372 115.455 48.8862 115.455H45.479V116.455H38.6647V115.455H31.8503V116.455H25.0359V115.455H18.2215V116.455H11.4072V115.455H8C7.04901 115.455 6.14472 115.266 5.32075 114.924L4.9377 115.848Z" stroke="#AF72FF" stroke-width="2" stroke-dasharray="7 7"/>
<path d="M4.9377 74.0404C2.98217 73.2294 1.41797 71.6652 0.607044 69.7097L1.53077 69.3267C1.18908 68.5027 1 67.5984 1 66.6474V62.7656H0L0 55.0019H1V51.1201C1 50.1691 1.18908 49.2648 1.53077 48.4409L0.607044 48.0578C1.41797 46.1023 2.98217 44.5381 4.9377 43.7272L5.32075 44.6509C6.14472 44.3092 7.04902 44.1201 8 44.1201H11.4072V43.1201H18.2216V44.1201H25.0359V43.1201H31.8503V44.1201H38.6647V43.1201H45.479V44.1201H48.8862C49.8372 44.1201 50.7415 44.3092 51.5655 44.6509L51.9485 43.7272C53.904 44.5381 55.4682 46.1023 56.2792 48.0578L55.3554 48.4409C55.6971 49.2648 55.8862 50.1691 55.8862 51.1201V55.0019H56.8862V62.7656H55.8862V66.6474C55.8862 67.5984 55.6971 68.5027 55.3554 69.3267L56.2792 69.7097C55.4682 71.6652 53.904 73.2294 51.9485 74.0404L51.5655 73.1166C50.7415 73.4583 49.8372 73.6474 48.8862 73.6474H45.479V74.6474H38.6647V73.6474H31.8503V74.6474H25.0359V73.6474H18.2215V74.6474H11.4072V73.6474H8C7.04901 73.6474 6.14472 73.4583 5.32075 73.1166L4.9377 74.0404Z" stroke="#AF72FF" stroke-width="2" stroke-dasharray="7 7"/>
<path d="M72.1057 115.848C70.1501 115.037 68.5859 113.473 67.775 111.517L68.6987 111.134C68.3571 110.31 68.168 109.406 68.168 108.455V104.573H67.168V96.8096H68.168V92.9277C68.168 91.9768 68.3571 91.0725 68.6987 90.2485L67.775 89.8654C68.5859 87.9099 70.1501 86.3457 72.1057 85.5348L72.4887 86.4585C73.3127 86.1168 74.217 85.9277 75.168 85.9277H78.5752V84.9277H85.3895V85.9277H92.2039V84.9277H99.0183V85.9277H105.833V84.9277H112.647V85.9277H116.054C117.005 85.9277 117.909 86.1168 118.733 86.4585L119.116 85.5348C121.072 86.3457 122.636 87.9099 123.447 89.8654L122.523 90.2485C122.865 91.0725 123.054 91.9768 123.054 92.9277V96.8096H124.054V104.573H123.054V108.455C123.054 109.406 122.865 110.31 122.523 111.134L123.447 111.517C122.636 113.473 121.072 115.037 119.116 115.848L118.733 114.924C117.909 115.266 117.005 115.455 116.054 115.455H112.647V116.455H105.833V115.455H99.0183V116.455H92.2039V115.455H85.3895V116.455H78.5752V115.455H75.168C74.217 115.455 73.3127 115.266 72.4887 114.924L72.1057 115.848Z" stroke="#AF72FF" stroke-width="2" stroke-dasharray="7 7"/>
<path d="M83.3435 65.7493C81.2329 65.9142 79.1292 65.2302 77.5192 63.8557L78.1685 63.0951C77.4901 62.5159 76.9112 61.7959 76.4796 60.9485L74.6991 57.4524L73.808 57.9062L70.247 50.914L71.1381 50.4601L69.3576 46.964C68.926 46.1166 68.6841 45.225 68.6146 44.3357L67.6177 44.4135C67.4528 42.303 68.1368 40.1992 69.5114 38.5892L70.2719 39.2385C70.8511 38.5601 71.5711 37.9812 72.4185 37.5496L75.4258 36.0181L74.9719 35.127L80.9864 32.0639L81.4403 32.955L87.4547 29.892L87.0009 29.0009L93.0154 25.9378L93.4692 26.8289L99.4837 23.7658L99.0299 22.8747L105.044 19.8117L105.498 20.7028L108.505 19.1713C109.353 18.7397 110.245 18.4978 111.134 18.4283L111.056 17.4314C113.167 17.2665 115.27 17.9505 116.88 19.3251L116.231 20.0856C116.909 20.6648 117.488 21.3848 117.92 22.2322L119.7 25.7283L120.591 25.2745L124.152 32.2668L123.261 32.7206L125.042 36.2167C125.473 37.0641 125.715 37.9557 125.785 38.845L126.782 38.7672C126.947 40.8777 126.263 42.9815 124.888 44.5915L124.128 43.9422C123.548 44.6206 122.828 45.1995 121.981 45.6311L118.974 47.1626L119.428 48.0537L113.413 51.1168L112.959 50.2257L106.945 53.2887L107.399 54.1798L101.384 57.2429L100.93 56.3518L94.9157 59.4149L95.3695 60.306L89.355 63.369L88.9012 62.4779L85.894 64.0095C85.0466 64.441 84.1549 64.6829 83.2656 64.7524L83.3435 65.7493Z" fill="#0F0F0F" stroke="#AF72FF" stroke-width="2" stroke-dasharray="7 7"/>
<path d="M139.27 115.848C137.314 115.037 135.75 113.473 134.939 111.517L135.863 111.134C135.521 110.31 135.332 109.406 135.332 108.455V104.573H134.332V96.8096H135.332V92.9277C135.332 91.9768 135.521 91.0725 135.863 90.2485L134.939 89.8654C135.75 87.9099 137.314 86.3457 139.27 85.5348L139.653 86.4585C140.477 86.1168 141.381 85.9277 142.332 85.9277H145.739V84.9277H152.554V85.9277H159.368V84.9277H166.182V85.9277H172.997V84.9277H179.811V85.9277H183.218C184.169 85.9277 185.074 86.1168 185.897 86.4585L186.281 85.5348C188.236 86.3457 189.8 87.9099 190.611 89.8654L189.687 90.2485C190.029 91.0725 190.218 91.9768 190.218 92.9277V96.8096H191.218V104.573H190.218V108.455C190.218 109.406 190.029 110.31 189.687 111.134L190.611 111.517C189.8 113.473 188.236 115.037 186.281 115.848L185.897 114.924C185.074 115.266 184.169 115.455 183.218 115.455H179.811V116.455H172.997V115.455H166.182V116.455H159.368V115.455H152.554V116.455H145.739V115.455H142.332C141.381 115.455 140.477 115.266 139.653 114.924L139.27 115.848Z" stroke="#AF72FF" stroke-width="2" stroke-dasharray="7 7"/>
<path d="M139.27 74.0404C137.314 73.2294 135.75 71.6652 134.939 69.7097L135.863 69.3267C135.521 68.5027 135.332 67.5984 135.332 66.6474V62.7656H134.332V55.0019H135.332V51.1201C135.332 50.1691 135.521 49.2648 135.863 48.4409L134.939 48.0578C135.75 46.1023 137.314 44.5381 139.27 43.7272L139.653 44.6509C140.477 44.3092 141.381 44.1201 142.332 44.1201H145.739V43.1201H152.554V44.1201H159.368V43.1201H166.182V44.1201H172.997V43.1201H179.811V44.1201H183.218C184.169 44.1201 185.074 44.3092 185.897 44.6509L186.281 43.7272C188.236 44.5381 189.8 46.1023 190.611 48.0578L189.687 48.4409C190.029 49.2648 190.218 50.1691 190.218 51.1201V55.0019H191.218V62.7656H190.218V66.6474C190.218 67.5984 190.029 68.5027 189.687 69.3267L190.611 69.7097C189.8 71.6652 188.236 73.2294 186.281 74.0404L185.897 73.1166C185.074 73.4583 184.169 73.6474 183.218 73.6474H179.811V74.6474H172.997V73.6474H166.182V74.6474H159.368V73.6474H152.554V74.6474H145.739V73.6474H142.332C141.381 73.6474 140.477 73.4583 139.653 73.1166L139.27 74.0404Z" stroke="#AF72FF" stroke-width="2" stroke-dasharray="7 7"/>
<line x1="135.02" y1="13.9629" x2="125.424" y2="13.9629" stroke="#AF72FF" stroke-width="2"/>
<line x1="126.681" y1="1.42" x2="122.62" y2="10.1945" stroke="#AF72FF" stroke-width="2"/>
<line x1="113.52" y1="0.586955" x2="117.514" y2="9.39229" stroke="#AF72FF" stroke-width="2"/>
</svg>
