<svg width="921" height="764" viewBox="0 0 921 764" fill="none" xmlns="http://www.w3.org/2000/svg">
<g filter="url(#filter0_f_462_5561)">
<path d="M764.5 454.524C807.552 315.472 616.534 364.733 402.889 298.587C189.245 232.44 237.682 -104.105 194.63 34.9471C151.578 173.999 86.0648 520.385 299.71 586.531C513.354 652.678 721.448 593.576 764.5 454.524Z" fill="#4D400E"/>
<path d="M764.022 454.376C774.758 419.702 770.859 396.928 755.842 381.143C740.77 365.299 714.4 356.374 679.861 349.707C657.668 345.423 632.171 342.081 604.222 338.419C588.692 336.383 572.404 334.249 555.505 331.798C508.215 324.94 456.189 315.612 402.742 299.064C295.65 265.908 254.288 164.991 234.304 89.9462C229.373 71.4297 225.741 54.4754 222.745 40.4921L222.623 39.9213C219.599 25.8096 217.23 14.8231 214.821 8.35088C214.22 6.73709 213.623 5.42168 213.021 4.4165C212.415 3.40472 211.828 2.74666 211.265 2.39904C210.728 2.06753 210.203 2.00978 209.634 2.22282C209.033 2.44771 208.344 2.99 207.565 3.95348C206.009 5.87905 204.241 9.30003 202.181 14.4518C200.126 19.591 197.797 26.4095 195.108 35.095C173.59 104.593 146.466 225.89 151.408 338.057C156.351 450.248 193.353 553.079 299.857 586.054C406.601 619.102 511.936 620.854 595.941 596.996C679.95 573.136 742.563 523.687 764.022 454.376Z" stroke="#212121"/>
</g>
<defs>
<filter id="filter0_f_462_5561" x="0.318298" y="-148.403" width="920.296" height="912.034" filterUnits="userSpaceOnUse" color-interpolation-filters="sRGB">
<feFlood flood-opacity="0" result="BackgroundImageFix"/>
<feBlend mode="normal" in="SourceGraphic" in2="BackgroundImageFix" result="shape"/>
<feGaussianBlur stdDeviation="75" result="effect1_foregroundBlur_462_5561"/>
</filter>
</defs>
</svg>
