<svg width="1224" height="881" viewBox="0 0 1224 881" fill="none" xmlns="http://www.w3.org/2000/svg">
<line x1="0.499695" y1="2.11166e-08" x2="0.499655" y2="881" stroke="#111827"/>
<line x1="72.4997" y1="2.11166e-08" x2="72.4997" y2="881" stroke="#111827"/>
<line x1="144.5" y1="2.11166e-08" x2="144.5" y2="881" stroke="#111827"/>
<line x1="216.5" y1="2.11166e-08" x2="216.5" y2="881" stroke="#111827"/>
<line x1="288.5" y1="2.11166e-08" x2="288.5" y2="881" stroke="#111827"/>
<line x1="360.5" y1="2.11166e-08" x2="360.5" y2="881" stroke="#111827"/>
<line x1="432.5" y1="2.11166e-08" x2="432.5" y2="881" stroke="#111827"/>
<line x1="504.5" y1="2.11166e-08" x2="504.5" y2="881" stroke="#111827"/>
<line x1="576.5" y1="2.11166e-08" x2="576.5" y2="881" stroke="#111827"/>
<line x1="648.5" y1="2.11166e-08" x2="648.5" y2="881" stroke="#111827"/>
<line x1="720.5" y1="2.11166e-08" x2="720.5" y2="881" stroke="#111827"/>
<line x1="792.5" y1="2.11166e-08" x2="792.5" y2="881" stroke="#111827"/>
<line x1="864.5" y1="2.11166e-08" x2="864.5" y2="881" stroke="#111827"/>
<line x1="936.5" y1="2.11166e-08" x2="936.5" y2="881" stroke="#111827"/>
<line x1="1008.5" y1="2.11166e-08" x2="1008.5" y2="881" stroke="#111827"/>
<line x1="1080.5" y1="2.11166e-08" x2="1080.5" y2="881" stroke="#111827"/>
<line x1="1152.5" y1="2.11166e-08" x2="1152.5" y2="881" stroke="#111827"/>
</svg>
