<svg width="48" height="48" viewBox="0 0 48 48" fill="none" xmlns="http://www.w3.org/2000/svg">
<path d="M23 32C26.866 32 30 28.866 30 25C30 21.134 26.866 18 23 18C19.134 18 16 21.134 16 25C16 28.866 19.134 32 23 32Z" stroke="#FEFCE8" stroke-width="2" stroke-linecap="round" stroke-linejoin="round"/>
<path d="M6 16C6 9 11 4 19 4C29 4 28.66 10 34 14C39.34 18 44 18 44 26C44 35 39 39 30 39C25 39 25 44 18 44C11 44 4 40 4 33C4 27 7 27 7 23C7 20 6 18 6 16Z" stroke="#FEFCE8" stroke-width="2" stroke-linecap="round" stroke-linejoin="round"/>
</svg>
