<svg xmlns="http://www.w3.org/2000/svg" width="122" height="18" fill="none"><path fill="#fff" d="M6.715.035C3.79.316 1.285 2.13.373 4.628c-.704 1.926-.4 4.075.816 5.764 1.157 1.602 2.937 2.656 5.062 2.995.652.102 1.724.114 2.389.019.844-.12 1.82-.416 2.52-.767l.256-.13.505.233a8.3 8.3 0 0 0 6.858-.008c2.04-.934 3.489-2.666 3.945-4.72.08-.362.092-.518.092-1.27 0-.751-.012-.908-.092-1.27-.464-2.094-1.929-3.826-4.03-4.768-2.136-.96-4.745-.93-6.85.07l-.412.197-.496-.227a8.4 8.4 0 0 0-4.221-.71m1.312 2.04c.437.043 1.053.17 1.325.28l.168.066L7.127 4.57C5.807 5.748 4.73 6.726 4.73 6.74c0 .011 1.077.99 2.393 2.175l2.397 2.149-.176.069c-.284.11-.944.24-1.4.277a5.6 5.6 0 0 1-2.825-.503c-1.44-.664-2.397-1.81-2.753-3.306-.084-.364-.096-1.233-.02-1.623.36-1.857 1.856-3.313 3.88-3.78a5.4 5.4 0 0 1 1.801-.124m8.167.04c.936.135 1.917.558 2.613 1.123 1.144.927 1.748 2.134 1.748 3.506 0 .941-.272 1.777-.84 2.572-.26.361-.996 1.036-1.4 1.284a5.9 5.9 0 0 1-2.061.759 6.5 6.5 0 0 1-1.98-.033c-.48-.091-.933-.226-.913-.274.008-.018 1.08-.984 2.385-2.156 1.3-1.167 2.369-2.134 2.369-2.148s-.48-.46-1.069-.989a968 968 0 0 1-2.396-2.163l-1.325-1.193.364-.106a7.4 7.4 0 0 1 1.225-.237c.256-.022.976.007 1.28.055m-3.02 3.079 1.72 1.55-1.72 1.547c-.945.854-1.733 1.55-1.745 1.554-.013 0-.8-.7-1.749-1.561L7.951 6.726 9.68 5.183c.948-.847 1.733-1.54 1.749-1.54.011 0 .8.7 1.744 1.55m21.489 8.553c-4.043 0-6.374-2.704-6.374-6.648S30.618.451 34.662.451c3.108 0 5.195 1.604 5.991 4.121l-1.984.505c-.534-1.781-1.872-2.863-4.007-2.863-2.864 0-4.296 1.96-4.305 4.884-.02 2.925 1.441 4.884 4.305 4.884 2.135 0 3.473-1.081 4.007-2.863l1.984.505c-.796 2.517-2.883 4.122-5.99 4.122m14.582-4.973c0-1.489-.402-3.368-2.555-3.368-1.404 0-2.565.825-2.565 3.094v4.98h-1.984V.718h1.75V5.05c.74-.878 1.872-1.4 3.342-1.4 3.482 0 3.997 3.03 3.997 4.51v5.319h-1.985zm6.716 4.973c-2.237 0-3.416-1.312-3.416-2.872 0-1.445.823-2.367 2.386-2.836 1.17-.328 2.837-.532 4.475-.745-.066-1.32-.702-1.94-2.284-1.94-1.067 0-2.04.442-2.387 1.506l-1.825-.532c.486-1.64 1.89-2.686 4.23-2.686 1.807 0 3.211.568 3.838 1.826.319.63.356 1.321.356 2.119v5.894h-1.732v-1.392c-.833 1.126-2.003 1.658-3.64 1.658m-1.479-2.89c0 .745.571 1.374 1.825 1.374 1.667 0 2.65-.966 2.874-1.897.16-.443.197-1.054.206-1.498-1.526.213-2.658.364-3.51.603-.805.257-1.395.665-1.395 1.418m8.907-8.517v-1.8h1.957v1.8zm0 11.14V3.908h1.957v9.573zm11.301-4.706c0-1.489-.402-3.368-2.555-3.368-1.404 0-2.565.825-2.565 3.094v4.98h-1.984V3.908h1.75v1.144c.74-.878 1.872-1.4 3.342-1.4 3.482 0 3.996 3.03 3.996 4.51v5.319h-1.984zm8.747 4.973c-2.911 0-5.073-1.498-5.513-3.927l2.04-.292C80.377 11.096 81.8 12 83.55 12c1.62 0 3.014-.763 3.014-2.039 0-.922-.701-1.391-1.694-1.675l-3.454-.966c-1.348-.372-2.967-1.135-2.967-3.2 0-2.366 2.115-3.67 4.83-3.66 2.733.026 4.68 1.391 5.233 3.74l-2.097.337c-.29-1.445-1.62-2.305-3.164-2.323-1.507-.026-2.733.727-2.733 1.817 0 1.064 1.142 1.445 2.096 1.693l2.49.665c1.245.328 3.501.957 3.501 3.448 0 2.57-2.387 3.909-5.167 3.909m6.787-11.407v-1.8h1.957v1.8zm0 11.14V3.908h1.957v9.573zM98.597 18c-1.63 0-3.183-.727-4.007-2.092l1.807-.868c.44.815 1.32 1.179 2.218 1.179 1.666 0 2.64-.851 2.612-2.5v-.904c-.712.594-1.638.93-2.78.93-2.818 0-4.578-2.188-4.578-5.06 0-2.89 1.77-5.044 4.615-5.044 1.254 0 2.256.417 2.977 1.126v-.86h1.731v9.83c0 .514-.028.966-.131 1.418-.421 1.941-2.106 2.845-4.465 2.845m-2.65-9.315c0 1.896.89 3.385 2.771 3.385 1.928 0 2.743-1.4 2.743-3.385 0-1.986-.833-3.368-2.677-3.368-1.947 0-2.837 1.489-2.837 3.368m16.408.088c0-1.489-.402-3.368-2.555-3.368-1.404 0-2.565.825-2.565 3.094v4.98h-1.984V.718H107V5.05c.74-.878 1.872-1.4 3.342-1.4 3.482 0 3.997 3.03 3.997 4.51v5.319h-1.985zM122 13.48c-1.9.354-3.856.168-4.596-1.161-.44-.79-.374-1.56-.374-2.606V5.396h-1.938V3.907h1.938V1.248h1.965v2.66H122v1.488h-3.005v4.228c0 .771-.037 1.33.206 1.72.45.726 1.479.753 2.799.567z"/></svg>