<svg width="23" height="14" viewBox="0 0 23 14" fill="none" xmlns="http://www.w3.org/2000/svg">
<path d="M6.71505 0.0351009C3.79014 0.316009 1.28536 2.12915 0.373072 4.62814C-0.331148 6.55437 -0.0270529 8.70313 1.18933 10.3922C2.34569 11.9938 4.12624 13.0481 6.25091 13.3874C6.90311 13.4895 7.97544 13.5005 8.63965 13.4056C9.48391 13.2852 10.4602 12.9897 11.1604 12.6395L11.4165 12.5082L11.9207 12.7416C14.0854 13.7267 16.6141 13.7267 18.7788 12.7344C20.8195 11.8004 22.2679 10.0675 22.724 8.01363C22.8041 7.65246 22.8161 7.49559 22.8161 6.74407C22.8161 5.99255 22.8041 5.83568 22.724 5.47451C22.2599 3.38046 20.7954 1.64759 18.6948 0.706362C16.5581 -0.253105 13.9493 -0.22392 11.8447 0.775677L11.4325 0.972678L10.9364 0.746491C9.65197 0.15549 8.1435 -0.0998812 6.71505 0.0351009ZM8.02746 2.07442C8.4636 2.1182 9.07979 2.24589 9.35187 2.35533L9.51993 2.421L7.12718 4.56977C5.80677 5.74812 4.73043 6.72583 4.73043 6.74042C4.73043 6.75137 5.80677 7.72907 7.12318 8.91473L9.51993 11.0635L9.34387 11.1328C9.05978 11.2423 8.39958 11.3736 7.94343 11.4101C6.96313 11.4867 6.01483 11.3189 5.11855 10.9066C3.6781 10.2427 2.72181 9.09713 2.36569 7.60139C2.28167 7.23657 2.26966 6.36831 2.34569 5.97796C2.7058 4.12104 4.20227 2.66542 6.2269 2.19846C6.8591 2.05253 7.38726 2.01605 8.02746 2.07442ZM16.194 2.11455C17.1303 2.24953 18.1106 2.67272 18.8068 3.23819C19.9512 4.16482 20.5554 5.37236 20.5554 6.74407C20.5554 7.6853 20.2833 8.52073 19.7151 9.31602C19.455 9.67719 18.7188 10.3521 18.3147 10.6002C17.7065 10.9723 16.9703 11.2423 16.254 11.359C15.6979 11.4502 14.8456 11.4393 14.2734 11.3262C13.7933 11.235 13.3411 11.1 13.3611 11.0525C13.3691 11.0343 14.4415 10.0675 15.7459 8.89649C17.0463 7.72907 18.1146 6.76231 18.1146 6.74772C18.1146 6.73313 17.6345 6.28805 17.0463 5.75907C16.4541 5.22643 15.3778 4.25602 14.6495 3.59571L13.3251 2.40276L13.6892 2.29696C14.0533 2.19116 14.5735 2.08902 14.9136 2.05983C15.1697 2.03794 15.8899 2.06713 16.194 2.11455ZM13.1731 5.1936L14.8936 6.74407L13.1731 8.29089C12.2288 9.14456 11.4405 9.84136 11.4285 9.84501C11.4165 9.84501 10.6283 9.14456 9.67998 8.28359L7.95144 6.72583L9.67998 5.18266C10.6283 4.33628 11.4125 3.64313 11.4285 3.64313C11.4405 3.64313 12.2288 4.34358 13.1731 5.1936Z" fill="white"/>
</svg>
