<svg width="77" height="20" viewBox="0 0 77 20" fill="none" xmlns="http://www.w3.org/2000/svg">
<mask id="mask0_462_5350" style="mask-type:luminance" maskUnits="userSpaceOnUse" x="0" y="0" width="77" height="20">
<path d="M76.5 0H0.5V20H76.5V0Z" fill="white"/>
</mask>
<g mask="url(#mask0_462_5350)">
<path d="M6.79315 9.65158H0.5L7.12087 6.58495L10.1856 0L10.1928 6.2557C10.1952 8.13025 8.67248 9.65392 6.79077 9.65392L6.79315 9.65158Z" fill="#B0B0B5"/>
<path d="M14.2669 9.65158H20.5602L13.9392 6.58495L10.8746 0L10.8674 6.2557C10.865 8.13025 12.3877 9.65392 14.2694 9.65392L14.2669 9.65158Z" fill="#B0B0B5"/>
<path d="M14.2669 10.3486H20.5602L13.9392 13.4152L10.8746 20.0001L10.8674 13.7444C10.865 11.8699 12.3877 10.3462 14.2694 10.3462L14.2669 10.3486Z" fill="#B0B0B5"/>
<path d="M6.79315 10.3486H0.5L7.12087 13.4152L10.1856 20.0001L10.1928 13.7444C10.1952 11.8699 8.67248 10.3462 6.79077 10.3462L6.79315 10.3486Z" fill="#B0B0B5"/>
<path d="M31.5224 14.3763V16.4383H24.0078V3.32129H26.1689V14.3763H31.5224Z" fill="#B0B0B5"/>
<path d="M32.9295 12.0884V3.32129H35.0907V11.9587C35.0907 13.4943 35.9725 14.583 37.9072 14.583C39.8419 14.583 40.7261 13.4968 40.7261 11.9587V3.32129H42.8873V12.0908C42.8873 14.9194 40.7839 16.681 37.9096 16.681C35.0352 16.681 32.932 14.9194 32.932 12.0908L32.9295 12.0884Z" fill="#B0B0B5"/>
<path d="M57.9144 16.4359H55.7535V7.08721L51.7513 13.6818H51.4889L47.4869 7.06801V16.4359H45.3257V3.32129H47.6555L51.6191 9.87976L55.6015 3.32129H57.9119V16.4383L57.9144 16.4359Z" fill="#B0B0B5"/>
<path d="M62.6342 3.32129V16.4383H60.4733V3.32129H62.6342Z" fill="#B0B0B5"/>
<path d="M73.2498 13.7947H67.6531L66.7325 16.4359H64.3836L69.1539 3.31885H71.7465L76.5 16.4359H74.1704L73.2498 13.7947ZM72.5369 11.7711L70.4524 5.84947L68.3685 11.7711H72.5394H72.5369Z" fill="#B0B0B5"/>
</g>
</svg>
