<svg width="198" height="100" viewBox="0 0 198 100" fill="none" xmlns="http://www.w3.org/2000/svg">
<path d="M0 50C0 22.3858 22.3858 0 50 0C77.6142 0 100 22.3858 100 50C100 77.6142 77.6142 100 50 100C22.3858 100 0 77.6142 0 50Z" fill="black"/>
<path d="M50.5796 60.0538V21.067L50.6211 20.9197L67.2611 49.7556L50.5796 60.0538Z" stroke="#8DDF4F"/>
<path d="M49.5796 59.828L32.9044 49.7539L49.5796 21.4751V41.6302V59.828Z" stroke="#8DDF4F"/>
<path d="M50.5796 77.3032V64.4969L50.6284 64.437L66.1764 55.1988L50.5796 77.3032Z" stroke="#8DDF4F"/>
<path d="M33.9936 55.1906L49.5796 64.3388V77.0111L33.9936 55.1906Z" stroke="#8DDF4F"/>
<path d="M50.5796 41.8646L66.8977 49.6674L50.5796 59.8144V41.8646Z" stroke="#8DDF4F"/>
<path d="M49.5796 41.8646V59.8144L33.2616 49.6674L49.5796 41.8646Z" stroke="#8DDF4F"/>
<path d="M49 50C49 22.3858 71.3858 0 99 0C126.614 0 149 22.3858 149 50C149 77.6142 126.614 100 99 100C71.3858 100 49 77.6142 49 50Z" fill="#262626"/>
<g clip-path="url(#clip0_462_5460)">
<path d="M84.7403 58.3917C84.9086 58.2234 85.1409 58.1245 85.3882 58.1245H119.937C120.123 58.1245 120.216 58.348 120.084 58.4792L113.259 65.3041C113.091 65.4723 112.859 65.5713 112.612 65.5713H78.0626C77.8765 65.5713 77.7843 65.3477 77.9154 65.2166L84.7403 58.3917Z" stroke="#8DDF4F"/>
<path d="M77.9148 39.7349L84.7358 32.914C84.9204 32.7382 85.1563 32.6428 85.3876 32.6428H119.937C120.123 32.6428 120.215 32.8664 120.084 32.9975L113.259 39.8224C113.091 39.9907 112.858 40.0896 112.611 40.0896H78.062C77.8759 40.0896 77.7837 39.8661 77.9148 39.7349Z" stroke="#8DDF4F"/>
<path d="M112.612 45.302C112.859 45.302 113.091 45.4009 113.259 45.5692L120.084 52.3941C120.216 52.5252 120.123 52.7488 119.937 52.7488H85.3882C85.1409 52.7488 84.9086 52.6498 84.7403 52.4816L77.9154 45.6567C77.7843 45.5255 77.8765 45.302 78.0626 45.302H112.612Z" stroke="#8DDF4F"/>
</g>
<path d="M98 50C98 22.3858 120.386 0 148 0C175.614 0 198 22.3858 198 50C198 77.6142 175.614 100 148 100C120.386 100 98 77.6142 98 50Z" fill="#6A6A6A"/>
<g clip-path="url(#clip1_462_5460)">
<path d="M152.973 38.6235L152.973 38.6228C157.291 34.6044 161.306 32.6428 164.898 32.6428C173.663 32.6428 180.816 40.0259 180.834 49.1459C180.834 50.4619 180.67 51.7451 180.394 52.978C180.349 53.171 179.862 54.9174 178.199 56.6116C176.546 58.2955 173.695 59.967 168.842 59.967C168.12 59.967 167.365 59.8519 166.604 59.6524C171.503 58.7621 175.23 54.3563 175.23 49.1071C175.23 43.2055 170.607 38.3983 164.879 38.3983C163.248 38.3983 160.603 39.2256 156.689 42.8916C154.766 44.6754 153.099 46.6273 151.859 48.1615C150.845 47.0126 149.892 45.9256 149.167 45.096C148.758 44.6281 148.421 44.2421 148.187 43.9731L148.096 43.8687C149.38 42.2957 151.072 40.3845 152.973 38.6235Z" stroke="#8DDF4F"/>
<path d="M142.348 59.9575C137.989 64.0146 133.857 66.0715 130.083 66.0715C121.006 66.0715 113.647 58.4479 113.647 49.0695C113.647 47.7108 113.817 46.3899 114.1 45.1256C114.213 44.6161 116.176 37.7285 126.139 37.7474L142.348 59.9575ZM142.348 59.9575C144.405 58.0517 146.217 55.9759 147.538 54.3342L142.348 59.9575ZM142.009 59.5908L142.008 59.5915C137.69 63.6099 133.675 65.5715 130.083 65.5715C121.298 65.5715 114.147 58.1881 114.147 49.0695C114.147 47.7525 114.312 46.4684 114.588 45.2348L114.588 45.2341C114.63 45.0439 115.114 43.2879 116.782 41.5886C118.435 39.905 121.286 38.2382 126.138 38.2474H126.139C126.861 38.2474 127.616 38.3624 128.378 38.5619C123.478 39.4522 119.751 43.858 119.751 49.1072C119.751 55.0088 124.375 59.816 130.102 59.816C131.716 59.816 134.38 58.949 138.292 55.3237L138.292 55.3235C140.214 53.5395 141.882 51.5872 143.122 50.0528C144.136 51.2017 145.089 52.2887 145.814 53.1183C146.223 53.5862 146.56 53.9723 146.794 54.2412L146.885 54.3456C145.601 55.9186 143.909 57.8298 142.009 59.5908Z" stroke="#8DDF4F"/>
<path d="M138.017 43.05L138.016 43.0486C137.44 42.493 135.805 41.1243 133.666 39.8726C131.533 38.6247 128.843 37.4587 126.173 37.3796L126.17 37.3795C121.485 37.2629 118.42 38.9104 116.495 40.7259C116.447 40.7713 116.4 40.8167 116.353 40.8622C119.12 35.9723 124.258 32.6719 130.103 32.6428C133.085 32.6432 136.139 34.1117 139.066 36.3229C141.985 38.5287 144.722 41.4307 147.061 44.2026L147.412 44.6183L147.437 44.5938L147.452 44.6109C147.686 44.8803 148.023 45.2668 148.433 45.7352C149.251 46.6713 150.359 47.9349 151.519 49.246L151.524 49.2514L151.547 49.2786L151.636 49.3833C151.715 49.4745 151.83 49.6077 151.976 49.7759C152.269 50.1124 152.688 50.5893 153.195 51.1519C154.209 52.2764 155.575 53.7472 156.981 55.1253L156.984 55.1279C157.561 55.6846 159.192 57.0394 161.326 58.2766C163.455 59.5105 166.14 60.6612 168.808 60.7403L168.809 60.7403C173.622 60.8764 176.732 59.1405 178.654 57.2732C178.688 57.2402 178.722 57.2071 178.755 57.174C176.014 62.1487 170.83 65.5042 164.916 65.5337C161.934 65.5334 158.88 64.0649 155.951 61.8535C153.029 59.6476 150.287 56.7454 147.938 53.9731L147.057 52.933V53.0204C146.909 52.8509 146.745 52.6632 146.567 52.4601C145.753 51.5283 144.651 50.2719 143.497 48.9671C143.497 48.967 143.497 48.9669 143.497 48.9669C143.487 48.9544 143.476 48.9404 143.466 48.9276C143.444 48.9006 143.413 48.863 143.374 48.8167C143.297 48.7233 143.182 48.5884 143.037 48.419C142.746 48.0799 142.327 47.6001 141.82 47.0348C140.806 45.9049 139.434 44.4288 138.017 43.05Z" stroke="#8DDF4F"/>
</g>
<defs>
<clipPath id="clip0_462_5460">
<rect width="43.2897" height="33.9286" fill="white" transform="translate(77.3552 32.1428)"/>
</clipPath>
<clipPath id="clip1_462_5460">
<rect width="67.7062" height="33.9286" fill="white" transform="translate(113.647 32.1428)"/>
</clipPath>
</defs>
</svg>
