<svg width="101" height="14" viewBox="0 0 101 14" fill="none" xmlns="http://www.w3.org/2000/svg">
<mask id="mask0_462_5334" style="mask-type:luminance" maskUnits="userSpaceOnUse" x="0" y="0" width="101" height="14">
<path d="M100.5 0H0.5V14H100.5V0Z" fill="white"/>
</mask>
<g mask="url(#mask0_462_5334)">
<path d="M5.71664 13.668C4.92914 13.668 4.19789 13.5622 3.52289 13.3507C2.84789 13.1392 2.27914 12.8218 1.81664 12.3987C1.35414 11.9756 1.02289 11.4467 0.822889 10.812C0.635389 10.1773 0.610389 9.4369 0.747889 8.5907C0.847889 8.05558 0.954138 7.52047 1.06664 6.98536C1.19164 6.45025 1.31664 5.90891 1.44164 5.36136C1.85414 3.68136 2.59789 2.40581 3.67289 1.5347C4.74789 0.663583 6.19789 0.228027 8.02289 0.228027C8.81039 0.228027 9.53539 0.340027 10.1979 0.564027C10.8729 0.775583 11.4417 1.09914 11.9041 1.5347C12.3792 1.97025 12.7104 2.50536 12.8979 3.14003C13.0978 3.7747 13.1229 4.51514 12.9729 5.36136C12.8854 5.90891 12.7792 6.45025 12.6541 6.98536C12.5417 7.52047 12.4229 8.05558 12.2978 8.5907C11.8729 10.2956 11.1229 11.5712 10.0478 12.4173C8.97289 13.2512 7.52914 13.668 5.71664 13.668ZM5.96039 10.98C6.63539 10.98 7.22914 10.7809 7.74164 10.3827C8.25414 9.98449 8.61664 9.34982 8.82914 8.4787C8.96664 7.93114 9.08539 7.4147 9.18539 6.92936C9.29789 6.44403 9.39789 5.94003 9.48539 5.41736C9.64789 4.54625 9.57289 3.91158 9.26039 3.51336C8.94789 3.11514 8.45414 2.91603 7.77914 2.91603C7.10414 2.91603 6.51039 3.11514 5.99789 3.51336C5.49789 3.91158 5.14164 4.54625 4.92914 5.41736C4.79164 5.94003 4.66664 6.44403 4.55414 6.92936C4.45414 7.4147 4.35414 7.93114 4.25414 8.4787C4.10414 9.34982 4.17914 9.98449 4.47914 10.3827C4.77914 10.7809 5.27289 10.98 5.96039 10.98ZM14.9588 13.4813C14.8337 13.4813 14.7337 13.4378 14.6588 13.3507C14.5837 13.2636 14.5588 13.1516 14.5837 13.0147L17.1713 0.881361C17.1963 0.744472 17.265 0.632472 17.3776 0.545361C17.49 0.45825 17.6088 0.414693 17.7337 0.414693H22.7213C23.4837 0.414693 24.1713 0.501805 24.7837 0.676027C25.4088 0.85025 25.9276 1.11781 26.34 1.4787C26.7525 1.83958 27.04 2.29381 27.2025 2.84136C27.365 3.37647 27.3713 4.00491 27.2213 4.7267C26.9088 6.15781 26.2713 7.21558 25.3088 7.90003C24.3588 8.58447 23.0776 8.9267 21.465 8.9267H18.9337L18.0713 13.0147C18.0463 13.1516 17.9776 13.2636 17.865 13.3507C17.765 13.4378 17.6463 13.4813 17.5088 13.4813H14.9588ZM19.4213 6.3507H21.5776C22.09 6.3507 22.5463 6.21381 22.9463 5.94003C23.3588 5.66625 23.6276 5.24936 23.7525 4.68936C23.815 4.36581 23.8276 4.07958 23.79 3.8307C23.7525 3.58181 23.6213 3.3827 23.3963 3.23336C23.1837 3.08403 22.8525 3.00936 22.4025 3.00936H20.1525L19.4213 6.3507ZM30.6859 13.4813C30.5484 13.4813 30.4421 13.4378 30.3672 13.3507C30.2921 13.2636 30.2672 13.1516 30.2921 13.0147L32.3734 3.34536H29.0359C28.9109 3.34536 28.8109 3.30181 28.7359 3.2147C28.6609 3.11514 28.6359 3.00314 28.6609 2.8787L29.0921 0.881361C29.1172 0.744472 29.1796 0.632472 29.2796 0.545361C29.3922 0.45825 29.5172 0.414693 29.6547 0.414693H39.7422C39.8796 0.414693 39.9796 0.45825 40.0422 0.545361C40.1172 0.632472 40.1422 0.744472 40.1172 0.881361L39.6859 2.8787C39.6609 3.00314 39.5921 3.11514 39.4796 3.2147C39.3796 3.30181 39.2609 3.34536 39.1234 3.34536H35.7859L33.7235 13.0147C33.6984 13.1516 33.6296 13.2636 33.5172 13.3507C33.4172 13.4378 33.2984 13.4813 33.1609 13.4813H30.6859ZM40.51 13.4813C40.3725 13.4813 40.2663 13.4378 40.1913 13.3507C40.1163 13.2636 40.0913 13.1516 40.1163 13.0147L42.7225 0.881361C42.7476 0.744472 42.8163 0.632472 42.9288 0.545361C43.0413 0.45825 43.16 0.414693 43.285 0.414693H45.8163C45.9413 0.414693 46.0413 0.45825 46.1163 0.545361C46.1913 0.632472 46.2163 0.744472 46.1913 0.881361L43.585 13.0147C43.56 13.1516 43.4913 13.2636 43.3788 13.3507C43.2788 13.4378 43.1663 13.4813 43.0413 13.4813H40.51ZM48.2017 13.4813C48.0641 13.4813 47.9579 13.4378 47.8829 13.3507C47.8078 13.2636 47.7829 13.1516 47.8078 13.0147L50.3954 0.881361C50.4204 0.744472 50.4892 0.632472 50.6017 0.545361C50.7141 0.45825 50.8392 0.414693 50.9766 0.414693H53.0015C53.2015 0.414693 53.3391 0.470693 53.414 0.582694C53.5015 0.68225 53.5578 0.763139 53.5828 0.825361L55.6078 6.72403L60.1828 0.825361C60.2203 0.763139 60.2953 0.68225 60.4078 0.582694C60.5328 0.470693 60.6953 0.414693 60.8953 0.414693H62.9203C63.0578 0.414693 63.164 0.45825 63.2391 0.545361C63.314 0.632472 63.3391 0.744472 63.314 0.881361L60.7265 13.0147C60.7015 13.1516 60.6328 13.2636 60.5203 13.3507C60.4078 13.4378 60.2828 13.4813 60.1453 13.4813H57.8953C57.7703 13.4813 57.6703 13.4378 57.5953 13.3507C57.5203 13.2636 57.4953 13.1516 57.5203 13.0147L58.9828 6.1267L56.114 9.91599C56.0265 10.0156 55.9203 10.1152 55.7953 10.2147C55.6828 10.3018 55.5391 10.3453 55.364 10.3453H54.3891C54.214 10.3453 54.0891 10.3018 54.014 10.2147C53.9391 10.1276 53.8828 10.028 53.8453 9.91599L52.5141 5.9587L50.9954 13.0147C50.9704 13.1516 50.9017 13.2636 50.7892 13.3507C50.6892 13.4378 50.5766 13.4813 50.4517 13.4813H48.2017ZM64.7417 13.4813C64.6041 13.4813 64.4979 13.4378 64.4229 13.3507C64.3479 13.2636 64.3229 13.1516 64.3479 13.0147L66.9541 0.881361C66.9792 0.744472 67.0479 0.632472 67.1604 0.545361C67.2729 0.45825 67.3917 0.414693 67.5166 0.414693H70.0479C70.1729 0.414693 70.2729 0.45825 70.3479 0.545361C70.4229 0.632472 70.4479 0.744472 70.4229 0.881361L67.8166 13.0147C67.7917 13.1516 67.7229 13.2636 67.6104 13.3507C67.5104 13.4378 67.3979 13.4813 67.2729 13.4813H64.7417ZM76.5958 13.668C75.3458 13.668 74.3208 13.4938 73.5208 13.1453C72.7333 12.7969 72.1646 12.3365 71.8146 11.764C71.4771 11.1792 71.3583 10.5632 71.4583 9.91599C71.4833 9.81649 71.5333 9.72932 71.6083 9.65465C71.6958 9.56757 71.7958 9.52398 71.9083 9.52398H74.3083C74.4833 9.52398 74.6083 9.55516 74.6833 9.61732C74.7583 9.67957 74.8333 9.76049 74.9083 9.85998C74.9583 10.0467 75.0583 10.2272 75.2083 10.4013C75.3583 10.5756 75.5646 10.7187 75.8271 10.8307C76.1021 10.9302 76.4395 10.98 76.8395 10.98C77.5646 10.98 78.1458 10.868 78.5833 10.644C79.0208 10.42 79.2771 10.1152 79.3521 9.72932C79.4271 9.45557 79.3771 9.23158 79.2021 9.05736C79.0395 8.8707 78.7458 8.70891 78.3208 8.57203C77.9083 8.4227 77.3521 8.27336 76.6521 8.12403C75.7395 7.92491 74.9895 7.65114 74.4021 7.3027C73.8146 6.94181 73.4021 6.48758 73.1646 5.94003C72.9395 5.38003 72.9083 4.71425 73.0708 3.9427C73.3208 2.79781 73.9395 1.89558 74.9271 1.23603C75.9146 0.564027 77.1958 0.228027 78.7708 0.228027C79.5833 0.228027 80.3021 0.340027 80.9271 0.564027C81.5646 0.788027 82.0958 1.0867 82.5208 1.46003C82.9458 1.83336 83.2521 2.23158 83.4395 2.6547C83.6271 3.06536 83.6895 3.46981 83.6271 3.86803C83.6146 3.96758 83.5646 4.06091 83.4771 4.14803C83.3895 4.2227 83.2895 4.26003 83.1771 4.26003H80.6646C80.5395 4.26003 80.4271 4.23514 80.3271 4.18536C80.2395 4.13558 80.1646 4.0547 80.1021 3.9427C80.1021 3.66891 79.9583 3.43247 79.6708 3.23336C79.3833 3.02181 79.0021 2.91603 78.5271 2.91603C77.9895 2.91603 77.5395 3.01558 77.1771 3.2147C76.8146 3.40136 76.5895 3.69381 76.5021 4.09203C76.4395 4.34091 76.4708 4.5587 76.5958 4.74536C76.7333 4.93203 76.9834 5.09381 77.3458 5.2307C77.7208 5.36758 78.2333 5.5107 78.8833 5.66003C79.9833 5.87158 80.8458 6.15781 81.4708 6.5187C82.0958 6.86714 82.5146 7.30891 82.7271 7.84403C82.9521 8.37914 82.9833 9.03247 82.8208 9.80398C82.5458 11.0733 81.8771 12.0378 80.8146 12.6973C79.7646 13.3445 78.3583 13.668 76.5958 13.668ZM85.1292 13.4813C84.9917 13.4813 84.8854 13.4378 84.8104 13.3507C84.7354 13.2636 84.7104 13.1516 84.7354 13.0147L87.3229 0.881361C87.3479 0.744472 87.4166 0.632472 87.5292 0.545361C87.6417 0.45825 87.7666 0.414693 87.9041 0.414693H89.9292C90.1292 0.414693 90.2666 0.470693 90.3417 0.582694C90.4292 0.68225 90.4854 0.763139 90.5104 0.825361L92.5354 6.72403L97.1103 0.825361C97.1477 0.763139 97.2224 0.68225 97.3355 0.582694C97.4607 0.470693 97.6234 0.414693 97.8224 0.414693H99.8477C99.9851 0.414693 100.092 0.45825 100.166 0.545361C100.242 0.632472 100.266 0.744472 100.242 0.881361L97.6542 13.0147C97.629 13.1516 97.5608 13.2636 97.4477 13.3507C97.3355 13.4378 97.2103 13.4813 97.0729 13.4813H94.8224C94.6981 13.4813 94.5981 13.4378 94.5224 13.3507C94.4477 13.2636 94.4234 13.1516 94.4477 13.0147L95.9103 6.1267L93.0417 9.91599C92.9541 10.0156 92.8479 10.1152 92.7229 10.2147C92.6104 10.3018 92.4666 10.3453 92.2917 10.3453H91.3166C91.1417 10.3453 91.0166 10.3018 90.9417 10.2147C90.8666 10.1276 90.8104 10.028 90.7729 9.91599L89.4417 5.9587L87.9229 13.0147C87.8979 13.1516 87.8292 13.2636 87.7166 13.3507C87.6166 13.4378 87.5041 13.4813 87.3792 13.4813H85.1292Z" fill="#B0B0B5"/>
</g>
</svg>
