<svg width="26" height="26" viewBox="0 0 26 26" fill="none" xmlns="http://www.w3.org/2000/svg">
<path d="M6.33333 11.6667V17C6.33333 17.7072 6.61428 18.3855 7.11438 18.8856C7.61448 19.3857 8.29276 19.6667 9 19.6667H14.3333M3.66667 1L9 1C10.4728 1 11.6667 2.19391 11.6667 3.66667V9C11.6667 10.4728 10.4728 11.6667 9 11.6667H3.66667C2.19391 11.6667 1 10.4728 1 9L1 3.66667C1 2.19391 2.19391 1 3.66667 1ZM17 14.3333H22.3333C23.8061 14.3333 25 15.5272 25 17V22.3333C25 23.8061 23.8061 25 22.3333 25H17C15.5272 25 14.3333 23.8061 14.3333 22.3333V17C14.3333 15.5272 15.5272 14.3333 17 14.3333Z" stroke="#FEFCE8" stroke-width="2" stroke-linecap="round" stroke-linejoin="round"/>
</svg>
