<svg width="86" height="20" viewBox="0 0 86 20" fill="none" xmlns="http://www.w3.org/2000/svg">
<mask id="mask0_462_5364" style="mask-type:luminance" maskUnits="userSpaceOnUse" x="0" y="0" width="86" height="20">
<path d="M85.5 0H0.5V20H85.5V0Z" fill="white"/>
</mask>
<g mask="url(#mask0_462_5364)">
<path d="M32.0381 4.35645C33.6111 4.35645 34.921 4.9158 35.9697 6.03569C37.0182 7.15554 37.5424 8.55219 37.5424 10.2257C37.5424 11.8991 37.0182 13.2958 35.9697 14.4156C34.921 15.5355 33.6111 16.0949 32.0381 16.0949C30.6628 16.0949 29.5161 15.6332 28.5984 14.7109V19.9999H25.3337V4.62521H28.5984V5.74164C29.5161 4.81932 30.6628 4.35759 32.0381 4.35759V4.35645ZM29.3959 12.2C29.9272 12.7296 30.5938 12.9937 31.3937 12.9937C32.1935 12.9937 32.8602 12.7296 33.3915 12.2C33.9227 11.6705 34.189 11.0124 34.189 10.2257C34.189 9.43887 33.9227 8.7807 33.3915 8.25124C32.8602 7.72174 32.1935 7.45759 31.3937 7.45759C30.5938 7.45759 29.9272 7.72174 29.3959 8.25124C28.8646 8.7807 28.5984 9.43887 28.5984 10.2257C28.5984 11.0124 28.8635 11.6705 29.3959 12.2Z" fill="#B0B0B5"/>
<path d="M38.3456 15.8262V0H41.6102V15.8262H38.3456Z" fill="#B0B0B5"/>
<path d="M48.2212 16.0946C46.5981 16.0946 45.2927 15.6605 44.3062 14.791C43.3194 13.9216 42.8268 12.7718 42.8268 11.3419V4.625H46.0914V10.9019C46.0914 11.5314 46.2865 12.0379 46.6752 12.4203C47.0639 12.8028 47.5802 12.9947 48.2199 12.9947C48.8598 12.9947 49.3736 12.8028 49.7601 12.4203C50.1454 12.0379 50.3392 11.5314 50.3392 10.9019V4.625H53.6037V11.3419C53.6037 12.7729 53.1146 13.9227 52.1351 14.791C51.1557 15.6605 49.8512 16.0946 48.2199 16.0946H48.2212Z" fill="#B0B0B5"/>
<path d="M68.6469 4.35662C69.9279 4.35662 70.953 4.73564 71.7214 5.49368C72.4899 6.25178 72.874 7.25678 72.874 8.50868V15.8262H69.6089V9.47459C69.6089 8.86703 69.4295 8.37893 69.0684 8.01023C68.7074 7.64153 68.2254 7.45778 67.6219 7.45778C67.0184 7.45778 66.4859 7.64728 66.0934 8.02628C65.7 8.40533 65.5039 8.90268 65.5039 9.51711V15.8262H62.2389V9.47459C62.2389 8.86703 62.0569 8.37893 61.6925 8.01023C61.3284 7.64153 60.8449 7.45778 60.2399 7.45778C59.6355 7.45778 59.104 7.64728 58.7114 8.02628C58.3184 8.40533 58.1219 8.90268 58.1219 9.51711V15.8262H54.8574V4.62423H58.1219V5.69698C58.9664 4.80341 60.0475 4.35547 61.3654 4.35547C62.1304 4.35547 62.8114 4.50708 63.4079 4.81145C64.0045 5.11583 64.4854 5.54308 64.8489 6.09328C65.7804 4.93435 67.0475 4.35547 68.6479 4.35547L68.6469 4.35662Z" fill="#B0B0B5"/>
<path d="M85.4999 10.2682C85.4999 10.6541 85.4775 10.9906 85.4344 11.2766H76.9389C77.1435 11.906 77.503 12.3999 78.0199 12.7571C78.5375 13.1155 79.1515 13.2935 79.8649 13.2935C80.4769 13.2935 81.0339 13.1752 81.536 12.9397C82.038 12.7043 82.435 12.4068 82.7254 12.0496L84.9204 13.916C84.3019 14.6028 83.549 15.1369 82.66 15.5205C81.772 15.9031 80.811 16.0949 79.7774 16.0949C77.9654 16.0949 76.4519 15.5285 75.24 14.3939C74.028 13.2602 73.4219 11.8497 73.4219 10.1613C73.4219 9.08165 73.686 8.09734 74.2135 7.21064C74.7414 6.32394 75.471 5.62679 76.4029 5.11794C77.3344 4.61029 78.368 4.35645 79.5045 4.35645C81.215 4.35645 82.6415 4.91811 83.7845 6.04139C84.928 7.16469 85.499 8.57399 85.499 10.2693L85.4999 10.2682ZM79.462 7.12449C78.8504 7.12449 78.3154 7.30484 77.8564 7.66664C77.3979 8.02844 77.0849 8.52004 76.918 9.14139H82.0389C81.857 8.51199 81.5369 8.01809 81.0779 7.66089C80.6194 7.30369 80.0809 7.12449 79.462 7.12449Z" fill="#B0B0B5"/>
<path fill-rule="evenodd" clip-rule="evenodd" d="M0.5 0.00145748V7.9395L3.38075 10.7764V2.83834L11.4106 2.86483L8.53135 0.0264963L0.501533 0L0.5 0.00145748ZM15.109 6.3506V13.5177L12.2283 10.6808V3.51372L15.109 6.3506ZM7.0774 14.2635H14.3516L11.4723 11.4252H4.19812L7.0774 14.2635ZM19.203 17.5153V10.3844L16.3223 7.5475V15.4856L8.29245 15.4591L11.1718 18.2974L18.4333 18.3214L19.9649 19.8301L20.9456 19.9683L20.7589 19.0481L19.203 17.5153Z" fill="#B0B0B5"/>
</g>
</svg>
