<svg width="30" height="30" viewBox="0 0 30 30" fill="none" xmlns="http://www.w3.org/2000/svg">
<path d="M7.01464 23H7.0013M12.348 23H12.3346M19.0013 12.3333V17.6667M22.7879 8.55996C22.2926 8.06409 21.7043 7.67071 21.0569 7.40231C20.4094 7.13392 19.7154 6.99577 19.0145 6.99577C18.3137 6.99577 17.6197 7.13392 16.9722 7.40231C16.3247 7.67071 15.7365 8.06409 15.2412 8.55996M26.5481 4.78676C24.5479 2.78789 21.8359 1.66504 19.0081 1.66504C16.1803 1.66504 13.4683 2.78789 11.4681 4.78676M4.33464 17.6667H25.668C27.1407 17.6667 28.3346 18.8606 28.3346 20.3333V25.6667C28.3346 27.1394 27.1407 28.3333 25.668 28.3333H4.33464C2.86188 28.3333 1.66797 27.1394 1.66797 25.6667L1.66797 20.3333C1.66797 18.8606 2.86188 17.6667 4.33464 17.6667Z" stroke="#FEFCE8" stroke-width="2" stroke-linecap="round" stroke-linejoin="round"/>
</svg>
