<svg width="116" height="99" viewBox="0 0 116 99" fill="none" xmlns="http://www.w3.org/2000/svg">
<path d="M87.1171 46.3928H108.322C109.317 46.3933 110.295 46.6406 111.164 47.111C112.033 47.5815 112.763 48.2596 113.286 49.0811C113.809 49.9025 114.107 50.84 114.151 51.8045C114.196 52.7691 113.986 53.7288 113.542 54.5925L101.666 77.6502C101.216 78.5239 100.541 79.2698 99.7058 79.8154C98.8709 80.3611 97.9048 80.688 96.9014 80.7644C95.8979 80.8408 94.8912 80.6641 93.9788 80.2515C93.0665 79.8389 92.2795 79.2044 91.6944 78.4095L79.2936 61.5795M1 86.0595H22.9523C25.1285 86.0742 27.2655 85.4983 29.1224 84.3969C30.9793 83.2956 32.4822 81.7124 33.4614 79.8261L41.8687 63.3928M1 97.3928V74.7262M89.1937 29.6927C90.5775 30.365 91.6296 31.5431 92.119 32.9679C92.6083 34.3928 92.4948 35.948 91.8034 37.2917L73.6694 72.4873C73.3264 73.1531 72.8517 73.7467 72.2722 74.2344C71.6928 74.722 71.0201 75.094 70.2925 75.3293C69.5649 75.5645 68.7967 75.6583 68.0317 75.6053C67.2668 75.5523 66.5201 75.3535 65.8343 75.0203L10.3988 48.0923C6.37231 46.1238 3.31312 42.6874 1.89069 38.535C0.468261 34.3826 0.798431 29.8524 2.80895 25.9357L10.8659 10.1257C11.8701 8.18327 13.2587 6.45188 14.9524 5.03041C16.6461 3.60893 18.6117 2.5252 20.737 1.84113C22.8623 1.15705 25.1056 0.886016 27.3388 1.04351C29.572 1.201 31.7513 1.78393 33.7524 2.75901L89.1937 29.6927Z" stroke="#FF7373" stroke-width="2" stroke-linecap="round" stroke-linejoin="round" stroke-dasharray="6 6"/>
</svg>
