<svg width="26" height="30" viewBox="0 0 26 30" fill="none" xmlns="http://www.w3.org/2000/svg">
<path d="M25 5.66699C25 7.87613 19.6274 9.66699 13 9.66699C6.37258 9.66699 1 7.87613 1 5.66699M25 5.66699C25 3.45785 19.6274 1.66699 13 1.66699C6.37258 1.66699 1 3.45785 1 5.66699M25 5.66699V24.3337C25 25.3945 23.7357 26.4119 21.4853 27.1621C19.2348 27.9122 16.1826 28.3337 13 28.3337C9.8174 28.3337 6.76516 27.9122 4.51472 27.1621C2.26428 26.4119 1 25.3945 1 24.3337L1 5.66699M1 15.0003C1 16.0612 2.26428 17.0786 4.51472 17.8288C6.76516 18.5789 9.8174 19.0003 13 19.0003C16.1826 19.0003 19.2348 18.5789 21.4853 17.8288C23.7357 17.0786 25 16.0612 25 15.0003" stroke="#FEFCE8" stroke-width="2" stroke-linecap="round" stroke-linejoin="round"/>
</svg>
