<svg width="32" height="32" viewBox="0 0 32 32" fill="none" xmlns="http://www.w3.org/2000/svg">
<path d="M28 6.66699C28 8.87613 22.6274 10.667 16 10.667C9.37258 10.667 4 8.87613 4 6.66699M28 6.66699C28 4.45785 22.6274 2.66699 16 2.66699C9.37258 2.66699 4 4.45785 4 6.66699M28 6.66699V25.3337C28 26.3945 26.7357 27.4119 24.4853 28.1621C22.2348 28.9122 19.1826 29.3337 16 29.3337C12.8174 29.3337 9.76516 28.9122 7.51472 28.1621C5.26428 27.4119 4 26.3945 4 25.3337L4 6.66699M4 16.0003C4 17.0612 5.26428 18.0786 7.51472 18.8288C9.76516 19.5789 12.8174 20.0003 16 20.0003C19.1826 20.0003 22.2348 19.5789 24.4853 18.8288C26.7357 18.0786 28 17.0612 28 16.0003" stroke="#FEFCE8" stroke-width="2" stroke-linecap="round" stroke-linejoin="round"/>
</svg>
