<svg xmlns="http://www.w3.org/2000/svg" width="70" height="20" fill="none"><path fill="#B0B0B5" d="M31.847 15.167H27l2.369-10.333h4.645q3.31.102 2.951 2.545-.386 1.68-1.988 2.29 1.502.714 1.28 2.342-.724 3.156-4.41 3.156m1.357-8.346h-1.767l-.478 2.086h1.77q1.225-.05 1.52-1.12.165-.968-1.045-.968zm-.73 4.071h-1.968l-.525 2.29h1.968q1.423-.048 1.732-1.17.143-1.07-1.208-1.122zm12.453 4.275h-7.76L39.56 4.834h7.607l-.498 2.138H41.72l-.46 1.984h4.595l-.484 2.087h-4.595l-.46 1.984h5.105zm5.932-10.333.432 7.383 3.684-7.384h2.692L51.83 15.168h-2.54L48.166 4.834zm11.983 0-.33 6.515-.154 1.322.51-1.322 2.672-6.515h3.96l-2.38 10.333h-2.439l1.526-6.617.439-1.684-.767 1.782-2.824 6.516h-2.49l.205-6.618.071-1.628-.31 1.58-1.537 6.669H56.5l2.382-10.333z"/><path fill="#B0B0B5" fill-opacity=".5" d="m9.16 0 2.144 1.346L9.64 6.98 7.496 5.634zM6.625 8.584 8.768 9.93l-2.094 7.094-2.144-1.346z"/><path fill="#B0B0B5" fill-opacity=".3" d="M12.64 2.985a1 1 0 0 0-.547-.153H9.017l2.145 1.347h3.075c.194-.002.385.05.55.153zm-2.428 5.599 2.144 1.346H8.768L6.624 8.584z"/><path fill="#B0B0B5" fill-opacity=".5" d="m11.852 5.634 2.144 1.346-1.64 2.95-2.144-1.346zm6.815-.516a4 4 0 0 0-.028-.339v-.01a4 4 0 0 0-.075-.416l-.03-.11a4 4 0 0 0-.087-.292l-.01-.038c-.013-.033-.029-.061-.04-.096a4 4 0 0 0-.314-.646c-.016-.026-.028-.055-.045-.08-.016-.027-.038-.057-.058-.086l-.049-.072a3 3 0 0 0-.2-.263l-.003-.003q-.131-.154-.277-.293l-.01-.012c-.043-.04-.089-.075-.133-.113-.043-.038-.094-.084-.143-.123l-.014-.011a4 4 0 0 0-.285-.2L14.716.57q.156.098.3.21.074.06.145.123.073.06.141.123a4 4 0 0 1 .48.56l.05.072q.053.082.102.166a4 4 0 0 1 .313.645l.051.134a3 3 0 0 1 .086.294q.017.053.03.108a4 4 0 0 1 .109.83 6 6 0 0 1 0 .352q.001.032-.004.065a4 4 0 0 1-.034.342q.001.018-.005.04a5 5 0 0 1-.087.435 4 4 0 0 1-.1.345q-.034.094-.072.191c-.024.064-.054.145-.086.218q-.038.084-.08.168a6 6 0 0 1-.141.28l-1.552 2.754-.332.536c.003 0 .01.013.019.024l.011.014.028.039.02.026.036.053.026.037.044.068.028.044.099.162.016.03a4 4 0 0 1 .12.225q.054.109.11.23l.011.03q.047.111.093.233l.03.083.04.115.033.109.062.238q.016.061.028.129l.024.123.02.136c.007.045.01.078.015.118q.019.157.024.322l2.144 1.346a4 4 0 0 0-.024-.322v-.034q-.005-.043-.012-.085l-.02-.135-.024-.123-.028-.128-.029-.115a6 6 0 0 0-.068-.232l-.038-.114-.015-.045-.016-.04a5 5 0 0 0-.093-.233l-.011-.028a5 5 0 0 0-.11-.232l-.028-.054a4 4 0 0 0-.091-.171l-.016-.028a4 4 0 0 0-.1-.165l-.008-.012-.019-.03-.044-.069-.026-.037-.037-.052-.02-.027-.027-.038-.011-.014-.02-.025.333-.536 1.546-2.75.062-.108c.03-.057.054-.114.082-.172q.042-.084.08-.167l.021-.043c.025-.058.043-.117.065-.175s.05-.127.072-.19l.013-.039q.05-.153.087-.307l.015-.061c.004-.021.014-.054.02-.081a5 5 0 0 0 .053-.293q.001-.02.005-.04.016-.113.026-.226.005-.057.007-.116l.004-.065a4 4 0 0 0 0-.35z"/><path fill="#B0B0B5" fill-opacity=".3" d="m14.965 12.146 2.144 1.347H10.86l-2.144-1.347z"/><path fill="#B0B0B5" fill-opacity=".3" d="M20.33 13.018q0-.136-.01-.268.001-.042-.004-.082a6 6 0 0 0-.028-.312q0-.01-.003-.022l-.027-.184-.03-.191-.038-.18c-.013-.057-.025-.126-.04-.19l-.048-.176q-.024-.091-.051-.184l-.058-.174c-.019-.058-.032-.105-.05-.156l-.01-.024-.07-.18c-.024-.058-.044-.112-.068-.167l-.08-.176-.075-.162c-.027-.053-.062-.113-.09-.17a3 3 0 0 0-.083-.155L19.37 9.7c-.033-.054-.052-.09-.08-.134l-.009-.014a6 6 0 0 0-.227-.333q-.029-.04-.062-.079-.092-.121-.184-.236l-.031-.04-.083-.093-.109-.123c-.037-.041-.084-.088-.127-.131s-.075-.077-.113-.113q-.015-.018-.033-.034a4 4 0 0 0-.189-.17l-2.144-1.347q.114.1.222.204l.113.113c.037.038.086.087.128.132s.072.08.108.123l.114.133q.095.116.185.236l.061.08q.117.162.227.332.047.075.091.15c.03.051.065.107.096.162s.057.105.084.158.062.111.089.168l.075.162.08.175c.026.059.045.112.067.168s.049.119.07.18l.062.18q.031.087.058.173.026.09.05.185.026.09.048.177l.04.185a5 5 0 0 1 .068.373c.01.067.02.123.028.185a7 7 0 0 1 .045.683v.098c0 .115 0 .23-.01.345a8 8 0 0 1-.085.754l-.02.107q-.018.106-.04.212l-.024.1q-.025.11-.054.223-.016.062-.035.123a6 6 0 0 1-.106.34l-.052.15-.056.145-.058.145-.035.08q-.105.245-.23.482l-.029.05q-.128.24-.274.469l-.023.034q-.156.24-.328.464l-.021.027a7 7 0 0 1-.39.458l-.07.075-.158.16-.092.09-.157.143-.088.08q-.15.128-.303.245l-.01.008q-.15.115-.308.221l-.084.056a7 7 0 0 1-.358.224l-.016.008q-.177.101-.36.192l-.086.042a5 5 0 0 1-.38.168l-.062.024a7 7 0 0 1-.353.126l-.08.027a7 7 0 0 1-.402.11l-.085.02a6 6 0 0 1-.377.074c-.02 0-.038.007-.058.01a6 6 0 0 1-.519.057 6 6 0 0 1-.436.017H.5L2.644 20h10.973q.22-.001.437-.017.049-.002.098-.008.212-.016.422-.049l.057-.01a7 7 0 0 0 .377-.074l.085-.02q.203-.049.402-.11l.08-.027q.179-.057.353-.126l.062-.024q.193-.078.38-.168l.085-.042q.185-.09.361-.192l.016-.008q.183-.106.358-.224l.043-.026.04-.03q.158-.106.308-.222l.01-.006q.155-.12.303-.25l.036-.029.052-.048a7 7 0 0 0 .407-.396l.062-.061.012-.014q.204-.221.39-.46l.014-.016.006-.009q.173-.227.328-.464l.017-.024.006-.01a7 7 0 0 0 .275-.468l.019-.033c.005-.012.005-.013.009-.018q.123-.238.23-.484l.019-.038.016-.04q.03-.074.062-.147c.022-.05.037-.095.055-.144q.027-.074.052-.15.02-.053.037-.107l.011-.037.058-.195.035-.123q.029-.112.055-.226l.02-.086v-.012q.023-.106.041-.213l.02-.106a7 7 0 0 0 .071-.572 6 6 0 0 0 .024-.529q-.004-.039-.003-.09"/><path fill="#B0B0B5" d="M12.679 0c3.126 0 4.842 3.411 3.232 6.272L14.36 9.027l-.333.535c.045.056.895 1.124.938 2.582H8.717l4.257-7.664c.42-.754-.058-1.652-.881-1.652H9.018L9.747 0z"/><path fill="#B0B0B5" d="M15.979 6.858c1.382 1.194 2.322 3.196 2.198 5.257a8 8 0 0 1-.04.43c-.392 3.405-3.306 6.112-6.662 6.112H.5L6.038 0H9.16L7.497 5.634h4.356l-1.64 2.95H6.624l-2.093 7.094h7.112c1.906 0 3.556-1.598 3.674-3.564.055-.919-.313-1.976-.83-2.608z"/></svg>