<svg width="33" height="32" viewBox="0 0 33 32" fill="none" xmlns="http://www.w3.org/2000/svg">
<g clip-path="url(#clip0_1203_2317)">
<path d="M13.2109 0.350195C6.03594 2.00019 0.835938 8.4502 0.835938 15.7502C0.835938 21.8002 4.28594 27.3252 9.73594 29.9752C13.9359 32.0252 19.2359 32.0252 23.4359 29.9752C31.7109 25.9502 34.8109 15.6752 30.1609 7.77519C28.2859 4.60019 25.1859 2.10019 21.5359 0.825195C19.2859 0.0501957 15.5109 -0.174805 13.2109 0.350195ZM17.9359 6.62519C19.1609 8.25019 19.4609 8.52519 20.3109 8.65019C21.1859 8.8002 21.3359 8.9502 22.1359 10.4752L23.0109 12.1252L22.4609 14.4502C21.9359 16.7002 21.5859 17.2752 20.5859 17.6252C20.3359 17.7002 19.9359 18.7252 19.4859 20.4252C18.6859 23.4002 18.5359 23.7252 17.9859 23.2752C17.6859 23.0252 17.5609 23.2002 17.2109 24.4252C16.9859 25.2252 16.7609 26.0502 16.6609 26.2502C16.5859 26.4502 16.1359 25.1502 15.6609 23.3752C15.1859 21.5752 14.7359 20.0752 14.6859 20.0002C14.6109 19.9502 14.3359 20.0252 14.0609 20.2002C13.4859 20.5752 13.5609 20.7002 12.8609 17.7002C12.4859 16.1002 12.0609 15.1002 11.2109 13.7752L10.0609 12.0252L10.9359 10.3002C11.6859 8.8002 11.9359 8.5502 13.0609 8.00019C13.9609 7.60019 14.6609 7.00019 15.3359 6.0752C15.9109 5.35019 16.3859 4.75019 16.4359 4.75019C16.4859 4.75019 17.1609 5.60019 17.9359 6.62519Z" fill="white"/>
</g>
<defs>
<clipPath id="clip0_1203_2317">
<rect width="32" height="32" fill="white" transform="translate(0.585938)"/>
</clipPath>
</defs>
</svg>
