<svg width="115" height="20" viewBox="0 0 115 20" fill="none" xmlns="http://www.w3.org/2000/svg">
<g clip-path="url(#clip0_462_5310)">
<mask id="mask0_462_5310" style="mask-type:luminance" maskUnits="userSpaceOnUse" x="0" y="0" width="115" height="20">
<path d="M114.5 0H0.5V20H114.5V0Z" fill="white"/>
</mask>
<g mask="url(#mask0_462_5310)">
<path d="M3.83173 3.06342L9.1313 0L14.4309 3.06342L12.4825 4.19513L9.1313 2.26342L5.78011 4.19513L3.83173 3.06342ZM14.4309 6.92683L12.4825 5.79513L9.1313 7.72683L5.78011 5.79513L3.83173 6.92683V9.19025L7.18292 11.1219V14.9853L9.1313 16.1171L11.0797 14.9853V11.1219L14.4309 9.19025V6.92683ZM14.4309 13.0537V10.7902L12.4825 11.9219V14.1853L14.4309 13.0537ZM15.8142 13.8537L12.463 15.7853V18.0487L17.7626 14.9853V8.8585L15.8142 9.99025V13.8537ZM13.8659 4.99512L15.8142 6.12682V8.39025L17.7626 7.25853V4.99512L15.8142 3.86342L13.8659 4.99512ZM7.18292 16.6049V18.8683L9.1313 20L11.0797 18.8683V16.6049L9.1313 17.7366L7.18292 16.6049ZM3.83173 13.0537L5.78011 14.1853V11.9219L3.83173 10.7902V13.0537ZM7.18292 4.99512L9.1313 6.12682L11.0797 4.99512L9.1313 3.86342L7.18292 4.99512ZM2.44837 6.12682L4.39674 4.99512L2.44837 3.86342L0.5 4.99512V7.25853L2.44837 8.39025V6.12682ZM2.44837 9.99025L0.5 8.8585V14.9853L5.79956 18.0487V15.7853L2.44837 13.8537V9.99025Z" fill="#B0B0B5"/>
<path d="M33.123 12.5512V12.5194C33.123 11.0247 32.329 10.2774 31.043 9.78449C31.8368 9.33932 32.5037 8.63966 32.5037 7.38348V7.35168C32.5037 5.60259 31.1065 4.47363 28.836 4.47363H23.6758V15.6042H28.9631C31.4717 15.6042 33.123 14.5866 33.123 12.5512ZM30.0744 7.79691C30.0744 8.62374 29.3918 8.97357 28.3121 8.97357H26.0575V6.62024H28.4709C29.5028 6.62024 30.0744 7.03367 30.0744 7.7651V7.79691ZM30.6937 12.2492C30.6937 13.076 30.0427 13.4576 28.9631 13.4576H26.0575V11.0089H28.8837C30.138 11.0089 30.6937 11.47 30.6937 12.2173V12.2492Z" fill="#B0B0B5"/>
<path d="M45.1692 15.6042V4.47363H42.7557V11.3269L37.5479 4.47363H35.2933V15.6042H37.7067V8.52832L43.0892 15.6042H45.1692Z" fill="#B0B0B5"/>
<path d="M57.4433 12.5512V12.5194C57.4433 11.0247 56.6493 10.2774 55.3633 9.78449C56.1571 9.33932 56.824 8.63966 56.824 7.38348V7.35168C56.824 5.60259 55.4268 4.47363 53.1563 4.47363H47.9961V15.6042H53.2833C55.792 15.6042 57.4433 14.5866 57.4433 12.5512ZM54.3948 7.79691C54.3948 8.62374 53.712 8.97357 52.6324 8.97357H50.3777V6.62024H52.7911C53.8231 6.62024 54.3948 7.03367 54.3948 7.7651V7.79691ZM55.014 12.2492C55.014 13.076 54.363 13.4576 53.2833 13.4576H50.3777V11.0089H53.2039C54.4583 11.0089 55.014 11.47 55.014 12.2173V12.2492Z" fill="#B0B0B5"/>
<path d="M72.1795 13.6381L70.9251 12.3661C69.9724 13.2565 69.0992 13.813 67.7337 13.813C65.6061 13.813 64.066 12.0322 64.066 9.83786C64.066 7.64354 65.6061 5.89445 67.7337 5.89445C69.0039 5.89445 69.9565 6.45098 70.8457 7.27782L72.1001 5.83085C71.0362 4.8132 69.7978 4.09766 67.7496 4.09766C64.3835 4.09766 62.0177 6.68949 62.0177 9.8697C62.0177 13.0816 64.4312 15.6099 67.6702 15.6099C69.7502 15.6099 71.0204 14.8466 72.1795 13.6381Z" fill="#B0B0B5"/>
<path d="M81.647 10.7284V15.4192H83.6V4.28857H81.647V8.91574H76.3439V4.28857H74.391V15.4192H76.3439V10.7284H81.647Z" fill="#B0B0B5"/>
<path d="M92.3607 4.20898H90.5508L85.6605 15.4191H87.6609L88.8042 12.7318H94.0599L95.1874 15.4191H97.251L92.3607 4.20898ZM93.3451 10.9987H89.519L91.4237 6.54641L93.3451 10.9987Z" fill="#B0B0B5"/>
<path d="M99.427 4.28857V15.4192H101.38V4.28857H99.427Z" fill="#B0B0B5"/>
<path d="M112.278 11.9846L106.324 4.28857H104.514V15.4192H106.435V7.50054L112.564 15.4192H114.2V4.28857H112.278V11.9846Z" fill="#B0B0B5"/>
</g>
</g>
<defs>
<clipPath id="clip0_462_5310">
<rect width="114" height="20" fill="white" transform="translate(0.5)"/>
</clipPath>
</defs>
</svg>
