<svg width="123" height="28" viewBox="0 0 123 28" fill="none" xmlns="http://www.w3.org/2000/svg">
<path fill-rule="evenodd" clip-rule="evenodd" d="M12.987 0.0371995C10.2847 0.26882 7.80592 1.21578 5.66887 2.83295C4.68715 3.57585 3.70307 4.55848 2.96056 5.53733C1.48724 7.47954 0.546135 9.76315 0.232631 12.1567C0.0839148 13.2921 0.0839148 14.7069 0.232631 15.8423C0.585586 18.537 1.72714 21.0737 3.52318 23.1543C3.89582 23.5859 4.60389 24.2909 5.02497 24.6494C7.09679 26.4136 9.62382 27.5398 12.2936 27.8886C13.4304 28.0371 14.8469 28.0371 15.9836 27.8886C18.6534 27.5398 21.1804 26.4136 23.2523 24.6494C23.6733 24.2909 24.3814 23.5859 24.7541 23.1543C26.5501 21.0737 27.6916 18.537 28.0446 15.8423C28.1933 14.7069 28.1933 13.2921 28.0446 12.1567C27.6953 9.4902 26.5678 6.96624 24.8015 4.89693C24.4425 4.47636 23.7367 3.76916 23.3045 3.39696C21.2214 1.60311 18.6816 0.462943 15.9836 0.110416C15.132 -0.000868066 13.8084 -0.033197 12.987 0.0371995ZM13.5442 1.50875C10.4121 1.6609 7.50366 2.94673 5.28734 5.15913C4.41084 6.03406 3.67006 7.03213 3.06777 8.14962C2.91179 8.43897 2.62194 9.0599 2.63618 9.07413C2.64158 9.07952 2.76058 9.03631 2.9006 8.97808C3.23355 8.83961 3.36611 8.80575 3.57669 8.8054C3.76333 8.80508 4.04922 8.87276 4.21227 8.95584C4.26646 8.98345 4.36285 9.05998 4.42644 9.1259C4.49943 9.20156 4.6653 9.31641 4.87638 9.43746C5.84354 9.99212 7.14684 10.8262 7.92252 11.387C8.32802 11.6802 8.64148 11.9944 8.80139 12.268C8.86895 12.3837 9.06541 12.78 9.23795 13.1489C9.58459 13.8897 9.75629 14.2055 9.84356 14.2626C9.8929 14.2949 9.92224 14.296 10.0449 14.27C10.1808 14.2412 10.2026 14.2254 10.4497 13.9773C10.5933 13.8331 10.888 13.5091 11.1046 13.2574C11.7326 12.5276 11.9463 12.305 12.1482 12.1701C12.5721 11.8869 13.0517 11.8519 13.5071 12.0709C13.726 12.1761 13.9161 12.3304 14.0473 12.5094C14.0946 12.5739 14.3115 12.9472 14.5292 13.3389L14.9251 14.051L14.9651 13.8954C14.9871 13.8098 15.0327 13.6242 15.0664 13.4829C15.2038 12.9074 15.4332 12.6318 15.8827 12.5022C16.2902 12.3847 16.9918 12.554 17.4857 12.8889C17.7075 13.0394 17.8344 13.1616 18.0479 13.4306C18.5639 14.0804 20.4894 16.3189 21.8139 17.8087C22.6645 18.7655 23.1546 19.2961 23.6694 19.8173C24.0892 20.2424 24.1395 20.2852 24.2896 20.3452C24.4808 20.4216 24.8333 20.4679 24.8785 20.4225C24.8943 20.4066 24.9882 20.2489 25.0871 20.072C26.5673 17.4252 27.0241 14.2585 26.3574 11.2663C25.6776 8.21527 23.8755 5.54252 21.2721 3.72394C19.039 2.16404 16.288 1.37545 13.5442 1.50875ZM63.7436 14.0737V22.3106H64.4742H65.2047V14.0737V5.83687H64.4742H63.7436V14.0737ZM34.6443 14.6055V22.3106L37.4738 22.3103C39.7989 22.3101 40.365 22.3035 40.6499 22.2734C42.6336 22.0638 44.3794 21.2889 45.6597 20.0497C46.0934 19.6299 46.3503 19.323 46.6762 18.8352C47.3532 17.8221 47.6907 16.8934 47.8493 15.6073C47.8998 15.1985 47.8911 13.9213 47.835 13.5048C47.6697 12.2759 47.3265 11.3521 46.6678 10.3634C45.8801 9.18086 44.7627 8.25284 43.4088 7.65667C42.5561 7.28119 41.5074 7.0121 40.5632 6.92649C40.3855 6.91036 39.2197 6.90064 37.4614 6.90056L34.6443 6.90049V14.6055ZM100.991 7.1823C100.719 7.2428 100.418 7.45429 100.287 7.67779C100.205 7.81723 100.149 8.03628 100.149 8.21047C100.15 8.61783 100.367 8.94978 100.76 9.14371C100.922 9.22382 100.98 9.23931 101.146 9.24685C101.365 9.25684 101.52 9.22377 101.684 9.13183C102.092 8.90355 102.273 8.58152 102.248 8.13176C102.237 7.95243 102.221 7.88503 102.157 7.75544C102.02 7.47665 101.696 7.23051 101.39 7.17295C101.226 7.14213 101.165 7.14356 100.991 7.1823ZM36.2354 14.5993L36.2417 20.8635L38.0496 20.8608C40.0065 20.8579 40.2996 20.8435 40.9866 20.7163C42.0529 20.5189 43.0289 20.0951 43.8741 19.4625C44.169 19.2418 44.6808 18.7384 44.9015 18.4519C45.5268 17.6401 45.9098 16.7549 46.0856 15.7153C46.3138 14.3665 46.1102 12.9232 45.5264 11.7502C44.949 10.59 44.0492 9.71012 42.8169 9.10057C42.2444 8.8174 41.7802 8.65756 41.1435 8.52443C40.4085 8.37073 39.7912 8.33694 37.6966 8.33588L36.2292 8.33513L36.2354 14.5993ZM106.266 10.685V12.1196H105.188H104.111V12.7751V13.4306H105.188H106.264L106.273 16.9245C106.281 20.1044 106.285 20.437 106.324 20.6266C106.482 21.4044 106.907 22.0026 107.518 22.3097C108.137 22.6211 109.201 22.6654 110.149 22.4192C110.383 22.3587 110.691 22.2486 110.732 22.2111C110.751 22.1939 110.704 20.9017 110.683 20.8784C110.679 20.8729 110.571 20.9136 110.445 20.9688C109.998 21.1643 109.624 21.2469 109.186 21.2469C108.282 21.2469 107.86 20.8568 107.753 19.9236C107.737 19.7824 107.727 18.5551 107.727 16.5658L107.727 13.4306H109.2H110.674V12.7751V12.1196H109.2H107.727V10.685V9.25034H106.996H106.266V10.685ZM3.20472 10.4755C3.05489 10.5354 2.72613 10.6531 2.47414 10.737C2.22215 10.821 2.01309 10.8919 2.00957 10.8947C1.99273 10.9081 1.84676 11.5906 1.79381 11.9036C1.34875 14.5337 1.76073 17.2676 2.9584 19.6319C4.72955 23.1283 8.03971 25.6005 11.8928 26.3046C12.4166 26.4003 12.3998 26.46 12.0404 25.7797C9.53714 21.0408 5.74438 14.1432 4.25034 11.6126C4.01623 11.216 3.48935 10.3616 3.48098 10.365C3.47887 10.3658 3.35455 10.4155 3.20472 10.4755ZM54.8405 11.8756C53.5573 11.9857 52.3699 12.5229 51.5088 13.3829C50.7125 14.1783 50.2137 15.1796 50.031 16.3494C49.9684 16.7503 49.9689 17.7085 50.0319 18.0932C50.2276 19.2879 50.7168 20.2632 51.5208 21.0614C52.4716 22.0054 53.707 22.5175 55.1706 22.5745C56.7769 22.637 58.2371 22.0954 59.2856 21.0482C60.1044 20.2304 60.5988 19.2093 60.7763 17.9695C60.8247 17.6313 60.8171 16.724 60.7629 16.3741C60.5786 15.1846 60.0847 14.1837 59.2901 13.3891C58.1738 12.2727 56.5699 11.7272 54.8405 11.8756ZM72.9934 11.8756C71.7103 11.9857 70.5229 12.5229 69.6618 13.3829C68.8655 14.1783 68.3667 15.1796 68.184 16.3494C68.1214 16.7503 68.1219 17.7085 68.1849 18.0932C68.3806 19.2879 68.8698 20.2632 69.6738 21.0614C70.6246 22.0054 71.86 22.5175 73.3236 22.5745C74.9298 22.637 76.3901 22.0954 77.4386 21.0482C78.2574 20.2304 78.7518 19.2093 78.9293 17.9695C78.9777 17.6313 78.9701 16.724 78.9159 16.3741C78.7316 15.1846 78.2377 14.1837 77.4431 13.3891C76.3268 12.2727 74.7229 11.7272 72.9934 11.8756ZM86.0695 11.862C86.0287 11.8678 85.9084 11.8843 85.8022 11.8987C85.2311 11.9759 84.4978 12.267 84.0201 12.6061C83.744 12.8022 83.4035 13.1487 83.2092 13.4314L83.0482 13.6656L83.0416 12.8926L83.0351 12.1196H82.2553H81.4756L81.4765 12.2371C81.477 12.3018 81.4953 12.5661 81.5172 12.8246C81.5512 13.2274 81.5583 13.9386 81.567 17.8026L81.5771 22.3106H82.3054H83.0337L83.0425 19.3238C83.052 16.0732 83.0488 16.1503 83.1955 15.5729C83.3819 14.8387 83.865 14.0933 84.4208 13.682C84.9063 13.3227 85.4792 13.1597 86.1438 13.1917C86.8178 13.2242 87.3038 13.3908 87.6572 13.7106C88.0847 14.0972 88.3504 14.7968 88.4341 15.7557C88.4491 15.927 88.4591 17.287 88.4592 19.1754L88.4594 22.3106H89.19H89.9206L89.9206 19.4474C89.9206 16.6024 89.9278 16.3052 90.0082 15.8369C90.2359 14.5114 90.9043 13.612 91.8894 13.3057C92.5564 13.0983 93.6025 13.164 94.1668 13.4489C94.7629 13.7498 95.1086 14.3512 95.2868 15.397C95.3247 15.6196 95.3298 15.9783 95.3375 18.9775L95.3462 22.3106H96.0758H96.8053L96.8048 18.928C96.8042 15.3282 96.7995 15.1603 96.6831 14.5976C96.41 13.277 95.6454 12.399 94.465 12.0504C93.9621 11.9019 93.1416 11.8205 92.6415 11.8694C91.4031 11.9906 90.3007 12.6869 89.7262 13.7107L89.6038 13.929L89.4685 13.6589C89.3013 13.3251 89.1797 13.1444 88.9632 12.9086C88.4554 12.3555 87.8933 12.0547 87.1219 11.9236C86.8293 11.8739 86.2315 11.8389 86.0695 11.862ZM116.84 11.8628C115.805 11.9578 114.94 12.2828 114.153 12.8715C113.19 13.5928 112.498 14.6822 112.225 15.9053C112.118 16.3861 112.098 16.5985 112.098 17.2275C112.099 17.864 112.125 18.1075 112.251 18.625C112.399 19.2343 112.716 19.9231 113.095 20.4554C113.784 21.423 114.805 22.1166 115.973 22.4095C117.631 22.8254 119.466 22.4635 120.714 21.4747C121.053 21.2056 121.748 20.4897 121.742 20.4147C121.742 20.4031 121.583 20.2656 121.391 20.1091C121.198 19.9527 120.949 19.7495 120.837 19.6577L120.634 19.4908L120.516 19.6577C120.361 19.8768 119.999 20.2482 119.749 20.4437C119.034 21.0042 118.315 21.2467 117.365 21.2469C116.783 21.247 116.271 21.1325 115.788 20.8942C114.729 20.3722 114.002 19.425 113.723 18.2045C113.696 18.0889 113.667 17.9275 113.658 17.8458C113.649 17.7642 113.636 17.6779 113.63 17.6541C113.618 17.613 113.832 17.6109 117.869 17.6109H122.121L122.109 16.9245C122.1 16.3682 122.087 16.1818 122.044 15.9412C121.78 14.4751 121.061 13.3276 119.97 12.632C119.36 12.2429 118.756 12.0157 118.054 11.9107C117.797 11.8723 117.056 11.843 116.84 11.8628ZM6.31638 12.1718C7.94376 15.0558 9.19092 17.3128 10.8093 20.3026C11.2258 21.072 11.2288 21.0767 11.2475 20.9828C11.2579 20.9308 11.3887 19.5359 11.5381 17.8829C11.6876 16.23 11.8145 14.8442 11.8201 14.8034C11.8291 14.7382 11.7864 14.773 11.4676 15.0904C11.1443 15.4124 11.082 15.4629 10.8944 15.5546C10.7786 15.6112 10.5724 15.686 10.4362 15.7208C10.2193 15.7761 10.1501 15.7828 9.87898 15.7742C9.53301 15.7632 9.3252 15.7066 9.06841 15.5534C8.65044 15.3041 8.44806 15.0094 7.91977 13.8808C7.54658 13.0836 7.47998 12.9648 7.33427 12.8363C7.21064 12.7272 6.78222 12.4158 6.45108 12.1943L6.25509 12.0632L6.31638 12.1718ZM100.471 17.2151V22.3106H101.201H101.932V17.2151V12.1196H101.201H100.471V17.2151ZM54.729 13.2317C54.1509 13.3208 53.7346 13.4783 53.2581 13.788C52.4554 14.3098 51.8808 15.1946 51.6591 16.2504C51.4792 17.1068 51.5626 18.1337 51.875 18.9095C52.2845 19.9262 53.0052 20.647 53.978 21.0127C54.8113 21.326 55.9593 21.326 56.7926 21.0127C57.9925 20.5616 58.8486 19.5321 59.126 18.2069C59.3407 17.1807 59.2085 16.0747 58.767 15.2044C58.2798 14.2439 57.467 13.5824 56.4378 13.3089C55.9598 13.1818 55.2578 13.1501 54.729 13.2317ZM72.882 13.2317C72.3039 13.3208 71.8876 13.4783 71.4111 13.788C70.6084 14.3098 70.0338 15.1946 69.8121 16.2504C69.6322 17.1068 69.7156 18.1337 70.028 18.9095C70.4375 19.9262 71.1582 20.647 72.131 21.0127C72.9643 21.326 74.1123 21.326 74.9456 21.0127C76.1455 20.5616 77.0016 19.5321 77.279 18.2069C77.4937 17.1807 77.3615 16.0747 76.92 15.2044C76.4328 14.2439 75.62 13.5824 74.5908 13.3089C74.1128 13.1818 73.4108 13.1501 72.882 13.2317ZM116.704 13.2214C115.543 13.4156 114.519 14.1539 113.993 15.1756C113.924 15.3099 113.839 15.5092 113.805 15.6186C113.744 15.8092 113.671 16.2128 113.671 16.3555L113.671 16.4236H117.104H120.538L120.522 16.1453C120.474 15.3271 120.193 14.6422 119.689 14.1138C119.299 13.7058 118.902 13.472 118.339 13.3187C117.864 13.1895 117.15 13.147 116.704 13.2214ZM16.411 14.3133C16.3149 14.6878 16.1587 14.9962 15.9652 15.1933C15.88 15.2801 15.7831 15.3679 15.7498 15.3885L15.6894 15.4258L18.2357 19.9998C19.6362 22.5155 20.7863 24.5786 20.7915 24.5844C20.8051 24.5996 21.3346 24.2399 21.6673 23.9894C22.2383 23.5595 22.757 23.0946 23.2583 22.5634C23.543 22.2618 23.8964 21.8503 23.8958 21.8212C23.8956 21.8114 23.7887 21.76 23.6581 21.707C23.5276 21.6539 23.3522 21.5605 23.2684 21.4995C22.9716 21.2834 22.1767 20.4659 21.1108 19.2805C19.8085 17.8323 17.4871 15.142 16.8773 14.3743C16.7582 14.2243 16.5508 14.049 16.4926 14.049C16.485 14.049 16.4482 14.1679 16.411 14.3133ZM13.3711 14.3829C13.3704 14.3965 13.1819 16.4545 12.9522 18.9563L12.5345 23.5049L13.0303 24.4351C13.303 24.9467 13.6593 25.6241 13.8221 25.9404L14.118 26.5155L14.4441 26.5021C15.5278 26.4573 16.2501 26.3592 17.1808 26.1304C18.0617 25.9139 19.49 25.3842 19.4529 25.2877C19.4437 25.2638 13.5272 14.6279 13.3937 14.3953C13.382 14.3749 13.3718 14.3693 13.3711 14.3829Z" fill="#FFFCFC"/>
</svg>
