<svg width="187" height="28" viewBox="0 0 187 28" fill="none" xmlns="http://www.w3.org/2000/svg">
<path d="M14 0C2.46972 0 0 2.46972 0 14C0 25.5303 2.46972 28 14 28C25.5305 28 28 25.5303 28 14C28 2.46972 25.5305 0 14 0ZM7.93866 3.88841C7.93881 3.62004 8.04549 3.36271 8.23526 3.17294C8.42502 2.98317 8.68236 2.87649 8.95073 2.87634H10.976C11.2444 2.87649 11.5018 2.98317 11.6915 3.17294C11.8813 3.36271 11.988 3.62004 11.9881 3.88841V5.90477C11.9883 6.17314 12.095 6.43048 12.2847 6.62024C12.4745 6.81001 12.7318 6.91669 13.0002 6.91684H15.0033C15.2717 6.91674 15.5291 6.81009 15.7189 6.62031C15.9087 6.43054 16.0154 6.17318 16.0156 5.90477V3.88841C16.0157 3.62004 16.1224 3.36271 16.3122 3.17294C16.5019 2.98317 16.7593 2.87649 17.0277 2.87634H19.0518C19.3202 2.87644 19.5776 2.9831 19.7674 3.17287C19.9572 3.36264 20.0639 3.62001 20.0641 3.88841V5.91353C20.0639 6.18194 19.9572 6.4393 19.7674 6.62908C19.5776 6.81885 19.3202 6.92551 19.0518 6.92561H17.0358C16.7674 6.92571 16.51 7.03239 16.3202 7.22221C16.1303 7.41202 16.0237 7.66944 16.0236 7.93788V9.95404C16.0235 10.2224 15.9168 10.4798 15.727 10.6696C15.5373 10.8594 15.2799 10.9662 15.0115 10.9663H12.9862C12.7178 10.9661 12.4606 10.8594 12.2708 10.6696C12.0811 10.4799 11.9744 10.2226 11.9743 9.95424V7.93768C11.9742 7.66924 11.8675 7.41183 11.6777 7.22201C11.4879 7.0322 11.2305 6.92552 10.962 6.92541H8.94547C8.6771 6.92526 8.41977 6.81858 8.23 6.62881C8.04023 6.43905 7.93355 6.18171 7.9334 5.91334V3.88841H7.93866ZM6.92658 17.0452V19.0615C6.92643 19.3299 6.81975 19.5872 6.62998 19.777C6.44021 19.9668 6.18288 20.0735 5.91451 20.0736H3.88919C3.62082 20.0735 3.36349 19.9668 3.17372 19.777C2.98395 19.5872 2.87727 19.3299 2.87712 19.0615V17.0362C2.87732 16.7679 2.98405 16.5105 3.17386 16.3208C3.36366 16.1311 3.62102 16.0244 3.88939 16.0243H5.90575C6.17415 16.0242 6.43151 15.9175 6.62129 15.7277C6.81106 15.5379 6.91772 15.2805 6.91782 15.0121V13.009C6.91766 12.7406 6.81099 12.4833 6.62122 12.2935C6.43145 12.1037 6.17412 11.997 5.90575 11.9969H3.88939C3.62098 11.9968 3.3636 11.8901 3.17379 11.7004C2.98398 11.5106 2.87727 11.2532 2.87712 10.9848V8.95949C2.87727 8.69109 2.98398 8.43372 3.17379 8.24395C3.3636 8.05418 3.62098 7.94752 3.88939 7.94742H5.91451C6.18291 7.94757 6.44028 8.05428 6.63005 8.24409C6.81982 8.4339 6.92648 8.69128 6.92658 8.95969V10.9757C6.92669 11.2441 7.03334 11.5014 7.22311 11.6913C7.41289 11.8811 7.67025 11.9878 7.93866 11.9879H9.95501C10.2234 11.9881 10.4807 12.0948 10.6705 12.2845C10.8603 12.4743 10.9669 12.7316 10.9671 13V15.0243C10.9669 15.2927 10.8603 15.55 10.6705 15.7398C10.4807 15.9296 10.2234 16.0363 9.95501 16.0364H7.93866C7.67028 16.0366 7.41295 16.1432 7.22318 16.333C7.03342 16.5228 6.92674 16.7801 6.92658 17.0485V17.0442V17.0452ZM20.0701 24.1231C20.0701 24.3915 19.9635 24.6489 19.7737 24.8387C19.5839 25.0285 19.3265 25.1352 19.058 25.1352H17.0329C16.7645 25.135 16.5072 25.0283 16.3174 24.8386C16.1277 24.6488 16.021 24.3914 16.0208 24.1231V22.1067C16.0207 21.8383 15.914 21.5809 15.7242 21.3912C15.5344 21.2014 15.277 21.0947 15.0086 21.0946H13.0055C12.7371 21.0948 12.4797 21.2015 12.29 21.3912C12.1002 21.581 11.9935 21.8383 11.9934 22.1067V24.1231C11.9932 24.3914 11.8865 24.6488 11.6968 24.8386C11.507 25.0283 11.2497 25.135 10.9813 25.1352H8.95599C8.68762 25.135 8.43028 25.0283 8.24051 24.8386C8.05075 24.6488 7.94407 24.3914 7.94391 24.1231V22.098C7.94407 21.8295 8.05077 21.5722 8.24058 21.3824C8.43039 21.1926 8.68778 21.086 8.95618 21.0859H10.9723C11.2408 21.0858 11.4982 20.9791 11.688 20.7893C11.8778 20.5995 11.9845 20.3421 11.9846 20.0736V18.0573C11.9848 17.7889 12.0914 17.5315 12.2812 17.3418C12.471 17.152 12.7283 17.0453 12.9967 17.0452H15.022C15.2904 17.0453 15.5477 17.152 15.7375 17.3418C15.9272 17.5315 16.0339 17.7889 16.0341 18.0573V20.0736C16.0342 20.342 16.1408 20.5994 16.3306 20.7892C16.5204 20.979 16.7777 21.0857 17.0462 21.0859H19.0625C19.3309 21.086 19.5882 21.1927 19.778 21.3825C19.9678 21.5722 20.0744 21.8296 20.0746 22.098V24.1231H20.0701ZM25.1316 10.9796C25.1315 11.2479 25.0248 11.5053 24.835 11.695C24.6453 11.8848 24.3879 11.9915 24.1196 11.9916H22.1032C21.8348 11.9918 21.5775 12.0985 21.3877 12.2882C21.198 12.478 21.0913 12.7353 21.0911 13.0037V15.0076C21.0912 15.276 21.1979 15.5334 21.3877 15.7232C21.5774 15.913 21.8348 16.0197 22.1032 16.0199H24.1196C24.3879 16.02 24.6453 16.1267 24.835 16.3165C25.0248 16.5062 25.1315 16.7636 25.1316 17.0319V19.0573C25.1315 19.3256 25.0248 19.583 24.835 19.7727C24.6453 19.9625 24.3879 20.0692 24.1196 20.0693H22.0952C21.8268 20.0692 21.5695 19.9625 21.3797 19.7727C21.1899 19.5828 21.0833 19.3255 21.0832 19.0571V17.0409C21.083 16.7725 20.9764 16.5151 20.7866 16.3253C20.5968 16.1355 20.3395 16.0288 20.0711 16.0286H18.0547C17.7864 16.0285 17.529 15.9218 17.3392 15.732C17.1495 15.5423 17.0428 15.2849 17.0426 15.0166V12.9912C17.0429 12.7229 17.1496 12.4656 17.3393 12.2759C17.5291 12.0862 17.7864 11.9795 18.0547 11.9794H20.0711C20.3395 11.9792 20.5968 11.8725 20.7866 11.6827C20.9764 11.4929 21.083 11.2355 21.0832 10.9671V8.95073C21.0833 8.68236 21.19 8.42502 21.3798 8.23526C21.5695 8.04549 21.8269 7.93881 22.0952 7.93866H24.1196C24.3879 7.93881 24.6453 8.04549 24.835 8.23526C25.0248 8.42502 25.1315 8.68236 25.1316 8.95073V10.9796Z" fill="white"/>
<path d="M121.189 3.22818C121.342 2.29817 121.603 1.60653 121.978 1.14674C122.352 0.686947 122.857 0.364338 123.498 0.170824L123.373 0.00573743H112.678L112.594 0.170824C113.15 0.284011 113.598 0.533857 113.944 0.91932C114.291 1.31052 114.483 1.79274 114.529 2.37719C114.569 2.9619 114.427 3.58548 114.092 4.24895L104.605 22.6737C104.077 23.7002 103.618 24.5063 103.232 25.084C102.84 25.6687 102.455 26.1165 102.068 26.4347C101.677 26.7518 101.205 27.0358 100.656 27.2857L100.781 27.4495H106.438L106.523 27.2857C105.632 26.9286 105.122 26.2816 104.986 25.3516C104.845 24.4216 105.196 23.1556 106.025 21.5457L107.437 18.8005H116.425V20.4626C116.425 22.0454 116.346 23.2983 116.199 24.2294C116.045 25.1594 115.785 25.8513 115.41 26.3111C115.035 26.7709 114.53 27.0935 113.889 27.287L114.014 27.4508H123.376L123.501 27.287C122.859 27.0935 122.355 26.7649 121.98 26.3111C121.605 25.8513 121.338 25.1594 121.191 24.2294C121.038 23.2996 120.965 22.0454 120.965 20.4626V6.98448C120.965 5.40143 121.039 4.1488 121.191 3.21775V3.22949L121.189 3.22818ZM107.725 18.2268L115.94 2.17794C116.043 2.48438 116.128 2.83568 116.196 3.22714C116.349 4.15689 116.423 5.41108 116.423 6.99413V18.2255H107.725V18.2268ZM101.528 22.5545C101.528 23.5364 101.647 24.4038 101.88 25.1641C102.039 24.9768 102.197 24.7611 102.362 24.517C102.725 23.9725 103.167 23.1898 103.673 22.2082L105.988 17.7094C105.812 17.1645 105.579 16.6709 105.29 16.2348C104.666 15.293 103.775 14.5787 102.629 14.0908C101.477 13.6085 100.031 13.3188 98.2827 13.2398V13.1547C100.058 13.1547 101.568 12.8426 102.817 12.219C104.065 11.5954 105.013 10.7611 105.665 9.72262C106.318 8.68412 106.641 7.55511 106.641 6.3304C106.641 5.22356 106.352 4.18662 105.767 3.23288C105.183 2.2747 104.343 1.50273 103.248 0.901324C102.153 0.30644 100.826 0.00573743 99.2766 0.00573743H88.0026L87.8777 0.170824C88.5413 0.364077 89.0635 0.692945 89.4373 1.14674C89.8122 1.60053 90.0668 2.30417 90.2095 3.24592C90.3464 4.1874 90.4195 5.45228 90.4195 7.02934V20.4225C90.4195 22.0053 90.3511 23.2581 90.2095 24.1895C90.0681 25.1195 89.8122 25.8171 89.4373 26.2886C89.0625 26.7602 88.5413 27.0948 87.8777 27.287L88.0026 27.4508H97.0755L97.2004 27.287C96.6158 27.0935 96.1619 26.7589 95.827 26.2886C95.4921 25.8184 95.2659 25.1205 95.1409 24.1895C95.016 23.2594 94.9534 22.0053 94.9534 20.4225V13.4732H96.7006C98.199 13.4732 99.3791 13.9387 100.235 14.8685C101.092 15.7985 101.522 17.1374 101.522 18.8843V22.5428L101.528 22.5545ZM96.5744 12.9049H94.9524V0.589147H96.7395C97.8228 0.589147 98.7306 0.861422 99.4628 1.40023C100.195 1.93905 100.756 2.66485 101.147 3.56174C101.533 4.46333 101.732 5.4854 101.732 6.6191C101.732 7.7528 101.539 8.76314 101.147 9.71662C100.756 10.6751 100.183 11.441 99.4226 12.0257C98.6565 12.6102 97.7099 12.8992 96.5744 12.8992V12.9049ZM43.3021 3.22714C43.4553 2.29713 43.7158 1.60522 44.0907 1.14543C44.4655 0.685643 44.9703 0.363033 45.6115 0.16952L45.4865 0.00469431H36.125L36 0.16952C36.6636 0.363033 37.1859 0.691641 37.5597 1.14543C37.9345 1.60522 38.1951 2.29713 38.3482 3.22714C38.5013 4.15715 38.5746 5.41108 38.5746 6.99413V20.472C38.5746 22.0548 38.4956 23.3077 38.3482 24.239C38.1951 25.1688 37.9345 25.8607 37.5597 26.3204C37.1848 26.7802 36.6636 27.1031 36 27.2964L36.125 27.4615H45.4865L45.6115 27.2964C44.9703 27.1031 44.4655 26.7742 44.0907 26.3204C43.7158 25.8667 43.4495 25.1688 43.3021 24.239C43.1488 23.309 43.0757 22.0548 43.0757 20.472V6.99387C43.0757 5.41108 43.1501 4.15819 43.3021 3.22714ZM62.9167 0.00469431L62.7917 0.16952C63.4556 0.363033 63.9778 0.691641 64.3514 1.14543C64.7262 1.60522 64.9868 2.29713 65.1402 3.22714C65.2933 4.15689 65.3677 5.41108 65.3677 6.99413V19.1385L52.5954 0.00469431H47.0629L46.9379 0.16952C47.6016 0.363033 48.1238 0.691641 48.4986 1.14543C48.8735 1.59923 49.1341 2.2747 49.2875 3.16455C49.4406 4.0557 49.5136 5.21782 49.5136 6.65926V21.2604C49.5136 22.5934 49.4229 23.6825 49.2413 24.5277C49.0597 25.3727 48.7874 26.014 48.4303 26.4394C48.0672 26.8707 47.5684 27.1537 46.9319 27.2904L47.0569 27.4555H52.7146L52.8395 27.2904C52.2265 27.1537 51.7382 26.8707 51.3647 26.4394C50.9898 26.008 50.7115 25.3727 50.5299 24.5277C50.3484 23.6825 50.2576 22.5934 50.2576 21.2604V5.24599L65.9006 28H66.1505V6.99413C66.1505 5.41108 66.2248 4.15819 66.3769 3.22714C66.53 2.29713 66.7906 1.60522 67.1655 1.14543C67.5403 0.685643 68.0448 0.363033 68.6863 0.16952L68.5613 0.00469431H62.9049H62.9167ZM70.1565 0.00469431L70.0315 0.16952C70.6951 0.363033 71.2174 0.691641 71.5912 1.14543C71.966 1.60522 72.2266 2.29713 72.3797 3.22714C72.5328 4.15715 72.6061 5.41108 72.6061 6.99413V20.472C72.6061 22.0548 72.5271 23.3077 72.3797 24.239C72.2266 25.1688 71.966 25.8607 71.5912 26.3204C71.2163 26.7802 70.6951 27.1031 70.0315 27.2964L70.1565 27.4615H79.518L79.643 27.2964C79.0018 27.1031 78.497 26.7742 78.1222 26.3204C77.7473 25.8667 77.481 25.1688 77.3336 24.239C77.1803 23.309 77.1059 22.0548 77.1059 20.472V14.1474H79.438C80.7936 14.1474 81.8157 14.5104 82.496 15.2305C83.1763 15.9505 83.7102 17.0172 84.0958 18.4352L84.2596 18.2714V9.45035L84.0958 9.32516C83.7043 10.7374 83.1596 11.7983 82.4501 12.5077C81.7405 13.2171 80.737 13.5686 79.432 13.5686H77.1002V0.589147H79.3472C80.7028 0.589147 81.883 0.810827 82.8826 1.25288C83.8811 1.69468 84.749 2.35346 85.4809 3.22714C86.2132 4.10056 86.8603 5.1894 87.4154 6.49418L87.6254 6.36926L86.377 0.00469431H70.1494H70.1565ZM144.763 26.5244C144.429 26.1494 144.173 25.5884 143.991 24.8399C143.81 24.0914 143.679 23.1097 143.594 21.885L143.429 19.8482C143.316 18.3786 142.953 17.1705 142.328 16.2288C141.704 15.287 140.813 14.5727 139.667 14.085C138.515 13.6025 137.069 13.3128 135.32 13.2338V13.149C137.096 13.149 138.606 12.8366 139.854 12.213C141.103 11.5894 142.051 10.7551 142.703 9.71662C143.355 8.67838 143.679 7.54938 143.679 6.32466C143.679 5.21782 143.39 4.18062 142.805 3.22714C142.22 2.2687 141.381 1.49673 140.286 0.895587C139.191 0.300442 137.863 0 136.314 0H125.04L124.915 0.164826C125.579 0.358078 126.101 0.686947 126.476 1.14074C126.851 1.59453 127.106 2.29817 127.248 3.24018C127.385 4.18167 127.458 5.44655 127.458 7.0236V20.4165C127.458 21.9995 127.39 23.2534 127.248 24.1835C127.107 25.1135 126.851 25.8111 126.476 26.2826C126.101 26.7542 125.58 27.0877 124.915 27.281L125.04 27.4461H134.113L134.238 27.281C133.653 27.0877 133.2 26.7542 132.865 26.2826C132.53 25.8111 132.303 25.1135 132.179 24.1835C132.054 23.2534 131.991 21.9995 131.991 20.4165V13.4672H133.738C135.237 13.4672 136.417 13.9327 137.273 14.8625C138.13 15.7927 138.561 17.1314 138.561 18.8783V22.537C138.561 23.7286 138.731 24.7551 139.083 25.6168C139.43 26.4795 139.923 27.0864 140.558 27.4495H145.926L146.051 27.2846C145.524 27.1477 145.092 26.8874 144.763 26.5124V26.5244ZM133.615 12.8992H131.992V0.583409H133.779C134.863 0.583409 135.771 0.855685 136.503 1.39424C137.235 1.93279 137.796 2.65912 138.187 3.55601C138.573 4.45759 138.772 5.47941 138.772 6.61336C138.772 7.74706 138.579 8.75714 138.187 9.71089C137.796 10.6691 137.223 11.4353 136.463 12.0197C135.696 12.6045 134.75 12.8932 133.615 12.8932V12.8992ZM162.677 24.0291C161.939 24.9591 161.077 25.6567 160.079 26.1282C159.08 26.5998 157.916 26.8379 156.583 26.8379H153.962V13.7736H156.419C157.639 13.7736 158.564 14.1022 159.188 14.7495C159.812 15.4026 160.318 16.4917 160.709 18.0168L160.919 17.8531V9.03202L160.709 8.90684C160.318 10.4333 159.802 11.5271 159.149 12.1919C158.498 12.8553 157.589 13.1902 156.426 13.1902H153.969V0.585757H156.216C158.27 0.585757 159.928 1.08545 161.187 2.08379C162.446 3.08231 163.479 4.55165 164.285 6.49183L164.495 6.36691L163.246 0.0023474H147.019L146.894 0.167173C147.557 0.360426 148.08 0.689294 148.453 1.14309C148.828 1.59688 149.089 2.29478 149.242 3.22479C149.395 4.15454 149.468 5.40873 149.468 6.99179V20.4697C149.468 22.0525 149.389 23.3053 149.242 24.2367C149.089 25.1664 148.828 25.8583 148.453 26.3181C148.078 26.7779 147.557 27.1008 146.894 27.294L147.019 27.4578H163.45L164.739 20.6793L164.489 20.5544C164.017 21.944 163.41 23.1014 162.679 24.0267V24.0327L162.677 24.0291ZM185.497 6.30797C184.498 4.29981 183.114 2.74622 181.338 1.65112C179.562 0.556286 177.469 0.00573743 175.056 0.00573743H165.734L165.609 0.170824C166.272 0.364077 166.795 0.698944 167.168 1.16917C167.543 1.63939 167.804 2.34303 167.957 3.26834C168.11 4.19836 168.183 5.44055 168.183 6.98918V20.4673C168.183 22.0219 168.104 23.2641 167.957 24.1882C167.804 25.1182 167.543 25.8158 167.168 26.2873C166.794 26.7589 166.272 27.0935 165.609 27.2857L165.734 27.4495H175.305C177.552 27.4495 179.555 26.8426 181.32 25.6168C183.079 24.3968 184.469 22.735 185.479 20.6251C186.49 18.5202 187 16.1216 187 13.426C187 10.7304 186.501 8.30361 185.502 6.28919L185.496 6.30562L185.497 6.30797ZM180.963 20.683C180.322 22.6513 179.436 24.1717 178.302 25.2384C177.162 26.3051 175.845 26.8379 174.347 26.8379H172.684V0.590451H174.097C175.652 0.590451 177.013 1.10683 178.194 2.12734C179.374 3.15385 180.287 4.64015 180.939 6.58024C181.592 8.52059 181.915 10.8636 181.915 13.6088C181.915 16.354 181.598 18.7145 180.957 20.683H180.963Z" fill="white"/>
</svg>
