<svg width="89" height="28" viewBox="0 0 89 28" fill="none" xmlns="http://www.w3.org/2000/svg">
<path d="M43.2148 3.64355H45.8836V24.3571H43.2148V3.64355Z" fill="white"/>
<path d="M47.4531 3.64355H50.4078L57.7154 21.8072H57.8108L65.0229 3.64355H67.8506L59.2086 24.3571H56.0632L47.4531 3.64355Z" fill="white"/>
<path d="M77.333 13.8429L69.6441 3.64355H72.9802L79.1439 12.0801L85.1489 3.64355H88.2625L80.6055 13.717L88.4849 24.3571H85.1806L78.8262 15.6058L72.5355 24.3571H69.4219L77.333 13.8429Z" fill="white"/>
<path d="M16.1061 13.4043H12.1957L9.09106 18.7323L5.98652 13.4043H0.585938L9.09106 28.0003L16.7214 14.9059L16.1061 13.4043Z" fill="white"/>
<path d="M18.0723 14.5961H21.9827L25.0872 9.26809L28.1919 14.5961H33.5925L25.0872 0L17.457 13.0943L18.0723 14.5961Z" fill="white"/>
</svg>
