<svg xmlns="http://www.w3.org/2000/svg" width="77" height="20" fill="none"><mask id="a" width="77" height="20" x="0" y="0" maskUnits="userSpaceOnUse" style="mask-type:luminance"><path fill="#fff" d="M76.5 0H.5v20h76z"/></mask><g fill="#B0B0B5" mask="url(#a)"><path d="M6.793 9.652H.5l6.62-3.067L10.187 0l.007 6.256A3.4 3.4 0 0 1 6.79 9.654zm7.474 0h6.293l-6.62-3.067L10.874 0l-.008 6.256a3.4 3.4 0 0 0 3.402 3.398zm0 .697h6.293l-6.62 3.066L10.874 20l-.008-6.256a3.4 3.4 0 0 1 3.402-3.398zm-7.474 0H.5l6.62 3.066L10.187 20l.007-6.256a3.4 3.4 0 0 0-3.402-3.398zm24.729 4.027v2.062h-7.514V3.321h2.16v11.055zm1.408-2.288V3.321h2.16v8.638c0 1.535.882 2.624 2.817 2.624s2.82-1.086 2.82-2.624V3.32h2.16v8.77c0 2.828-2.103 4.59-4.977 4.59s-4.978-1.762-4.978-4.59zm24.984 4.348h-2.16V7.087l-4.003 6.595h-.262l-4.002-6.614v9.368h-2.161V3.32h2.33l3.963 6.559 3.983-6.559h2.31v13.117zm4.72-13.115v13.117h-2.16V3.321zM73.25 13.795h-5.597l-.92 2.64h-2.35l4.77-13.116h2.593L76.5 16.436h-2.33zm-.713-2.024L70.452 5.85l-2.084 5.922h4.171z"/></g></svg>