<svg xmlns="http://www.w3.org/2000/svg" width="71" height="20" fill="none"><g clip-path="url(#a)"><mask id="b" width="71" height="20" x="0" y="0" maskUnits="userSpaceOnUse" style="mask-type:luminance"><path fill="#fff" d="M70.5 0H.5v20h70z"/></mask><g fill="#B0B0B5" mask="url(#b)"><path d="M6.757 4.15c0-.416.35-.754.782-.754h3.91c.433 0 .783.338.783.755v9.056c0 .417.35.755.782.755h1.173a.77.77 0 0 0 .782-.755V4.151c0-.417.35-.755.782-.755h1.173c.432 0 .782.338.782.755v9.434c0 .416-.35.754-.782.754h-1.173a.77.77 0 0 0-.782.755v.755c0 .417-.35.755-.782.755h-3.91a.77.77 0 0 1-.783-.755V6.792a.77.77 0 0 0-.782-.754H7.54a.77.77 0 0 0-.782.754v9.057c0 .417-.35.755-.782.755H4.802a.77.77 0 0 1-.783-.755V6.462c0-.417.35-.755.783-.755h1.173a.77.77 0 0 0 .782-.754zm16.425 0c0-.416.35-.754.782-.754h9.385c.432 0 .782.338.782.755v1.132c0 .417-.35.755-.782.755h-9.385a.77.77 0 0 0-.782.754v1.132c0 .417.35.755.782.755h9.385c.432 0 .782.338.782.755v1.132c0 .417-.35.754-.782.754h-9.385a.77.77 0 0 0-.782.755v1.132c0 .417.35.755.782.755h9.385c.432 0 .782.338.782.755v1.132c0 .417-.35.755-.782.755h-9.385a.77.77 0 0 1-.782-.755v-.755a.77.77 0 0 0-.782-.755h-1.174a.77.77 0 0 1-.782-.754v-7.17c0-.417.35-.755.782-.755H22.4a.77.77 0 0 0 .782-.755z"/><path fill-rule="evenodd" d="M40.388 3.396a.77.77 0 0 0-.782.755v.754c0 .417-.35.755-.782.755H37.65a.77.77 0 0 0-.782.755v9.434c0 .417.35.755.782.755h1.173a.77.77 0 0 0 .782-.755v-.944c0-.416.35-.754.782-.754h1.174a.77.77 0 0 1 .782.755v.943c0 .417.35.755.782.755h6.648a.77.77 0 0 0 .782-.755v-1.132a.77.77 0 0 0-.782-.755H43.32a.77.77 0 0 1-.782-.755v-1.132c0-.417.35-.755.782-.755h3.715a.77.77 0 0 0 .782-.754V9.528c0-.417.35-.755.782-.755h1.174a.77.77 0 0 0 .782-.754V6.415a.77.77 0 0 0-.782-.755H48.6a.77.77 0 0 1-.782-.755v-.754a.77.77 0 0 0-.782-.755zm-.782 6.981c0 .417.35.755.782.755h1.174a.77.77 0 0 0 .782-.755v-.943c0-.417.35-.755.782-.755h3.91a.77.77 0 0 0 .782-.755V6.792a.77.77 0 0 0-.782-.754h-6.648a.77.77 0 0 0-.782.754zm17.207-6.981a.77.77 0 0 0-.782.755v.754c0 .417-.35.755-.782.755h-1.173a.77.77 0 0 0-.783.755v7.17c0 .416.35.754.783.754h1.173a.77.77 0 0 1 .782.755v.755c0 .417.35.755.782.755h6.648a.77.77 0 0 0 .782-.755v-.755c0-.417.35-.755.782-.755h1.173a.77.77 0 0 0 .783-.754v-7.17a.77.77 0 0 0-.783-.755h-1.173a.77.77 0 0 1-.782-.755v-.754a.77.77 0 0 0-.782-.755zm7.43 3.396a.77.77 0 0 0-.782-.754h-6.648a.77.77 0 0 0-.782.754v6.415c0 .417.35.755.782.755h6.648a.77.77 0 0 0 .782-.755z" clip-rule="evenodd"/><path fill-rule="evenodd" d="M4.802 0h61.396C68.574 0 70.5 1.858 70.5 4.151v11.698c0 2.293-1.926 4.151-4.302 4.151H4.802C2.426 20 .5 18.142.5 15.849V4.151C.5 1.858 2.426 0 4.802 0m0 1.887c-1.296 0-2.347 1.013-2.347 2.264v11.698c0 1.25 1.05 2.264 2.347 2.264h61.396c1.296 0 2.347-1.014 2.347-2.264V4.151c0-1.25-1.05-2.264-2.347-2.264z" clip-rule="evenodd"/></g></g><defs><clipPath id="a"><path fill="#fff" d="M.5 0h70v20H.5z"/></clipPath></defs></svg>