<svg xmlns="http://www.w3.org/2000/svg" width="142" height="18" fill="none"><mask id="a" width="142" height="18" x="0" y="0" maskUnits="userSpaceOnUse" style="mask-type:luminance"><path fill="#fff" d="M141.5 0H.5v18h141z"/></mask><g fill="#B0B0B5" mask="url(#a)"><path d="M20.417 8.637q-.304 0-.59-.091l-.024-.008-.069-.021a1 1 0 0 1-.186-.085l-.022-.012a1.913 1.913 0 0 1-.642-2.87c.213-.278.499-.493.825-.621l.032-.013a1 1 0 0 1 .226-.071l.061-.01q.192-.04.39-.04c.786 0 1.443-.241 1.9-.698.422-.424.642-1.006.636-1.686V0h-4.807v2.518c.001.626-.355 1.48-1.01 1.697-.416.139-.932-.068-1.375-.017a2.44 2.44 0 0 0-2.146 2.142 3 3 0 0 0 0 .642c.013.17.018.222-.042.391-.118.332-.37.64-.708.867a2 2 0 0 1-1.097.353h-.072A2 2 0 0 1 10.6 8.24c-.339-.227-.59-.535-.708-.867-.06-.17-.056-.22-.042-.39.013-.153.03-.362 0-.643a2.44 2.44 0 0 0-2.147-2.142c-.442-.051-.959.156-1.375.017-.654-.217-1.01-1.071-1.01-1.697V0H.51v2.411c-.005.68.215 1.262.637 1.686.456.457 1.114.699 1.9.699q.198 0 .39.039l.061.01a1 1 0 0 1 .226.07l.032.014a1.913 1.913 0 0 1 .183 3.491l-.022.012a1.2 1.2 0 0 1-.255.106l-.024.008q-.286.09-.59.09C1.524 8.637.5 9.57.5 10.957c0 1.083.497 1.645.913 1.926.508.343 1.12.44 1.708.493l.04.005c.156.02.287.051.438.105l.073.028.012.005c.396.134.726.408.933.772a2 2 0 0 1 .227.757q.016.166.027.325c.005.081.012.172.021.263v2.09h4.773v-2.46a2.38 2.38 0 0 0-.835-1.824l-.016-.014c-.518-.446-1.19-.458-1.682-.466h-.005l-.229-.007-.074-.011-.158-.035-.149-.046-.16-.063a2 2 0 0 1-.464-.293l-.032-.027c-.444-.395-.665-.883-.674-1.49.001-.434.14-.845.403-1.189a2 2 0 0 1 1.022-.703c.408-.12 1.168-.123 1.535-.006a1.7 1.7 0 0 1 1.18 1.518q.003.084-.002.188a2.2 2.2 0 0 0 .1.837 2.44 2.44 0 0 0 2.307 1.65 2.44 2.44 0 0 0 2.307-1.65 2.2 2.2 0 0 0 .1-.837q-.005-.104-.002-.188a1.7 1.7 0 0 1 1.18-1.518c.367-.116 1.127-.113 1.535.006.403.118.766.368 1.022.703.262.344.402.755.403 1.19-.01.606-.23 1.094-.674 1.49l-.032.026q-.21.178-.464.293l-.16.063-.15.046-.157.035-.074.011-.229.007h-.005c-.491.008-1.164.02-1.682.466l-.016.014q-.04.033-.095.084l-.05.047a2.38 2.38 0 0 0-.69 1.693v2.46h4.773v-2.09c.009-.09.015-.182.021-.263q.011-.158.027-.325c.03-.283.111-.552.227-.757.206-.364.537-.638.933-.772l.012-.005.073-.027c.15-.054.282-.086.438-.106l.04-.005c.587-.053 1.2-.15 1.708-.493.416-.28.913-.843.913-1.926 0-1.387-1.023-2.32-2.547-2.32m32.826 9.086.002.002h-2.98V4.89c0-.653-.933-.773-1.1-.142l-3.427 12.975H40.08L36.65 4.75c-.166-.63-1.1-.511-1.1.142v12.833h-2.98V.24h5.89l3.915 15.072c.144.557.939.557 1.083 0L47.354.24h5.89zm13.536-6.21c0 3.817-2.425 6.487-6.282 6.487s-6.26-2.646-6.26-6.488c0-3.818 2.425-6.464 6.26-6.464s6.282 2.646 6.282 6.464m-2.956 0c0-2.715-1.178-4.441-3.326-4.441s-3.327 1.726-3.327 4.44 1.201 4.463 3.327 4.463 3.326-1.726 3.326-4.463m12.448-6.188-3.115 10.292c-.16.527-.91.528-1.07 0l-3.137-10.29h-2.887l3.857 12.4h5.405l3.857-12.4zm14.413 6.118c0 .275-.023.598-.07.92v.001h-8.549a.56.56 0 0 0-.547.67c.38 1.95 1.531 2.942 3.114 2.942s2.402-.713 2.84-1.91h2.934C89.621 16.714 87.52 18 84.61 18c-3.811 0-6.121-2.714-6.121-6.488 0-3.773 2.378-6.464 6.121-6.464s6.075 2.53 6.075 6.395m-3.052-1.757c-.338-1.595-1.458-2.613-3.024-2.613s-2.6.84-3.034 2.6c-.087.35.18.69.543.69h4.969a.56.56 0 0 0 .546-.677m18.297-4.638c-1.676 0-2.771.88-3.425 1.965a.562.562 0 0 1-.97-.007c-.642-1.106-1.756-1.958-3.39-1.958-1.261 0-2.174.482-2.821 1.189-.342.373-.967.125-.967-.38v-.532h-2.864v12.4h2.887v-7.201c0-2.37.855-3.427 2.471-3.427S99.3 8.155 99.3 10.478v7.246h2.887v-7.2c0-2.37.854-3.427 2.471-3.427s2.449 1.058 2.449 3.381v7.246h2.887V9.926h.002c0-2.83-1.294-4.877-4.066-4.877m16.975 6.395c0 .275-.024.598-.07.92v.001h-8.549a.56.56 0 0 0-.548.67c.381 1.95 1.532 2.942 3.114 2.942s2.403-.713 2.841-1.91h2.934c-.786 2.647-2.887 3.934-5.797 3.934-3.811 0-6.121-2.714-6.121-6.488 0-3.773 2.378-6.464 6.121-6.464s6.075 2.53 6.075 6.395m-3.052-1.757c-.338-1.595-1.458-2.613-3.025-2.613s-2.599.84-3.034 2.6c-.086.35.181.69.544.69h4.968a.56.56 0 0 0 .547-.677m10.675-4.637c-1.323 0-2.294.488-2.98 1.216-.35.37-.971.132-.971-.376v-.564h-2.864v12.4h2.887v-7.201c0-2.37.994-3.427 2.633-3.427s2.633 1.034 2.633 3.381v7.246h2.888V9.927c0-2.762-1.363-4.878-4.226-4.878m9.657 10.538.001-.002c-1.062 0-1.687-.345-1.687-1.54V7.998c0-.308.25-.557.559-.557h2.397V5.326h-2.397a.56.56 0 0 1-.559-.556V2.382h-2.887v11.801c0 2.416 1.779 3.543 4.088 3.543h1.801v-2.14z"/></g></svg>