<svg width="25" height="28" viewBox="0 0 25 28" fill="none" xmlns="http://www.w3.org/2000/svg">
<path d="M11.2644 27.5008C12.42 28.1677 13.8424 28.1661 14.9944 27.4956L17.4477 26.0698L8.71764 21.0299C6.0791 19.507 4.45403 16.6917 4.45403 13.6443V3.55957L1.99044 4.97328C0.834872 5.63682 0.121094 6.86861 0.121094 8.20089V16.1166C0.121094 19.1797 1.75482 22.0106 4.40725 23.542L11.2627 27.4989L11.2644 27.5008Z" fill="white"/>
<path d="M14.4774 0.901756C13.0949 1.53064 12.0762 2.81787 11.8198 4.36499C11.7799 4.611 11.7574 4.86221 11.7574 5.11861V11.8475C11.7574 12.622 11.9671 13.367 12.3412 14.015C12.7138 14.6628 13.256 15.2138 13.9265 15.6001L16.0055 16.7973C17.0518 17.4002 18.2664 17.745 19.5605 17.745C21.6118 17.745 23.4621 16.8805 24.7648 15.4962V19.3666C24.7648 20.1375 24.5587 20.8773 24.188 21.5218C23.8137 22.1714 23.2733 22.7241 22.601 23.1122C21.2635 23.8849 19.6142 23.8849 18.2768 23.1122L10.6123 18.6874C8.64247 17.5508 7.42969 15.4477 7.42969 13.1747V4.32687C7.42969 3.55418 7.63583 2.80922 8.00837 2.16301C8.38083 1.51506 8.92138 0.965861 9.5901 0.579515C10.9311 -0.193172 12.5785 -0.193172 13.9161 0.579515L14.4774 0.903491V0.901756Z" fill="white"/>
<path d="M21.5803 5.00415C23.5501 6.14066 24.7645 8.24218 24.7645 10.5169V10.5238C24.7645 13.3322 22.5661 15.6918 19.7595 15.7976C19.2257 15.8166 18.7096 15.7558 18.221 15.626C19.5099 14.9018 20.4333 13.5349 20.4333 11.8457C20.4333 10.704 19.9864 9.62817 19.2137 8.8295C18.9382 8.54364 18.6212 8.29416 18.266 8.0897L13.6992 5.45287V5.13062C13.6992 3.63722 14.9085 2.42969 16.4002 2.42969C16.8593 2.42969 17.2923 2.54403 17.6701 2.74673L21.5803 5.00415Z" fill="white"/>
</svg>
