<svg width="159" height="38" viewBox="0 0 159 38" fill="none" xmlns="http://www.w3.org/2000/svg">
<path fill-rule="evenodd" clip-rule="evenodd" d="M19.2126 1.06923C17.8925 0.310257 16.2659 0.310255 14.9457 1.06923L2.5514 8.19484C1.23123 8.95381 0.417969 10.3564 0.417969 11.8744V26.1257C0.417969 27.6436 1.23122 29.0463 2.5514 29.8052L14.9457 36.9308C16.2659 37.6897 17.8925 37.6897 19.2126 36.9308L31.6069 29.8052C32.9271 29.0463 33.7404 27.6436 33.7404 26.1257V11.8744C33.7404 10.3564 32.9271 8.95381 31.6069 8.19484L19.2126 1.06923ZM3.76609 27.7102C3.4429 27.5244 3.19024 27.249 3.03236 26.9258L16.3463 3.96294V34.9291C16.2831 34.9017 16.221 34.8706 16.1605 34.8357L3.76609 27.7102ZM17.812 34.9291V3.96294L31.126 26.9258C30.9681 27.249 30.7154 27.5244 30.3923 27.7102L17.9979 34.8357C17.9373 34.8706 17.8753 34.9017 17.812 34.9291ZM3.76609 10.2898L14.5951 4.06415L2.84735 24.3258V11.8744C2.84735 11.2208 3.19756 10.6166 3.76609 10.2898ZM31.311 24.3258L19.5632 4.06415L30.3923 10.2898C30.9608 10.6166 31.311 11.2208 31.311 11.8744V24.3258ZM73.3743 28.0592V9.73133H75.9545V28.0592H73.3743ZM121.329 21.7931C121.329 17.9616 123.931 15.4373 127.237 15.4373C128.866 15.4373 130.586 16.2035 131.537 17.3756V9.73823H134.139V28.0588H131.537V26.1881C130.744 27.315 129.25 28.2617 127.213 28.2617C123.931 28.2617 121.329 25.6247 121.329 21.7931ZM131.537 21.8382C131.537 19.1786 129.704 17.6686 127.757 17.6686C125.833 17.6686 123.977 19.111 123.977 21.7931C123.977 24.4752 125.833 26.0304 127.757 26.0304C129.704 26.0304 131.537 24.5203 131.537 21.8382ZM140.109 28.0593V21.5231C140.109 18.8861 141.299 18.0639 143.199 18.0639C143.37 18.0639 143.901 18.0639 144.416 18.2776L145.062 15.6991C144.661 15.466 144.132 15.4377 143.844 15.4377C142.078 15.4377 140.833 16.204 140.109 17.4436V15.6406H137.529V28.0593H140.109ZM151.492 15.4377C148.21 15.4377 145.607 17.9621 145.607 21.7936C145.607 25.6251 148.21 28.2621 151.446 28.2621C153.529 28.2621 155.023 27.2704 155.815 26.2111V28.0593H158.418V15.6406H155.815V17.4436C155.045 16.4294 153.597 15.4377 151.492 15.4377ZM152.034 17.669C153.981 17.669 155.815 19.1791 155.815 21.8387C155.815 24.5207 153.981 26.0308 152.034 26.0308C150.111 26.0308 148.255 24.4756 148.255 21.7936C148.255 19.1115 150.111 17.669 152.034 17.669ZM109.801 20.7343C110.074 18.7734 111.476 17.6014 113.219 17.6014C115.144 17.6014 116.66 18.8185 116.705 20.7343H109.801ZM113.332 28.2621C116.388 28.2621 118.358 26.5266 119.059 24.363H116.275C115.8 25.3321 114.917 26.0985 113.332 26.0985C111.432 26.0985 109.96 24.8588 109.779 22.8078H119.308C119.376 22.3796 119.398 21.9739 119.398 21.5456C119.398 17.8945 116.886 15.4377 113.332 15.4377C109.644 15.4377 107.108 17.9395 107.108 21.8387C107.108 25.7378 109.757 28.2621 113.332 28.2621ZM93.0183 28.0593V9.74067H95.599V17.083C96.4583 16.0462 97.8619 15.4377 99.4689 15.4377C102.253 15.4377 104.426 17.2633 104.426 20.7342V28.0593H101.868V21.1174C101.868 18.841 100.624 17.669 98.7444 17.669C96.8438 17.669 95.599 18.841 95.599 21.1174V28.0593H93.0183ZM88.1633 15.6406L84.5192 25.1067L81.0109 15.6406H78.1363L83.048 27.8564L80.5129 33.8967H83.1838L90.8342 15.6406H88.1633ZM64.4283 28.2621C68.0492 28.2621 70.9826 25.7378 70.9826 21.8387C70.9826 17.9395 68.1408 15.4377 64.5428 15.4377C60.9449 15.4377 58.1031 17.9395 58.1031 21.8387C58.1031 25.7378 60.8302 28.2621 64.4283 28.2621ZM64.4283 26.0308C62.4574 26.0308 60.702 24.6758 60.702 21.8585C60.702 19.0412 62.5261 17.669 64.497 17.669C66.445 17.669 68.3921 19.0214 68.3921 21.8387C68.3921 24.6559 66.3762 26.0308 64.4283 26.0308ZM46.9901 18.1741H51.0781C53.4335 18.1741 54.7625 17.0409 54.7625 15.1961C54.7625 13.2986 53.4335 12.1917 51.0781 12.1917H46.9901V18.1741ZM57.3377 15.1961C57.3377 17.8052 55.8685 20.6251 51.0781 20.6251H46.9901V28.057L44.4099 28.0571V9.74078L51.0781 9.74075C55.445 9.74075 57.3377 12.2181 57.3377 15.1961Z" fill="white"/>
</svg>
