<svg xmlns="http://www.w3.org/2000/svg" width="93" height="20" fill="none"><g clip-path="url(#a)"><mask id="b" width="93" height="20" x="0" y="0" maskUnits="userSpaceOnUse" style="mask-type:luminance"><path fill="#fff" d="M92.5 0H.5v20h92z"/></mask><g fill="#B0B0B5" mask="url(#b)"><path d="M29.145 18.71V6.106h1.892l.165 1.022h.1c.53-.693 1.457-1.187 2.72-1.187 2.321 0 4.209 1.883 4.209 4.685s-1.858 4.685-4.214 4.685c-1.258 0-2.123-.528-2.587-1.121h-.099v4.487h-2.19v.033zm6.896-8.084c0-1.648-1.06-2.674-2.355-2.674s-2.355 1.022-2.355 2.674 1.06 2.674 2.355 2.674c1.296 0 2.355-1.022 2.355-2.674m3.283 0c0-2.74 1.99-4.685 4.607-4.685 2.653 0 4.608 1.982 4.608 4.685 0 2.74-1.991 4.685-4.608 4.685-2.653 0-4.607-1.978-4.607-4.685m7.025 0c0-1.615-1.06-2.674-2.421-2.674-1.325 0-2.422 1.055-2.422 2.674s1.093 2.674 2.422 2.674c1.328 0 2.42-1.055 2.42-2.674m3.781 4.52V2.641h2.19v12.505zm10.344-9.04h2.322L58.85 17.095c-.398 1.088-.928 1.615-2.355 1.615h-2.12v-2.015h1.788c.332 0 .497-.164.597-.428l.198-.593-3.713-9.572h2.322l2.355 6.271h.365l2.123-6.27h.063zm2.753 9.505h2.222c.1.594.696 1.385 2.09 1.385 1.326 0 2.19-.824 2.19-2.08v-1.253h-.099c-.497.527-1.391.989-2.52.989-2.323 0-4.144-1.78-4.144-4.356s1.788-4.355 4.143-4.355c1.192 0 2.09.494 2.653 1.154h.1l.165-.99h1.892v8.81c0 2.41-1.623 3.993-4.376 3.993-3.09 0-4.25-2.011-4.316-3.297m6.466-5.315c0-1.417-.994-2.41-2.29-2.41-1.258 0-2.255.989-2.255 2.41s.993 2.41 2.256 2.41 2.288-.992 2.288-2.41m3.713.33c0-2.74 1.991-4.685 4.608-4.685 2.653 0 4.607 1.982 4.607 4.685 0 2.74-1.991 4.685-4.607 4.685-2.654 0-4.608-1.978-4.608-4.685m7.03 0c0-1.615-1.094-2.674-2.422-2.674-1.325 0-2.422 1.055-2.422 2.674s1.093 2.674 2.422 2.674c1.325 0 2.421-1.055 2.421-2.674m3.713 4.52v-9.04h1.892l.166.857h.1c.363-.396 1.258-1.022 2.62-1.022 2.09 0 3.58 1.483 3.58 3.795v5.443h-2.19v-5.146c0-1.154-.828-2.015-1.957-2.015s-2.024.89-2.024 2.015v5.146h-2.187zm-66.803-1.055 5.37-3.102a.89.89 0 0 0 .463-.791V3.992a.89.89 0 0 0-.463-.79L17.342.098a.93.93 0 0 0-.927 0L11.043 3.2a.89.89 0 0 0-.463.792v11.054l-3.78 2.18-3.78-2.18v-4.322l3.78-2.18 2.488 1.418V7.058L7.264 5.905a1.1 1.1 0 0 0-.464-.132.76.76 0 0 0-.464.132L.964 9.01a.89.89 0 0 0-.464.791v6.205c0 .33.166.627.464.791L6.333 19.9a.93.93 0 0 0 .927 0l5.37-3.103a.89.89 0 0 0 .463-.79V4.951l.066-.033 3.717-2.146 3.78 2.18v4.322l-3.78 2.175-2.488-1.417v2.905l2.024 1.153c.298.165.63.165.931 0"/></g></g><defs><clipPath id="a"><path fill="#fff" d="M.5 0h92v20H.5z"/></clipPath></defs></svg>