<svg width="82" height="28" viewBox="0 0 82 28" fill="none" xmlns="http://www.w3.org/2000/svg">
<path d="M16.6951 0H0.417969V4.66661H16.6951C17.9792 4.66661 19.0204 5.71147 19.0204 6.99997V9.33334H7.53659C3.60507 9.33334 0.417969 12.5204 0.417969 16.452V27.9999H5.06858V17.0263L16.8381 27.9993H23.6721L8.6553 14H19.0204V9.35604H23.6721V6.99997C23.6721 3.13397 20.5474 0 16.6951 0Z" fill="white"/>
<path d="M31.7409 0H27.0703V27.9999H31.7409V0Z" fill="white"/>
<path d="M35.1602 9.27816C35.1602 13.1441 38.2847 16.2782 42.1372 16.2782H50.0137C51.2977 16.2782 52.3389 17.3301 52.3389 18.6188V20.9999C52.3389 22.2886 51.2976 23.3333 50.0135 23.3333H35.1602V27.9999H50.0135C53.8659 27.9999 56.9906 24.8659 56.9906 20.9999L56.9907 18.6188C56.9907 14.7529 53.866 11.6188 50.0137 11.6188H42.1372C40.853 11.6188 39.8119 10.5668 39.8119 9.27816L39.812 6.99997C39.812 5.71147 40.8531 4.66661 42.1373 4.66661H55.5669V0H42.1373C38.2848 0 35.1603 3.13397 35.1603 6.99997L35.1602 9.27816Z" fill="white"/>
<path d="M59.5939 6.99997L59.5938 9.35604H64.2456V6.99997C64.2456 5.71147 65.2869 4.66661 66.5709 4.66661H81.5855V0H66.5709C62.7184 0 59.5939 3.13397 59.5939 6.99997Z" fill="white"/>
<path d="M66.7309 11.6191H80.0029V16.2785L66.7309 16.2857C65.4469 16.2857 64.4058 17.3304 64.4058 18.6191V21.0003C64.4058 22.2889 65.447 23.3336 66.731 23.3336H81.5845V28.0003H66.731C62.8786 28.0003 59.754 24.8662 59.754 21.0003L59.7539 18.6191C59.7539 14.753 62.8786 11.6191 66.7309 11.6191Z" fill="white"/>
</svg>
