<svg width="90" height="28" viewBox="0 0 90 28" fill="none" xmlns="http://www.w3.org/2000/svg">
<path d="M43.1468 13.4129C42.6173 13.1566 41.941 13.0268 41.1383 13.0268H38.8542C38.2457 13.0268 37.7591 12.8574 37.4113 12.5311L37.3944 12.5142C37.0546 12.1563 36.8908 11.7532 36.8908 11.2824C36.8908 10.8116 37.0602 10.3769 37.3944 10.0246C37.7308 9.66674 38.1926 9.48608 38.7616 9.48608H44.382V8.26562H38.5528C37.9194 8.26562 37.3752 8.41238 36.8886 8.71158C36.402 8.99608 36.0339 9.36303 35.7652 9.83044C35.4965 10.299 35.3633 10.7946 35.3633 11.3501C35.3633 12.0016 35.5021 12.5537 35.7787 12.994C36.0757 13.4423 36.4697 13.7776 36.9812 14.0226C37.5129 14.2484 38.1441 14.3636 38.8542 14.3636H41.2568C41.661 14.3636 42.0212 14.4561 42.326 14.6402C42.6376 14.8061 42.8691 15.0432 43.0226 15.3447C43.1728 15.6269 43.2428 15.9137 43.2428 16.2502C43.2428 16.5866 43.1603 16.9242 42.9966 17.2313C42.8329 17.5418 42.5812 17.8004 42.2526 18.0036C41.9444 18.1865 41.5673 18.2768 41.1405 18.2768H35.7325V19.4951H41.3979C42.0765 19.4951 42.6489 19.3426 43.149 19.0299C43.6695 18.7138 44.0602 18.3197 44.3458 17.8173C44.6348 17.3013 44.7726 16.7661 44.7726 16.179C44.7726 15.4971 44.6281 14.9134 44.3481 14.4505C44.085 13.9944 43.691 13.6523 43.1479 13.4107L43.1445 13.4129H43.1468Z" fill="#F5F5F5"/>
<path d="M56.5686 8.77693C55.6916 8.25193 54.6616 7.98438 53.5101 7.98438C52.3586 7.98438 51.3311 8.25193 50.4481 8.77918C49.5676 9.28954 48.8608 10.0031 48.346 10.8995C47.8311 11.7768 47.5703 12.7805 47.5703 13.8802C47.5703 14.9799 47.8311 15.9949 48.346 16.8857C48.8608 17.7653 49.5687 18.4788 50.4481 19.0061C51.2881 19.4972 52.2706 19.7557 53.3636 19.7761H53.5101C54.6616 19.7783 55.6891 19.522 56.5686 19.0095C57.4661 18.4822 58.1731 17.7686 58.6741 16.8925C59.1891 15.9983 59.4501 14.9867 59.4501 13.8847C59.4501 12.7828 59.1891 11.7531 58.6741 10.8758C58.1731 9.99854 57.4661 9.29404 56.5686 8.78148V8.77808V8.77693ZM57.8966 13.8836C57.8966 14.7518 57.7126 15.55 57.3476 16.258C56.9831 16.9546 56.4681 17.5157 55.8201 17.9301C55.1741 18.3422 54.3736 18.559 53.5081 18.559C52.6421 18.559 51.8661 18.3478 51.1956 17.9301C50.5476 17.5157 50.0328 16.9523 49.6647 16.2557C49.3023 15.5512 49.116 14.753 49.116 13.8847C49.116 13.0165 49.3 12.2273 49.6647 11.5363C50.0294 10.8227 50.5476 10.2503 51.1991 9.83599C51.8661 9.41824 52.6451 9.21049 53.5081 9.21049C54.3706 9.21049 55.1631 9.42164 55.8201 9.83939C56.4716 10.2571 56.9866 10.8261 57.3511 11.5341C57.7136 12.2273 57.8996 13.0165 57.8996 13.8859H57.8966V13.8836Z" fill="#F5F5F5"/>
<path d="M70.7779 8.62279C70.0024 8.20278 69.0889 7.98828 68.0584 7.98828C67.0274 7.98828 66.1254 8.20278 65.3329 8.62844C64.5379 9.03714 63.9294 9.60169 63.4734 10.3457C63.0374 11.0841 62.8164 11.9614 62.8164 12.9538V19.5H64.3449V12.9764C64.3449 12.2098 64.5179 11.5357 64.8574 10.9769C65.2084 10.4078 65.6724 9.96525 66.2359 9.657C66.8074 9.35554 67.4194 9.20314 68.0584 9.20314C68.6974 9.20314 69.3034 9.35554 69.8579 9.657C70.4324 9.96185 70.8969 10.4045 71.2389 10.9791C71.5924 11.5369 71.7704 12.2053 71.7704 12.9719V19.4955H73.3014V12.9493C73.3014 11.9603 73.0724 11.0796 72.6219 10.3412C72.1804 9.59379 71.5774 9.03264 70.7794 8.61829L70.7769 8.62169L70.7779 8.62279Z" fill="#F5F5F5"/>
<path d="M78.8718 8.26465H77.3203V19.4975H78.8718V8.26465Z" fill="#F5F5F5"/>
<path d="M85.9591 10.0858C86.6411 9.68836 87.4131 9.48516 88.2601 9.48516H89.4206V8.26465H88.3311C87.1626 8.26465 86.1036 8.5187 85.1926 9.0177C84.2816 9.51451 83.5511 10.1987 83.0191 11.0477C82.4931 11.8765 82.2266 12.8294 82.2266 13.8816C82.2266 14.9339 82.4931 15.8913 83.0191 16.7381C83.5486 17.5725 84.2816 18.2465 85.1926 18.7455C85.9906 19.1791 87.5531 19.4986 88.2521 19.4986H89.4206V18.2781H88.2601C87.4166 18.2781 86.6411 18.0839 85.9571 17.7001C85.2941 17.3026 84.7546 16.7641 84.3546 16.1013C83.9731 15.4363 83.7781 14.6889 83.7781 13.8794C83.7781 13.0698 83.9731 12.3202 84.3581 11.6552C84.7546 10.9958 85.2951 10.4652 85.9601 10.0847V10.0881L85.9591 10.0858Z" fill="#F5F5F5"/>
<path d="M18.1414 17.3964C12.6873 18.984 8.17545 21.2996 5.35125 24.0128L5.22656 24.1332C5.97755 24.822 6.80105 25.438 7.6912 25.9616L7.8826 25.7348C8.6539 24.822 9.4803 23.94 10.3415 23.1084C12.6525 20.8768 15.2969 18.9448 18.1443 17.3936L18.1414 17.3964Z" fill="url(#paint0_radial_1202_2270)"/>
<path d="M18.1414 17.3964C12.6873 18.984 8.17545 21.2996 5.35125 24.0128L5.22656 24.1332C5.97755 24.822 6.80105 25.438 7.6912 25.9616L7.8826 25.7348C8.6539 24.822 9.4803 23.94 10.3415 23.1084C12.6525 20.8768 15.2969 18.9448 18.1443 17.3936L18.1414 17.3964Z" fill="#F5F5F5"/>
<path d="M0.765625 15.0449C0.983094 17.8757 2.06754 20.4714 3.76961 22.5826L3.8479 22.507C5.59635 20.8354 7.87255 19.315 10.6184 17.9905C13.0252 16.8285 15.7885 15.8317 18.7664 15.0449H0.765625Z" fill="url(#paint1_radial_1202_2270)"/>
<path d="M0.765625 15.0449C0.983094 17.8757 2.06754 20.4714 3.76961 22.5826L3.8479 22.507C5.59635 20.8354 7.87255 19.315 10.6184 17.9905C13.0252 16.8285 15.7885 15.8317 18.7664 15.0449H0.765625Z" fill="#F5F5F5"/>
<path d="M11.8678 3.41043C16.7478 8.12285 22.8891 11.2393 29.6249 12.4209C28.813 5.43483 22.6775 0 15.2226 0C13.2538 0 11.3777 0.380803 9.66406 1.06681C10.36 1.87881 11.1023 2.66842 11.8678 3.41043Z" fill="url(#paint2_radial_1202_2270)"/>
<path d="M11.8678 3.41043C16.7478 8.12285 22.8891 11.2393 29.6249 12.4209C28.813 5.43483 22.6775 0 15.2226 0C13.2538 0 11.3777 0.380803 9.66406 1.06681C10.36 1.87881 11.1023 2.66842 11.8678 3.41043Z" fill="#F5F5F5"/>
<path d="M5.35125 3.98788C8.17545 6.70393 12.6873 9.01674 18.1414 10.6072C15.294 9.05314 12.6496 7.12393 10.3386 4.89231C9.4803 4.06348 8.6539 3.18147 7.8797 2.26586L7.68835 2.03906C6.79815 2.56267 5.97465 3.17867 5.22656 3.86748L5.35125 3.98788Z" fill="url(#paint3_radial_1202_2270)"/>
<path d="M5.35125 3.98788C8.17545 6.70393 12.6873 9.01674 18.1414 10.6072C15.294 9.05314 12.6496 7.12393 10.3386 4.89231C9.4803 4.06348 8.6539 3.18147 7.8797 2.26586L7.68835 2.03906C6.79815 2.56267 5.97465 3.17867 5.22656 3.86748L5.35125 3.98788Z" fill="#F5F5F5"/>
<path d="M11.8678 24.5894C11.0994 25.3314 10.3571 26.1211 9.66406 26.9331C11.3748 27.6191 13.2538 27.9999 15.2226 27.9999C22.6775 27.9999 28.813 22.565 29.6278 15.5762C22.892 16.7578 16.7507 19.8742 11.8707 24.5866L11.8678 24.5894Z" fill="url(#paint4_radial_1202_2270)"/>
<path d="M11.8678 24.5894C11.0994 25.3314 10.3571 26.1211 9.66406 26.9331C11.3748 27.6191 13.2538 27.9999 15.2226 27.9999C22.6775 27.9999 28.813 22.565 29.6278 15.5762C22.892 16.7578 16.7507 19.8742 11.8707 24.5866L11.8678 24.5894Z" fill="#F5F5F5"/>
<path d="M10.6184 10.01C7.87255 8.6856 5.59635 7.16518 3.8479 5.49357L3.76961 5.41797C2.06754 7.52919 0.983094 10.1248 0.765625 12.9556H18.7635C15.7856 12.1688 13.0252 11.172 10.6155 10.0072L10.6184 10.01Z" fill="url(#paint5_radial_1202_2270)"/>
<path d="M10.6184 10.01C7.87255 8.6856 5.59635 7.16518 3.8479 5.49357L3.76961 5.41797C2.06754 7.52919 0.983094 10.1248 0.765625 12.9556H18.7635C15.7856 12.1688 13.0252 11.172 10.6155 10.0072L10.6184 10.01Z" fill="#F5F5F5"/>
<defs>
<radialGradient id="paint0_radial_1202_2270" cx="0" cy="0" r="1" gradientUnits="userSpaceOnUse" gradientTransform="translate(15.1969 13.9999) rotate(90) scale(14.0001 14.4299)">
<stop stop-color="#1C294B"/>
<stop offset="0.317213" stop-color="#FF4433"/>
<stop offset="0.597213" stop-color="#FE9A4C"/>
<stop offset="1" stop-color="#E0E0E0"/>
</radialGradient>
<radialGradient id="paint1_radial_1202_2270" cx="0" cy="0" r="1" gradientUnits="userSpaceOnUse" gradientTransform="translate(15.1955 14.0005) rotate(90) scale(14.0001 14.4299)">
<stop stop-color="#1C294B"/>
<stop offset="0.317213" stop-color="#FF4433"/>
<stop offset="0.597213" stop-color="#FE9A4C"/>
<stop offset="1" stop-color="#E0E0E0"/>
</radialGradient>
<radialGradient id="paint2_radial_1202_2270" cx="0" cy="0" r="1" gradientUnits="userSpaceOnUse" gradientTransform="translate(15.198 14.0001) rotate(90) scale(14.0001 14.4299)">
<stop stop-color="#1C294B"/>
<stop offset="0.317213" stop-color="#FF4433"/>
<stop offset="0.597213" stop-color="#FE9A4C"/>
<stop offset="1" stop-color="#E0E0E0"/>
</radialGradient>
<radialGradient id="paint3_radial_1202_2270" cx="0" cy="0" r="1" gradientUnits="userSpaceOnUse" gradientTransform="translate(15.1969 14.0007) rotate(90) scale(14.0001 14.4299)">
<stop stop-color="#1C294B"/>
<stop offset="0.317213" stop-color="#FF4433"/>
<stop offset="0.597213" stop-color="#FE9A4C"/>
<stop offset="1" stop-color="#E0E0E0"/>
</radialGradient>
<radialGradient id="paint4_radial_1202_2270" cx="0" cy="0" r="1" gradientUnits="userSpaceOnUse" gradientTransform="translate(15.198 13.9998) rotate(90) scale(14.0001 14.4299)">
<stop stop-color="#1C294B"/>
<stop offset="0.317213" stop-color="#FF4433"/>
<stop offset="0.597213" stop-color="#FE9A4C"/>
<stop offset="1" stop-color="#E0E0E0"/>
</radialGradient>
<radialGradient id="paint5_radial_1202_2270" cx="0" cy="0" r="1" gradientUnits="userSpaceOnUse" gradientTransform="translate(15.1955 14) rotate(90) scale(14.0001 14.4299)">
<stop stop-color="#1C294B"/>
<stop offset="0.317213" stop-color="#FF4433"/>
<stop offset="0.597213" stop-color="#FE9A4C"/>
<stop offset="1" stop-color="#E0E0E0"/>
</radialGradient>
</defs>
</svg>
